G04 #@! TF.GenerationSoftware,KiCad,Pcbnew,8.0.2-8.0.2-0~ubuntu22.04.1*
G04 #@! TF.CreationDate,2024-06-07T15:14:32-07:00*
G04 #@! TF.ProjectId,pifire-relay-pwm-module-SSR,70696669-7265-42d7-9265-6c61792d7077,rev?*
G04 #@! TF.SameCoordinates,Original*
G04 #@! TF.FileFunction,Legend,Bot*
G04 #@! TF.FilePolarity,Positive*
%FSLAX46Y46*%
G04 Gerber Fmt 4.6, Leading zero omitted, Abs format (unit mm)*
G04 Created by KiCad (PCBNEW 8.0.2-8.0.2-0~ubuntu22.04.1) date 2024-06-07 15:14:32*
%MOMM*%
%LPD*%
G01*
G04 APERTURE LIST*
G04 Aperture macros list*
%AMRoundRect*
0 Rectangle with rounded corners*
0 $1 Rounding radius*
0 $2 $3 $4 $5 $6 $7 $8 $9 X,Y pos of 4 corners*
0 Add a 4 corners polygon primitive as box body*
4,1,4,$2,$3,$4,$5,$6,$7,$8,$9,$2,$3,0*
0 Add four circle primitives for the rounded corners*
1,1,$1+$1,$2,$3*
1,1,$1+$1,$4,$5*
1,1,$1+$1,$6,$7*
1,1,$1+$1,$8,$9*
0 Add four rect primitives between the rounded corners*
20,1,$1+$1,$2,$3,$4,$5,0*
20,1,$1+$1,$4,$5,$6,$7,0*
20,1,$1+$1,$6,$7,$8,$9,0*
20,1,$1+$1,$8,$9,$2,$3,0*%
G04 Aperture macros list end*
%ADD10C,0.100000*%
%ADD11C,1.651000*%
%ADD12C,1.600000*%
%ADD13O,1.600000X1.600000*%
%ADD14RoundRect,0.102000X0.754000X0.754000X-0.754000X0.754000X-0.754000X-0.754000X0.754000X-0.754000X0*%
%ADD15C,1.712000*%
%ADD16C,3.200000*%
%ADD17R,1.500000X1.050000*%
%ADD18O,1.500000X1.050000*%
%ADD19C,2.000000*%
%ADD20C,1.100000*%
%ADD21R,1.730000X2.030000*%
%ADD22O,1.730000X2.030000*%
%ADD23RoundRect,0.250000X0.725000X-0.600000X0.725000X0.600000X-0.725000X0.600000X-0.725000X-0.600000X0*%
%ADD24O,1.950000X1.700000*%
%ADD25R,3.000000X3.000000*%
%ADD26C,3.000000*%
%ADD27R,1.050000X1.500000*%
%ADD28O,1.050000X1.500000*%
%ADD29R,1.600000X1.600000*%
G04 APERTURE END LIST*
D10*
G36*
X59995000Y-35139218D02*
G01*
X58470924Y-35139218D01*
X58470924Y-35324598D01*
X59046116Y-35324598D01*
X58986104Y-35375642D01*
X58938508Y-35431502D01*
X58898672Y-35502761D01*
X58875737Y-35580577D01*
X58869528Y-35652494D01*
X58875243Y-35732307D01*
X58892386Y-35804501D01*
X58917889Y-35863520D01*
X58962990Y-35927984D01*
X59020306Y-35975519D01*
X59050879Y-35991748D01*
X59125394Y-36015412D01*
X59203940Y-36026790D01*
X59277545Y-36030430D01*
X59297442Y-36030582D01*
X59995000Y-36030582D01*
X59995000Y-35844836D01*
X59316859Y-35844836D01*
X59239136Y-35838932D01*
X59164947Y-35816263D01*
X59119023Y-35784385D01*
X59076697Y-35722205D01*
X59058619Y-35647262D01*
X59057107Y-35614026D01*
X59066284Y-35538920D01*
X59093815Y-35468160D01*
X59098872Y-35459054D01*
X59144548Y-35400144D01*
X59207643Y-35357360D01*
X59212079Y-35355373D01*
X59285038Y-35334336D01*
X59364208Y-35325680D01*
X59409549Y-35324598D01*
X59995000Y-35324598D01*
X59995000Y-35139218D01*
G37*
G36*
X59836730Y-36712020D02*
G01*
X60000495Y-36738764D01*
X60013959Y-36664576D01*
X60018447Y-36598813D01*
X60013307Y-36524154D01*
X59992871Y-36452850D01*
X59987306Y-36442009D01*
X59938071Y-36383443D01*
X59905607Y-36363974D01*
X59833656Y-36347670D01*
X59758408Y-36342346D01*
X59692749Y-36341259D01*
X59080554Y-36341259D01*
X59080554Y-36204972D01*
X58892976Y-36204972D01*
X58892976Y-36341259D01*
X58621866Y-36341259D01*
X58510858Y-36525540D01*
X58892976Y-36525540D01*
X58892976Y-36712020D01*
X59080554Y-36712020D01*
X59080554Y-36525540D01*
X59687254Y-36525540D01*
X59762793Y-36529643D01*
X59783974Y-36535066D01*
X59818412Y-36566939D01*
X59830868Y-36630687D01*
X59836020Y-36705777D01*
X59836730Y-36712020D01*
G37*
G36*
X59836730Y-37295272D02*
G01*
X60000495Y-37322016D01*
X60013959Y-37247827D01*
X60018447Y-37182065D01*
X60013307Y-37107405D01*
X59992871Y-37036102D01*
X59987306Y-37025261D01*
X59938071Y-36966695D01*
X59905607Y-36947226D01*
X59833656Y-36930922D01*
X59758408Y-36925598D01*
X59692749Y-36924511D01*
X59080554Y-36924511D01*
X59080554Y-36788224D01*
X58892976Y-36788224D01*
X58892976Y-36924511D01*
X58621866Y-36924511D01*
X58510858Y-37108792D01*
X58892976Y-37108792D01*
X58892976Y-37295272D01*
X59080554Y-37295272D01*
X59080554Y-37108792D01*
X59687254Y-37108792D01*
X59762793Y-37112895D01*
X59783974Y-37118318D01*
X59818412Y-37150191D01*
X59830868Y-37213939D01*
X59836020Y-37289029D01*
X59836730Y-37295272D01*
G37*
G36*
X60417051Y-37659071D02*
G01*
X59848454Y-37659071D01*
X59866469Y-37671299D01*
X59923299Y-37720586D01*
X59970453Y-37779972D01*
X59981702Y-37798765D01*
X60009261Y-37869140D01*
X60018447Y-37946667D01*
X60017816Y-37970329D01*
X60006596Y-38047666D01*
X59981351Y-38122642D01*
X59946639Y-38188101D01*
X59922556Y-38222709D01*
X59871496Y-38278241D01*
X59810525Y-38325079D01*
X59739644Y-38363224D01*
X59669943Y-38389670D01*
X59596029Y-38408561D01*
X59517902Y-38419895D01*
X59435561Y-38423674D01*
X59377511Y-38421754D01*
X59302876Y-38413225D01*
X59222688Y-38395473D01*
X59146500Y-38369085D01*
X59122292Y-38358386D01*
X59055928Y-38320725D01*
X58993202Y-38269091D01*
X58942069Y-38207152D01*
X58929105Y-38186801D01*
X58895102Y-38114730D01*
X58875266Y-38036148D01*
X58869528Y-37959856D01*
X58870353Y-37942271D01*
X59057107Y-37942271D01*
X59068363Y-38020443D01*
X59102130Y-38090736D01*
X59152362Y-38147801D01*
X59205988Y-38185468D01*
X59280660Y-38214979D01*
X59359783Y-38229777D01*
X59438859Y-38233897D01*
X59521663Y-38229672D01*
X59603975Y-38214496D01*
X59673143Y-38188284D01*
X59735247Y-38145603D01*
X59741130Y-38140073D01*
X59789688Y-38080954D01*
X59821530Y-38007906D01*
X59830868Y-37934211D01*
X59819959Y-37854831D01*
X59787231Y-37783936D01*
X59738545Y-37726849D01*
X59686063Y-37689503D01*
X59611913Y-37660242D01*
X59532572Y-37645571D01*
X59452780Y-37641486D01*
X59372711Y-37645851D01*
X59291979Y-37661530D01*
X59222742Y-37688613D01*
X59158590Y-37732711D01*
X59105073Y-37792374D01*
X59069099Y-37864119D01*
X59057107Y-37942271D01*
X58870353Y-37942271D01*
X58871357Y-37920847D01*
X58887869Y-37843927D01*
X58921552Y-37777407D01*
X58954725Y-37736378D01*
X59011757Y-37685459D01*
X59076891Y-37642585D01*
X58892976Y-37642585D01*
X58892976Y-37473691D01*
X60417051Y-37473691D01*
X60417051Y-37659071D01*
G37*
G36*
X59666737Y-38567288D02*
G01*
X59643290Y-38750837D01*
X59714656Y-38774890D01*
X59773067Y-38824161D01*
X59782508Y-38836933D01*
X59813819Y-38903634D01*
X59828554Y-38981627D01*
X59830868Y-39034403D01*
X59826539Y-39107683D01*
X59807967Y-39183798D01*
X59786538Y-39223813D01*
X59731798Y-39273878D01*
X59682491Y-39285729D01*
X59615034Y-39254817D01*
X59598227Y-39230774D01*
X59572730Y-39158341D01*
X59554641Y-39085884D01*
X59544738Y-39041364D01*
X59525332Y-38969244D01*
X59503994Y-38896240D01*
X59478621Y-38819997D01*
X59453147Y-38758531D01*
X59413486Y-38696901D01*
X59358387Y-38647056D01*
X59345802Y-38639096D01*
X59278434Y-38609907D01*
X59204788Y-38598588D01*
X59194494Y-38598429D01*
X59117511Y-38607839D01*
X59054909Y-38631769D01*
X58992603Y-38674301D01*
X58947930Y-38722993D01*
X58911036Y-38789339D01*
X58892609Y-38840963D01*
X58876043Y-38913364D01*
X58869619Y-38990435D01*
X58869528Y-39001064D01*
X58873142Y-39078551D01*
X58885464Y-39156597D01*
X58906531Y-39227110D01*
X58940652Y-39297826D01*
X58987134Y-39355047D01*
X59006182Y-39370725D01*
X59074334Y-39407986D01*
X59148635Y-39429990D01*
X59174344Y-39434839D01*
X59197791Y-39253489D01*
X59129378Y-39222165D01*
X59094476Y-39181681D01*
X59066449Y-39110423D01*
X59057435Y-39034452D01*
X59057107Y-39014619D01*
X59061306Y-38935373D01*
X59078797Y-38859558D01*
X59092644Y-38832170D01*
X59147049Y-38782912D01*
X59175443Y-38777581D01*
X59230031Y-38800296D01*
X59269379Y-38865426D01*
X59271430Y-38871371D01*
X59289750Y-38942537D01*
X59307558Y-39018568D01*
X59311364Y-39035136D01*
X59333996Y-39115511D01*
X59357587Y-39193415D01*
X59381225Y-39263266D01*
X59399658Y-39309542D01*
X59438786Y-39375295D01*
X59491599Y-39426235D01*
X59499675Y-39431908D01*
X59568159Y-39463727D01*
X59644715Y-39475849D01*
X59662707Y-39476238D01*
X59738288Y-39467289D01*
X59810240Y-39440443D01*
X59842226Y-39422016D01*
X59900065Y-39374824D01*
X59947189Y-39314030D01*
X59972651Y-39265945D01*
X59998724Y-39192720D01*
X60013035Y-39120592D01*
X60018402Y-39043169D01*
X60018447Y-39035136D01*
X60015330Y-38958731D01*
X60003814Y-38878579D01*
X59980264Y-38798826D01*
X59945631Y-38731713D01*
X59929787Y-38709804D01*
X59873134Y-38653354D01*
X59802919Y-38609714D01*
X59729119Y-38581675D01*
X59666737Y-38567288D01*
G37*
G36*
X59080554Y-39742219D02*
G01*
X58892976Y-39742219D01*
X58892976Y-39953611D01*
X59080554Y-39953611D01*
X59080554Y-39742219D01*
G37*
G36*
X59995000Y-39742219D02*
G01*
X59807421Y-39742219D01*
X59807421Y-39953611D01*
X59995000Y-39953611D01*
X59995000Y-39742219D01*
G37*
G36*
X59995000Y-40134961D02*
G01*
X58470924Y-40572766D01*
X58470924Y-40721144D01*
X59995000Y-40284438D01*
X59995000Y-40134961D01*
G37*
G36*
X59995000Y-40718213D02*
G01*
X58470924Y-41156018D01*
X58470924Y-41304396D01*
X59995000Y-40867690D01*
X59995000Y-40718213D01*
G37*
G36*
X59466860Y-41370091D02*
G01*
X59548905Y-41377325D01*
X59626365Y-41393241D01*
X59699240Y-41417837D01*
X59767530Y-41451115D01*
X59831235Y-41493073D01*
X59886889Y-41543078D01*
X59937266Y-41610435D01*
X59971970Y-41687504D01*
X59989242Y-41761294D01*
X59995000Y-41842219D01*
X59993763Y-41875697D01*
X59981261Y-41949731D01*
X59950486Y-42027343D01*
X59909133Y-42089130D01*
X59854316Y-42145202D01*
X59921758Y-42144929D01*
X59999066Y-42141924D01*
X60073035Y-42131646D01*
X60083557Y-42128401D01*
X60152980Y-42092745D01*
X60205659Y-42037124D01*
X60230582Y-41987629D01*
X60248305Y-41913029D01*
X60252920Y-41838189D01*
X60251452Y-41795178D01*
X60239705Y-41719821D01*
X60211154Y-41649877D01*
X60182647Y-41616802D01*
X60112236Y-41586863D01*
X60088789Y-41406612D01*
X60151755Y-41409479D01*
X60226012Y-41426928D01*
X60296305Y-41465168D01*
X60352571Y-41523115D01*
X60363218Y-41538475D01*
X60398939Y-41605783D01*
X60423669Y-41682480D01*
X60436291Y-41757290D01*
X60440498Y-41839288D01*
X60438309Y-41899283D01*
X60428577Y-41973586D01*
X60408324Y-42049404D01*
X60378217Y-42116992D01*
X60370255Y-42130859D01*
X60325168Y-42193070D01*
X60271280Y-42243402D01*
X60208590Y-42281856D01*
X60163192Y-42299536D01*
X60086233Y-42317419D01*
X60003491Y-42327732D01*
X59921128Y-42332609D01*
X59844424Y-42333879D01*
X58892976Y-42333879D01*
X58892976Y-42162787D01*
X59033660Y-42162787D01*
X58995191Y-42130307D01*
X58940214Y-42068342D01*
X58900944Y-41999855D01*
X58877382Y-41924847D01*
X58870834Y-41856873D01*
X59057107Y-41856873D01*
X59057476Y-41872438D01*
X59070399Y-41945968D01*
X59101783Y-42012343D01*
X59151629Y-42071563D01*
X59204408Y-42110672D01*
X59277415Y-42141314D01*
X59354426Y-42156678D01*
X59431165Y-42160956D01*
X59489427Y-42158836D01*
X59572117Y-42146625D01*
X59649651Y-42119916D01*
X59716563Y-42074127D01*
X59722153Y-42068683D01*
X59768292Y-42009836D01*
X59798548Y-41935848D01*
X59807421Y-41860170D01*
X59807332Y-41852153D01*
X59796642Y-41776619D01*
X59764303Y-41703284D01*
X59716196Y-41645481D01*
X59663692Y-41608135D01*
X59588585Y-41578875D01*
X59507567Y-41564203D01*
X59425669Y-41560118D01*
X59370740Y-41562229D01*
X59292006Y-41574388D01*
X59216896Y-41600985D01*
X59150163Y-41646580D01*
X59144438Y-41652043D01*
X59097183Y-41710604D01*
X59066195Y-41783285D01*
X59057107Y-41856873D01*
X58870834Y-41856873D01*
X58869528Y-41843318D01*
X58870662Y-41807632D01*
X58881500Y-41731607D01*
X58903815Y-41661495D01*
X58942069Y-41590526D01*
X58961154Y-41564394D01*
X59017182Y-41506026D01*
X59077763Y-41461999D01*
X59147965Y-41426029D01*
X59207323Y-41404045D01*
X59287092Y-41383714D01*
X59361258Y-41373135D01*
X59438492Y-41369609D01*
X59466860Y-41370091D01*
G37*
G36*
X58658503Y-42609752D02*
G01*
X58470924Y-42609752D01*
X58470924Y-42795132D01*
X58658503Y-42795132D01*
X58658503Y-42609752D01*
G37*
G36*
X59995000Y-42609752D02*
G01*
X58892976Y-42609752D01*
X58892976Y-42795132D01*
X59995000Y-42795132D01*
X59995000Y-42609752D01*
G37*
G36*
X59836730Y-43479501D02*
G01*
X60000495Y-43506245D01*
X60013959Y-43432056D01*
X60018447Y-43366294D01*
X60013307Y-43291634D01*
X59992871Y-43220331D01*
X59987306Y-43209490D01*
X59938071Y-43150924D01*
X59905607Y-43131454D01*
X59833656Y-43115151D01*
X59758408Y-43109827D01*
X59692749Y-43108740D01*
X59080554Y-43108740D01*
X59080554Y-42972452D01*
X58892976Y-42972452D01*
X58892976Y-43108740D01*
X58621866Y-43108740D01*
X58510858Y-43293021D01*
X58892976Y-43293021D01*
X58892976Y-43479501D01*
X59080554Y-43479501D01*
X59080554Y-43293021D01*
X59687254Y-43293021D01*
X59762793Y-43297123D01*
X59783974Y-43302547D01*
X59818412Y-43334420D01*
X59830868Y-43398168D01*
X59836020Y-43473258D01*
X59836730Y-43479501D01*
G37*
G36*
X59995000Y-43657920D02*
G01*
X58470924Y-43657920D01*
X58470924Y-43843300D01*
X59046116Y-43843300D01*
X58986104Y-43894344D01*
X58938508Y-43950204D01*
X58898672Y-44021463D01*
X58875737Y-44099279D01*
X58869528Y-44171196D01*
X58875243Y-44251009D01*
X58892386Y-44323203D01*
X58917889Y-44382222D01*
X58962990Y-44446686D01*
X59020306Y-44494221D01*
X59050879Y-44510450D01*
X59125394Y-44534114D01*
X59203940Y-44545492D01*
X59277545Y-44549133D01*
X59297442Y-44549284D01*
X59995000Y-44549284D01*
X59995000Y-44363538D01*
X59316859Y-44363538D01*
X59239136Y-44357634D01*
X59164947Y-44334965D01*
X59119023Y-44303087D01*
X59076697Y-44240907D01*
X59058619Y-44165964D01*
X59057107Y-44132728D01*
X59066284Y-44057622D01*
X59093815Y-43986862D01*
X59098872Y-43977756D01*
X59144548Y-43918846D01*
X59207643Y-43876062D01*
X59212079Y-43874075D01*
X59285038Y-43853038D01*
X59364208Y-43844382D01*
X59409549Y-43843300D01*
X59995000Y-43843300D01*
X59995000Y-43657920D01*
G37*
G36*
X59995000Y-45542864D02*
G01*
X59805589Y-45542864D01*
X59866910Y-45500671D01*
X59926777Y-45444137D01*
X59971676Y-45381162D01*
X60001609Y-45311748D01*
X60016576Y-45235893D01*
X60018447Y-45195551D01*
X60012279Y-45119021D01*
X59993777Y-45046604D01*
X59981078Y-45014567D01*
X59944733Y-44949431D01*
X59894266Y-44895255D01*
X59887288Y-44890003D01*
X59820208Y-44853619D01*
X59749169Y-44832850D01*
X59672582Y-44823988D01*
X59596607Y-44821593D01*
X59574780Y-44821493D01*
X58892976Y-44821493D01*
X58892976Y-45007240D01*
X59486486Y-45007240D01*
X59566084Y-45008349D01*
X59642604Y-45013107D01*
X59677728Y-45018597D01*
X59745052Y-45048242D01*
X59790202Y-45092602D01*
X59821933Y-45160486D01*
X59830868Y-45232920D01*
X59821691Y-45308896D01*
X59794160Y-45380203D01*
X59789103Y-45389357D01*
X59743347Y-45448632D01*
X59679988Y-45491096D01*
X59675530Y-45493039D01*
X59599966Y-45513825D01*
X59523179Y-45521992D01*
X59466336Y-45523447D01*
X58892976Y-45523447D01*
X58892976Y-45708827D01*
X59995000Y-45708827D01*
X59995000Y-45542864D01*
G37*
G36*
X59995000Y-46164951D02*
G01*
X59819511Y-46164951D01*
X59876822Y-46201442D01*
X59932772Y-46250592D01*
X59980369Y-46315325D01*
X60008927Y-46388016D01*
X60018447Y-46468667D01*
X60014681Y-46528206D01*
X59996757Y-46606963D01*
X59964071Y-46680356D01*
X59916625Y-46748384D01*
X59864207Y-46802424D01*
X59812877Y-46842531D01*
X59743016Y-46881687D01*
X59664139Y-46911053D01*
X59591521Y-46928047D01*
X59512642Y-46938244D01*
X59427501Y-46941643D01*
X59354515Y-46938423D01*
X59277535Y-46927443D01*
X59204019Y-46908670D01*
X59159650Y-46893035D01*
X59090442Y-46860603D01*
X59025233Y-46817445D01*
X58998653Y-46794480D01*
X58949105Y-46737035D01*
X58910561Y-46669068D01*
X58892609Y-46623318D01*
X58875299Y-46552118D01*
X58869528Y-46477826D01*
X58870818Y-46461706D01*
X59057107Y-46461706D01*
X59068233Y-46540373D01*
X59101610Y-46610643D01*
X59151263Y-46667236D01*
X59204798Y-46704422D01*
X59280461Y-46733557D01*
X59361439Y-46748165D01*
X59442889Y-46752233D01*
X59511930Y-46749116D01*
X59593526Y-46735262D01*
X59671034Y-46706431D01*
X59733415Y-46663572D01*
X59739411Y-46657999D01*
X59788899Y-46598722D01*
X59821351Y-46526080D01*
X59830868Y-46453279D01*
X59826219Y-46399402D01*
X59801808Y-46326749D01*
X59756473Y-46263892D01*
X59698611Y-46216242D01*
X59658510Y-46195400D01*
X59584435Y-46174505D01*
X59510956Y-46165312D01*
X59436294Y-46162752D01*
X59370241Y-46165869D01*
X59291667Y-46179723D01*
X59216245Y-46208554D01*
X59154560Y-46251413D01*
X59148564Y-46256986D01*
X59099076Y-46316263D01*
X59066624Y-46388905D01*
X59057107Y-46461706D01*
X58870818Y-46461706D01*
X58873956Y-46422499D01*
X58895031Y-46350331D01*
X58933462Y-46284334D01*
X58989248Y-46224508D01*
X59050879Y-46178140D01*
X58470924Y-46178140D01*
X58470924Y-45992759D01*
X59995000Y-45992759D01*
X59995000Y-46164951D01*
G37*
G36*
X59995000Y-47214218D02*
G01*
X59807421Y-47214218D01*
X59807421Y-47425610D01*
X59995000Y-47425610D01*
X59995000Y-47214218D01*
G37*
G36*
X59596395Y-48459124D02*
G01*
X59619842Y-48641573D01*
X59697856Y-48623977D01*
X59768085Y-48597475D01*
X59838817Y-48556282D01*
X59899381Y-48503457D01*
X59912934Y-48488433D01*
X59959096Y-48423380D01*
X59992069Y-48351321D01*
X60011852Y-48272255D01*
X60018344Y-48197325D01*
X60018447Y-48186182D01*
X60013269Y-48104931D01*
X59997736Y-48029888D01*
X59971847Y-47961053D01*
X59928555Y-47888592D01*
X59880229Y-47833208D01*
X59871168Y-47824581D01*
X59811306Y-47778264D01*
X59742454Y-47741531D01*
X59664612Y-47714380D01*
X59592876Y-47699074D01*
X59514896Y-47690423D01*
X59448018Y-47688293D01*
X59372258Y-47691098D01*
X59290914Y-47701173D01*
X59215157Y-47718576D01*
X59144986Y-47743305D01*
X59136608Y-47746912D01*
X59066692Y-47784901D01*
X59007383Y-47832512D01*
X58958681Y-47889744D01*
X58936207Y-47925697D01*
X58903975Y-47994943D01*
X58882291Y-48067493D01*
X58871156Y-48143347D01*
X58869528Y-48186915D01*
X58873911Y-48261853D01*
X58889653Y-48339854D01*
X58916845Y-48409704D01*
X58961120Y-48478541D01*
X59018725Y-48535963D01*
X59080149Y-48576155D01*
X59151189Y-48606133D01*
X59221238Y-48623988D01*
X59244685Y-48443736D01*
X59176458Y-48416309D01*
X59116819Y-48368283D01*
X59104368Y-48352512D01*
X59070445Y-48285074D01*
X59057522Y-48211383D01*
X59057107Y-48194242D01*
X59064439Y-48119487D01*
X59089784Y-48046214D01*
X59133232Y-47983245D01*
X59149797Y-47966364D01*
X59210455Y-47924037D01*
X59288154Y-47895562D01*
X59360367Y-47882993D01*
X59442889Y-47878803D01*
X59526677Y-47882835D01*
X59599807Y-47894931D01*
X59670332Y-47918631D01*
X59733032Y-47957882D01*
X59738911Y-47963066D01*
X59787404Y-48021005D01*
X59817937Y-48089033D01*
X59830509Y-48167150D01*
X59830868Y-48183984D01*
X59822780Y-48260818D01*
X59795761Y-48332659D01*
X59773349Y-48366434D01*
X59716396Y-48417079D01*
X59645685Y-48448052D01*
X59596395Y-48459124D01*
G37*
G36*
X59511559Y-48727320D02*
G01*
X59590291Y-48736319D01*
X59662656Y-48752242D01*
X59741086Y-48780488D01*
X59810346Y-48818703D01*
X59870436Y-48866887D01*
X59888359Y-48884953D01*
X59935191Y-48943274D01*
X59971615Y-49007777D01*
X59997633Y-49078463D01*
X60013243Y-49155330D01*
X60018447Y-49238381D01*
X60016810Y-49282600D01*
X60005614Y-49359445D01*
X59983811Y-49432755D01*
X59951402Y-49502529D01*
X59929012Y-49539012D01*
X59882039Y-49597558D01*
X59826488Y-49646946D01*
X59762358Y-49687177D01*
X59730536Y-49702032D01*
X59658408Y-49725800D01*
X59586017Y-49740097D01*
X59504966Y-49748330D01*
X59428600Y-49750558D01*
X59380483Y-49749299D01*
X59304723Y-49741605D01*
X59221132Y-49723139D01*
X59145527Y-49694601D01*
X59077907Y-49655991D01*
X59018272Y-49607309D01*
X59000260Y-49589081D01*
X58953197Y-49530533D01*
X58916592Y-49466189D01*
X58890446Y-49396049D01*
X58874758Y-49320113D01*
X58869528Y-49238381D01*
X59057107Y-49238381D01*
X59057485Y-49255332D01*
X59070708Y-49334809D01*
X59102822Y-49405484D01*
X59153827Y-49467358D01*
X59207706Y-49507750D01*
X59281949Y-49539396D01*
X59360059Y-49555264D01*
X59437759Y-49559682D01*
X59519920Y-49555299D01*
X59601883Y-49539557D01*
X59671114Y-49512366D01*
X59733782Y-49468091D01*
X59751132Y-49450509D01*
X59796642Y-49385994D01*
X59823189Y-49312392D01*
X59830868Y-49238381D01*
X59830492Y-49221164D01*
X59817319Y-49140664D01*
X59785326Y-49069467D01*
X59734515Y-49007571D01*
X59672401Y-48963296D01*
X59604246Y-48936105D01*
X59523909Y-48920363D01*
X59443621Y-48915980D01*
X59374258Y-48919200D01*
X59292513Y-48933511D01*
X59215220Y-48963296D01*
X59153461Y-49007571D01*
X59136241Y-49025163D01*
X59091075Y-49089849D01*
X59064729Y-49163838D01*
X59057107Y-49238381D01*
X58869528Y-49238381D01*
X58871435Y-49188601D01*
X58883944Y-49106114D01*
X58908130Y-49029519D01*
X58943991Y-48958813D01*
X58991528Y-48893998D01*
X59000887Y-48883607D01*
X59063518Y-48828189D01*
X59137252Y-48784646D01*
X59207178Y-48757432D01*
X59284813Y-48738464D01*
X59370160Y-48727743D01*
X59443988Y-48725104D01*
X59511559Y-48727320D01*
G37*
G36*
X59995000Y-49962316D02*
G01*
X58892976Y-49962316D01*
X58892976Y-50128279D01*
X59074326Y-50128279D01*
X59010184Y-50171762D01*
X58956242Y-50224725D01*
X58925949Y-50265300D01*
X58891568Y-50332671D01*
X58873055Y-50406739D01*
X58869528Y-50459839D01*
X58876325Y-50538267D01*
X58899243Y-50611975D01*
X58927048Y-50659141D01*
X58981103Y-50714927D01*
X59044524Y-50752897D01*
X59087515Y-50769050D01*
X59024716Y-50811503D01*
X58963408Y-50867522D01*
X58917426Y-50929080D01*
X58886772Y-50996176D01*
X58871444Y-51068810D01*
X58869528Y-51107205D01*
X58875207Y-51183843D01*
X58895171Y-51258840D01*
X58934212Y-51328235D01*
X58960387Y-51357431D01*
X59026533Y-51403606D01*
X59102460Y-51430542D01*
X59182992Y-51442855D01*
X59239556Y-51444993D01*
X59995000Y-51444993D01*
X59995000Y-51260345D01*
X59320157Y-51260345D01*
X59241846Y-51257382D01*
X59166755Y-51243498D01*
X59163719Y-51242393D01*
X59102238Y-51198773D01*
X59086416Y-51176814D01*
X59060570Y-51107684D01*
X59057107Y-51065806D01*
X59065982Y-50991097D01*
X59095906Y-50920162D01*
X59132212Y-50874197D01*
X59194539Y-50830811D01*
X59269758Y-50806998D01*
X59342659Y-50798663D01*
X59372913Y-50797993D01*
X59995000Y-50797993D01*
X59995000Y-50612247D01*
X59299274Y-50612247D01*
X59223089Y-50606878D01*
X59151583Y-50586693D01*
X59117557Y-50566817D01*
X59072219Y-50507192D01*
X59057343Y-50431127D01*
X59057107Y-50418440D01*
X59067182Y-50343244D01*
X59097407Y-50273726D01*
X59147049Y-50216482D01*
X59210558Y-50179285D01*
X59215376Y-50177372D01*
X59289789Y-50158158D01*
X59370417Y-50149551D01*
X59439225Y-50147697D01*
X59995000Y-50147697D01*
X59995000Y-49962316D01*
G37*
G36*
X59995000Y-51571388D02*
G01*
X58470924Y-52009193D01*
X58470924Y-52157571D01*
X59995000Y-51720865D01*
X59995000Y-51571388D01*
G37*
G36*
X59995000Y-52293859D02*
G01*
X58892976Y-52293859D01*
X58892976Y-52460554D01*
X59048681Y-52460554D01*
X58987797Y-52509528D01*
X58939510Y-52566050D01*
X58903819Y-52630119D01*
X58880725Y-52701736D01*
X58870228Y-52780901D01*
X58869528Y-52808967D01*
X58875454Y-52886677D01*
X58893231Y-52959067D01*
X58905432Y-52990683D01*
X58940875Y-53055388D01*
X58992029Y-53109587D01*
X58999221Y-53114881D01*
X59066929Y-53151836D01*
X59136974Y-53172766D01*
X59213884Y-53180771D01*
X59294693Y-53182934D01*
X59318325Y-53183025D01*
X59995000Y-53183025D01*
X59995000Y-52997644D01*
X59343604Y-52997644D01*
X59268230Y-52994605D01*
X59192255Y-52981095D01*
X59177641Y-52976029D01*
X59115137Y-52933143D01*
X59090080Y-52899092D01*
X59062549Y-52826988D01*
X59057107Y-52769766D01*
X59065808Y-52692220D01*
X59091913Y-52622293D01*
X59130746Y-52565334D01*
X59189686Y-52519932D01*
X59264819Y-52493448D01*
X59337721Y-52482266D01*
X59410282Y-52479239D01*
X59995000Y-52479239D01*
X59995000Y-52293859D01*
G37*
G36*
X59502381Y-53401149D02*
G01*
X59579771Y-53408705D01*
X59664943Y-53426840D01*
X59741716Y-53454867D01*
X59810091Y-53492786D01*
X59870069Y-53540596D01*
X59888037Y-53558569D01*
X59934984Y-53617143D01*
X59971499Y-53682698D01*
X59997581Y-53755234D01*
X60013230Y-53834751D01*
X60018447Y-53921249D01*
X60018111Y-53944840D01*
X60011637Y-54023197D01*
X59996923Y-54094997D01*
X59970018Y-54169025D01*
X59932351Y-54234490D01*
X59891336Y-54284486D01*
X59828762Y-54337896D01*
X59763847Y-54375105D01*
X59690184Y-54402651D01*
X59666737Y-54210676D01*
X59682402Y-54202513D01*
X59744693Y-54157433D01*
X59791667Y-54096371D01*
X59802961Y-54073092D01*
X59824399Y-54000203D01*
X59830868Y-53922348D01*
X59830538Y-53905396D01*
X59818967Y-53825919D01*
X59790867Y-53755244D01*
X59746238Y-53693370D01*
X59717976Y-53666734D01*
X59650556Y-53625374D01*
X59577459Y-53601733D01*
X59502606Y-53591521D01*
X59502606Y-54407780D01*
X59452048Y-54408513D01*
X59384745Y-54406338D01*
X59306075Y-54397501D01*
X59233470Y-54381866D01*
X59154348Y-54354131D01*
X59083959Y-54316607D01*
X59022302Y-54269295D01*
X58970383Y-54214392D01*
X58923387Y-54143175D01*
X58891012Y-54064245D01*
X58874899Y-53990451D01*
X58869652Y-53912822D01*
X59057107Y-53912822D01*
X59057880Y-53938874D01*
X59069472Y-54011466D01*
X59098666Y-54082334D01*
X59145034Y-54142899D01*
X59168313Y-54162884D01*
X59238057Y-54197195D01*
X59315027Y-54212875D01*
X59315027Y-53601779D01*
X59252643Y-53613104D01*
X59181185Y-53647407D01*
X59127449Y-53698133D01*
X59087401Y-53762841D01*
X59063976Y-53837074D01*
X59057107Y-53912822D01*
X58869652Y-53912822D01*
X58869528Y-53910990D01*
X58870127Y-53882974D01*
X58879100Y-53802890D01*
X58898840Y-53728757D01*
X58929349Y-53660575D01*
X58970625Y-53598343D01*
X59022669Y-53542062D01*
X59073557Y-53501110D01*
X59142628Y-53461131D01*
X59220432Y-53431146D01*
X59291939Y-53413794D01*
X59369511Y-53403383D01*
X59453147Y-53399912D01*
X59502381Y-53401149D01*
G37*
G36*
X59995000Y-54800889D02*
G01*
X59819511Y-54800889D01*
X59876822Y-54837381D01*
X59932772Y-54886531D01*
X59980369Y-54951263D01*
X60008927Y-55023955D01*
X60018447Y-55104605D01*
X60014681Y-55164145D01*
X59996757Y-55242902D01*
X59964071Y-55316295D01*
X59916625Y-55384323D01*
X59864207Y-55438363D01*
X59812877Y-55478470D01*
X59743016Y-55517625D01*
X59664139Y-55546992D01*
X59591521Y-55563986D01*
X59512642Y-55574183D01*
X59427501Y-55577581D01*
X59354515Y-55574361D01*
X59277535Y-55563381D01*
X59204019Y-55544609D01*
X59159650Y-55528973D01*
X59090442Y-55496542D01*
X59025233Y-55453384D01*
X58998653Y-55430419D01*
X58949105Y-55372973D01*
X58910561Y-55305006D01*
X58892609Y-55259257D01*
X58875299Y-55188056D01*
X58869528Y-55113764D01*
X58870818Y-55097644D01*
X59057107Y-55097644D01*
X59068233Y-55176312D01*
X59101610Y-55246581D01*
X59151263Y-55303175D01*
X59204798Y-55340361D01*
X59280461Y-55369495D01*
X59361439Y-55384104D01*
X59442889Y-55388171D01*
X59511930Y-55385054D01*
X59593526Y-55371201D01*
X59671034Y-55342369D01*
X59733415Y-55299511D01*
X59739411Y-55293938D01*
X59788899Y-55234661D01*
X59821351Y-55162019D01*
X59830868Y-55089218D01*
X59826219Y-55035341D01*
X59801808Y-54962688D01*
X59756473Y-54899830D01*
X59698611Y-54852180D01*
X59658510Y-54831338D01*
X59584435Y-54810444D01*
X59510956Y-54801251D01*
X59436294Y-54798691D01*
X59370241Y-54801808D01*
X59291667Y-54815661D01*
X59216245Y-54844493D01*
X59154560Y-54887351D01*
X59148564Y-54892925D01*
X59099076Y-54952201D01*
X59066624Y-55024844D01*
X59057107Y-55097644D01*
X58870818Y-55097644D01*
X58873956Y-55058438D01*
X58895031Y-54986270D01*
X58933462Y-54920272D01*
X58989248Y-54860446D01*
X59050879Y-54814078D01*
X58470924Y-54814078D01*
X58470924Y-54628698D01*
X59995000Y-54628698D01*
X59995000Y-54800889D01*
G37*
G36*
X59995000Y-55797766D02*
G01*
X58470924Y-55797766D01*
X58470924Y-55983147D01*
X59046116Y-55983147D01*
X58986104Y-56034190D01*
X58938508Y-56090051D01*
X58898672Y-56161310D01*
X58875737Y-56239125D01*
X58869528Y-56311043D01*
X58875243Y-56390856D01*
X58892386Y-56463050D01*
X58917889Y-56522069D01*
X58962990Y-56586533D01*
X59020306Y-56634067D01*
X59050879Y-56650296D01*
X59125394Y-56673961D01*
X59203940Y-56685338D01*
X59277545Y-56688979D01*
X59297442Y-56689131D01*
X59995000Y-56689131D01*
X59995000Y-56503384D01*
X59316859Y-56503384D01*
X59239136Y-56497481D01*
X59164947Y-56474812D01*
X59119023Y-56442934D01*
X59076697Y-56380754D01*
X59058619Y-56305810D01*
X59057107Y-56272575D01*
X59066284Y-56197468D01*
X59093815Y-56126709D01*
X59098872Y-56117602D01*
X59144548Y-56058693D01*
X59207643Y-56015908D01*
X59212079Y-56013921D01*
X59285038Y-55992884D01*
X59364208Y-55984229D01*
X59409549Y-55983147D01*
X59995000Y-55983147D01*
X59995000Y-55797766D01*
G37*
G36*
X59502381Y-56905057D02*
G01*
X59579771Y-56912613D01*
X59664943Y-56930748D01*
X59741716Y-56958775D01*
X59810091Y-56996693D01*
X59870069Y-57044504D01*
X59888037Y-57062477D01*
X59934984Y-57121051D01*
X59971499Y-57186606D01*
X59997581Y-57259142D01*
X60013230Y-57338659D01*
X60018447Y-57425157D01*
X60018111Y-57448748D01*
X60011637Y-57527105D01*
X59996923Y-57598905D01*
X59970018Y-57672933D01*
X59932351Y-57738398D01*
X59891336Y-57788394D01*
X59828762Y-57841804D01*
X59763847Y-57879013D01*
X59690184Y-57906559D01*
X59666737Y-57714584D01*
X59682402Y-57706421D01*
X59744693Y-57661341D01*
X59791667Y-57600279D01*
X59802961Y-57577000D01*
X59824399Y-57504111D01*
X59830868Y-57426256D01*
X59830538Y-57409304D01*
X59818967Y-57329827D01*
X59790867Y-57259152D01*
X59746238Y-57197278D01*
X59717976Y-57170641D01*
X59650556Y-57129282D01*
X59577459Y-57105641D01*
X59502606Y-57095429D01*
X59502606Y-57911688D01*
X59452048Y-57912421D01*
X59384745Y-57910246D01*
X59306075Y-57901409D01*
X59233470Y-57885774D01*
X59154348Y-57858039D01*
X59083959Y-57820515D01*
X59022302Y-57773203D01*
X58970383Y-57718299D01*
X58923387Y-57647083D01*
X58891012Y-57568153D01*
X58874899Y-57494359D01*
X58869652Y-57416730D01*
X59057107Y-57416730D01*
X59057880Y-57442782D01*
X59069472Y-57515374D01*
X59098666Y-57586242D01*
X59145034Y-57646807D01*
X59168313Y-57666792D01*
X59238057Y-57701103D01*
X59315027Y-57716782D01*
X59315027Y-57105687D01*
X59252643Y-57117012D01*
X59181185Y-57151315D01*
X59127449Y-57202041D01*
X59087401Y-57266749D01*
X59063976Y-57340981D01*
X59057107Y-57416730D01*
X58869652Y-57416730D01*
X58869528Y-57414898D01*
X58870127Y-57386881D01*
X58879100Y-57306798D01*
X58898840Y-57232665D01*
X58929349Y-57164483D01*
X58970625Y-57102251D01*
X59022669Y-57045969D01*
X59073557Y-57005018D01*
X59142628Y-56965039D01*
X59220432Y-56935054D01*
X59291939Y-56917702D01*
X59369511Y-56907291D01*
X59453147Y-56903820D01*
X59502381Y-56905057D01*
G37*
G36*
X59719026Y-58071068D02*
G01*
X59798817Y-58084292D01*
X59868949Y-58116406D01*
X59929420Y-58167411D01*
X59968369Y-58221152D01*
X59998885Y-58294036D01*
X60014187Y-58369868D01*
X60018447Y-58444748D01*
X60016134Y-58498627D01*
X60003993Y-58576096D01*
X59981444Y-58649546D01*
X59976611Y-58661483D01*
X59942612Y-58728210D01*
X59900809Y-58790449D01*
X59854316Y-58847749D01*
X59925370Y-58859894D01*
X59995000Y-58884752D01*
X59995000Y-59078558D01*
X59985540Y-59074252D01*
X59912950Y-59047703D01*
X59837463Y-59031297D01*
X59826528Y-59029878D01*
X59752919Y-59024153D01*
X59671311Y-59021222D01*
X59596852Y-59019986D01*
X59511032Y-59019574D01*
X59278025Y-59019574D01*
X59263731Y-59019538D01*
X59189267Y-59017821D01*
X59113893Y-59010415D01*
X59051693Y-58991221D01*
X58986765Y-58952529D01*
X58983622Y-58949919D01*
X58935335Y-58891645D01*
X58902868Y-58823935D01*
X58900816Y-58818411D01*
X58881282Y-58744085D01*
X58872166Y-58670812D01*
X58869528Y-58596057D01*
X58869676Y-58578557D01*
X58873987Y-58503067D01*
X58885780Y-58425444D01*
X58907264Y-58347662D01*
X58925298Y-58303260D01*
X58963312Y-58238320D01*
X59014609Y-58183897D01*
X59057241Y-58154505D01*
X59124904Y-58123249D01*
X59197791Y-58102564D01*
X59221238Y-58283914D01*
X59209962Y-58287796D01*
X59143294Y-58322016D01*
X59093377Y-58376238D01*
X59074250Y-58421855D01*
X59060649Y-58494258D01*
X59057107Y-58569312D01*
X59060496Y-58635143D01*
X59076222Y-58711528D01*
X59111329Y-58780704D01*
X59174982Y-58823067D01*
X59249815Y-58833094D01*
X59291580Y-58832362D01*
X59479159Y-58832362D01*
X59532281Y-58832362D01*
X59607295Y-58826611D01*
X59677362Y-58802320D01*
X59689150Y-58794580D01*
X59743166Y-58744192D01*
X59786172Y-58679588D01*
X59803588Y-58641921D01*
X59824583Y-58566015D01*
X59830868Y-58489078D01*
X59830511Y-58469268D01*
X59820702Y-58393915D01*
X59790202Y-58324581D01*
X59759863Y-58292667D01*
X59688719Y-58268527D01*
X59686253Y-58268552D01*
X59616545Y-58294173D01*
X59606740Y-58302820D01*
X59567086Y-58367445D01*
X59562924Y-58380394D01*
X59547308Y-58453026D01*
X59536678Y-58529378D01*
X59525786Y-58612874D01*
X59513947Y-58686728D01*
X59499259Y-58759325D01*
X59479159Y-58832362D01*
X59291580Y-58832362D01*
X59296211Y-58818619D01*
X59316059Y-58745335D01*
X59332340Y-58664477D01*
X59345533Y-58581592D01*
X59356060Y-58501535D01*
X59357759Y-58487968D01*
X59369010Y-58410387D01*
X59384270Y-58336671D01*
X59408195Y-58270248D01*
X59445819Y-58202948D01*
X59493080Y-58149550D01*
X59553531Y-58107327D01*
X59557735Y-58105073D01*
X59628798Y-58078740D01*
X59701908Y-58070690D01*
X59719026Y-58071068D01*
G37*
G36*
X59516977Y-59237505D02*
G01*
X59594629Y-59247832D01*
X59667472Y-59265669D01*
X59743674Y-59294713D01*
X59782807Y-59314803D01*
X59846216Y-59357004D01*
X59900582Y-59406972D01*
X59945907Y-59464706D01*
X59954691Y-59478528D01*
X59990111Y-59550127D01*
X60011363Y-59625875D01*
X60018447Y-59705774D01*
X60013554Y-59766469D01*
X59990265Y-59843418D01*
X59947798Y-59911006D01*
X59886151Y-59969232D01*
X59818046Y-60011688D01*
X59995000Y-60011688D01*
X59995000Y-60183513D01*
X58470924Y-60183513D01*
X58470924Y-59999232D01*
X59053443Y-59999232D01*
X59023888Y-59980079D01*
X58967275Y-59931601D01*
X58920819Y-59873569D01*
X58903389Y-59843820D01*
X58877993Y-59774151D01*
X58871426Y-59714567D01*
X59057107Y-59714567D01*
X59057486Y-59730255D01*
X59070760Y-59803971D01*
X59102996Y-59869817D01*
X59154193Y-59927791D01*
X59166760Y-59938305D01*
X59233971Y-59977225D01*
X59308360Y-60000289D01*
X59384758Y-60011567D01*
X59458642Y-60014619D01*
X59515243Y-60012544D01*
X59595980Y-60000591D01*
X59672359Y-59974445D01*
X59739277Y-59929623D01*
X59787577Y-59872922D01*
X59820046Y-59802287D01*
X59830868Y-59722993D01*
X59819526Y-59643893D01*
X59785499Y-59572324D01*
X59734881Y-59513799D01*
X59680590Y-59475010D01*
X59604898Y-59444620D01*
X59524624Y-59429382D01*
X59444354Y-59425139D01*
X59361672Y-59429101D01*
X59289299Y-59440987D01*
X59219209Y-59464274D01*
X59150530Y-59507937D01*
X59144782Y-59513175D01*
X59097341Y-59569875D01*
X59066230Y-59641337D01*
X59057107Y-59714567D01*
X58871426Y-59714567D01*
X58869528Y-59697348D01*
X58869808Y-59680551D01*
X58879575Y-59599614D01*
X58903296Y-59523758D01*
X58940969Y-59452983D01*
X58959809Y-59426542D01*
X59015472Y-59367902D01*
X59076030Y-59324242D01*
X59146500Y-59289218D01*
X59215445Y-59265336D01*
X59288191Y-59248277D01*
X59364738Y-59238041D01*
X59445087Y-59234630D01*
X59516977Y-59237505D01*
G37*
G36*
X59995000Y-60330425D02*
G01*
X58470924Y-60768230D01*
X58470924Y-60916608D01*
X59995000Y-60479902D01*
X59995000Y-60330425D01*
G37*
G36*
X60417051Y-61238276D02*
G01*
X59848454Y-61238276D01*
X59866469Y-61250503D01*
X59923299Y-61299791D01*
X59970453Y-61359176D01*
X59981702Y-61377969D01*
X60009261Y-61448344D01*
X60018447Y-61525872D01*
X60017816Y-61549533D01*
X60006596Y-61626871D01*
X59981351Y-61701847D01*
X59946639Y-61767306D01*
X59922556Y-61801914D01*
X59871496Y-61857446D01*
X59810525Y-61904284D01*
X59739644Y-61942428D01*
X59669943Y-61968875D01*
X59596029Y-61987766D01*
X59517902Y-61999100D01*
X59435561Y-62002878D01*
X59377511Y-62000959D01*
X59302876Y-61992430D01*
X59222688Y-61974678D01*
X59146500Y-61948290D01*
X59122292Y-61937591D01*
X59055928Y-61899930D01*
X58993202Y-61848295D01*
X58942069Y-61786357D01*
X58929105Y-61766005D01*
X58895102Y-61693935D01*
X58875266Y-61615352D01*
X58869528Y-61539061D01*
X58870353Y-61521475D01*
X59057107Y-61521475D01*
X59068363Y-61599647D01*
X59102130Y-61669940D01*
X59152362Y-61727006D01*
X59205988Y-61764673D01*
X59280660Y-61794184D01*
X59359783Y-61808982D01*
X59438859Y-61813101D01*
X59521663Y-61808876D01*
X59603975Y-61793701D01*
X59673143Y-61767489D01*
X59735247Y-61724808D01*
X59741130Y-61719277D01*
X59789688Y-61660158D01*
X59821530Y-61587110D01*
X59830868Y-61513415D01*
X59819959Y-61434035D01*
X59787231Y-61363140D01*
X59738545Y-61306053D01*
X59686063Y-61268707D01*
X59611913Y-61239447D01*
X59532572Y-61224775D01*
X59452780Y-61220690D01*
X59372711Y-61225056D01*
X59291979Y-61240735D01*
X59222742Y-61267817D01*
X59158590Y-61311915D01*
X59105073Y-61371578D01*
X59069099Y-61443323D01*
X59057107Y-61521475D01*
X58870353Y-61521475D01*
X58871357Y-61500052D01*
X58887869Y-61423132D01*
X58921552Y-61356612D01*
X58954725Y-61315582D01*
X59011757Y-61264663D01*
X59076891Y-61221789D01*
X58892976Y-61221789D01*
X58892976Y-61052896D01*
X60417051Y-61052896D01*
X60417051Y-61238276D01*
G37*
G36*
X58658503Y-62221964D02*
G01*
X58470924Y-62221964D01*
X58470924Y-62407344D01*
X58658503Y-62407344D01*
X58658503Y-62221964D01*
G37*
G36*
X59995000Y-62221964D02*
G01*
X58892976Y-62221964D01*
X58892976Y-62407344D01*
X59995000Y-62407344D01*
X59995000Y-62221964D01*
G37*
G36*
X59995000Y-62731210D02*
G01*
X59080554Y-62731210D01*
X59080554Y-62567079D01*
X58892976Y-62567079D01*
X58892976Y-62731210D01*
X58775739Y-62731210D01*
X58700297Y-62733941D01*
X58624872Y-62746077D01*
X58610509Y-62750628D01*
X58544838Y-62787539D01*
X58492906Y-62844783D01*
X58461851Y-62914397D01*
X58449074Y-62990475D01*
X58447477Y-63034193D01*
X58451985Y-63111055D01*
X58463185Y-63183659D01*
X58467993Y-63207117D01*
X58644947Y-63179274D01*
X58636224Y-63106304D01*
X58635055Y-63070097D01*
X58644775Y-62994136D01*
X58669494Y-62950296D01*
X58739931Y-62919604D01*
X58797355Y-62915491D01*
X58892976Y-62915491D01*
X58892976Y-63128715D01*
X59080554Y-63128715D01*
X59080554Y-62915491D01*
X59995000Y-62915491D01*
X59995000Y-62731210D01*
G37*
G36*
X58658503Y-63271231D02*
G01*
X58470924Y-63271231D01*
X58470924Y-63456612D01*
X58658503Y-63456612D01*
X58658503Y-63271231D01*
G37*
G36*
X59995000Y-63271231D02*
G01*
X58892976Y-63271231D01*
X58892976Y-63456612D01*
X59995000Y-63456612D01*
X59995000Y-63271231D01*
G37*
G36*
X59995000Y-63733949D02*
G01*
X58892976Y-63733949D01*
X58892976Y-63901011D01*
X59056008Y-63901011D01*
X58992381Y-63939923D01*
X58932344Y-63987727D01*
X58905799Y-64018981D01*
X58875514Y-64087115D01*
X58869528Y-64138049D01*
X58879082Y-64214737D01*
X58904859Y-64286384D01*
X58927414Y-64328558D01*
X59098872Y-64264811D01*
X59067548Y-64196759D01*
X59057107Y-64128890D01*
X59073043Y-64054275D01*
X59094110Y-64019347D01*
X59151526Y-63969773D01*
X59196692Y-63950471D01*
X59274384Y-63931494D01*
X59350309Y-63921793D01*
X59415778Y-63919330D01*
X59995000Y-63919330D01*
X59995000Y-63733949D01*
G37*
G36*
X59502381Y-64374491D02*
G01*
X59579771Y-64382048D01*
X59664943Y-64400183D01*
X59741716Y-64428210D01*
X59810091Y-64466128D01*
X59870069Y-64513939D01*
X59888037Y-64531912D01*
X59934984Y-64590486D01*
X59971499Y-64656041D01*
X59997581Y-64728577D01*
X60013230Y-64808094D01*
X60018447Y-64894591D01*
X60018111Y-64918183D01*
X60011637Y-64996540D01*
X59996923Y-65068340D01*
X59970018Y-65142368D01*
X59932351Y-65207833D01*
X59891336Y-65257829D01*
X59828762Y-65311239D01*
X59763847Y-65348448D01*
X59690184Y-65375994D01*
X59666737Y-65184019D01*
X59682402Y-65175855D01*
X59744693Y-65130775D01*
X59791667Y-65069713D01*
X59802961Y-65046435D01*
X59824399Y-64973545D01*
X59830868Y-64895690D01*
X59830538Y-64878739D01*
X59818967Y-64799262D01*
X59790867Y-64728587D01*
X59746238Y-64666713D01*
X59717976Y-64640076D01*
X59650556Y-64598717D01*
X59577459Y-64575076D01*
X59502606Y-64564863D01*
X59502606Y-65381123D01*
X59452048Y-65381856D01*
X59384745Y-65379680D01*
X59306075Y-65370843D01*
X59233470Y-65355208D01*
X59154348Y-65327474D01*
X59083959Y-65289950D01*
X59022302Y-65242637D01*
X58970383Y-65187734D01*
X58923387Y-65116518D01*
X58891012Y-65037588D01*
X58874899Y-64963794D01*
X58869652Y-64886165D01*
X59057107Y-64886165D01*
X59057880Y-64912217D01*
X59069472Y-64984808D01*
X59098666Y-65055677D01*
X59145034Y-65116242D01*
X59168313Y-65136227D01*
X59238057Y-65170538D01*
X59315027Y-65186217D01*
X59315027Y-64575122D01*
X59252643Y-64586446D01*
X59181185Y-64620750D01*
X59127449Y-64671475D01*
X59087401Y-64736184D01*
X59063976Y-64810416D01*
X59057107Y-64886165D01*
X58869652Y-64886165D01*
X58869528Y-64884333D01*
X58870127Y-64856316D01*
X58879100Y-64776233D01*
X58898840Y-64702100D01*
X58929349Y-64633917D01*
X58970625Y-64571686D01*
X59022669Y-64515404D01*
X59073557Y-64474453D01*
X59142628Y-64434474D01*
X59220432Y-64404489D01*
X59291939Y-64387137D01*
X59369511Y-64376725D01*
X59453147Y-64373255D01*
X59502381Y-64374491D01*
G37*
G36*
X64796000Y-36854347D02*
G01*
X63914381Y-36521395D01*
X63914381Y-36678199D01*
X64442531Y-36866071D01*
X64502131Y-36886438D01*
X64563255Y-36905628D01*
X64620145Y-36922051D01*
X64563871Y-36939005D01*
X64505335Y-36958456D01*
X64452496Y-36977152D01*
X63914381Y-37171765D01*
X63914381Y-37324466D01*
X64796000Y-36992979D01*
X64796000Y-36854347D01*
G37*
G36*
X64796000Y-37968387D02*
G01*
X64796000Y-37820083D01*
X63845797Y-37820083D01*
X63884307Y-37775158D01*
X63919679Y-37725721D01*
X63948672Y-37679399D01*
X63978239Y-37626740D01*
X64005010Y-37572848D01*
X64025755Y-37523182D01*
X63881554Y-37523182D01*
X63854602Y-37576178D01*
X63820915Y-37633069D01*
X63784151Y-37686041D01*
X63744308Y-37735093D01*
X63739112Y-37740949D01*
X63697530Y-37784143D01*
X63651538Y-37824591D01*
X63601414Y-37859419D01*
X63576739Y-37872840D01*
X63576739Y-37968387D01*
X64796000Y-37968387D01*
G37*
G36*
X64796000Y-38427076D02*
G01*
X64645937Y-38427076D01*
X64645937Y-38596189D01*
X64796000Y-38596189D01*
X64796000Y-38427076D01*
G37*
G36*
X64258444Y-38811490D02*
G01*
X64317498Y-38814643D01*
X64391027Y-38822117D01*
X64458603Y-38833328D01*
X64520226Y-38848275D01*
X64575895Y-38866960D01*
X64637109Y-38895571D01*
X64689021Y-38930020D01*
X64731752Y-38970027D01*
X64770430Y-39023370D01*
X64797076Y-39083893D01*
X64810337Y-39141486D01*
X64814757Y-39204354D01*
X64812243Y-39252535D01*
X64801069Y-39311777D01*
X64777813Y-39371591D01*
X64743243Y-39424173D01*
X64703767Y-39464986D01*
X64656854Y-39500376D01*
X64602504Y-39530345D01*
X64540717Y-39554891D01*
X64515376Y-39562696D01*
X64450637Y-39577921D01*
X64388896Y-39587644D01*
X64321384Y-39594297D01*
X64260716Y-39597496D01*
X64196041Y-39598562D01*
X64162896Y-39598322D01*
X64100516Y-39596406D01*
X64034328Y-39591748D01*
X63967375Y-39583230D01*
X63909691Y-39571304D01*
X63896519Y-39567817D01*
X63840391Y-39550141D01*
X63784062Y-39526693D01*
X63729440Y-39496273D01*
X63694544Y-39470774D01*
X63650374Y-39426481D01*
X63616013Y-39374933D01*
X63595302Y-39326791D01*
X63581380Y-39268412D01*
X63576739Y-39204354D01*
X63576816Y-39202889D01*
X63726802Y-39202889D01*
X63727621Y-39222044D01*
X63742184Y-39281578D01*
X63774951Y-39334472D01*
X63820005Y-39376399D01*
X63878330Y-39406917D01*
X63937654Y-39424083D01*
X63997291Y-39434642D01*
X64066202Y-39441795D01*
X64128008Y-39445064D01*
X64195748Y-39446154D01*
X64263159Y-39445064D01*
X64324709Y-39441795D01*
X64393402Y-39434642D01*
X64452936Y-39424083D01*
X64512287Y-39406917D01*
X64570905Y-39376399D01*
X64587666Y-39363036D01*
X64628058Y-39319548D01*
X64655535Y-39265246D01*
X64664695Y-39204647D01*
X64663875Y-39185754D01*
X64649312Y-39126907D01*
X64616546Y-39074413D01*
X64571491Y-39032602D01*
X64565464Y-39028311D01*
X64512946Y-39002084D01*
X64453554Y-38984918D01*
X64393923Y-38974359D01*
X64325075Y-38967206D01*
X64263361Y-38963937D01*
X64195748Y-38962847D01*
X64178281Y-38962922D01*
X64111882Y-38964721D01*
X64051034Y-38968921D01*
X63982778Y-38977545D01*
X63923196Y-38989918D01*
X63863144Y-39009716D01*
X63808868Y-39039637D01*
X63803819Y-39043487D01*
X63762145Y-39086432D01*
X63734816Y-39142994D01*
X63726802Y-39202889D01*
X63576816Y-39202889D01*
X63579243Y-39156471D01*
X63590371Y-39097532D01*
X63613532Y-39037926D01*
X63647960Y-38985415D01*
X63687198Y-38944693D01*
X63733983Y-38909284D01*
X63788315Y-38879187D01*
X63850193Y-38854403D01*
X63875495Y-38846546D01*
X63940262Y-38831219D01*
X64002161Y-38821430D01*
X64069955Y-38814732D01*
X64130952Y-38811512D01*
X64196041Y-38810439D01*
X64258444Y-38811490D01*
G37*
G36*
X64796000Y-39828053D02*
G01*
X64645937Y-39828053D01*
X64645937Y-39997166D01*
X64796000Y-39997166D01*
X64796000Y-39828053D01*
G37*
G36*
X64258444Y-40212467D02*
G01*
X64317498Y-40215620D01*
X64391027Y-40223094D01*
X64458603Y-40234305D01*
X64520226Y-40249252D01*
X64575895Y-40267937D01*
X64637109Y-40296548D01*
X64689021Y-40330997D01*
X64731752Y-40371004D01*
X64770430Y-40424347D01*
X64797076Y-40484870D01*
X64810337Y-40542463D01*
X64814757Y-40605331D01*
X64812243Y-40653512D01*
X64801069Y-40712754D01*
X64777813Y-40772568D01*
X64743243Y-40825150D01*
X64703767Y-40865963D01*
X64656854Y-40901353D01*
X64602504Y-40931322D01*
X64540717Y-40955868D01*
X64515376Y-40963673D01*
X64450637Y-40978898D01*
X64388896Y-40988621D01*
X64321384Y-40995274D01*
X64260716Y-40998473D01*
X64196041Y-40999539D01*
X64162896Y-40999299D01*
X64100516Y-40997383D01*
X64034328Y-40992725D01*
X63967375Y-40984207D01*
X63909691Y-40972281D01*
X63896519Y-40968794D01*
X63840391Y-40951118D01*
X63784062Y-40927670D01*
X63729440Y-40897250D01*
X63694544Y-40871751D01*
X63650374Y-40827458D01*
X63616013Y-40775910D01*
X63595302Y-40727768D01*
X63581380Y-40669389D01*
X63576739Y-40605331D01*
X63576816Y-40603866D01*
X63726802Y-40603866D01*
X63727621Y-40623021D01*
X63742184Y-40682555D01*
X63774951Y-40735449D01*
X63820005Y-40777376D01*
X63878330Y-40807894D01*
X63937654Y-40825060D01*
X63997291Y-40835619D01*
X64066202Y-40842772D01*
X64128008Y-40846041D01*
X64195748Y-40847131D01*
X64263159Y-40846041D01*
X64324709Y-40842772D01*
X64393402Y-40835619D01*
X64452936Y-40825060D01*
X64512287Y-40807894D01*
X64570905Y-40777376D01*
X64587666Y-40764013D01*
X64628058Y-40720525D01*
X64655535Y-40666223D01*
X64664695Y-40605624D01*
X64663875Y-40586731D01*
X64649312Y-40527884D01*
X64616546Y-40475390D01*
X64571491Y-40433579D01*
X64565464Y-40429288D01*
X64512946Y-40403061D01*
X64453554Y-40385895D01*
X64393923Y-40375336D01*
X64325075Y-40368183D01*
X64263361Y-40364914D01*
X64195748Y-40363824D01*
X64178281Y-40363899D01*
X64111882Y-40365698D01*
X64051034Y-40369898D01*
X63982778Y-40378522D01*
X63923196Y-40390895D01*
X63863144Y-40410693D01*
X63808868Y-40440614D01*
X63803819Y-40444464D01*
X63762145Y-40487409D01*
X63734816Y-40543971D01*
X63726802Y-40603866D01*
X63576816Y-40603866D01*
X63579243Y-40557448D01*
X63590371Y-40498509D01*
X63613532Y-40438903D01*
X63647960Y-40386392D01*
X63687198Y-40345670D01*
X63733983Y-40310261D01*
X63788315Y-40280164D01*
X63850193Y-40255380D01*
X63875495Y-40247523D01*
X63940262Y-40232196D01*
X64002161Y-40222407D01*
X64069955Y-40215709D01*
X64130952Y-40212489D01*
X64196041Y-40211416D01*
X64258444Y-40212467D01*
G37*
G36*
X65152399Y-41697390D02*
G01*
X63576739Y-41697390D01*
X63576739Y-41826643D01*
X65152399Y-41826643D01*
X65152399Y-41697390D01*
G37*
G36*
X64796000Y-42570509D02*
G01*
X63576739Y-42570509D01*
X63576739Y-42811137D01*
X64432273Y-43097194D01*
X64488308Y-43115641D01*
X64547791Y-43134938D01*
X64607575Y-43153777D01*
X64611352Y-43154933D01*
X64553196Y-43173577D01*
X64491447Y-43194087D01*
X64433350Y-43213752D01*
X64417618Y-43219120D01*
X63576739Y-43508401D01*
X63576739Y-43723531D01*
X64796000Y-43723531D01*
X64796000Y-43569364D01*
X63764318Y-43569364D01*
X64796000Y-43218241D01*
X64796000Y-43074040D01*
X63764318Y-42724382D01*
X64796000Y-42724382D01*
X64796000Y-42570509D01*
G37*
G36*
X64575220Y-43904963D02*
G01*
X64639054Y-43915542D01*
X64695159Y-43941233D01*
X64743536Y-43982037D01*
X64774695Y-44025030D01*
X64799108Y-44083338D01*
X64811349Y-44144003D01*
X64814757Y-44203907D01*
X64812907Y-44247010D01*
X64803194Y-44308985D01*
X64785155Y-44367745D01*
X64781289Y-44377295D01*
X64754089Y-44430677D01*
X64720647Y-44480468D01*
X64683452Y-44526308D01*
X64740296Y-44536024D01*
X64796000Y-44555910D01*
X64796000Y-44710956D01*
X64788432Y-44707511D01*
X64730360Y-44686271D01*
X64669970Y-44673147D01*
X64661222Y-44672011D01*
X64602335Y-44667431D01*
X64537049Y-44665087D01*
X64477481Y-44664098D01*
X64408826Y-44663768D01*
X64222420Y-44663768D01*
X64210984Y-44663739D01*
X64151414Y-44662365D01*
X64091115Y-44656441D01*
X64041354Y-44641085D01*
X63989412Y-44610132D01*
X63986897Y-44608044D01*
X63948268Y-44561425D01*
X63922294Y-44507257D01*
X63920653Y-44502838D01*
X63905025Y-44443377D01*
X63897732Y-44384759D01*
X63895623Y-44324954D01*
X63895741Y-44310954D01*
X63899190Y-44250563D01*
X63908624Y-44188464D01*
X63925811Y-44126238D01*
X63940239Y-44090717D01*
X63970649Y-44038764D01*
X64011687Y-43995226D01*
X64045793Y-43971713D01*
X64099923Y-43946708D01*
X64158233Y-43930160D01*
X64176990Y-44075240D01*
X64167970Y-44078345D01*
X64114635Y-44105722D01*
X64074702Y-44149099D01*
X64059400Y-44185593D01*
X64048519Y-44243515D01*
X64045685Y-44303558D01*
X64048397Y-44356223D01*
X64060978Y-44417331D01*
X64089063Y-44472672D01*
X64139985Y-44506562D01*
X64199852Y-44514584D01*
X64233264Y-44513998D01*
X64383327Y-44513998D01*
X64425825Y-44513998D01*
X64485836Y-44509398D01*
X64541889Y-44489965D01*
X64551320Y-44483773D01*
X64594532Y-44443463D01*
X64628937Y-44391779D01*
X64642870Y-44361646D01*
X64659666Y-44300921D01*
X64664695Y-44239371D01*
X64664409Y-44223523D01*
X64656561Y-44163241D01*
X64632161Y-44107773D01*
X64607890Y-44082243D01*
X64550975Y-44062930D01*
X64549002Y-44062950D01*
X64493236Y-44083447D01*
X64485392Y-44090365D01*
X64453669Y-44142065D01*
X64450339Y-44152424D01*
X64437846Y-44210529D01*
X64429342Y-44271612D01*
X64420629Y-44338408D01*
X64411158Y-44397491D01*
X64399407Y-44455569D01*
X64383327Y-44513998D01*
X64233264Y-44513998D01*
X64236969Y-44503004D01*
X64252847Y-44444377D01*
X64265872Y-44379690D01*
X64276426Y-44313383D01*
X64284848Y-44249337D01*
X64286207Y-44238483D01*
X64295208Y-44176419D01*
X64307416Y-44117445D01*
X64326556Y-44064307D01*
X64356655Y-44010467D01*
X64394464Y-43967749D01*
X64442824Y-43933970D01*
X64446188Y-43932167D01*
X64503038Y-43911101D01*
X64561526Y-43904661D01*
X64575220Y-43904963D01*
G37*
G36*
X64796000Y-44887690D02*
G01*
X63914381Y-44887690D01*
X63914381Y-45021339D01*
X64044806Y-45021339D01*
X63993904Y-45052469D01*
X63945875Y-45090712D01*
X63924639Y-45115715D01*
X63900411Y-45170222D01*
X63895623Y-45210969D01*
X63903265Y-45272319D01*
X63923887Y-45329637D01*
X63941931Y-45363377D01*
X64079098Y-45312379D01*
X64054039Y-45257937D01*
X64045685Y-45203642D01*
X64058434Y-45143950D01*
X64075288Y-45116008D01*
X64121221Y-45076349D01*
X64157353Y-45060907D01*
X64219507Y-45045725D01*
X64280247Y-45037965D01*
X64332622Y-45035994D01*
X64796000Y-45035994D01*
X64796000Y-44887690D01*
G37*
G36*
X64477116Y-46019902D02*
G01*
X64495874Y-46165861D01*
X64558285Y-46151784D01*
X64614468Y-46130583D01*
X64671053Y-46097628D01*
X64719505Y-46055368D01*
X64730347Y-46043349D01*
X64767277Y-45991307D01*
X64793655Y-45933660D01*
X64809482Y-45870407D01*
X64814675Y-45810463D01*
X64814757Y-45801549D01*
X64810615Y-45736548D01*
X64798189Y-45676513D01*
X64777477Y-45621445D01*
X64742844Y-45563476D01*
X64704183Y-45519169D01*
X64696935Y-45512267D01*
X64649045Y-45475214D01*
X64593963Y-45445827D01*
X64531689Y-45424106D01*
X64474300Y-45411862D01*
X64411917Y-45404941D01*
X64358414Y-45403237D01*
X64297806Y-45405481D01*
X64232731Y-45413541D01*
X64172125Y-45427463D01*
X64115989Y-45447247D01*
X64109286Y-45450132D01*
X64053354Y-45480524D01*
X64005906Y-45518612D01*
X63966944Y-45564398D01*
X63948965Y-45593161D01*
X63923180Y-45648558D01*
X63905833Y-45706597D01*
X63896925Y-45767280D01*
X63895623Y-45802135D01*
X63899129Y-45862085D01*
X63911723Y-45924486D01*
X63933476Y-45980366D01*
X63968896Y-46035436D01*
X64014980Y-46081373D01*
X64064119Y-46113526D01*
X64120951Y-46137510D01*
X64176990Y-46151793D01*
X64195748Y-46007592D01*
X64141167Y-45985650D01*
X64093455Y-45947229D01*
X64083494Y-45934612D01*
X64056356Y-45880662D01*
X64046018Y-45821710D01*
X64045685Y-45807997D01*
X64051551Y-45748192D01*
X64071827Y-45689574D01*
X64106586Y-45639199D01*
X64119838Y-45625694D01*
X64168364Y-45591832D01*
X64230523Y-45569053D01*
X64288294Y-45558997D01*
X64354311Y-45555645D01*
X64421342Y-45558871D01*
X64479845Y-45568548D01*
X64536266Y-45587507D01*
X64586425Y-45618909D01*
X64591129Y-45623056D01*
X64629923Y-45669407D01*
X64654349Y-45723829D01*
X64664407Y-45786323D01*
X64664695Y-45799790D01*
X64658224Y-45861257D01*
X64636609Y-45918730D01*
X64618679Y-45945750D01*
X64573117Y-45986266D01*
X64516548Y-46011044D01*
X64477116Y-46019902D01*
G37*
G36*
X64796000Y-46288080D02*
G01*
X63576739Y-46288080D01*
X63576739Y-46436385D01*
X64036893Y-46436385D01*
X63988883Y-46477219D01*
X63950806Y-46521908D01*
X63918938Y-46578915D01*
X63900589Y-46641167D01*
X63895623Y-46698702D01*
X63900194Y-46762552D01*
X63913909Y-46820307D01*
X63934311Y-46867522D01*
X63970392Y-46919094D01*
X64016245Y-46957121D01*
X64040703Y-46970104D01*
X64100315Y-46989036D01*
X64163152Y-46998138D01*
X64222036Y-47001051D01*
X64237953Y-47001172D01*
X64796000Y-47001172D01*
X64796000Y-46852575D01*
X64253487Y-46852575D01*
X64191308Y-46847852D01*
X64131957Y-46829717D01*
X64095218Y-46804214D01*
X64061358Y-46754470D01*
X64046895Y-46694516D01*
X64045685Y-46667927D01*
X64053027Y-46607842D01*
X64075052Y-46551234D01*
X64079098Y-46543949D01*
X64115638Y-46496821D01*
X64166114Y-46462594D01*
X64169663Y-46461004D01*
X64228031Y-46444175D01*
X64291366Y-46437250D01*
X64327639Y-46436385D01*
X64796000Y-46436385D01*
X64796000Y-46288080D01*
G37*
G36*
X64645937Y-48427648D02*
G01*
X64796000Y-48427648D01*
X64796000Y-47628681D01*
X64735968Y-47633431D01*
X64691073Y-47645973D01*
X64634325Y-47671258D01*
X64583217Y-47701758D01*
X64532568Y-47739413D01*
X64527528Y-47743572D01*
X64480521Y-47786197D01*
X64435934Y-47831988D01*
X64394757Y-47878156D01*
X64351561Y-47930018D01*
X64345225Y-47937892D01*
X64306725Y-47985135D01*
X64261600Y-48038572D01*
X64219810Y-48085770D01*
X64174064Y-48134172D01*
X64126762Y-48179284D01*
X64096976Y-48204019D01*
X64047010Y-48237597D01*
X63993395Y-48262018D01*
X63931701Y-48273414D01*
X63926690Y-48273482D01*
X63867312Y-48264620D01*
X63811357Y-48235021D01*
X63784834Y-48210467D01*
X63749471Y-48157766D01*
X63731392Y-48099897D01*
X63726802Y-48045750D01*
X63732154Y-47983038D01*
X63750406Y-47923643D01*
X63781610Y-47874291D01*
X63828610Y-47835054D01*
X63887398Y-47813621D01*
X63933138Y-47809225D01*
X63914381Y-47656817D01*
X63855363Y-47665693D01*
X63793463Y-47683757D01*
X63739052Y-47710123D01*
X63686039Y-47750423D01*
X63663201Y-47774640D01*
X63629511Y-47822743D01*
X63604096Y-47877551D01*
X63586956Y-47939062D01*
X63578850Y-47997121D01*
X63576739Y-48049267D01*
X63580181Y-48111898D01*
X63592895Y-48178534D01*
X63614978Y-48238242D01*
X63646430Y-48291022D01*
X63674632Y-48324480D01*
X63719575Y-48363994D01*
X63776435Y-48397269D01*
X63839157Y-48417868D01*
X63898847Y-48425493D01*
X63916725Y-48425889D01*
X63976111Y-48421004D01*
X64034722Y-48406347D01*
X64061512Y-48396287D01*
X64115780Y-48368562D01*
X64167408Y-48333445D01*
X64210989Y-48297808D01*
X64259322Y-48251878D01*
X64302653Y-48206217D01*
X64343790Y-48160158D01*
X64388616Y-48107711D01*
X64420549Y-48069197D01*
X64458863Y-48022437D01*
X64497337Y-47976376D01*
X64536954Y-47930590D01*
X64567974Y-47897445D01*
X64614123Y-47857197D01*
X64645937Y-47835017D01*
X64645937Y-48427648D01*
G37*
G36*
X64258444Y-48583158D02*
G01*
X64317498Y-48586311D01*
X64391027Y-48593785D01*
X64458603Y-48604996D01*
X64520226Y-48619943D01*
X64575895Y-48638628D01*
X64637109Y-48667239D01*
X64689021Y-48701688D01*
X64731752Y-48741695D01*
X64770430Y-48795038D01*
X64797076Y-48855561D01*
X64810337Y-48913154D01*
X64814757Y-48976022D01*
X64812243Y-49024203D01*
X64801069Y-49083444D01*
X64777813Y-49143259D01*
X64743243Y-49195840D01*
X64703767Y-49236653D01*
X64656854Y-49272044D01*
X64602504Y-49302013D01*
X64540717Y-49326559D01*
X64515376Y-49334364D01*
X64450637Y-49349589D01*
X64388896Y-49359312D01*
X64321384Y-49365965D01*
X64260716Y-49369164D01*
X64196041Y-49370230D01*
X64162896Y-49369990D01*
X64100516Y-49368074D01*
X64034328Y-49363415D01*
X63967375Y-49354897D01*
X63909691Y-49342972D01*
X63896519Y-49339485D01*
X63840391Y-49321808D01*
X63784062Y-49298361D01*
X63729440Y-49267941D01*
X63694544Y-49242442D01*
X63650374Y-49198148D01*
X63616013Y-49146601D01*
X63595302Y-49098458D01*
X63581380Y-49040080D01*
X63576739Y-48976022D01*
X63576816Y-48974556D01*
X63726802Y-48974556D01*
X63727621Y-48993712D01*
X63742184Y-49053246D01*
X63774951Y-49106140D01*
X63820005Y-49148066D01*
X63878330Y-49178585D01*
X63937654Y-49195751D01*
X63997291Y-49206310D01*
X64066202Y-49213463D01*
X64128008Y-49216732D01*
X64195748Y-49217822D01*
X64263159Y-49216732D01*
X64324709Y-49213463D01*
X64393402Y-49206310D01*
X64452936Y-49195751D01*
X64512287Y-49178585D01*
X64570905Y-49148066D01*
X64587666Y-49134704D01*
X64628058Y-49091216D01*
X64655535Y-49036914D01*
X64664695Y-48976315D01*
X64663875Y-48957422D01*
X64649312Y-48898574D01*
X64616546Y-48846081D01*
X64571491Y-48804270D01*
X64565464Y-48799979D01*
X64512946Y-48773752D01*
X64453554Y-48756586D01*
X64393923Y-48746027D01*
X64325075Y-48738874D01*
X64263361Y-48735604D01*
X64195748Y-48734515D01*
X64178281Y-48734589D01*
X64111882Y-48736389D01*
X64051034Y-48740589D01*
X63982778Y-48749213D01*
X63923196Y-48761586D01*
X63863144Y-48781383D01*
X63808868Y-48811304D01*
X63803819Y-48815155D01*
X63762145Y-48858100D01*
X63734816Y-48914662D01*
X63726802Y-48974556D01*
X63576816Y-48974556D01*
X63579243Y-48928139D01*
X63590371Y-48869200D01*
X63613532Y-48809594D01*
X63647960Y-48757083D01*
X63687198Y-48716361D01*
X63733983Y-48680952D01*
X63788315Y-48650855D01*
X63850193Y-48626071D01*
X63875495Y-48618214D01*
X63940262Y-48602887D01*
X64002161Y-48593098D01*
X64069955Y-48586400D01*
X64130952Y-48583180D01*
X64196041Y-48582107D01*
X64258444Y-48583158D01*
G37*
G36*
X64645937Y-50296399D02*
G01*
X64796000Y-50296399D01*
X64796000Y-49497431D01*
X64735968Y-49502182D01*
X64691073Y-49514724D01*
X64634325Y-49540009D01*
X64583217Y-49570509D01*
X64532568Y-49608164D01*
X64527528Y-49612323D01*
X64480521Y-49654948D01*
X64435934Y-49700739D01*
X64394757Y-49746907D01*
X64351561Y-49798769D01*
X64345225Y-49806643D01*
X64306725Y-49853886D01*
X64261600Y-49907323D01*
X64219810Y-49954521D01*
X64174064Y-50002923D01*
X64126762Y-50048035D01*
X64096976Y-50072770D01*
X64047010Y-50106348D01*
X63993395Y-50130769D01*
X63931701Y-50142165D01*
X63926690Y-50142233D01*
X63867312Y-50133371D01*
X63811357Y-50103771D01*
X63784834Y-50079218D01*
X63749471Y-50026516D01*
X63731392Y-49968648D01*
X63726802Y-49914501D01*
X63732154Y-49851789D01*
X63750406Y-49792394D01*
X63781610Y-49743042D01*
X63828610Y-49703804D01*
X63887398Y-49682372D01*
X63933138Y-49677976D01*
X63914381Y-49525568D01*
X63855363Y-49534443D01*
X63793463Y-49552507D01*
X63739052Y-49578874D01*
X63686039Y-49619174D01*
X63663201Y-49643391D01*
X63629511Y-49691494D01*
X63604096Y-49746302D01*
X63586956Y-49807813D01*
X63578850Y-49865872D01*
X63576739Y-49918018D01*
X63580181Y-49980649D01*
X63592895Y-50047285D01*
X63614978Y-50106993D01*
X63646430Y-50159773D01*
X63674632Y-50193230D01*
X63719575Y-50232745D01*
X63776435Y-50266020D01*
X63839157Y-50286618D01*
X63898847Y-50294244D01*
X63916725Y-50294640D01*
X63976111Y-50289755D01*
X64034722Y-50275098D01*
X64061512Y-50265038D01*
X64115780Y-50237313D01*
X64167408Y-50202196D01*
X64210989Y-50166559D01*
X64259322Y-50120629D01*
X64302653Y-50074968D01*
X64343790Y-50028909D01*
X64388616Y-49976462D01*
X64420549Y-49937948D01*
X64458863Y-49891188D01*
X64497337Y-49845127D01*
X64536954Y-49799341D01*
X64567974Y-49766196D01*
X64614123Y-49725948D01*
X64645937Y-49703768D01*
X64645937Y-50296399D01*
G37*
G36*
X64514632Y-50926545D02*
G01*
X64796000Y-50926545D01*
X64796000Y-51074849D01*
X64514632Y-51074849D01*
X64514632Y-51238101D01*
X64364569Y-51238101D01*
X64364569Y-51074849D01*
X63595497Y-51074849D01*
X63595497Y-50953803D01*
X63633502Y-50926545D01*
X63837004Y-50926545D01*
X64364569Y-50926545D01*
X64364569Y-50548164D01*
X63837004Y-50926545D01*
X63633502Y-50926545D01*
X64364569Y-50402205D01*
X64514632Y-50402205D01*
X64514632Y-50926545D01*
G37*
G36*
X65152399Y-51936831D02*
G01*
X63576739Y-51936831D01*
X63576739Y-52066085D01*
X65152399Y-52066085D01*
X65152399Y-51936831D01*
G37*
G36*
X64796000Y-53268932D02*
G01*
X64795919Y-53283226D01*
X64793575Y-53344063D01*
X64787164Y-53404971D01*
X64775483Y-53463838D01*
X64768508Y-53488008D01*
X64745952Y-53544755D01*
X64714520Y-53596022D01*
X64698157Y-53615208D01*
X64650681Y-53655327D01*
X64599628Y-53684535D01*
X64561508Y-53700307D01*
X64501511Y-53715516D01*
X64438135Y-53720586D01*
X64424800Y-53720356D01*
X64361459Y-53712301D01*
X64303671Y-53692741D01*
X64251436Y-53661674D01*
X64237005Y-53650183D01*
X64194781Y-53605441D01*
X64161603Y-53550795D01*
X64139475Y-53493147D01*
X64116888Y-53532952D01*
X64076895Y-53582563D01*
X64029565Y-53620055D01*
X64003747Y-53634398D01*
X63945616Y-53655295D01*
X63884485Y-53662260D01*
X63838385Y-53658505D01*
X63778649Y-53641812D01*
X63725630Y-53614780D01*
X63682049Y-53581710D01*
X63643037Y-53537068D01*
X63613376Y-53483768D01*
X63599100Y-53444586D01*
X63585898Y-53386461D01*
X63579029Y-53327477D01*
X63576739Y-53261605D01*
X63576739Y-53209727D01*
X63726802Y-53209727D01*
X63727846Y-53269994D01*
X63732088Y-53331830D01*
X63743508Y-53393203D01*
X63761488Y-53432670D01*
X63804471Y-53475561D01*
X63849392Y-53496388D01*
X63907933Y-53504577D01*
X63954745Y-53499498D01*
X64010808Y-53473803D01*
X64044124Y-53438318D01*
X64069426Y-53382065D01*
X64076085Y-53351287D01*
X64081856Y-53290131D01*
X64082803Y-53247536D01*
X64233264Y-53247536D01*
X64234528Y-53301886D01*
X64240393Y-53365551D01*
X64253487Y-53424270D01*
X64280818Y-53479078D01*
X64322950Y-53520404D01*
X64326063Y-53522532D01*
X64380541Y-53547390D01*
X64439600Y-53554989D01*
X64484002Y-53551023D01*
X64540717Y-53530956D01*
X64566007Y-53514801D01*
X64607542Y-53469993D01*
X64623940Y-53436940D01*
X64640075Y-53377669D01*
X64644815Y-53327973D01*
X64645937Y-53268932D01*
X64645937Y-52968220D01*
X64233264Y-52968220D01*
X64233264Y-53247536D01*
X64082803Y-53247536D01*
X64083201Y-53229658D01*
X64083201Y-52968220D01*
X63726802Y-52968220D01*
X63726802Y-53209727D01*
X63576739Y-53209727D01*
X63576739Y-52808192D01*
X64796000Y-52808192D01*
X64796000Y-53268932D01*
G37*
G36*
X64401904Y-53866948D02*
G01*
X64463817Y-53872993D01*
X64531954Y-53887501D01*
X64593373Y-53909923D01*
X64648073Y-53940258D01*
X64696055Y-53978506D01*
X64710429Y-53992885D01*
X64747987Y-54039744D01*
X64777199Y-54092188D01*
X64798065Y-54150216D01*
X64810584Y-54213830D01*
X64814757Y-54283028D01*
X64814488Y-54301902D01*
X64809309Y-54364587D01*
X64797538Y-54422027D01*
X64776014Y-54481250D01*
X64745881Y-54533621D01*
X64713069Y-54573618D01*
X64663009Y-54616346D01*
X64611077Y-54646113D01*
X64552147Y-54668150D01*
X64533390Y-54514570D01*
X64545922Y-54508039D01*
X64595754Y-54471975D01*
X64633334Y-54423126D01*
X64642368Y-54404503D01*
X64659519Y-54346191D01*
X64664695Y-54283907D01*
X64664430Y-54270346D01*
X64655174Y-54206765D01*
X64632694Y-54150224D01*
X64596990Y-54100725D01*
X64574380Y-54079416D01*
X64520445Y-54046329D01*
X64461967Y-54027416D01*
X64402085Y-54019246D01*
X64402085Y-54672254D01*
X64361638Y-54672840D01*
X64307796Y-54671099D01*
X64244860Y-54664030D01*
X64186776Y-54651522D01*
X64123478Y-54629334D01*
X64067167Y-54599315D01*
X64017842Y-54561465D01*
X63976306Y-54517542D01*
X63938710Y-54460569D01*
X63912810Y-54397425D01*
X63899919Y-54338390D01*
X63895722Y-54276287D01*
X64045685Y-54276287D01*
X64046304Y-54297129D01*
X64055577Y-54355202D01*
X64078933Y-54411897D01*
X64116027Y-54460348D01*
X64134650Y-54476337D01*
X64190445Y-54503785D01*
X64252022Y-54516329D01*
X64252022Y-54027452D01*
X64202114Y-54036512D01*
X64144948Y-54063955D01*
X64101959Y-54104535D01*
X64069920Y-54156302D01*
X64051181Y-54215688D01*
X64045685Y-54276287D01*
X63895722Y-54276287D01*
X63895623Y-54274822D01*
X63896101Y-54252408D01*
X63903280Y-54188341D01*
X63919072Y-54129035D01*
X63943479Y-54074489D01*
X63976500Y-54024704D01*
X64018135Y-53979678D01*
X64058846Y-53946918D01*
X64114103Y-53914934D01*
X64176346Y-53890946D01*
X64233551Y-53877064D01*
X64295609Y-53868735D01*
X64362517Y-53865959D01*
X64401904Y-53866948D01*
G37*
G36*
X64796000Y-54849867D02*
G01*
X63914381Y-54849867D01*
X63914381Y-54983224D01*
X64038944Y-54983224D01*
X63990237Y-55022403D01*
X63951608Y-55067620D01*
X63923055Y-55118876D01*
X63904580Y-55176169D01*
X63896183Y-55239501D01*
X63895623Y-55261953D01*
X63900363Y-55324122D01*
X63914584Y-55382034D01*
X63924346Y-55407327D01*
X63952700Y-55459091D01*
X63993623Y-55502450D01*
X63999377Y-55506685D01*
X64053543Y-55536249D01*
X64109579Y-55552993D01*
X64171107Y-55559397D01*
X64235754Y-55561128D01*
X64254660Y-55561200D01*
X64796000Y-55561200D01*
X64796000Y-55412896D01*
X64274883Y-55412896D01*
X64214584Y-55410464D01*
X64153804Y-55399656D01*
X64142113Y-55395603D01*
X64092110Y-55361294D01*
X64072064Y-55334054D01*
X64050039Y-55276371D01*
X64045685Y-55230593D01*
X64052647Y-55168556D01*
X64073530Y-55112614D01*
X64104597Y-55067048D01*
X64151749Y-55030726D01*
X64211855Y-55009538D01*
X64270176Y-55000593D01*
X64328226Y-54998171D01*
X64796000Y-54998171D01*
X64796000Y-54849867D01*
G37*
G36*
X64796000Y-56429630D02*
G01*
X64308295Y-56429630D01*
X64308295Y-56739720D01*
X64307340Y-56786412D01*
X64301499Y-56858038D01*
X64290350Y-56921921D01*
X64269961Y-56988361D01*
X64241928Y-57043652D01*
X64199558Y-57094068D01*
X64171545Y-57117080D01*
X64118886Y-57149968D01*
X64061598Y-57173460D01*
X63999682Y-57187555D01*
X63933138Y-57192254D01*
X63882883Y-57189356D01*
X63824672Y-57177942D01*
X63765197Y-57155617D01*
X63737706Y-57141044D01*
X63686343Y-57103742D01*
X63646202Y-57058604D01*
X63624453Y-57022512D01*
X63602162Y-56967248D01*
X63588463Y-56909420D01*
X63580872Y-56848409D01*
X63577667Y-56788772D01*
X63576933Y-56738841D01*
X63726802Y-56738841D01*
X63726971Y-56764958D01*
X63729185Y-56825777D01*
X63737646Y-56888025D01*
X63738763Y-56891903D01*
X63766359Y-56947572D01*
X63808868Y-56988848D01*
X63819170Y-56995710D01*
X63876400Y-57019894D01*
X63938414Y-57027243D01*
X63993561Y-57022096D01*
X64050888Y-57001827D01*
X64100787Y-56962177D01*
X64125919Y-56924020D01*
X64145610Y-56867649D01*
X64155484Y-56805592D01*
X64158233Y-56742065D01*
X64158233Y-56429630D01*
X63726802Y-56429630D01*
X63726802Y-56738841D01*
X63576933Y-56738841D01*
X63576739Y-56725652D01*
X63576739Y-56269602D01*
X64796000Y-56269602D01*
X64796000Y-56429630D01*
G37*
G36*
X64575220Y-57320344D02*
G01*
X64639054Y-57330922D01*
X64695159Y-57356614D01*
X64743536Y-57397418D01*
X64774695Y-57440410D01*
X64799108Y-57498718D01*
X64811349Y-57559383D01*
X64814757Y-57619288D01*
X64812907Y-57662390D01*
X64803194Y-57724366D01*
X64785155Y-57783126D01*
X64781289Y-57792675D01*
X64754089Y-57846057D01*
X64720647Y-57895848D01*
X64683452Y-57941688D01*
X64740296Y-57951404D01*
X64796000Y-57971290D01*
X64796000Y-58126336D01*
X64788432Y-58122891D01*
X64730360Y-58101652D01*
X64669970Y-58088527D01*
X64661222Y-58087391D01*
X64602335Y-58082812D01*
X64537049Y-58080467D01*
X64477481Y-58079478D01*
X64408826Y-58079148D01*
X64222420Y-58079148D01*
X64210984Y-58079120D01*
X64151414Y-58077746D01*
X64091115Y-58071821D01*
X64041354Y-58056466D01*
X63989412Y-58025512D01*
X63986897Y-58023424D01*
X63948268Y-57976805D01*
X63922294Y-57922637D01*
X63920653Y-57918218D01*
X63905025Y-57858757D01*
X63897732Y-57800139D01*
X63895623Y-57740334D01*
X63895741Y-57726335D01*
X63899190Y-57665943D01*
X63908624Y-57603844D01*
X63925811Y-57541618D01*
X63940239Y-57506097D01*
X63970649Y-57454145D01*
X64011687Y-57410607D01*
X64045793Y-57387093D01*
X64099923Y-57362089D01*
X64158233Y-57345540D01*
X64176990Y-57490621D01*
X64167970Y-57493726D01*
X64114635Y-57521102D01*
X64074702Y-57564480D01*
X64059400Y-57600973D01*
X64048519Y-57658895D01*
X64045685Y-57718939D01*
X64048397Y-57771604D01*
X64060978Y-57832712D01*
X64089063Y-57888053D01*
X64139985Y-57921942D01*
X64199852Y-57929965D01*
X64233264Y-57929378D01*
X64383327Y-57929378D01*
X64425825Y-57929378D01*
X64485836Y-57924778D01*
X64541889Y-57905345D01*
X64551320Y-57899153D01*
X64594532Y-57858843D01*
X64628937Y-57807159D01*
X64642870Y-57777026D01*
X64659666Y-57716301D01*
X64664695Y-57654752D01*
X64664409Y-57638903D01*
X64656561Y-57578621D01*
X64632161Y-57523154D01*
X64607890Y-57497623D01*
X64550975Y-57478311D01*
X64549002Y-57478331D01*
X64493236Y-57498827D01*
X64485392Y-57505745D01*
X64453669Y-57557445D01*
X64450339Y-57567804D01*
X64437846Y-57625910D01*
X64429342Y-57686992D01*
X64420629Y-57753788D01*
X64411158Y-57812871D01*
X64399407Y-57870949D01*
X64383327Y-57929378D01*
X64233264Y-57929378D01*
X64236969Y-57918384D01*
X64252847Y-57859757D01*
X64265872Y-57795071D01*
X64276426Y-57728763D01*
X64284848Y-57664717D01*
X64286207Y-57653863D01*
X64295208Y-57591799D01*
X64307416Y-57532826D01*
X64326556Y-57479687D01*
X64356655Y-57425847D01*
X64394464Y-57383129D01*
X64442824Y-57349351D01*
X64446188Y-57347547D01*
X64503038Y-57326481D01*
X64561526Y-57320041D01*
X64575220Y-57320344D01*
G37*
G36*
X64796000Y-58303070D02*
G01*
X63914381Y-58303070D01*
X63914381Y-58436720D01*
X64044806Y-58436720D01*
X63993904Y-58467849D01*
X63945875Y-58506092D01*
X63924639Y-58531095D01*
X63900411Y-58585602D01*
X63895623Y-58626350D01*
X63903265Y-58687700D01*
X63923887Y-58745017D01*
X63941931Y-58778757D01*
X64079098Y-58727759D01*
X64054039Y-58673318D01*
X64045685Y-58619023D01*
X64058434Y-58559331D01*
X64075288Y-58531388D01*
X64121221Y-58491729D01*
X64157353Y-58476287D01*
X64219507Y-58461106D01*
X64280247Y-58453345D01*
X64332622Y-58451374D01*
X64796000Y-58451374D01*
X64796000Y-58303070D01*
G37*
G36*
X64796000Y-58864047D02*
G01*
X63914381Y-58864047D01*
X63914381Y-58996817D01*
X64059461Y-58996817D01*
X64008147Y-59031604D01*
X63964994Y-59073974D01*
X63940759Y-59106434D01*
X63913254Y-59160330D01*
X63898444Y-59219585D01*
X63895623Y-59262065D01*
X63901060Y-59324807D01*
X63919394Y-59383774D01*
X63941638Y-59421507D01*
X63984882Y-59466135D01*
X64035619Y-59496511D01*
X64070012Y-59509434D01*
X64019773Y-59543396D01*
X63970726Y-59588211D01*
X63933941Y-59637458D01*
X63909417Y-59691135D01*
X63897155Y-59749242D01*
X63895623Y-59779958D01*
X63900166Y-59841269D01*
X63916137Y-59901266D01*
X63947369Y-59956782D01*
X63968309Y-59980139D01*
X64021226Y-60017079D01*
X64081968Y-60038627D01*
X64146393Y-60048478D01*
X64191645Y-60050188D01*
X64796000Y-60050188D01*
X64796000Y-59902470D01*
X64256125Y-59902470D01*
X64193477Y-59900100D01*
X64133404Y-59888992D01*
X64130975Y-59888108D01*
X64081791Y-59853212D01*
X64069133Y-59835645D01*
X64048456Y-59780341D01*
X64045685Y-59746838D01*
X64052785Y-59687071D01*
X64076725Y-59630324D01*
X64105769Y-59593551D01*
X64155631Y-59558843D01*
X64215806Y-59539792D01*
X64274127Y-59533124D01*
X64298330Y-59532588D01*
X64796000Y-59532588D01*
X64796000Y-59383991D01*
X64239419Y-59383991D01*
X64178471Y-59379697D01*
X64121266Y-59363548D01*
X64094046Y-59347648D01*
X64057775Y-59299947D01*
X64045874Y-59239095D01*
X64045685Y-59228946D01*
X64053745Y-59168789D01*
X64077926Y-59113175D01*
X64117639Y-59067379D01*
X64168447Y-59037622D01*
X64172301Y-59036092D01*
X64231831Y-59020721D01*
X64296334Y-59013835D01*
X64351380Y-59012351D01*
X64796000Y-59012351D01*
X64796000Y-58864047D01*
G37*
G36*
X64401904Y-60214136D02*
G01*
X64463817Y-60220181D01*
X64531954Y-60234689D01*
X64593373Y-60257110D01*
X64648073Y-60287445D01*
X64696055Y-60325694D01*
X64710429Y-60340073D01*
X64747987Y-60386932D01*
X64777199Y-60439376D01*
X64798065Y-60497404D01*
X64810584Y-60561018D01*
X64814757Y-60630216D01*
X64814488Y-60649089D01*
X64809309Y-60711775D01*
X64797538Y-60769214D01*
X64776014Y-60828437D01*
X64745881Y-60880809D01*
X64713069Y-60920806D01*
X64663009Y-60963534D01*
X64611077Y-60993301D01*
X64552147Y-61015338D01*
X64533390Y-60861758D01*
X64545922Y-60855227D01*
X64595754Y-60819163D01*
X64633334Y-60770314D01*
X64642368Y-60751690D01*
X64659519Y-60693379D01*
X64664695Y-60631095D01*
X64664430Y-60617534D01*
X64655174Y-60553953D01*
X64632694Y-60497412D01*
X64596990Y-60447913D01*
X64574380Y-60426604D01*
X64520445Y-60393516D01*
X64461967Y-60374603D01*
X64402085Y-60366434D01*
X64402085Y-61019441D01*
X64361638Y-61020027D01*
X64307796Y-61018287D01*
X64244860Y-61011217D01*
X64186776Y-60998710D01*
X64123478Y-60976522D01*
X64067167Y-60946503D01*
X64017842Y-60908653D01*
X63976306Y-60864730D01*
X63938710Y-60807757D01*
X63912810Y-60744613D01*
X63899919Y-60685578D01*
X63895722Y-60623475D01*
X64045685Y-60623475D01*
X64046304Y-60644316D01*
X64055577Y-60702390D01*
X64078933Y-60759084D01*
X64116027Y-60807536D01*
X64134650Y-60823525D01*
X64190445Y-60850973D01*
X64252022Y-60863517D01*
X64252022Y-60374640D01*
X64202114Y-60383700D01*
X64144948Y-60411143D01*
X64101959Y-60451723D01*
X64069920Y-60503490D01*
X64051181Y-60562876D01*
X64045685Y-60623475D01*
X63895722Y-60623475D01*
X63895623Y-60622009D01*
X63896101Y-60599596D01*
X63903280Y-60535529D01*
X63919072Y-60476223D01*
X63943479Y-60421677D01*
X63976500Y-60371891D01*
X64018135Y-60326866D01*
X64058846Y-60294105D01*
X64114103Y-60262122D01*
X64176346Y-60238134D01*
X64233551Y-60224252D01*
X64295609Y-60215923D01*
X64362517Y-60213147D01*
X64401904Y-60214136D01*
G37*
G36*
X64669384Y-61520921D02*
G01*
X64800396Y-61542316D01*
X64811167Y-61482965D01*
X64814757Y-61430355D01*
X64810646Y-61370628D01*
X64794297Y-61313585D01*
X64789845Y-61304912D01*
X64750457Y-61258059D01*
X64724485Y-61242484D01*
X64666925Y-61229441D01*
X64606726Y-61225182D01*
X64554199Y-61224312D01*
X64064443Y-61224312D01*
X64064443Y-61115282D01*
X63914381Y-61115282D01*
X63914381Y-61224312D01*
X63697493Y-61224312D01*
X63608686Y-61371737D01*
X63914381Y-61371737D01*
X63914381Y-61520921D01*
X64064443Y-61520921D01*
X64064443Y-61371737D01*
X64549803Y-61371737D01*
X64610234Y-61375019D01*
X64627179Y-61379357D01*
X64654729Y-61404856D01*
X64664695Y-61455854D01*
X64668816Y-61515927D01*
X64669384Y-61520921D01*
G37*
G36*
X64401904Y-61615113D02*
G01*
X64463817Y-61621158D01*
X64531954Y-61635666D01*
X64593373Y-61658087D01*
X64648073Y-61688422D01*
X64696055Y-61726671D01*
X64710429Y-61741049D01*
X64747987Y-61787909D01*
X64777199Y-61840353D01*
X64798065Y-61898381D01*
X64810584Y-61961995D01*
X64814757Y-62031193D01*
X64814488Y-62050066D01*
X64809309Y-62112751D01*
X64797538Y-62170191D01*
X64776014Y-62229414D01*
X64745881Y-62281786D01*
X64713069Y-62321783D01*
X64663009Y-62364511D01*
X64611077Y-62394278D01*
X64552147Y-62416315D01*
X64533390Y-62262735D01*
X64545922Y-62256204D01*
X64595754Y-62220140D01*
X64633334Y-62171290D01*
X64642368Y-62152667D01*
X64659519Y-62094356D01*
X64664695Y-62032072D01*
X64664430Y-62018511D01*
X64655174Y-61954929D01*
X64632694Y-61898389D01*
X64596990Y-61848890D01*
X64574380Y-61827581D01*
X64520445Y-61794493D01*
X64461967Y-61775580D01*
X64402085Y-61767411D01*
X64402085Y-62420418D01*
X64361638Y-62421004D01*
X64307796Y-62419264D01*
X64244860Y-62412194D01*
X64186776Y-62399687D01*
X64123478Y-62377499D01*
X64067167Y-62347480D01*
X64017842Y-62309630D01*
X63976306Y-62265707D01*
X63938710Y-62208734D01*
X63912810Y-62145590D01*
X63899919Y-62086555D01*
X63895722Y-62024452D01*
X64045685Y-62024452D01*
X64046304Y-62045293D01*
X64055577Y-62103367D01*
X64078933Y-62160061D01*
X64116027Y-62208513D01*
X64134650Y-62224501D01*
X64190445Y-62251950D01*
X64252022Y-62264494D01*
X64252022Y-61775617D01*
X64202114Y-61784677D01*
X64144948Y-61812120D01*
X64101959Y-61852700D01*
X64069920Y-61904467D01*
X64051181Y-61963853D01*
X64045685Y-62024452D01*
X63895722Y-62024452D01*
X63895623Y-62022986D01*
X63896101Y-62000573D01*
X63903280Y-61936506D01*
X63919072Y-61877200D01*
X63943479Y-61822654D01*
X63976500Y-61772868D01*
X64018135Y-61727843D01*
X64058846Y-61695082D01*
X64114103Y-61663099D01*
X64176346Y-61639111D01*
X64233551Y-61625229D01*
X64295609Y-61616900D01*
X64362517Y-61614124D01*
X64401904Y-61615113D01*
G37*
G36*
X64796000Y-62596273D02*
G01*
X63914381Y-62596273D01*
X63914381Y-62729923D01*
X64044806Y-62729923D01*
X63993904Y-62761052D01*
X63945875Y-62799296D01*
X63924639Y-62824298D01*
X63900411Y-62878805D01*
X63895623Y-62919553D01*
X63903265Y-62980903D01*
X63923887Y-63038221D01*
X63941931Y-63071960D01*
X64079098Y-63020963D01*
X64054039Y-62966521D01*
X64045685Y-62912226D01*
X64058434Y-62852534D01*
X64075288Y-62824591D01*
X64121221Y-62784932D01*
X64157353Y-62769490D01*
X64219507Y-62754309D01*
X64280247Y-62746548D01*
X64332622Y-62744577D01*
X64796000Y-62744577D01*
X64796000Y-62596273D01*
G37*
%LPC*%
D11*
X86500000Y-37250000D03*
X86500000Y-39790000D03*
X86500000Y-42330000D03*
D12*
X62250000Y-28440000D03*
D13*
X62250000Y-36060000D03*
D14*
X68660000Y-68250000D03*
D15*
X61040000Y-68250000D03*
X50880000Y-68250000D03*
X48340000Y-68250000D03*
D12*
X53940000Y-40000000D03*
D13*
X61560000Y-40000000D03*
D12*
X38440000Y-61832500D03*
D13*
X46060000Y-61832500D03*
D16*
X86000000Y-29000000D03*
D17*
X42332500Y-67852500D03*
D18*
X42332500Y-66582500D03*
X42332500Y-65312500D03*
D12*
X38440000Y-41250000D03*
D13*
X46060000Y-41250000D03*
D19*
X79250000Y-51750000D03*
X74170000Y-51740000D03*
D12*
X53250000Y-36060000D03*
D13*
X53250000Y-28440000D03*
D14*
X68660000Y-47750000D03*
D15*
X61040000Y-47750000D03*
X50880000Y-47750000D03*
X48340000Y-47750000D03*
D20*
X72960000Y-26590000D03*
D21*
X67880000Y-28750000D03*
D22*
X70420000Y-28750000D03*
X72960000Y-28750000D03*
X75500000Y-28750000D03*
D12*
X38440000Y-51750000D03*
D13*
X46060000Y-51750000D03*
D12*
X35750000Y-51380000D03*
D13*
X35750000Y-59000000D03*
D12*
X57500000Y-36060000D03*
D13*
X57500000Y-28440000D03*
D16*
X86000000Y-67000000D03*
D12*
X42500000Y-30750000D03*
D13*
X34880000Y-30750000D03*
D23*
X27725000Y-60250000D03*
D24*
X27725000Y-57750000D03*
X27725000Y-55250000D03*
X27725000Y-52750000D03*
X27725000Y-50250000D03*
X27725000Y-47750000D03*
D25*
X86000000Y-60080000D03*
D26*
X86000000Y-55000000D03*
X86000000Y-49920000D03*
D14*
X68660000Y-58000000D03*
D15*
X61040000Y-58000000D03*
X50880000Y-58000000D03*
X48340000Y-58000000D03*
D23*
X27750000Y-40750000D03*
D24*
X27750000Y-38250000D03*
X27750000Y-35750000D03*
D12*
X35750000Y-61272500D03*
D13*
X35750000Y-68892500D03*
D12*
X47250000Y-36310000D03*
D13*
X47250000Y-28690000D03*
D27*
X79460000Y-39500000D03*
D28*
X80730000Y-39500000D03*
X82000000Y-39500000D03*
D17*
X42332500Y-57500000D03*
D18*
X42332500Y-56230000D03*
X42332500Y-54960000D03*
D12*
X80500000Y-34060000D03*
D13*
X80500000Y-26440000D03*
D16*
X29000000Y-29000000D03*
D12*
X35750000Y-40690000D03*
D13*
X35750000Y-48310000D03*
D19*
X79250000Y-45500000D03*
X74170000Y-45490000D03*
D29*
X72500000Y-36750000D03*
D12*
X72500000Y-39250000D03*
D17*
X42332500Y-47290000D03*
D18*
X42332500Y-46020000D03*
X42332500Y-44750000D03*
D16*
X29000000Y-67000000D03*
%LPD*%
M02*
