M48
; DRILL file {KiCad 8.0.2-8.0.2-0~ubuntu22.04.1} date 2024-06-07T15:14:49-0700
; FORMAT={-:-/ absolute / metric / decimal}
; #@! TF.CreationDate,2024-06-07T15:14:49-07:00
; #@! TF.GenerationSoftware,Kicad,Pcbnew,8.0.2-8.0.2-0~ubuntu22.04.1
; #@! TF.FileFunction,Plated,1,2,PTH
FMAT,2
METRIC
; #@! TA.AperFunction,Plated,PTH,ComponentDrill
T1C0.750
; #@! TA.AperFunction,Plated,PTH,ComponentDrill
T2C0.800
; #@! TA.AperFunction,Plated,PTH,ComponentDrill
T3C0.950
; #@! TA.AperFunction,Plated,PTH,ComponentDrill
T4C1.000
; #@! TA.AperFunction,Plated,PTH,ComponentDrill
T5C1.020
; #@! TA.AperFunction,Plated,PTH,ComponentDrill
T6C1.143
; #@! TA.AperFunction,Plated,PTH,ComponentDrill
T7C1.520
%
G90
G05
T1
X42.332Y-44.75
X42.332Y-46.02
X42.332Y-47.29
X42.332Y-54.96
X42.332Y-56.23
X42.332Y-57.5
X42.332Y-65.312
X42.332Y-66.582
X42.332Y-67.852
X79.46Y-39.5
X80.73Y-39.5
X82.0Y-39.5
T2
X34.88Y-30.75
X35.75Y-40.69
X35.75Y-48.31
X35.75Y-51.38
X35.75Y-59.0
X35.75Y-61.272
X35.75Y-68.892
X38.44Y-41.25
X38.44Y-51.75
X38.44Y-61.832
X42.5Y-30.75
X46.06Y-41.25
X46.06Y-51.75
X46.06Y-61.832
X47.25Y-28.69
X47.25Y-36.31
X53.25Y-28.44
X53.25Y-36.06
X53.94Y-40.0
X57.5Y-28.44
X57.5Y-36.06
X61.56Y-40.0
X62.25Y-28.44
X62.25Y-36.06
X72.5Y-36.75
X72.5Y-39.25
X80.5Y-26.44
X80.5Y-34.06
T3
X27.725Y-47.75
X27.725Y-50.25
X27.725Y-52.75
X27.725Y-55.25
X27.725Y-57.75
X27.725Y-60.25
X27.75Y-35.75
X27.75Y-38.25
X27.75Y-40.75
T4
X48.34Y-47.75
X48.34Y-58.0
X48.34Y-68.25
X50.88Y-47.75
X50.88Y-58.0
X50.88Y-68.25
X61.04Y-47.75
X61.04Y-58.0
X61.04Y-68.25
X68.66Y-47.75
X68.66Y-58.0
X68.66Y-68.25
X74.17Y-45.49
X74.17Y-51.74
X79.25Y-45.5
X79.25Y-51.75
T5
X67.88Y-28.75
X70.42Y-28.75
X72.96Y-28.75
X75.5Y-28.75
T6
X86.5Y-37.25
X86.5Y-39.79
X86.5Y-42.33
T7
X86.0Y-49.92
X86.0Y-55.0
X86.0Y-60.08
M30
