G04 #@! TF.GenerationSoftware,KiCad,Pcbnew,9.0.6*
G04 #@! TF.CreationDate,2025-12-27T08:39:55-07:00*
G04 #@! TF.ProjectId,pifire-relay-pwm-module-SSR,70696669-7265-42d7-9265-6c61792d7077,rev?*
G04 #@! TF.SameCoordinates,Original*
G04 #@! TF.FileFunction,Copper,L1,Top*
G04 #@! TF.FilePolarity,Positive*
%FSLAX46Y46*%
G04 Gerber Fmt 4.6, Leading zero omitted, Abs format (unit mm)*
G04 Created by KiCad (PCBNEW 9.0.6) date 2025-12-27 08:39:55*
%MOMM*%
%LPD*%
G01*
G04 APERTURE LIST*
G04 Aperture macros list*
%AMRoundRect*
0 Rectangle with rounded corners*
0 $1 Rounding radius*
0 $2 $3 $4 $5 $6 $7 $8 $9 X,Y pos of 4 corners*
0 Add a 4 corners polygon primitive as box body*
4,1,4,$2,$3,$4,$5,$6,$7,$8,$9,$2,$3,0*
0 Add four circle primitives for the rounded corners*
1,1,$1+$1,$2,$3*
1,1,$1+$1,$4,$5*
1,1,$1+$1,$6,$7*
1,1,$1+$1,$8,$9*
0 Add four rect primitives between the rounded corners*
20,1,$1+$1,$2,$3,$4,$5,0*
20,1,$1+$1,$4,$5,$6,$7,0*
20,1,$1+$1,$6,$7,$8,$9,0*
20,1,$1+$1,$8,$9,$2,$3,0*%
G04 Aperture macros list end*
G04 #@! TA.AperFunction,ComponentPad*
%ADD10C,1.600000*%
G04 #@! TD*
G04 #@! TA.AperFunction,ComponentPad*
%ADD11O,1.600000X1.600000*%
G04 #@! TD*
G04 #@! TA.AperFunction,ComponentPad*
%ADD12R,1.508000X1.508000*%
G04 #@! TD*
G04 #@! TA.AperFunction,ComponentPad*
%ADD13C,1.508000*%
G04 #@! TD*
G04 #@! TA.AperFunction,ComponentPad*
%ADD14R,1.500000X1.050000*%
G04 #@! TD*
G04 #@! TA.AperFunction,ComponentPad*
%ADD15O,1.500000X1.050000*%
G04 #@! TD*
G04 #@! TA.AperFunction,ComponentPad*
%ADD16C,2.000000*%
G04 #@! TD*
G04 #@! TA.AperFunction,ComponentPad*
%ADD17R,1.730000X2.030000*%
G04 #@! TD*
G04 #@! TA.AperFunction,ComponentPad*
%ADD18O,1.730000X2.030000*%
G04 #@! TD*
G04 #@! TA.AperFunction,ComponentPad*
%ADD19RoundRect,0.250000X0.725000X-0.600000X0.725000X0.600000X-0.725000X0.600000X-0.725000X-0.600000X0*%
G04 #@! TD*
G04 #@! TA.AperFunction,ComponentPad*
%ADD20O,1.950000X1.700000*%
G04 #@! TD*
G04 #@! TA.AperFunction,ComponentPad*
%ADD21R,3.000000X3.000000*%
G04 #@! TD*
G04 #@! TA.AperFunction,ComponentPad*
%ADD22C,3.000000*%
G04 #@! TD*
G04 #@! TA.AperFunction,ComponentPad*
%ADD23C,1.651000*%
G04 #@! TD*
G04 #@! TA.AperFunction,ComponentPad*
%ADD24R,1.050000X1.500000*%
G04 #@! TD*
G04 #@! TA.AperFunction,ComponentPad*
%ADD25O,1.050000X1.500000*%
G04 #@! TD*
G04 #@! TA.AperFunction,ComponentPad*
%ADD26R,1.600000X1.600000*%
G04 #@! TD*
G04 #@! TA.AperFunction,Conductor*
%ADD27C,0.400000*%
G04 #@! TD*
G04 #@! TA.AperFunction,Conductor*
%ADD28C,3.000000*%
G04 #@! TD*
G04 #@! TA.AperFunction,Conductor*
%ADD29C,0.200000*%
G04 #@! TD*
G04 APERTURE END LIST*
D10*
X62250000Y-28440000D03*
D11*
X62250000Y-36060000D03*
D12*
X68660000Y-68250000D03*
D13*
X61040000Y-68250000D03*
X50880000Y-68250000D03*
X48340000Y-68250000D03*
D10*
X53940000Y-40000000D03*
D11*
X61560000Y-40000000D03*
D10*
X38440000Y-61832500D03*
D11*
X46060000Y-61832500D03*
D14*
X42332500Y-67852500D03*
D15*
X42332500Y-66582500D03*
X42332500Y-65312500D03*
D10*
X38440000Y-41250000D03*
D11*
X46060000Y-41250000D03*
D16*
X79250000Y-51750000D03*
X74170000Y-51740000D03*
D10*
X53250000Y-36060000D03*
D11*
X53250000Y-28440000D03*
D12*
X68660000Y-47750000D03*
D13*
X61040000Y-47750000D03*
X50880000Y-47750000D03*
X48340000Y-47750000D03*
D17*
X67880000Y-28750000D03*
D18*
X70420000Y-28750000D03*
X72960000Y-28750000D03*
X75500000Y-28750000D03*
D10*
X38440000Y-51750000D03*
D11*
X46060000Y-51750000D03*
D10*
X35750000Y-51380000D03*
D11*
X35750000Y-59000000D03*
D10*
X57500000Y-36060000D03*
D11*
X57500000Y-28440000D03*
D10*
X42500000Y-30750000D03*
D11*
X34880000Y-30750000D03*
D19*
X27725000Y-60250000D03*
D20*
X27725000Y-57750000D03*
X27725000Y-55250000D03*
X27725000Y-52750000D03*
X27725000Y-50250000D03*
X27725000Y-47750000D03*
D21*
X86000000Y-60080000D03*
D22*
X86000000Y-55000000D03*
X86000000Y-49920000D03*
D12*
X68660000Y-58000000D03*
D13*
X61040000Y-58000000D03*
X50880000Y-58000000D03*
X48340000Y-58000000D03*
D19*
X27750000Y-40750000D03*
D20*
X27750000Y-38250000D03*
X27750000Y-35750000D03*
D10*
X35750000Y-61272500D03*
D11*
X35750000Y-68892500D03*
D10*
X47250000Y-36310000D03*
D11*
X47250000Y-28690000D03*
D23*
X86500000Y-37250000D03*
X86500000Y-39790000D03*
X86500000Y-42330000D03*
D24*
X79460000Y-39500000D03*
D25*
X80730000Y-39500000D03*
X82000000Y-39500000D03*
D14*
X42332500Y-57500000D03*
D15*
X42332500Y-56230000D03*
X42332500Y-54960000D03*
D10*
X80500000Y-34060000D03*
D11*
X80500000Y-26440000D03*
D10*
X35750000Y-40690000D03*
D11*
X35750000Y-48310000D03*
D16*
X79250000Y-45500000D03*
X74170000Y-45490000D03*
D26*
X72500000Y-36750000D03*
D10*
X72500000Y-39250000D03*
D14*
X42332500Y-47290000D03*
D15*
X42332500Y-46020000D03*
X42332500Y-44750000D03*
D27*
X80500000Y-35000000D02*
X80500000Y-34060000D01*
X50880000Y-44370000D02*
X53250000Y-42000000D01*
X48427500Y-63500000D02*
X50880000Y-65952500D01*
X50880000Y-65952500D02*
X50880000Y-68250000D01*
X50880000Y-61047500D02*
X50880000Y-58000000D01*
X48427500Y-63500000D02*
X50880000Y-61047500D01*
X50880000Y-47750000D02*
X50880000Y-44370000D01*
X34250000Y-63500000D02*
X31000000Y-60250000D01*
X73500000Y-42000000D02*
X80500000Y-35000000D01*
X31000000Y-60250000D02*
X27725000Y-60250000D01*
X48427500Y-63500000D02*
X34250000Y-63500000D01*
X53250000Y-42000000D02*
X73500000Y-42000000D01*
X50880000Y-58000000D02*
X50880000Y-47750000D01*
D28*
X61040000Y-47750000D02*
X64540000Y-51250000D01*
X72500000Y-48750000D02*
X84830000Y-48750000D01*
X84830000Y-48750000D02*
X86000000Y-49920000D01*
X64540000Y-51250000D02*
X70000000Y-51250000D01*
X70000000Y-51250000D02*
X72500000Y-48750000D01*
D29*
X68660000Y-58000000D02*
X68660000Y-57250000D01*
D27*
X31500000Y-40750000D02*
X27750000Y-40750000D01*
X70420000Y-34670000D02*
X70420000Y-28750000D01*
X71810000Y-36060000D02*
X72500000Y-36750000D01*
X62250000Y-36060000D02*
X60060000Y-38250000D01*
X62250000Y-36060000D02*
X71810000Y-36060000D01*
X52000000Y-39000000D02*
X33250000Y-39000000D01*
X52750000Y-38250000D02*
X52000000Y-39000000D01*
X72500000Y-36750000D02*
X70420000Y-34670000D01*
X33250000Y-39000000D02*
X31500000Y-40750000D01*
X60060000Y-38250000D02*
X52750000Y-38250000D01*
D28*
X61040000Y-58000000D02*
X63790000Y-60750000D01*
X64750000Y-60750000D02*
X66250000Y-62250000D01*
X75000000Y-62250000D02*
X82250000Y-55000000D01*
X82250000Y-55000000D02*
X86000000Y-55000000D01*
X66250000Y-62250000D02*
X75000000Y-62250000D01*
X63790000Y-60750000D02*
X64750000Y-60750000D01*
D29*
X82500000Y-34250000D02*
X82500000Y-31750000D01*
X79460000Y-37290000D02*
X82500000Y-34250000D01*
X79460000Y-39500000D02*
X79460000Y-37290000D01*
X75500000Y-28750000D02*
X77750000Y-28750000D01*
X82500000Y-31750000D02*
X79500000Y-28750000D01*
X79500000Y-28750000D02*
X77750000Y-28750000D01*
X77750000Y-28750000D02*
X78190000Y-28750000D01*
X78190000Y-28750000D02*
X80500000Y-26440000D01*
G04 #@! TA.AperFunction,Conductor*
G36*
X79398756Y-25520185D02*
G01*
X79444511Y-25572989D01*
X79454455Y-25642147D01*
X79432035Y-25697385D01*
X79387715Y-25758386D01*
X79294781Y-25940776D01*
X79231522Y-26135465D01*
X79199500Y-26337648D01*
X79199500Y-26542351D01*
X79231522Y-26744534D01*
X79236173Y-26758848D01*
X79238165Y-26828690D01*
X79205921Y-26884842D01*
X77977584Y-28113181D01*
X77916261Y-28146666D01*
X77889903Y-28149500D01*
X76878828Y-28149500D01*
X76811789Y-28129815D01*
X76768434Y-28079781D01*
X76767670Y-28080171D01*
X76766096Y-28077083D01*
X76766034Y-28077011D01*
X76765881Y-28076661D01*
X76765458Y-28075830D01*
X76667880Y-27884322D01*
X76541545Y-27710437D01*
X76389563Y-27558455D01*
X76215678Y-27432120D01*
X76195834Y-27422009D01*
X76024170Y-27334541D01*
X76024167Y-27334540D01*
X75819757Y-27268124D01*
X75667105Y-27243946D01*
X75607467Y-27234500D01*
X75392533Y-27234500D01*
X75332895Y-27243946D01*
X75180243Y-27268124D01*
X75180240Y-27268124D01*
X74975832Y-27334540D01*
X74975829Y-27334541D01*
X74784321Y-27432120D01*
X74700981Y-27492671D01*
X74610437Y-27558455D01*
X74610435Y-27558457D01*
X74610434Y-27558457D01*
X74458457Y-27710434D01*
X74458457Y-27710435D01*
X74458455Y-27710437D01*
X74409908Y-27777256D01*
X74330318Y-27886802D01*
X74274988Y-27929467D01*
X74205374Y-27935446D01*
X74143579Y-27902840D01*
X74129682Y-27886802D01*
X74097933Y-27843104D01*
X74001545Y-27710437D01*
X73849563Y-27558455D01*
X73675678Y-27432120D01*
X73655834Y-27422009D01*
X73545725Y-27365905D01*
X73494929Y-27317930D01*
X73478134Y-27250109D01*
X73500672Y-27183974D01*
X73514333Y-27167744D01*
X73581789Y-27100289D01*
X73669394Y-26969179D01*
X73729737Y-26823497D01*
X73760500Y-26668842D01*
X73760500Y-26511158D01*
X73760500Y-26511155D01*
X73760499Y-26511153D01*
X73729738Y-26356510D01*
X73729737Y-26356503D01*
X73721927Y-26337648D01*
X73669397Y-26210827D01*
X73669390Y-26210814D01*
X73581789Y-26079711D01*
X73581786Y-26079707D01*
X73470292Y-25968213D01*
X73470288Y-25968210D01*
X73339185Y-25880609D01*
X73339172Y-25880602D01*
X73193501Y-25820264D01*
X73193489Y-25820261D01*
X73038845Y-25789500D01*
X73038842Y-25789500D01*
X72881158Y-25789500D01*
X72881155Y-25789500D01*
X72726510Y-25820261D01*
X72726498Y-25820264D01*
X72580827Y-25880602D01*
X72580814Y-25880609D01*
X72449711Y-25968210D01*
X72449707Y-25968213D01*
X72338213Y-26079707D01*
X72338210Y-26079711D01*
X72250609Y-26210814D01*
X72250602Y-26210827D01*
X72190264Y-26356498D01*
X72190261Y-26356510D01*
X72159500Y-26511153D01*
X72159500Y-26668846D01*
X72190261Y-26823489D01*
X72190264Y-26823501D01*
X72250602Y-26969172D01*
X72250609Y-26969185D01*
X72338210Y-27100288D01*
X72338213Y-27100292D01*
X72405660Y-27167739D01*
X72439145Y-27229062D01*
X72434161Y-27298754D01*
X72392289Y-27354687D01*
X72374275Y-27365904D01*
X72244323Y-27432118D01*
X72122678Y-27520499D01*
X72070437Y-27558455D01*
X72070435Y-27558457D01*
X72070434Y-27558457D01*
X71918457Y-27710434D01*
X71918457Y-27710435D01*
X71918455Y-27710437D01*
X71869908Y-27777256D01*
X71790318Y-27886802D01*
X71734988Y-27929467D01*
X71665374Y-27935446D01*
X71603579Y-27902840D01*
X71589682Y-27886802D01*
X71557933Y-27843104D01*
X71461545Y-27710437D01*
X71309563Y-27558455D01*
X71135678Y-27432120D01*
X71115834Y-27422009D01*
X70944170Y-27334541D01*
X70944167Y-27334540D01*
X70739757Y-27268124D01*
X70587105Y-27243946D01*
X70527467Y-27234500D01*
X70312533Y-27234500D01*
X70252895Y-27243946D01*
X70100243Y-27268124D01*
X70100240Y-27268124D01*
X69895832Y-27334540D01*
X69895829Y-27334541D01*
X69704321Y-27432120D01*
X69530438Y-27558454D01*
X69435910Y-27652982D01*
X69374586Y-27686466D01*
X69304895Y-27681482D01*
X69248962Y-27639610D01*
X69232047Y-27608632D01*
X69220674Y-27578140D01*
X69211031Y-27552284D01*
X69188798Y-27492673D01*
X69188793Y-27492664D01*
X69102547Y-27377455D01*
X69102544Y-27377452D01*
X68987335Y-27291206D01*
X68987328Y-27291202D01*
X68852482Y-27240908D01*
X68852483Y-27240908D01*
X68792883Y-27234501D01*
X68792881Y-27234500D01*
X68792873Y-27234500D01*
X68792864Y-27234500D01*
X66967129Y-27234500D01*
X66967123Y-27234501D01*
X66907516Y-27240908D01*
X66772671Y-27291202D01*
X66772664Y-27291206D01*
X66657455Y-27377452D01*
X66657452Y-27377455D01*
X66571206Y-27492664D01*
X66571202Y-27492671D01*
X66520908Y-27627517D01*
X66514501Y-27687116D01*
X66514500Y-27687135D01*
X66514500Y-29812870D01*
X66514501Y-29812876D01*
X66520908Y-29872483D01*
X66571202Y-30007328D01*
X66571206Y-30007335D01*
X66657452Y-30122544D01*
X66657455Y-30122547D01*
X66772664Y-30208793D01*
X66772671Y-30208797D01*
X66907517Y-30259091D01*
X66907516Y-30259091D01*
X66914444Y-30259835D01*
X66967127Y-30265500D01*
X68792872Y-30265499D01*
X68852483Y-30259091D01*
X68987331Y-30208796D01*
X69102546Y-30122546D01*
X69188796Y-30007331D01*
X69232048Y-29891365D01*
X69273917Y-29835433D01*
X69339381Y-29811015D01*
X69407654Y-29825866D01*
X69435910Y-29847018D01*
X69530437Y-29941545D01*
X69652582Y-30030289D01*
X69668385Y-30041770D01*
X69711051Y-30097100D01*
X69719500Y-30142088D01*
X69719500Y-34601006D01*
X69719500Y-34738994D01*
X69719500Y-34738996D01*
X69719499Y-34738996D01*
X69746418Y-34874322D01*
X69746421Y-34874332D01*
X69799222Y-35001807D01*
X69875887Y-35116545D01*
X69907161Y-35147819D01*
X69940646Y-35209142D01*
X69935662Y-35278834D01*
X69893790Y-35334767D01*
X69828326Y-35359184D01*
X69819480Y-35359500D01*
X63411744Y-35359500D01*
X63344705Y-35339815D01*
X63311425Y-35308384D01*
X63241969Y-35212784D01*
X63097213Y-35068028D01*
X62931613Y-34947715D01*
X62931612Y-34947714D01*
X62931610Y-34947713D01*
X62874653Y-34918691D01*
X62749223Y-34854781D01*
X62554534Y-34791522D01*
X62379995Y-34763878D01*
X62352352Y-34759500D01*
X62147648Y-34759500D01*
X62123329Y-34763351D01*
X61945465Y-34791522D01*
X61750776Y-34854781D01*
X61568386Y-34947715D01*
X61402786Y-35068028D01*
X61258028Y-35212786D01*
X61137715Y-35378386D01*
X61044781Y-35560776D01*
X60981522Y-35755465D01*
X60958293Y-35902129D01*
X60949500Y-35957648D01*
X60949500Y-36162352D01*
X60956674Y-36207648D01*
X60967986Y-36279068D01*
X60959031Y-36348362D01*
X60933194Y-36386147D01*
X59806162Y-37513181D01*
X59744839Y-37546666D01*
X59718481Y-37549500D01*
X57907201Y-37549500D01*
X57840162Y-37529815D01*
X57794407Y-37477011D01*
X57784463Y-37407853D01*
X57813488Y-37344297D01*
X57868882Y-37307569D01*
X57886126Y-37301966D01*
X57999219Y-37265220D01*
X58181610Y-37172287D01*
X58280668Y-37100318D01*
X58347213Y-37051971D01*
X58347215Y-37051968D01*
X58347219Y-37051966D01*
X58491966Y-36907219D01*
X58491968Y-36907215D01*
X58491971Y-36907213D01*
X58561425Y-36811616D01*
X58612287Y-36741610D01*
X58705220Y-36559219D01*
X58768477Y-36364534D01*
X58800500Y-36162352D01*
X58800500Y-35957648D01*
X58768477Y-35755466D01*
X58752947Y-35707671D01*
X58727186Y-35628386D01*
X58705220Y-35560781D01*
X58705218Y-35560778D01*
X58705218Y-35560776D01*
X58640499Y-35433760D01*
X58612287Y-35378390D01*
X58584261Y-35339815D01*
X58491971Y-35212786D01*
X58347213Y-35068028D01*
X58181613Y-34947715D01*
X58181612Y-34947714D01*
X58181610Y-34947713D01*
X58124653Y-34918691D01*
X57999223Y-34854781D01*
X57804534Y-34791522D01*
X57629995Y-34763878D01*
X57602352Y-34759500D01*
X57397648Y-34759500D01*
X57373329Y-34763351D01*
X57195465Y-34791522D01*
X57000776Y-34854781D01*
X56818386Y-34947715D01*
X56652786Y-35068028D01*
X56508028Y-35212786D01*
X56387715Y-35378386D01*
X56294781Y-35560776D01*
X56231522Y-35755465D01*
X56208293Y-35902129D01*
X56199500Y-35957648D01*
X56199500Y-36162352D01*
X56203878Y-36189995D01*
X56231522Y-36364534D01*
X56294781Y-36559223D01*
X56358691Y-36684653D01*
X56387396Y-36740988D01*
X56387715Y-36741613D01*
X56508028Y-36907213D01*
X56652786Y-37051971D01*
X56807749Y-37164556D01*
X56818390Y-37172287D01*
X56911816Y-37219890D01*
X57000776Y-37265218D01*
X57000778Y-37265218D01*
X57000781Y-37265220D01*
X57113874Y-37301966D01*
X57131118Y-37307569D01*
X57188793Y-37347007D01*
X57215991Y-37411366D01*
X57204076Y-37480212D01*
X57156832Y-37531688D01*
X57092799Y-37549500D01*
X53657201Y-37549500D01*
X53590162Y-37529815D01*
X53544407Y-37477011D01*
X53534463Y-37407853D01*
X53563488Y-37344297D01*
X53618882Y-37307569D01*
X53636126Y-37301966D01*
X53749219Y-37265220D01*
X53931610Y-37172287D01*
X54030668Y-37100318D01*
X54097213Y-37051971D01*
X54097215Y-37051968D01*
X54097219Y-37051966D01*
X54241966Y-36907219D01*
X54241968Y-36907215D01*
X54241971Y-36907213D01*
X54311425Y-36811616D01*
X54362287Y-36741610D01*
X54455220Y-36559219D01*
X54518477Y-36364534D01*
X54550500Y-36162352D01*
X54550500Y-35957648D01*
X54518477Y-35755466D01*
X54502947Y-35707671D01*
X54477186Y-35628386D01*
X54455220Y-35560781D01*
X54455218Y-35560778D01*
X54455218Y-35560776D01*
X54390499Y-35433760D01*
X54362287Y-35378390D01*
X54334261Y-35339815D01*
X54241971Y-35212786D01*
X54097213Y-35068028D01*
X53931613Y-34947715D01*
X53931612Y-34947714D01*
X53931610Y-34947713D01*
X53874653Y-34918691D01*
X53749223Y-34854781D01*
X53554534Y-34791522D01*
X53379995Y-34763878D01*
X53352352Y-34759500D01*
X53147648Y-34759500D01*
X53123329Y-34763351D01*
X52945465Y-34791522D01*
X52750776Y-34854781D01*
X52568386Y-34947715D01*
X52402786Y-35068028D01*
X52258028Y-35212786D01*
X52137715Y-35378386D01*
X52044781Y-35560776D01*
X51981522Y-35755465D01*
X51958293Y-35902129D01*
X51949500Y-35957648D01*
X51949500Y-36162352D01*
X51953878Y-36189995D01*
X51981522Y-36364534D01*
X52044781Y-36559223D01*
X52108691Y-36684653D01*
X52137396Y-36740988D01*
X52137715Y-36741613D01*
X52258028Y-36907213D01*
X52402786Y-37051971D01*
X52557749Y-37164556D01*
X52568390Y-37172287D01*
X52661816Y-37219890D01*
X52750776Y-37265218D01*
X52750778Y-37265218D01*
X52750781Y-37265220D01*
X52863874Y-37301966D01*
X52881118Y-37307569D01*
X52938793Y-37347007D01*
X52965991Y-37411366D01*
X52954076Y-37480212D01*
X52906832Y-37531688D01*
X52842799Y-37549500D01*
X52681003Y-37549500D01*
X52572590Y-37571065D01*
X52572589Y-37571065D01*
X52545671Y-37576420D01*
X52418190Y-37629224D01*
X52303454Y-37705887D01*
X52303453Y-37705888D01*
X51746162Y-38263181D01*
X51684839Y-38296666D01*
X51658481Y-38299500D01*
X33181004Y-38299500D01*
X33045677Y-38326418D01*
X33045667Y-38326421D01*
X32918192Y-38379222D01*
X32803454Y-38455887D01*
X32803453Y-38455888D01*
X31246162Y-40013181D01*
X31184839Y-40046666D01*
X31158481Y-40049500D01*
X29321870Y-40049500D01*
X29254831Y-40029815D01*
X29209076Y-39977011D01*
X29204164Y-39964505D01*
X29193177Y-39931349D01*
X29159814Y-39830666D01*
X29067712Y-39681344D01*
X28943656Y-39557288D01*
X28794334Y-39465186D01*
X28794333Y-39465185D01*
X28788878Y-39461821D01*
X28742154Y-39409873D01*
X28730931Y-39340910D01*
X28758775Y-39276828D01*
X28766272Y-39268623D01*
X28905104Y-39129792D01*
X28929942Y-39095606D01*
X29030048Y-38957820D01*
X29030047Y-38957820D01*
X29030051Y-38957816D01*
X29126557Y-38768412D01*
X29192246Y-38566243D01*
X29225500Y-38356287D01*
X29225500Y-38143713D01*
X29192246Y-37933757D01*
X29126557Y-37731588D01*
X29030051Y-37542184D01*
X29030049Y-37542181D01*
X29030048Y-37542179D01*
X28905109Y-37370213D01*
X28754792Y-37219896D01*
X28689259Y-37172284D01*
X28590204Y-37100316D01*
X28547540Y-37044989D01*
X28541561Y-36975376D01*
X28574166Y-36913580D01*
X28590199Y-36899686D01*
X28754792Y-36780104D01*
X28905104Y-36629792D01*
X28905106Y-36629788D01*
X28905109Y-36629786D01*
X29030048Y-36457820D01*
X29030047Y-36457820D01*
X29030051Y-36457816D01*
X29126557Y-36268412D01*
X29146301Y-36207648D01*
X45949500Y-36207648D01*
X45949500Y-36412351D01*
X45981522Y-36614534D01*
X46044781Y-36809223D01*
X46108691Y-36934653D01*
X46129441Y-36975376D01*
X46137715Y-36991613D01*
X46258028Y-37157213D01*
X46402786Y-37301971D01*
X46548523Y-37407853D01*
X46568390Y-37422287D01*
X46675792Y-37477011D01*
X46750776Y-37515218D01*
X46750778Y-37515218D01*
X46750781Y-37515220D01*
X46823153Y-37538735D01*
X46945465Y-37578477D01*
X47018824Y-37590096D01*
X47147648Y-37610500D01*
X47147649Y-37610500D01*
X47352351Y-37610500D01*
X47352352Y-37610500D01*
X47554534Y-37578477D01*
X47749219Y-37515220D01*
X47931610Y-37422287D01*
X48055703Y-37332129D01*
X48097213Y-37301971D01*
X48097215Y-37301968D01*
X48097219Y-37301966D01*
X48241966Y-37157219D01*
X48241968Y-37157215D01*
X48241971Y-37157213D01*
X48317620Y-37053089D01*
X48362287Y-36991610D01*
X48455220Y-36809219D01*
X48518477Y-36614534D01*
X48550500Y-36412352D01*
X48550500Y-36207648D01*
X48518477Y-36005466D01*
X48455220Y-35810781D01*
X48455218Y-35810778D01*
X48455218Y-35810776D01*
X48421503Y-35744607D01*
X48362287Y-35628390D01*
X48313163Y-35560776D01*
X48241971Y-35462786D01*
X48097213Y-35318028D01*
X47931613Y-35197715D01*
X47931612Y-35197714D01*
X47931610Y-35197713D01*
X47833688Y-35147819D01*
X47749223Y-35104781D01*
X47554534Y-35041522D01*
X47379995Y-35013878D01*
X47352352Y-35009500D01*
X47147648Y-35009500D01*
X47123329Y-35013351D01*
X46945465Y-35041522D01*
X46750776Y-35104781D01*
X46568386Y-35197715D01*
X46402786Y-35318028D01*
X46258028Y-35462786D01*
X46137715Y-35628386D01*
X46044781Y-35810776D01*
X45981522Y-36005465D01*
X45949500Y-36207648D01*
X29146301Y-36207648D01*
X29192246Y-36066243D01*
X29225500Y-35856287D01*
X29225500Y-35643713D01*
X29192246Y-35433757D01*
X29126557Y-35231588D01*
X29030051Y-35042184D01*
X29030049Y-35042181D01*
X29030048Y-35042179D01*
X28905109Y-34870213D01*
X28754786Y-34719890D01*
X28582820Y-34594951D01*
X28393414Y-34498444D01*
X28393413Y-34498443D01*
X28393412Y-34498443D01*
X28191243Y-34432754D01*
X28191241Y-34432753D01*
X28191240Y-34432753D01*
X28029957Y-34407208D01*
X27981287Y-34399500D01*
X27518713Y-34399500D01*
X27470042Y-34407208D01*
X27308760Y-34432753D01*
X27106585Y-34498444D01*
X26917179Y-34594951D01*
X26745213Y-34719890D01*
X26594890Y-34870213D01*
X26469951Y-35042179D01*
X26373444Y-35231585D01*
X26307753Y-35433760D01*
X26274500Y-35643713D01*
X26274500Y-35856286D01*
X26307753Y-36066239D01*
X26307753Y-36066241D01*
X26307754Y-36066243D01*
X26363751Y-36238584D01*
X26373444Y-36268414D01*
X26469951Y-36457820D01*
X26594890Y-36629786D01*
X26745209Y-36780105D01*
X26745214Y-36780109D01*
X26909793Y-36899682D01*
X26952459Y-36955011D01*
X26958438Y-37024625D01*
X26925833Y-37086420D01*
X26909793Y-37100318D01*
X26745214Y-37219890D01*
X26745209Y-37219894D01*
X26594890Y-37370213D01*
X26469951Y-37542179D01*
X26373444Y-37731585D01*
X26307753Y-37933760D01*
X26278913Y-38115852D01*
X26274500Y-38143713D01*
X26274500Y-38356287D01*
X26282931Y-38409515D01*
X26301075Y-38524077D01*
X26307754Y-38566243D01*
X26351908Y-38702135D01*
X26373444Y-38768414D01*
X26469951Y-38957820D01*
X26594890Y-39129786D01*
X26733705Y-39268601D01*
X26767190Y-39329924D01*
X26762206Y-39399616D01*
X26720334Y-39455549D01*
X26711121Y-39461821D01*
X26556342Y-39557289D01*
X26432289Y-39681342D01*
X26340187Y-39830663D01*
X26340185Y-39830668D01*
X26318077Y-39897385D01*
X26285001Y-39997203D01*
X26285001Y-39997204D01*
X26285000Y-39997204D01*
X26274500Y-40099983D01*
X26274500Y-41400001D01*
X26274501Y-41400018D01*
X26285000Y-41502796D01*
X26285001Y-41502799D01*
X26340185Y-41669331D01*
X26340187Y-41669336D01*
X26375069Y-41725888D01*
X26432288Y-41818656D01*
X26556344Y-41942712D01*
X26705666Y-42034814D01*
X26872203Y-42089999D01*
X26974991Y-42100500D01*
X28525008Y-42100499D01*
X28627797Y-42089999D01*
X28794334Y-42034814D01*
X28943656Y-41942712D01*
X29067712Y-41818656D01*
X29159814Y-41669334D01*
X29204164Y-41535494D01*
X29243936Y-41478051D01*
X29308451Y-41451228D01*
X29321869Y-41450500D01*
X31568996Y-41450500D01*
X31660040Y-41432389D01*
X31704328Y-41423580D01*
X31811411Y-41379225D01*
X31831807Y-41370777D01*
X31831808Y-41370776D01*
X31831811Y-41370775D01*
X31946543Y-41294114D01*
X33503838Y-39736819D01*
X33565161Y-39703334D01*
X33591519Y-39700500D01*
X34618043Y-39700500D01*
X34685082Y-39720185D01*
X34730837Y-39772989D01*
X34740781Y-39842147D01*
X34718362Y-39897385D01*
X34637712Y-40008390D01*
X34544781Y-40190776D01*
X34481522Y-40385465D01*
X34449500Y-40587648D01*
X34449500Y-40792351D01*
X34481522Y-40994534D01*
X34544781Y-41189223D01*
X34598226Y-41294112D01*
X34623668Y-41344046D01*
X34637715Y-41371613D01*
X34758028Y-41537213D01*
X34902786Y-41681971D01*
X35057749Y-41794556D01*
X35068390Y-41802287D01*
X35184607Y-41861503D01*
X35250776Y-41895218D01*
X35250778Y-41895218D01*
X35250781Y-41895220D01*
X35355137Y-41929127D01*
X35445465Y-41958477D01*
X35546557Y-41974488D01*
X35647648Y-41990500D01*
X35647649Y-41990500D01*
X35852351Y-41990500D01*
X35852352Y-41990500D01*
X36054534Y-41958477D01*
X36249219Y-41895220D01*
X36431610Y-41802287D01*
X36524590Y-41734732D01*
X36597213Y-41681971D01*
X36597215Y-41681968D01*
X36597219Y-41681966D01*
X36741966Y-41537219D01*
X36741968Y-41537215D01*
X36741971Y-41537213D01*
X36862284Y-41371614D01*
X36862285Y-41371613D01*
X36862287Y-41371610D01*
X36905015Y-41287750D01*
X36952989Y-41236955D01*
X37020810Y-41220160D01*
X37086945Y-41242697D01*
X37130397Y-41297412D01*
X37139500Y-41344046D01*
X37139500Y-41352351D01*
X37171522Y-41554534D01*
X37234781Y-41749223D01*
X37297690Y-41872687D01*
X37309171Y-41895220D01*
X37327715Y-41931613D01*
X37448028Y-42097213D01*
X37592786Y-42241971D01*
X37713949Y-42329999D01*
X37758390Y-42362287D01*
X37842688Y-42405239D01*
X37940776Y-42455218D01*
X37940778Y-42455218D01*
X37940781Y-42455220D01*
X38045137Y-42489127D01*
X38135465Y-42518477D01*
X38236557Y-42534488D01*
X38337648Y-42550500D01*
X38337649Y-42550500D01*
X38542351Y-42550500D01*
X38542352Y-42550500D01*
X38744534Y-42518477D01*
X38939219Y-42455220D01*
X39121610Y-42362287D01*
X39214590Y-42294732D01*
X39287213Y-42241971D01*
X39287215Y-42241968D01*
X39287219Y-42241966D01*
X39431966Y-42097219D01*
X39431968Y-42097215D01*
X39431971Y-42097213D01*
X39532767Y-41958477D01*
X39552287Y-41931610D01*
X39645220Y-41749219D01*
X39708477Y-41554534D01*
X39740500Y-41352352D01*
X39740500Y-41147648D01*
X39717114Y-41000000D01*
X44783391Y-41000000D01*
X45744314Y-41000000D01*
X45739920Y-41004394D01*
X45687259Y-41095606D01*
X45660000Y-41197339D01*
X45660000Y-41302661D01*
X45687259Y-41404394D01*
X45739920Y-41495606D01*
X45744314Y-41500000D01*
X44783391Y-41500000D01*
X44792009Y-41554413D01*
X44855244Y-41749029D01*
X44948140Y-41931349D01*
X45068417Y-42096894D01*
X45068417Y-42096895D01*
X45213104Y-42241582D01*
X45378650Y-42361859D01*
X45560968Y-42454754D01*
X45755578Y-42517988D01*
X45810000Y-42526607D01*
X45810000Y-41565686D01*
X45814394Y-41570080D01*
X45905606Y-41622741D01*
X46007339Y-41650000D01*
X46112661Y-41650000D01*
X46214394Y-41622741D01*
X46305606Y-41570080D01*
X46310000Y-41565686D01*
X46310000Y-42526606D01*
X46364421Y-42517988D01*
X46559031Y-42454754D01*
X46741349Y-42361859D01*
X46906894Y-42241582D01*
X46906895Y-42241582D01*
X47051582Y-42096895D01*
X47051582Y-42096894D01*
X47171859Y-41931349D01*
X47264755Y-41749029D01*
X47327990Y-41554413D01*
X47336609Y-41500000D01*
X46375686Y-41500000D01*
X46380080Y-41495606D01*
X46432741Y-41404394D01*
X46460000Y-41302661D01*
X46460000Y-41197339D01*
X46432741Y-41095606D01*
X46380080Y-41004394D01*
X46375686Y-41000000D01*
X47336609Y-41000000D01*
X47327990Y-40945586D01*
X47264755Y-40750970D01*
X47171859Y-40568650D01*
X47051582Y-40403105D01*
X47051582Y-40403104D01*
X46906895Y-40258417D01*
X46741349Y-40138140D01*
X46559029Y-40045244D01*
X46364413Y-39982009D01*
X46310000Y-39973390D01*
X46310000Y-40934314D01*
X46305606Y-40929920D01*
X46214394Y-40877259D01*
X46112661Y-40850000D01*
X46007339Y-40850000D01*
X45905606Y-40877259D01*
X45814394Y-40929920D01*
X45810000Y-40934314D01*
X45810000Y-39973390D01*
X45755586Y-39982009D01*
X45560970Y-40045244D01*
X45378650Y-40138140D01*
X45213105Y-40258417D01*
X45213104Y-40258417D01*
X45068417Y-40403104D01*
X45068417Y-40403105D01*
X44948140Y-40568650D01*
X44855244Y-40750970D01*
X44792009Y-40945586D01*
X44783391Y-41000000D01*
X39717114Y-41000000D01*
X39708477Y-40945466D01*
X39645220Y-40750781D01*
X39645218Y-40750778D01*
X39645218Y-40750776D01*
X39595015Y-40652248D01*
X39552287Y-40568390D01*
X39502032Y-40499219D01*
X39431971Y-40402786D01*
X39287213Y-40258028D01*
X39121613Y-40137715D01*
X39121612Y-40137714D01*
X39121610Y-40137713D01*
X39052208Y-40102351D01*
X38939223Y-40044781D01*
X38744534Y-39981522D01*
X38569995Y-39953878D01*
X38542352Y-39949500D01*
X38337648Y-39949500D01*
X38313329Y-39953351D01*
X38135465Y-39981522D01*
X37940776Y-40044781D01*
X37758386Y-40137715D01*
X37592786Y-40258028D01*
X37448028Y-40402786D01*
X37327715Y-40568386D01*
X37284985Y-40652248D01*
X37237010Y-40703044D01*
X37169189Y-40719839D01*
X37103054Y-40697301D01*
X37059603Y-40642586D01*
X37050500Y-40595953D01*
X37050500Y-40587648D01*
X37018477Y-40385465D01*
X36989127Y-40295137D01*
X36955220Y-40190781D01*
X36955218Y-40190778D01*
X36955218Y-40190776D01*
X36862287Y-40008390D01*
X36781638Y-39897385D01*
X36758159Y-39831578D01*
X36773985Y-39763524D01*
X36824091Y-39714830D01*
X36881957Y-39700500D01*
X52068996Y-39700500D01*
X52165306Y-39681342D01*
X52204328Y-39673580D01*
X52273942Y-39644745D01*
X52331807Y-39620777D01*
X52331808Y-39620776D01*
X52331811Y-39620775D01*
X52446543Y-39544114D01*
X52487433Y-39503224D01*
X52548756Y-39469738D01*
X52618447Y-39474722D01*
X52674381Y-39516592D01*
X52698799Y-39582057D01*
X52693046Y-39629222D01*
X52671523Y-39695461D01*
X52671523Y-39695464D01*
X52639500Y-39897648D01*
X52639500Y-40102351D01*
X52671522Y-40304534D01*
X52734781Y-40499223D01*
X52789974Y-40607544D01*
X52812752Y-40652248D01*
X52827715Y-40681613D01*
X52948028Y-40847213D01*
X52948034Y-40847219D01*
X53092781Y-40991966D01*
X53214704Y-41080547D01*
X53226779Y-41096206D01*
X53242395Y-41108337D01*
X53247675Y-41123305D01*
X53257369Y-41135876D01*
X53259061Y-41155579D01*
X53265640Y-41174227D01*
X53261989Y-41189675D01*
X53263348Y-41205489D01*
X53254120Y-41222977D01*
X53249573Y-41242224D01*
X53238150Y-41253246D01*
X53230743Y-41267285D01*
X53213523Y-41277009D01*
X53199294Y-41290740D01*
X53172424Y-41300218D01*
X53169905Y-41301642D01*
X53166010Y-41302482D01*
X53072591Y-41321065D01*
X53045671Y-41326420D01*
X52918190Y-41379224D01*
X52803454Y-41455887D01*
X50335887Y-43923454D01*
X50259223Y-44038192D01*
X50206421Y-44165668D01*
X50206418Y-44165680D01*
X50198267Y-44206658D01*
X50198267Y-44206659D01*
X50179500Y-44301004D01*
X50179500Y-46645114D01*
X50159815Y-46712153D01*
X50128385Y-46745432D01*
X50062754Y-46793115D01*
X50062749Y-46793119D01*
X49923115Y-46932753D01*
X49807058Y-47092495D01*
X49807056Y-47092499D01*
X49730516Y-47242717D01*
X49720485Y-47262403D01*
X49672510Y-47313199D01*
X49604689Y-47329994D01*
X49538554Y-47307456D01*
X49499515Y-47262403D01*
X49412944Y-47092499D01*
X49405486Y-47082234D01*
X49296884Y-46932753D01*
X49157246Y-46793115D01*
X48997504Y-46677058D01*
X48997503Y-46677057D01*
X48997501Y-46677056D01*
X48821561Y-46587409D01*
X48821558Y-46587408D01*
X48633763Y-46526389D01*
X48438736Y-46495500D01*
X48438731Y-46495500D01*
X48241269Y-46495500D01*
X48241264Y-46495500D01*
X48046236Y-46526389D01*
X47858441Y-46587408D01*
X47682495Y-46677058D01*
X47522753Y-46793115D01*
X47383115Y-46932753D01*
X47267058Y-47092495D01*
X47177408Y-47268441D01*
X47116389Y-47456236D01*
X47085500Y-47651263D01*
X47085500Y-47848736D01*
X47116389Y-48043763D01*
X47157408Y-48170005D01*
X47177409Y-48231561D01*
X47267056Y-48407501D01*
X47267058Y-48407504D01*
X47383115Y-48567246D01*
X47522753Y-48706884D01*
X47664540Y-48809896D01*
X47682499Y-48822944D01*
X47858439Y-48912591D01*
X47983637Y-48953270D01*
X48046236Y-48973610D01*
X48241264Y-49004500D01*
X48241269Y-49004500D01*
X48438736Y-49004500D01*
X48633763Y-48973610D01*
X48821561Y-48912591D01*
X48997501Y-48822944D01*
X49102951Y-48746331D01*
X49157246Y-48706884D01*
X49157248Y-48706881D01*
X49157252Y-48706879D01*
X49296879Y-48567252D01*
X49296881Y-48567248D01*
X49296884Y-48567246D01*
X49398114Y-48427912D01*
X49412944Y-48407501D01*
X49499517Y-48237593D01*
X49547490Y-48186800D01*
X49615311Y-48170005D01*
X49681446Y-48192542D01*
X49720482Y-48237593D01*
X49760179Y-48315500D01*
X49807058Y-48407505D01*
X49923115Y-48567246D01*
X50062751Y-48706882D01*
X50128385Y-48754567D01*
X50171051Y-48809896D01*
X50179500Y-48854885D01*
X50179500Y-56895114D01*
X50159815Y-56962153D01*
X50128385Y-56995432D01*
X50062754Y-57043115D01*
X50062749Y-57043119D01*
X49923115Y-57182753D01*
X49807058Y-57342495D01*
X49807056Y-57342499D01*
X49726805Y-57500000D01*
X49720485Y-57512403D01*
X49672510Y-57563199D01*
X49604689Y-57579994D01*
X49538554Y-57557456D01*
X49499515Y-57512403D01*
X49412944Y-57342499D01*
X49405486Y-57332234D01*
X49296884Y-57182753D01*
X49157246Y-57043115D01*
X48997504Y-56927058D01*
X48997503Y-56927057D01*
X48997501Y-56927056D01*
X48821561Y-56837409D01*
X48821558Y-56837408D01*
X48633763Y-56776389D01*
X48438736Y-56745500D01*
X48438731Y-56745500D01*
X48241269Y-56745500D01*
X48241264Y-56745500D01*
X48046236Y-56776389D01*
X47858441Y-56837408D01*
X47682495Y-56927058D01*
X47522753Y-57043115D01*
X47383115Y-57182753D01*
X47267058Y-57342495D01*
X47177408Y-57518441D01*
X47116389Y-57706236D01*
X47085500Y-57901263D01*
X47085500Y-58098736D01*
X47116389Y-58293763D01*
X47157408Y-58420005D01*
X47177409Y-58481561D01*
X47267056Y-58657501D01*
X47267058Y-58657504D01*
X47383115Y-58817246D01*
X47522753Y-58956884D01*
X47664540Y-59059896D01*
X47682499Y-59072944D01*
X47858439Y-59162591D01*
X47983637Y-59203270D01*
X48046236Y-59223610D01*
X48241264Y-59254500D01*
X48241269Y-59254500D01*
X48438736Y-59254500D01*
X48633763Y-59223610D01*
X48821561Y-59162591D01*
X48997501Y-59072944D01*
X49102951Y-58996331D01*
X49157246Y-58956884D01*
X49157248Y-58956881D01*
X49157252Y-58956879D01*
X49296879Y-58817252D01*
X49296881Y-58817248D01*
X49296884Y-58817246D01*
X49412941Y-58657505D01*
X49412942Y-58657504D01*
X49412944Y-58657501D01*
X49499517Y-58487593D01*
X49547490Y-58436800D01*
X49615311Y-58420005D01*
X49681446Y-58442542D01*
X49720482Y-58487593D01*
X49792767Y-58629458D01*
X49807058Y-58657505D01*
X49923115Y-58817246D01*
X50062751Y-58956882D01*
X50128385Y-59004567D01*
X50171051Y-59059896D01*
X50179500Y-59104885D01*
X50179500Y-60705981D01*
X50159815Y-60773020D01*
X50143181Y-60793662D01*
X48173662Y-62763181D01*
X48112339Y-62796666D01*
X48085981Y-62799500D01*
X47207686Y-62799500D01*
X47140647Y-62779815D01*
X47094892Y-62727011D01*
X47084948Y-62657853D01*
X47107368Y-62602614D01*
X47171859Y-62513849D01*
X47264755Y-62331529D01*
X47327990Y-62136913D01*
X47336609Y-62082500D01*
X46375686Y-62082500D01*
X46380080Y-62078106D01*
X46432741Y-61986894D01*
X46460000Y-61885161D01*
X46460000Y-61779839D01*
X46432741Y-61678106D01*
X46380080Y-61586894D01*
X46375686Y-61582500D01*
X47336609Y-61582500D01*
X47327990Y-61528086D01*
X47264755Y-61333470D01*
X47171859Y-61151150D01*
X47051582Y-60985605D01*
X47051582Y-60985604D01*
X46906895Y-60840917D01*
X46741349Y-60720640D01*
X46559029Y-60627744D01*
X46364413Y-60564509D01*
X46310000Y-60555890D01*
X46310000Y-61516814D01*
X46305606Y-61512420D01*
X46214394Y-61459759D01*
X46112661Y-61432500D01*
X46007339Y-61432500D01*
X45905606Y-61459759D01*
X45814394Y-61512420D01*
X45810000Y-61516814D01*
X45810000Y-60555890D01*
X45755586Y-60564509D01*
X45560970Y-60627744D01*
X45378650Y-60720640D01*
X45213105Y-60840917D01*
X45213104Y-60840917D01*
X45068417Y-60985604D01*
X45068417Y-60985605D01*
X44948140Y-61151150D01*
X44855244Y-61333470D01*
X44792009Y-61528086D01*
X44783391Y-61582500D01*
X45744314Y-61582500D01*
X45739920Y-61586894D01*
X45687259Y-61678106D01*
X45660000Y-61779839D01*
X45660000Y-61885161D01*
X45687259Y-61986894D01*
X45739920Y-62078106D01*
X45744314Y-62082500D01*
X44783391Y-62082500D01*
X44792009Y-62136913D01*
X44855244Y-62331529D01*
X44948140Y-62513849D01*
X45012632Y-62602614D01*
X45036112Y-62668421D01*
X45020287Y-62736475D01*
X44970181Y-62785170D01*
X44912314Y-62799500D01*
X39588304Y-62799500D01*
X39521265Y-62779815D01*
X39475510Y-62727011D01*
X39465566Y-62657853D01*
X39487985Y-62602615D01*
X39532767Y-62540977D01*
X39552287Y-62514110D01*
X39645220Y-62331719D01*
X39708477Y-62137034D01*
X39740500Y-61934852D01*
X39740500Y-61730148D01*
X39708477Y-61527966D01*
X39645220Y-61333281D01*
X39645218Y-61333278D01*
X39645218Y-61333276D01*
X39611503Y-61267107D01*
X39552287Y-61150890D01*
X39527297Y-61116494D01*
X39431971Y-60985286D01*
X39287213Y-60840528D01*
X39121613Y-60720215D01*
X39121612Y-60720214D01*
X39121610Y-60720213D01*
X39064653Y-60691191D01*
X38939223Y-60627281D01*
X38744534Y-60564022D01*
X38569995Y-60536378D01*
X38542352Y-60532000D01*
X38337648Y-60532000D01*
X38313329Y-60535851D01*
X38135465Y-60564022D01*
X37940776Y-60627281D01*
X37758386Y-60720215D01*
X37592786Y-60840528D01*
X37448028Y-60985286D01*
X37327715Y-61150886D01*
X37284985Y-61234748D01*
X37237010Y-61285544D01*
X37169189Y-61302339D01*
X37103054Y-61279801D01*
X37059603Y-61225086D01*
X37050500Y-61178453D01*
X37050500Y-61170148D01*
X37018477Y-60967965D01*
X36955218Y-60773276D01*
X36920929Y-60705981D01*
X36862287Y-60590890D01*
X36842767Y-60564023D01*
X36741971Y-60425286D01*
X36597215Y-60280530D01*
X36536706Y-60236569D01*
X36494039Y-60181239D01*
X36488060Y-60111626D01*
X36520665Y-60049831D01*
X36536706Y-60035931D01*
X36597215Y-59991969D01*
X36597215Y-59991968D01*
X36597219Y-59991966D01*
X36741966Y-59847219D01*
X36741968Y-59847215D01*
X36741971Y-59847213D01*
X36844648Y-59705888D01*
X36862287Y-59681610D01*
X36955220Y-59499219D01*
X37018477Y-59304534D01*
X37050500Y-59102352D01*
X37050500Y-58897648D01*
X37037765Y-58817246D01*
X37018477Y-58695465D01*
X36965405Y-58532127D01*
X36955220Y-58500781D01*
X36955218Y-58500778D01*
X36955218Y-58500776D01*
X36921503Y-58434607D01*
X36862287Y-58318390D01*
X36844395Y-58293763D01*
X36741971Y-58152786D01*
X36597213Y-58008028D01*
X36431613Y-57887715D01*
X36431612Y-57887714D01*
X36431610Y-57887713D01*
X36374653Y-57858691D01*
X36249223Y-57794781D01*
X36054534Y-57731522D01*
X35879995Y-57703878D01*
X35852352Y-57699500D01*
X35647648Y-57699500D01*
X35623329Y-57703351D01*
X35445465Y-57731522D01*
X35250776Y-57794781D01*
X35068386Y-57887715D01*
X34902786Y-58008028D01*
X34758028Y-58152786D01*
X34637715Y-58318386D01*
X34544781Y-58500776D01*
X34481522Y-58695465D01*
X34449500Y-58897648D01*
X34449500Y-59102351D01*
X34481522Y-59304534D01*
X34544781Y-59499223D01*
X34560369Y-59529815D01*
X34611021Y-59629225D01*
X34637715Y-59681613D01*
X34758028Y-59847213D01*
X34902782Y-59991967D01*
X34902787Y-59991971D01*
X34963294Y-60035932D01*
X35005960Y-60091261D01*
X35011939Y-60160875D01*
X34979334Y-60222670D01*
X34963294Y-60236568D01*
X34902787Y-60280528D01*
X34902782Y-60280532D01*
X34758028Y-60425286D01*
X34637715Y-60590886D01*
X34544781Y-60773276D01*
X34481522Y-60967965D01*
X34449500Y-61170148D01*
X34449500Y-61374851D01*
X34481522Y-61577034D01*
X34544781Y-61771723D01*
X34599907Y-61879912D01*
X34629273Y-61937546D01*
X34637715Y-61954113D01*
X34758028Y-62119713D01*
X34902786Y-62264471D01*
X35057749Y-62377056D01*
X35068390Y-62384787D01*
X35184607Y-62444003D01*
X35250776Y-62477718D01*
X35250778Y-62477718D01*
X35250781Y-62477720D01*
X35355137Y-62511627D01*
X35445465Y-62540977D01*
X35521545Y-62553027D01*
X35584680Y-62582956D01*
X35621611Y-62642268D01*
X35620613Y-62712130D01*
X35582003Y-62770363D01*
X35518039Y-62798477D01*
X35502147Y-62799500D01*
X34591519Y-62799500D01*
X34524480Y-62779815D01*
X34503838Y-62763181D01*
X31446546Y-59705888D01*
X31446545Y-59705887D01*
X31331807Y-59629222D01*
X31204332Y-59576421D01*
X31204322Y-59576418D01*
X31068996Y-59549500D01*
X31068994Y-59549500D01*
X31068993Y-59549500D01*
X29296870Y-59549500D01*
X29229831Y-59529815D01*
X29184076Y-59477011D01*
X29179164Y-59464505D01*
X29149339Y-59374500D01*
X29134814Y-59330666D01*
X29042712Y-59181344D01*
X28918656Y-59057288D01*
X28769334Y-58965186D01*
X28769332Y-58965185D01*
X28763440Y-58961551D01*
X28716716Y-58909603D01*
X28705493Y-58840641D01*
X28733337Y-58776558D01*
X28740856Y-58768330D01*
X28879728Y-58629458D01*
X29004620Y-58457557D01*
X29101095Y-58268217D01*
X29166757Y-58066129D01*
X29166757Y-58066126D01*
X29177231Y-58000000D01*
X28129146Y-58000000D01*
X28167630Y-57933343D01*
X28200000Y-57812535D01*
X28200000Y-57687465D01*
X28167630Y-57566657D01*
X28129146Y-57500000D01*
X29177231Y-57500000D01*
X29166757Y-57433873D01*
X29166757Y-57433870D01*
X29101095Y-57231782D01*
X29004620Y-57042442D01*
X28879727Y-56870540D01*
X28879723Y-56870535D01*
X28729464Y-56720276D01*
X28729459Y-56720272D01*
X28564781Y-56600627D01*
X28522115Y-56545297D01*
X28516136Y-56475684D01*
X28548741Y-56413889D01*
X28564776Y-56399994D01*
X28729792Y-56280104D01*
X28880104Y-56129792D01*
X28880685Y-56128992D01*
X41082000Y-56128992D01*
X41082000Y-56331007D01*
X41121407Y-56529119D01*
X41121409Y-56529127D01*
X41154825Y-56609800D01*
X41162294Y-56679270D01*
X41142538Y-56724660D01*
X41142954Y-56724887D01*
X41140419Y-56729528D01*
X41139537Y-56731556D01*
X41138706Y-56732665D01*
X41138702Y-56732672D01*
X41088408Y-56867517D01*
X41082007Y-56927058D01*
X41082001Y-56927123D01*
X41082000Y-56927135D01*
X41082000Y-58072870D01*
X41082001Y-58072876D01*
X41088408Y-58132483D01*
X41138702Y-58267328D01*
X41138706Y-58267335D01*
X41224952Y-58382544D01*
X41224955Y-58382547D01*
X41340164Y-58468793D01*
X41340171Y-58468797D01*
X41475017Y-58519091D01*
X41475016Y-58519091D01*
X41481944Y-58519835D01*
X41534627Y-58525500D01*
X43130372Y-58525499D01*
X43189983Y-58519091D01*
X43324831Y-58468796D01*
X43440046Y-58382546D01*
X43526296Y-58267331D01*
X43576591Y-58132483D01*
X43583000Y-58072873D01*
X43582999Y-56927128D01*
X43576916Y-56870540D01*
X43576591Y-56867516D01*
X43526297Y-56732671D01*
X43526296Y-56732670D01*
X43526296Y-56732669D01*
X43525467Y-56731562D01*
X43524985Y-56730268D01*
X43522046Y-56724886D01*
X43522819Y-56724463D01*
X43501051Y-56666099D01*
X43510175Y-56609798D01*
X43514027Y-56600500D01*
X43543591Y-56529127D01*
X43583000Y-56331003D01*
X43583000Y-56128997D01*
X43543591Y-55930873D01*
X43466286Y-55744244D01*
X43412294Y-55663439D01*
X43391417Y-55596764D01*
X43409901Y-55529384D01*
X43412296Y-55525658D01*
X43465844Y-55445518D01*
X43465846Y-55445515D01*
X43543109Y-55258983D01*
X43543112Y-55258974D01*
X43552853Y-55210000D01*
X42698366Y-55210000D01*
X42674174Y-55207617D01*
X42658504Y-55204500D01*
X42658503Y-55204500D01*
X42618330Y-55204500D01*
X42632575Y-55190255D01*
X42681944Y-55104745D01*
X42707500Y-55009370D01*
X42707500Y-54910630D01*
X42681944Y-54815255D01*
X42632575Y-54729745D01*
X42612830Y-54710000D01*
X43552853Y-54710000D01*
X43543112Y-54661025D01*
X43543109Y-54661016D01*
X43465847Y-54474486D01*
X43465840Y-54474473D01*
X43353670Y-54306600D01*
X43353667Y-54306596D01*
X43210903Y-54163832D01*
X43210899Y-54163829D01*
X43043026Y-54051659D01*
X43043013Y-54051652D01*
X42856483Y-53974390D01*
X42856474Y-53974387D01*
X42658458Y-53935000D01*
X42582500Y-53935000D01*
X42582500Y-54679670D01*
X42562755Y-54659925D01*
X42477245Y-54610556D01*
X42381870Y-54585000D01*
X42283130Y-54585000D01*
X42187755Y-54610556D01*
X42102245Y-54659925D01*
X42082500Y-54679670D01*
X42082500Y-53935000D01*
X42006541Y-53935000D01*
X41808525Y-53974387D01*
X41808516Y-53974390D01*
X41621986Y-54051652D01*
X41621973Y-54051659D01*
X41454100Y-54163829D01*
X41454096Y-54163832D01*
X41311332Y-54306596D01*
X41311329Y-54306600D01*
X41199159Y-54474473D01*
X41199152Y-54474486D01*
X41121890Y-54661016D01*
X41121887Y-54661025D01*
X41112147Y-54710000D01*
X42052170Y-54710000D01*
X42032425Y-54729745D01*
X41983056Y-54815255D01*
X41957500Y-54910630D01*
X41957500Y-55009370D01*
X41983056Y-55104745D01*
X42032425Y-55190255D01*
X42046670Y-55204500D01*
X42006497Y-55204500D01*
X42006496Y-55204500D01*
X41990826Y-55207617D01*
X41966634Y-55210000D01*
X41112147Y-55210000D01*
X41121887Y-55258974D01*
X41121890Y-55258983D01*
X41199152Y-55445513D01*
X41199159Y-55445526D01*
X41252703Y-55525659D01*
X41273581Y-55592336D01*
X41255097Y-55659716D01*
X41252704Y-55663439D01*
X41198714Y-55744243D01*
X41121409Y-55930872D01*
X41121407Y-55930880D01*
X41082000Y-56128992D01*
X28880685Y-56128992D01*
X29005051Y-55957816D01*
X29101557Y-55768412D01*
X29167246Y-55566243D01*
X29200500Y-55356287D01*
X29200500Y-55143713D01*
X29167246Y-54933757D01*
X29101557Y-54731588D01*
X29005051Y-54542184D01*
X29005049Y-54542181D01*
X29005048Y-54542179D01*
X28880109Y-54370213D01*
X28729792Y-54219896D01*
X28729784Y-54219890D01*
X28565204Y-54100316D01*
X28522540Y-54044989D01*
X28516561Y-53975376D01*
X28549166Y-53913580D01*
X28565199Y-53899686D01*
X28729792Y-53780104D01*
X28880104Y-53629792D01*
X28880106Y-53629788D01*
X28880109Y-53629786D01*
X29005048Y-53457820D01*
X29005047Y-53457820D01*
X29005051Y-53457816D01*
X29101557Y-53268412D01*
X29167246Y-53066243D01*
X29200500Y-52856287D01*
X29200500Y-52643713D01*
X29167246Y-52433757D01*
X29101557Y-52231588D01*
X29005051Y-52042184D01*
X29005049Y-52042181D01*
X29005048Y-52042179D01*
X28880109Y-51870213D01*
X28729792Y-51719896D01*
X28681120Y-51684534D01*
X28565204Y-51600316D01*
X28522540Y-51544989D01*
X28516561Y-51475376D01*
X28549166Y-51413580D01*
X28565199Y-51399686D01*
X28729792Y-51280104D01*
X28732248Y-51277648D01*
X34449500Y-51277648D01*
X34449500Y-51482351D01*
X34481522Y-51684534D01*
X34544781Y-51879223D01*
X34604082Y-51995606D01*
X34634108Y-52054535D01*
X34637715Y-52061613D01*
X34758028Y-52227213D01*
X34902786Y-52371971D01*
X35057749Y-52484556D01*
X35068390Y-52492287D01*
X35184607Y-52551503D01*
X35250776Y-52585218D01*
X35250778Y-52585218D01*
X35250781Y-52585220D01*
X35355137Y-52619127D01*
X35445465Y-52648477D01*
X35546557Y-52664488D01*
X35647648Y-52680500D01*
X35647649Y-52680500D01*
X35852351Y-52680500D01*
X35852352Y-52680500D01*
X36054534Y-52648477D01*
X36249219Y-52585220D01*
X36431610Y-52492287D01*
X36524590Y-52424732D01*
X36597213Y-52371971D01*
X36597215Y-52371968D01*
X36597219Y-52371966D01*
X36741966Y-52227219D01*
X36741968Y-52227215D01*
X36741971Y-52227213D01*
X36862286Y-52061611D01*
X36865892Y-52054535D01*
X36925789Y-51936979D01*
X36973763Y-51886183D01*
X37041584Y-51869388D01*
X37107719Y-51891925D01*
X37151171Y-51946640D01*
X37158747Y-51973875D01*
X37171523Y-52054535D01*
X37234781Y-52249223D01*
X37327715Y-52431613D01*
X37448028Y-52597213D01*
X37592786Y-52741971D01*
X37696997Y-52817683D01*
X37758390Y-52862287D01*
X37865621Y-52916924D01*
X37940776Y-52955218D01*
X37940778Y-52955218D01*
X37940781Y-52955220D01*
X38045137Y-52989127D01*
X38135465Y-53018477D01*
X38229325Y-53033343D01*
X38337648Y-53050500D01*
X38337649Y-53050500D01*
X38542351Y-53050500D01*
X38542352Y-53050500D01*
X38744534Y-53018477D01*
X38939219Y-52955220D01*
X39121610Y-52862287D01*
X39266137Y-52757283D01*
X39287213Y-52741971D01*
X39287215Y-52741968D01*
X39287219Y-52741966D01*
X39431966Y-52597219D01*
X39431968Y-52597215D01*
X39431971Y-52597213D01*
X39484732Y-52524590D01*
X39552287Y-52431610D01*
X39645220Y-52249219D01*
X39708477Y-52054534D01*
X39740500Y-51852352D01*
X39740500Y-51647648D01*
X39717114Y-51500000D01*
X44783391Y-51500000D01*
X45744314Y-51500000D01*
X45739920Y-51504394D01*
X45687259Y-51595606D01*
X45660000Y-51697339D01*
X45660000Y-51802661D01*
X45687259Y-51904394D01*
X45739920Y-51995606D01*
X45744314Y-52000000D01*
X44783391Y-52000000D01*
X44792009Y-52054413D01*
X44855244Y-52249029D01*
X44948140Y-52431349D01*
X45068417Y-52596894D01*
X45068417Y-52596895D01*
X45213104Y-52741582D01*
X45378650Y-52861859D01*
X45560968Y-52954754D01*
X45755578Y-53017988D01*
X45810000Y-53026607D01*
X45810000Y-52065686D01*
X45814394Y-52070080D01*
X45905606Y-52122741D01*
X46007339Y-52150000D01*
X46112661Y-52150000D01*
X46214394Y-52122741D01*
X46305606Y-52070080D01*
X46310000Y-52065686D01*
X46310000Y-53026606D01*
X46364421Y-53017988D01*
X46559031Y-52954754D01*
X46741349Y-52861859D01*
X46906894Y-52741582D01*
X46906895Y-52741582D01*
X47051582Y-52596895D01*
X47051582Y-52596894D01*
X47171859Y-52431349D01*
X47264755Y-52249029D01*
X47327990Y-52054413D01*
X47336609Y-52000000D01*
X46375686Y-52000000D01*
X46380080Y-51995606D01*
X46432741Y-51904394D01*
X46460000Y-51802661D01*
X46460000Y-51697339D01*
X46432741Y-51595606D01*
X46380080Y-51504394D01*
X46375686Y-51500000D01*
X47336609Y-51500000D01*
X47327990Y-51445586D01*
X47264755Y-51250970D01*
X47171859Y-51068650D01*
X47051582Y-50903105D01*
X47051582Y-50903104D01*
X46906895Y-50758417D01*
X46741349Y-50638140D01*
X46559029Y-50545244D01*
X46364413Y-50482009D01*
X46310000Y-50473390D01*
X46310000Y-51434314D01*
X46305606Y-51429920D01*
X46214394Y-51377259D01*
X46112661Y-51350000D01*
X46007339Y-51350000D01*
X45905606Y-51377259D01*
X45814394Y-51429920D01*
X45810000Y-51434314D01*
X45810000Y-50473390D01*
X45755586Y-50482009D01*
X45560970Y-50545244D01*
X45378650Y-50638140D01*
X45213105Y-50758417D01*
X45213104Y-50758417D01*
X45068417Y-50903104D01*
X45068417Y-50903105D01*
X44948140Y-51068650D01*
X44855244Y-51250970D01*
X44792009Y-51445586D01*
X44783391Y-51500000D01*
X39717114Y-51500000D01*
X39708477Y-51445466D01*
X39645220Y-51250781D01*
X39645218Y-51250778D01*
X39645218Y-51250776D01*
X39596989Y-51156123D01*
X39552287Y-51068390D01*
X39527158Y-51033803D01*
X39431971Y-50902786D01*
X39287213Y-50758028D01*
X39121613Y-50637715D01*
X39121612Y-50637714D01*
X39121610Y-50637713D01*
X39064653Y-50608691D01*
X38939223Y-50544781D01*
X38744534Y-50481522D01*
X38569995Y-50453878D01*
X38542352Y-50449500D01*
X38337648Y-50449500D01*
X38313329Y-50453351D01*
X38135465Y-50481522D01*
X37940776Y-50544781D01*
X37758386Y-50637715D01*
X37592786Y-50758028D01*
X37448028Y-50902786D01*
X37327712Y-51068389D01*
X37327711Y-51068391D01*
X37264209Y-51193020D01*
X37216235Y-51243816D01*
X37148414Y-51260611D01*
X37082279Y-51238073D01*
X37038828Y-51183358D01*
X37031252Y-51156123D01*
X37018477Y-51075465D01*
X36980250Y-50957816D01*
X36955220Y-50880781D01*
X36955218Y-50880778D01*
X36955218Y-50880776D01*
X36897965Y-50768412D01*
X36862287Y-50698390D01*
X36854556Y-50687749D01*
X36741971Y-50532786D01*
X36597213Y-50388028D01*
X36431613Y-50267715D01*
X36431612Y-50267714D01*
X36431610Y-50267713D01*
X36333531Y-50217739D01*
X36249223Y-50174781D01*
X36054534Y-50111522D01*
X35879995Y-50083878D01*
X35852352Y-50079500D01*
X35647648Y-50079500D01*
X35623329Y-50083351D01*
X35445465Y-50111522D01*
X35250776Y-50174781D01*
X35068386Y-50267715D01*
X34902786Y-50388028D01*
X34758028Y-50532786D01*
X34637715Y-50698386D01*
X34544781Y-50880776D01*
X34481522Y-51075465D01*
X34449500Y-51277648D01*
X28732248Y-51277648D01*
X28880104Y-51129792D01*
X28880106Y-51129788D01*
X28880109Y-51129786D01*
X29005048Y-50957820D01*
X29005047Y-50957820D01*
X29005051Y-50957816D01*
X29101557Y-50768412D01*
X29167246Y-50566243D01*
X29200500Y-50356287D01*
X29200500Y-50143713D01*
X29167246Y-49933757D01*
X29101557Y-49731588D01*
X29005051Y-49542184D01*
X29005049Y-49542181D01*
X29005048Y-49542179D01*
X28880109Y-49370213D01*
X28729792Y-49219896D01*
X28729784Y-49219890D01*
X28565204Y-49100316D01*
X28522540Y-49044989D01*
X28516561Y-48975376D01*
X28549166Y-48913580D01*
X28565199Y-48899686D01*
X28729792Y-48780104D01*
X28880104Y-48629792D01*
X28880106Y-48629788D01*
X28880109Y-48629786D01*
X29005048Y-48457820D01*
X29005047Y-48457820D01*
X29005051Y-48457816D01*
X29101557Y-48268412D01*
X29121301Y-48207648D01*
X34449500Y-48207648D01*
X34449500Y-48412351D01*
X34481522Y-48614534D01*
X34544781Y-48809223D01*
X34608691Y-48934653D01*
X34629441Y-48975376D01*
X34637715Y-48991613D01*
X34758028Y-49157213D01*
X34902786Y-49301971D01*
X35057749Y-49414556D01*
X35068390Y-49422287D01*
X35184607Y-49481503D01*
X35250776Y-49515218D01*
X35250778Y-49515218D01*
X35250781Y-49515220D01*
X35333752Y-49542179D01*
X35445465Y-49578477D01*
X35546557Y-49594488D01*
X35647648Y-49610500D01*
X35647649Y-49610500D01*
X35852351Y-49610500D01*
X35852352Y-49610500D01*
X36054534Y-49578477D01*
X36249219Y-49515220D01*
X36431610Y-49422287D01*
X36524590Y-49354732D01*
X36597213Y-49301971D01*
X36597215Y-49301968D01*
X36597219Y-49301966D01*
X36741966Y-49157219D01*
X36741968Y-49157215D01*
X36741971Y-49157213D01*
X36823505Y-49044989D01*
X36862287Y-48991610D01*
X36955220Y-48809219D01*
X37018477Y-48614534D01*
X37050500Y-48412352D01*
X37050500Y-48207648D01*
X37018477Y-48005466D01*
X36955220Y-47810781D01*
X36955218Y-47810778D01*
X36955218Y-47810776D01*
X36870094Y-47643713D01*
X36862287Y-47628390D01*
X36854556Y-47617749D01*
X36741971Y-47462786D01*
X36597213Y-47318028D01*
X36431613Y-47197715D01*
X36431612Y-47197714D01*
X36431610Y-47197713D01*
X36374653Y-47168691D01*
X36249223Y-47104781D01*
X36054534Y-47041522D01*
X35879995Y-47013878D01*
X35852352Y-47009500D01*
X35647648Y-47009500D01*
X35623329Y-47013351D01*
X35445465Y-47041522D01*
X35250776Y-47104781D01*
X35068386Y-47197715D01*
X34902786Y-47318028D01*
X34758028Y-47462786D01*
X34637715Y-47628386D01*
X34544781Y-47810776D01*
X34481522Y-48005465D01*
X34449500Y-48207648D01*
X29121301Y-48207648D01*
X29167246Y-48066243D01*
X29200500Y-47856287D01*
X29200500Y-47643713D01*
X29167246Y-47433757D01*
X29101557Y-47231588D01*
X29005051Y-47042184D01*
X29005049Y-47042181D01*
X29005048Y-47042179D01*
X28880109Y-46870213D01*
X28729786Y-46719890D01*
X28557820Y-46594951D01*
X28368414Y-46498444D01*
X28368413Y-46498443D01*
X28368412Y-46498443D01*
X28166243Y-46432754D01*
X28166241Y-46432753D01*
X28166240Y-46432753D01*
X28004957Y-46407208D01*
X27956287Y-46399500D01*
X27493713Y-46399500D01*
X27445042Y-46407208D01*
X27283760Y-46432753D01*
X27081585Y-46498444D01*
X26892179Y-46594951D01*
X26720213Y-46719890D01*
X26569890Y-46870213D01*
X26444951Y-47042179D01*
X26348444Y-47231585D01*
X26282753Y-47433760D01*
X26249500Y-47643713D01*
X26249500Y-47856286D01*
X26282753Y-48066239D01*
X26282753Y-48066241D01*
X26282754Y-48066243D01*
X26338430Y-48237596D01*
X26348444Y-48268414D01*
X26444951Y-48457820D01*
X26569890Y-48629786D01*
X26720209Y-48780105D01*
X26720214Y-48780109D01*
X26884793Y-48899682D01*
X26927459Y-48955011D01*
X26933438Y-49024625D01*
X26900833Y-49086420D01*
X26884793Y-49100318D01*
X26720214Y-49219890D01*
X26720209Y-49219894D01*
X26569890Y-49370213D01*
X26444951Y-49542179D01*
X26348444Y-49731585D01*
X26282753Y-49933760D01*
X26249500Y-50143713D01*
X26249500Y-50356286D01*
X26279354Y-50544781D01*
X26282754Y-50566243D01*
X26345195Y-50758417D01*
X26348444Y-50768414D01*
X26444951Y-50957820D01*
X26569890Y-51129786D01*
X26720209Y-51280105D01*
X26720214Y-51280109D01*
X26884793Y-51399682D01*
X26927459Y-51455011D01*
X26933438Y-51524625D01*
X26900833Y-51586420D01*
X26884793Y-51600318D01*
X26720214Y-51719890D01*
X26720209Y-51719894D01*
X26569890Y-51870213D01*
X26444951Y-52042179D01*
X26348444Y-52231585D01*
X26282753Y-52433760D01*
X26249500Y-52643713D01*
X26249500Y-52856286D01*
X26280260Y-53050500D01*
X26282754Y-53066243D01*
X26331501Y-53216271D01*
X26348444Y-53268414D01*
X26444951Y-53457820D01*
X26569890Y-53629786D01*
X26720209Y-53780105D01*
X26720214Y-53780109D01*
X26884793Y-53899682D01*
X26927459Y-53955011D01*
X26933438Y-54024625D01*
X26900833Y-54086420D01*
X26884793Y-54100318D01*
X26720214Y-54219890D01*
X26720209Y-54219894D01*
X26569890Y-54370213D01*
X26444951Y-54542179D01*
X26348444Y-54731585D01*
X26282753Y-54933760D01*
X26270778Y-55009370D01*
X26249500Y-55143713D01*
X26249500Y-55356287D01*
X26282754Y-55566243D01*
X26340591Y-55744247D01*
X26348444Y-55768414D01*
X26444951Y-55957820D01*
X26569890Y-56129786D01*
X26720209Y-56280105D01*
X26720214Y-56280109D01*
X26885218Y-56399991D01*
X26927884Y-56455320D01*
X26933863Y-56524934D01*
X26901258Y-56586729D01*
X26885218Y-56600627D01*
X26720540Y-56720272D01*
X26720535Y-56720276D01*
X26570276Y-56870535D01*
X26570272Y-56870540D01*
X26445379Y-57042442D01*
X26348904Y-57231782D01*
X26283242Y-57433870D01*
X26283242Y-57433873D01*
X26272769Y-57500000D01*
X27320854Y-57500000D01*
X27282370Y-57566657D01*
X27250000Y-57687465D01*
X27250000Y-57812535D01*
X27282370Y-57933343D01*
X27320854Y-58000000D01*
X26272769Y-58000000D01*
X26283242Y-58066126D01*
X26283242Y-58066129D01*
X26348904Y-58268217D01*
X26445379Y-58457557D01*
X26570272Y-58629459D01*
X26570276Y-58629464D01*
X26709143Y-58768331D01*
X26742628Y-58829654D01*
X26737644Y-58899346D01*
X26695772Y-58955279D01*
X26686559Y-58961551D01*
X26531342Y-59057289D01*
X26407289Y-59181342D01*
X26315187Y-59330663D01*
X26315186Y-59330666D01*
X26260001Y-59497203D01*
X26260001Y-59497204D01*
X26260000Y-59497204D01*
X26249500Y-59599983D01*
X26249500Y-60900001D01*
X26249501Y-60900018D01*
X26260000Y-61002796D01*
X26260001Y-61002799D01*
X26315185Y-61169331D01*
X26315187Y-61169336D01*
X26349574Y-61225086D01*
X26407288Y-61318656D01*
X26531344Y-61442712D01*
X26680666Y-61534814D01*
X26847203Y-61589999D01*
X26949991Y-61600500D01*
X28500008Y-61600499D01*
X28602797Y-61589999D01*
X28769334Y-61534814D01*
X28918656Y-61442712D01*
X29042712Y-61318656D01*
X29134814Y-61169334D01*
X29179164Y-61035494D01*
X29218936Y-60978051D01*
X29283451Y-60951228D01*
X29296869Y-60950500D01*
X30658481Y-60950500D01*
X30725520Y-60970185D01*
X30746162Y-60986819D01*
X33803453Y-64044111D01*
X33803454Y-64044112D01*
X33918192Y-64120777D01*
X34045667Y-64173578D01*
X34045672Y-64173580D01*
X34045676Y-64173580D01*
X34045677Y-64173581D01*
X34181003Y-64200500D01*
X34181006Y-64200500D01*
X34181007Y-64200500D01*
X41517999Y-64200500D01*
X41585038Y-64220185D01*
X41630793Y-64272989D01*
X41640737Y-64342147D01*
X41611712Y-64405703D01*
X41586890Y-64427602D01*
X41454100Y-64516329D01*
X41454096Y-64516332D01*
X41311332Y-64659096D01*
X41311329Y-64659100D01*
X41199159Y-64826973D01*
X41199152Y-64826986D01*
X41121890Y-65013516D01*
X41121887Y-65013525D01*
X41112147Y-65062500D01*
X42052170Y-65062500D01*
X42032425Y-65082245D01*
X41983056Y-65167755D01*
X41957500Y-65263130D01*
X41957500Y-65361870D01*
X41983056Y-65457245D01*
X42032425Y-65542755D01*
X42046670Y-65557000D01*
X42006497Y-65557000D01*
X42006496Y-65557000D01*
X41990826Y-65560117D01*
X41966634Y-65562500D01*
X41112147Y-65562500D01*
X41121887Y-65611474D01*
X41121890Y-65611483D01*
X41199152Y-65798013D01*
X41199159Y-65798026D01*
X41252703Y-65878159D01*
X41273581Y-65944836D01*
X41255097Y-66012216D01*
X41252704Y-66015939D01*
X41198714Y-66096743D01*
X41121409Y-66283372D01*
X41121407Y-66283380D01*
X41082000Y-66481492D01*
X41082000Y-66683507D01*
X41121407Y-66881619D01*
X41121409Y-66881627D01*
X41154825Y-66962300D01*
X41162294Y-67031770D01*
X41142538Y-67077160D01*
X41142954Y-67077387D01*
X41140419Y-67082028D01*
X41139537Y-67084056D01*
X41138706Y-67085165D01*
X41138702Y-67085172D01*
X41088408Y-67220017D01*
X41082001Y-67279616D01*
X41082001Y-67279623D01*
X41082000Y-67279635D01*
X41082000Y-68425370D01*
X41082001Y-68425376D01*
X41088408Y-68484983D01*
X41138702Y-68619828D01*
X41138706Y-68619835D01*
X41224952Y-68735044D01*
X41224955Y-68735047D01*
X41340164Y-68821293D01*
X41340171Y-68821297D01*
X41475017Y-68871591D01*
X41475016Y-68871591D01*
X41481944Y-68872335D01*
X41534627Y-68878000D01*
X43130372Y-68877999D01*
X43189983Y-68871591D01*
X43324831Y-68821296D01*
X43440046Y-68735046D01*
X43526296Y-68619831D01*
X43576591Y-68484983D01*
X43583000Y-68425373D01*
X43582999Y-67279628D01*
X43576591Y-67220017D01*
X43572219Y-67208296D01*
X43526297Y-67085171D01*
X43526296Y-67085170D01*
X43526296Y-67085169D01*
X43525467Y-67084062D01*
X43524985Y-67082768D01*
X43522046Y-67077386D01*
X43522819Y-67076963D01*
X43501051Y-67018599D01*
X43510175Y-66962298D01*
X43543589Y-66881632D01*
X43543589Y-66881631D01*
X43543591Y-66881627D01*
X43583000Y-66683503D01*
X43583000Y-66481497D01*
X43543591Y-66283373D01*
X43466286Y-66096744D01*
X43412294Y-66015939D01*
X43391417Y-65949264D01*
X43409901Y-65881884D01*
X43412296Y-65878158D01*
X43465844Y-65798018D01*
X43465846Y-65798015D01*
X43543109Y-65611483D01*
X43543112Y-65611474D01*
X43552853Y-65562500D01*
X42698366Y-65562500D01*
X42674174Y-65560117D01*
X42658504Y-65557000D01*
X42658503Y-65557000D01*
X42618330Y-65557000D01*
X42632575Y-65542755D01*
X42681944Y-65457245D01*
X42707500Y-65361870D01*
X42707500Y-65263130D01*
X42681944Y-65167755D01*
X42632575Y-65082245D01*
X42612830Y-65062500D01*
X43552853Y-65062500D01*
X43543112Y-65013525D01*
X43543109Y-65013516D01*
X43465847Y-64826986D01*
X43465840Y-64826973D01*
X43353670Y-64659100D01*
X43353667Y-64659096D01*
X43210903Y-64516332D01*
X43210899Y-64516329D01*
X43078110Y-64427602D01*
X43033305Y-64373990D01*
X43024598Y-64304665D01*
X43054752Y-64241637D01*
X43114195Y-64204918D01*
X43147001Y-64200500D01*
X48085981Y-64200500D01*
X48153020Y-64220185D01*
X48173662Y-64236819D01*
X50143181Y-66206338D01*
X50176666Y-66267661D01*
X50179500Y-66294019D01*
X50179500Y-67145114D01*
X50159815Y-67212153D01*
X50128385Y-67245432D01*
X50062754Y-67293115D01*
X50062749Y-67293119D01*
X49923115Y-67432753D01*
X49807058Y-67592495D01*
X49720485Y-67762403D01*
X49672510Y-67813199D01*
X49604689Y-67829994D01*
X49538554Y-67807456D01*
X49499515Y-67762403D01*
X49412944Y-67592499D01*
X49405486Y-67582234D01*
X49296884Y-67432753D01*
X49157246Y-67293115D01*
X48997504Y-67177058D01*
X48997503Y-67177057D01*
X48997501Y-67177056D01*
X48821561Y-67087409D01*
X48811263Y-67084063D01*
X48633763Y-67026389D01*
X48438736Y-66995500D01*
X48438731Y-66995500D01*
X48241269Y-66995500D01*
X48241264Y-66995500D01*
X48046236Y-67026389D01*
X47858441Y-67087408D01*
X47682495Y-67177058D01*
X47522753Y-67293115D01*
X47383115Y-67432753D01*
X47267058Y-67592495D01*
X47177408Y-67768441D01*
X47116389Y-67956236D01*
X47085500Y-68151263D01*
X47085500Y-68348736D01*
X47116389Y-68543763D01*
X47155206Y-68663227D01*
X47177409Y-68731561D01*
X47267056Y-68907501D01*
X47267058Y-68907504D01*
X47383115Y-69067246D01*
X47522753Y-69206884D01*
X47672234Y-69315486D01*
X47682499Y-69322944D01*
X47858439Y-69412591D01*
X47983637Y-69453270D01*
X48046236Y-69473610D01*
X48241264Y-69504500D01*
X48241269Y-69504500D01*
X48438736Y-69504500D01*
X48633763Y-69473610D01*
X48644855Y-69470006D01*
X48821561Y-69412591D01*
X48997501Y-69322944D01*
X49102951Y-69246331D01*
X49157246Y-69206884D01*
X49157248Y-69206881D01*
X49157252Y-69206879D01*
X49296879Y-69067252D01*
X49296881Y-69067248D01*
X49296884Y-69067246D01*
X49412941Y-68907505D01*
X49412942Y-68907504D01*
X49412944Y-68907501D01*
X49499517Y-68737593D01*
X49547490Y-68686800D01*
X49615311Y-68670005D01*
X49681446Y-68692542D01*
X49720482Y-68737593D01*
X49778012Y-68850500D01*
X49807058Y-68907505D01*
X49923115Y-69067246D01*
X50062753Y-69206884D01*
X50212234Y-69315486D01*
X50222499Y-69322944D01*
X50398439Y-69412591D01*
X50523637Y-69453270D01*
X50586236Y-69473610D01*
X50781264Y-69504500D01*
X50781269Y-69504500D01*
X50978736Y-69504500D01*
X51173763Y-69473610D01*
X51184855Y-69470006D01*
X51361561Y-69412591D01*
X51537501Y-69322944D01*
X51642951Y-69246331D01*
X51697246Y-69206884D01*
X51697248Y-69206881D01*
X51697252Y-69206879D01*
X51836879Y-69067252D01*
X51836881Y-69067248D01*
X51836884Y-69067246D01*
X51922716Y-68949106D01*
X51952944Y-68907501D01*
X52042591Y-68731561D01*
X52103610Y-68543763D01*
X52122361Y-68425376D01*
X52134500Y-68348736D01*
X52134500Y-68151263D01*
X52103610Y-67956236D01*
X52062591Y-67829994D01*
X52042591Y-67768439D01*
X51952944Y-67592499D01*
X51945486Y-67582234D01*
X51836884Y-67432753D01*
X51697250Y-67293119D01*
X51697245Y-67293115D01*
X51631615Y-67245432D01*
X51588949Y-67190102D01*
X51580500Y-67145114D01*
X51580500Y-65883506D01*
X51576677Y-65864290D01*
X51565210Y-65806642D01*
X51553580Y-65748172D01*
X51500775Y-65620689D01*
X51424114Y-65505957D01*
X51424112Y-65505954D01*
X51424111Y-65505953D01*
X49505838Y-63587681D01*
X49472353Y-63526358D01*
X49477337Y-63456666D01*
X49505838Y-63412319D01*
X51424112Y-61494045D01*
X51424114Y-61494043D01*
X51500775Y-61379311D01*
X51502623Y-61374851D01*
X51553578Y-61251832D01*
X51553580Y-61251828D01*
X51562389Y-61207540D01*
X51580500Y-61116496D01*
X51580500Y-59104885D01*
X51600185Y-59037846D01*
X51631615Y-59004567D01*
X51697248Y-58956882D01*
X51697248Y-58956881D01*
X51697252Y-58956879D01*
X51836879Y-58817252D01*
X51836881Y-58817248D01*
X51836884Y-58817246D01*
X51925361Y-58695466D01*
X51952944Y-58657501D01*
X52042591Y-58481561D01*
X52103610Y-58293763D01*
X52107796Y-58267335D01*
X52134500Y-58098736D01*
X52134500Y-57901263D01*
X52103610Y-57706236D01*
X52055268Y-57557456D01*
X52042591Y-57518439D01*
X51952944Y-57342499D01*
X51945486Y-57332234D01*
X51836884Y-57182753D01*
X51697250Y-57043119D01*
X51697245Y-57043115D01*
X51631615Y-56995432D01*
X51588949Y-56940102D01*
X51580500Y-56895114D01*
X51580500Y-48854885D01*
X51600185Y-48787846D01*
X51631615Y-48754567D01*
X51697248Y-48706882D01*
X51697248Y-48706881D01*
X51697252Y-48706879D01*
X51836879Y-48567252D01*
X51836881Y-48567248D01*
X51836884Y-48567246D01*
X51916388Y-48457816D01*
X51952944Y-48407501D01*
X52042591Y-48231561D01*
X52103610Y-48043763D01*
X52122819Y-47922482D01*
X52134500Y-47848736D01*
X52134500Y-47651263D01*
X52103610Y-47456236D01*
X52055268Y-47307456D01*
X52042591Y-47268439D01*
X51952944Y-47092499D01*
X51945486Y-47082234D01*
X51836884Y-46932753D01*
X51697250Y-46793119D01*
X51697245Y-46793115D01*
X51631615Y-46745432D01*
X51588949Y-46690102D01*
X51580500Y-46645114D01*
X51580500Y-44711519D01*
X51600185Y-44644480D01*
X51616819Y-44623838D01*
X52787819Y-43452838D01*
X52849142Y-43419353D01*
X52918834Y-43424337D01*
X52974767Y-43466209D01*
X52999184Y-43531673D01*
X52999500Y-43540519D01*
X52999500Y-49690891D01*
X53033608Y-49818187D01*
X53066554Y-49875250D01*
X53099500Y-49932314D01*
X53192686Y-50025500D01*
X53306814Y-50091392D01*
X53408095Y-50118529D01*
X53467753Y-50154892D01*
X53498283Y-50217739D01*
X53500000Y-50238303D01*
X53500000Y-52511696D01*
X53480315Y-52578735D01*
X53427511Y-52624490D01*
X53408097Y-52631469D01*
X53366853Y-52642520D01*
X53306812Y-52658608D01*
X53192686Y-52724500D01*
X53192683Y-52724502D01*
X53099502Y-52817683D01*
X53099500Y-52817686D01*
X53033608Y-52931812D01*
X52999500Y-53059108D01*
X52999500Y-59940891D01*
X53033608Y-60068187D01*
X53046930Y-60091261D01*
X53099500Y-60182314D01*
X53192686Y-60275500D01*
X53306814Y-60341392D01*
X53408095Y-60368529D01*
X53467753Y-60404892D01*
X53498283Y-60467739D01*
X53500000Y-60488303D01*
X53500000Y-62886696D01*
X53480315Y-62953735D01*
X53427511Y-62999490D01*
X53408097Y-63006469D01*
X53366853Y-63017520D01*
X53306812Y-63033608D01*
X53192686Y-63099500D01*
X53192683Y-63099502D01*
X53099502Y-63192683D01*
X53099500Y-63192686D01*
X53033608Y-63306812D01*
X52999500Y-63434108D01*
X52999500Y-70315891D01*
X53006873Y-70343407D01*
X53005210Y-70413256D01*
X52966048Y-70471119D01*
X52901819Y-70498623D01*
X52887098Y-70499500D01*
X29003051Y-70499500D01*
X28996968Y-70499351D01*
X28976900Y-70498365D01*
X28663071Y-70482947D01*
X28650962Y-70481754D01*
X28323305Y-70433151D01*
X28311369Y-70430777D01*
X27990055Y-70350292D01*
X27978411Y-70346759D01*
X27666540Y-70235170D01*
X27655301Y-70230515D01*
X27355844Y-70088883D01*
X27345121Y-70083150D01*
X27061011Y-69912862D01*
X27050893Y-69906102D01*
X26784829Y-69708775D01*
X26775423Y-69701055D01*
X26635364Y-69574113D01*
X26529986Y-69478604D01*
X26521395Y-69470013D01*
X26298944Y-69224576D01*
X26291224Y-69215170D01*
X26181516Y-69067246D01*
X26093895Y-68949103D01*
X26087137Y-68938988D01*
X26068267Y-68907505D01*
X25916844Y-68654871D01*
X25911120Y-68644163D01*
X25769479Y-68344688D01*
X25764829Y-68333459D01*
X25725212Y-68222738D01*
X25661717Y-68045281D01*
X25653240Y-68021588D01*
X25649707Y-68009944D01*
X25640958Y-67975015D01*
X25569219Y-67688617D01*
X25566848Y-67676694D01*
X25554358Y-67592495D01*
X25524101Y-67388517D01*
X25518245Y-67349037D01*
X25517052Y-67336927D01*
X25514237Y-67279635D01*
X25500649Y-67003032D01*
X25500500Y-66996948D01*
X25500500Y-66878711D01*
X27149500Y-66878711D01*
X27149500Y-67121288D01*
X27181161Y-67361785D01*
X27243947Y-67596104D01*
X27281714Y-67687281D01*
X27336776Y-67820212D01*
X27458064Y-68030289D01*
X27458066Y-68030292D01*
X27458067Y-68030293D01*
X27605733Y-68222736D01*
X27605739Y-68222743D01*
X27777256Y-68394260D01*
X27777263Y-68394266D01*
X27817803Y-68425373D01*
X27969711Y-68541936D01*
X28179788Y-68663224D01*
X28403900Y-68756054D01*
X28638211Y-68818838D01*
X28818586Y-68842584D01*
X28878711Y-68850500D01*
X28878712Y-68850500D01*
X29121289Y-68850500D01*
X29169388Y-68844167D01*
X29361789Y-68818838D01*
X29468861Y-68790148D01*
X34449500Y-68790148D01*
X34449500Y-68994851D01*
X34481522Y-69197034D01*
X34544781Y-69391723D01*
X34637715Y-69574113D01*
X34758028Y-69739713D01*
X34902786Y-69884471D01*
X35057749Y-69997056D01*
X35068390Y-70004787D01*
X35184607Y-70064003D01*
X35250776Y-70097718D01*
X35250778Y-70097718D01*
X35250781Y-70097720D01*
X35355137Y-70131627D01*
X35445465Y-70160977D01*
X35546557Y-70176988D01*
X35647648Y-70193000D01*
X35647649Y-70193000D01*
X35852351Y-70193000D01*
X35852352Y-70193000D01*
X36054534Y-70160977D01*
X36249219Y-70097720D01*
X36431610Y-70004787D01*
X36562449Y-69909728D01*
X36597213Y-69884471D01*
X36597215Y-69884468D01*
X36597219Y-69884466D01*
X36741966Y-69739719D01*
X36741968Y-69739715D01*
X36741971Y-69739713D01*
X36794732Y-69667090D01*
X36862287Y-69574110D01*
X36955220Y-69391719D01*
X37018477Y-69197034D01*
X37050500Y-68994852D01*
X37050500Y-68790148D01*
X37040008Y-68723908D01*
X37018477Y-68587965D01*
X36985015Y-68484982D01*
X36955220Y-68393281D01*
X36955218Y-68393278D01*
X36955218Y-68393276D01*
X36868326Y-68222743D01*
X36862287Y-68210890D01*
X36854556Y-68200249D01*
X36741971Y-68045286D01*
X36597213Y-67900528D01*
X36431613Y-67780215D01*
X36431612Y-67780214D01*
X36431610Y-67780213D01*
X36374653Y-67751191D01*
X36249223Y-67687281D01*
X36054534Y-67624022D01*
X35878238Y-67596100D01*
X35852352Y-67592000D01*
X35647648Y-67592000D01*
X35623329Y-67595851D01*
X35445465Y-67624022D01*
X35250776Y-67687281D01*
X35068386Y-67780215D01*
X34902786Y-67900528D01*
X34758028Y-68045286D01*
X34637715Y-68210886D01*
X34544781Y-68393276D01*
X34481522Y-68587965D01*
X34449500Y-68790148D01*
X29468861Y-68790148D01*
X29596100Y-68756054D01*
X29749432Y-68692542D01*
X29802128Y-68670715D01*
X29820205Y-68663227D01*
X29820205Y-68663226D01*
X29820212Y-68663224D01*
X30030289Y-68541936D01*
X30222738Y-68394265D01*
X30394265Y-68222738D01*
X30541936Y-68030289D01*
X30663224Y-67820212D01*
X30756054Y-67596100D01*
X30818838Y-67361789D01*
X30850500Y-67121288D01*
X30850500Y-66878712D01*
X30818838Y-66638211D01*
X30756054Y-66403900D01*
X30663224Y-66179788D01*
X30541936Y-65969711D01*
X30416809Y-65806642D01*
X30394266Y-65777263D01*
X30394260Y-65777256D01*
X30222743Y-65605739D01*
X30222736Y-65605733D01*
X30030293Y-65458067D01*
X30030292Y-65458066D01*
X30030289Y-65458064D01*
X29820212Y-65336776D01*
X29820205Y-65336773D01*
X29596104Y-65243947D01*
X29361785Y-65181161D01*
X29121289Y-65149500D01*
X29121288Y-65149500D01*
X28878712Y-65149500D01*
X28878711Y-65149500D01*
X28638214Y-65181161D01*
X28403895Y-65243947D01*
X28179794Y-65336773D01*
X28179785Y-65336777D01*
X27969706Y-65458067D01*
X27777263Y-65605733D01*
X27777256Y-65605739D01*
X27605739Y-65777256D01*
X27605733Y-65777263D01*
X27458067Y-65969706D01*
X27336777Y-66179785D01*
X27336773Y-66179794D01*
X27243947Y-66403895D01*
X27181161Y-66638214D01*
X27149500Y-66878711D01*
X25500500Y-66878711D01*
X25500500Y-45918992D01*
X41082000Y-45918992D01*
X41082000Y-46121007D01*
X41121407Y-46319119D01*
X41121409Y-46319127D01*
X41154825Y-46399800D01*
X41162294Y-46469270D01*
X41142538Y-46514660D01*
X41142954Y-46514887D01*
X41140419Y-46519528D01*
X41139537Y-46521556D01*
X41138706Y-46522665D01*
X41138702Y-46522672D01*
X41088408Y-46657517D01*
X41082949Y-46708296D01*
X41082001Y-46717123D01*
X41082000Y-46717135D01*
X41082000Y-47862870D01*
X41082001Y-47862876D01*
X41088408Y-47922483D01*
X41138702Y-48057328D01*
X41138706Y-48057335D01*
X41224952Y-48172544D01*
X41224955Y-48172547D01*
X41340164Y-48258793D01*
X41340171Y-48258797D01*
X41475017Y-48309091D01*
X41475016Y-48309091D01*
X41481944Y-48309835D01*
X41534627Y-48315500D01*
X43130372Y-48315499D01*
X43189983Y-48309091D01*
X43324831Y-48258796D01*
X43440046Y-48172546D01*
X43526296Y-48057331D01*
X43576591Y-47922483D01*
X43583000Y-47862873D01*
X43582999Y-46717128D01*
X43576591Y-46657517D01*
X43571742Y-46644517D01*
X43526297Y-46522671D01*
X43526296Y-46522670D01*
X43526296Y-46522669D01*
X43525467Y-46521562D01*
X43524985Y-46520268D01*
X43522046Y-46514886D01*
X43522819Y-46514463D01*
X43501051Y-46456099D01*
X43510175Y-46399798D01*
X43510299Y-46399500D01*
X43543591Y-46319127D01*
X43583000Y-46121003D01*
X43583000Y-45918997D01*
X43543591Y-45720873D01*
X43466286Y-45534244D01*
X43412294Y-45453439D01*
X43391417Y-45386764D01*
X43409901Y-45319384D01*
X43412296Y-45315658D01*
X43465844Y-45235518D01*
X43465846Y-45235515D01*
X43543109Y-45048983D01*
X43543112Y-45048974D01*
X43552853Y-45000000D01*
X42698366Y-45000000D01*
X42674174Y-44997617D01*
X42658504Y-44994500D01*
X42658503Y-44994500D01*
X42618330Y-44994500D01*
X42632575Y-44980255D01*
X42681944Y-44894745D01*
X42707500Y-44799370D01*
X42707500Y-44700630D01*
X42681944Y-44605255D01*
X42632575Y-44519745D01*
X42612830Y-44500000D01*
X43552853Y-44500000D01*
X43543112Y-44451025D01*
X43543109Y-44451016D01*
X43465847Y-44264486D01*
X43465840Y-44264473D01*
X43353670Y-44096600D01*
X43353667Y-44096596D01*
X43210903Y-43953832D01*
X43210899Y-43953829D01*
X43043026Y-43841659D01*
X43043013Y-43841652D01*
X42856483Y-43764390D01*
X42856474Y-43764387D01*
X42658458Y-43725000D01*
X42582500Y-43725000D01*
X42582500Y-44469670D01*
X42562755Y-44449925D01*
X42477245Y-44400556D01*
X42381870Y-44375000D01*
X42283130Y-44375000D01*
X42187755Y-44400556D01*
X42102245Y-44449925D01*
X42082500Y-44469670D01*
X42082500Y-43725000D01*
X42006541Y-43725000D01*
X41808525Y-43764387D01*
X41808516Y-43764390D01*
X41621986Y-43841652D01*
X41621973Y-43841659D01*
X41454100Y-43953829D01*
X41454096Y-43953832D01*
X41311332Y-44096596D01*
X41311329Y-44096600D01*
X41199159Y-44264473D01*
X41199152Y-44264486D01*
X41121890Y-44451016D01*
X41121887Y-44451025D01*
X41112147Y-44500000D01*
X42052170Y-44500000D01*
X42032425Y-44519745D01*
X41983056Y-44605255D01*
X41957500Y-44700630D01*
X41957500Y-44799370D01*
X41983056Y-44894745D01*
X42032425Y-44980255D01*
X42046670Y-44994500D01*
X42006497Y-44994500D01*
X42006496Y-44994500D01*
X41990826Y-44997617D01*
X41966634Y-45000000D01*
X41112147Y-45000000D01*
X41121887Y-45048974D01*
X41121890Y-45048983D01*
X41199152Y-45235513D01*
X41199159Y-45235526D01*
X41252703Y-45315659D01*
X41273581Y-45382336D01*
X41255097Y-45449716D01*
X41252704Y-45453439D01*
X41198714Y-45534243D01*
X41121409Y-45720872D01*
X41121407Y-45720880D01*
X41082000Y-45918992D01*
X25500500Y-45918992D01*
X25500500Y-29003051D01*
X25500649Y-28996966D01*
X25506459Y-28878711D01*
X27149500Y-28878711D01*
X27149500Y-29121288D01*
X27181161Y-29361785D01*
X27243947Y-29596104D01*
X27329174Y-29801859D01*
X27336776Y-29820212D01*
X27458064Y-30030289D01*
X27458066Y-30030292D01*
X27458067Y-30030293D01*
X27605733Y-30222736D01*
X27605739Y-30222743D01*
X27777256Y-30394260D01*
X27777263Y-30394266D01*
X27890321Y-30481018D01*
X27969711Y-30541936D01*
X28179788Y-30663224D01*
X28403900Y-30756054D01*
X28638211Y-30818838D01*
X28818586Y-30842584D01*
X28878711Y-30850500D01*
X28878712Y-30850500D01*
X29121289Y-30850500D01*
X29169388Y-30844167D01*
X29361789Y-30818838D01*
X29596100Y-30756054D01*
X29820212Y-30663224D01*
X29847190Y-30647648D01*
X33579500Y-30647648D01*
X33579500Y-30852351D01*
X33611522Y-31054534D01*
X33674781Y-31249223D01*
X33767715Y-31431613D01*
X33888028Y-31597213D01*
X34032786Y-31741971D01*
X34187749Y-31854556D01*
X34198390Y-31862287D01*
X34314607Y-31921503D01*
X34380776Y-31955218D01*
X34380778Y-31955218D01*
X34380781Y-31955220D01*
X34485137Y-31989127D01*
X34575465Y-32018477D01*
X34608688Y-32023739D01*
X34777648Y-32050500D01*
X34777649Y-32050500D01*
X34982351Y-32050500D01*
X34982352Y-32050500D01*
X35184534Y-32018477D01*
X35379219Y-31955220D01*
X35561610Y-31862287D01*
X35654590Y-31794732D01*
X35727213Y-31741971D01*
X35727215Y-31741968D01*
X35727219Y-31741966D01*
X35871966Y-31597219D01*
X35871968Y-31597215D01*
X35871971Y-31597213D01*
X35929370Y-31518209D01*
X35992287Y-31431610D01*
X36085220Y-31249219D01*
X36148477Y-31054534D01*
X36180500Y-30852352D01*
X36180500Y-30647648D01*
X41199500Y-30647648D01*
X41199500Y-30852351D01*
X41231522Y-31054534D01*
X41294781Y-31249223D01*
X41387715Y-31431613D01*
X41508028Y-31597213D01*
X41652786Y-31741971D01*
X41807749Y-31854556D01*
X41818390Y-31862287D01*
X41934607Y-31921503D01*
X42000776Y-31955218D01*
X42000778Y-31955218D01*
X42000781Y-31955220D01*
X42105137Y-31989127D01*
X42195465Y-32018477D01*
X42228688Y-32023739D01*
X42397648Y-32050500D01*
X42397649Y-32050500D01*
X42602351Y-32050500D01*
X42602352Y-32050500D01*
X42804534Y-32018477D01*
X42999219Y-31955220D01*
X43181610Y-31862287D01*
X43274590Y-31794732D01*
X43347213Y-31741971D01*
X43347215Y-31741968D01*
X43347219Y-31741966D01*
X43491966Y-31597219D01*
X43491968Y-31597215D01*
X43491971Y-31597213D01*
X43549370Y-31518209D01*
X43612287Y-31431610D01*
X43705220Y-31249219D01*
X43768477Y-31054534D01*
X43800500Y-30852352D01*
X43800500Y-30647648D01*
X43768477Y-30445466D01*
X43705220Y-30250781D01*
X43705218Y-30250778D01*
X43705218Y-30250776D01*
X43639881Y-30122547D01*
X43612287Y-30068390D01*
X43584605Y-30030289D01*
X43491971Y-29902786D01*
X43347213Y-29758028D01*
X43181613Y-29637715D01*
X43181612Y-29637714D01*
X43181610Y-29637713D01*
X43112864Y-29602685D01*
X42999223Y-29544781D01*
X42804534Y-29481522D01*
X42629995Y-29453878D01*
X42602352Y-29449500D01*
X42397648Y-29449500D01*
X42373329Y-29453351D01*
X42195465Y-29481522D01*
X42000776Y-29544781D01*
X41818386Y-29637715D01*
X41652786Y-29758028D01*
X41508028Y-29902786D01*
X41387715Y-30068386D01*
X41294781Y-30250776D01*
X41231522Y-30445465D01*
X41199500Y-30647648D01*
X36180500Y-30647648D01*
X36148477Y-30445466D01*
X36085220Y-30250781D01*
X36085218Y-30250778D01*
X36085218Y-30250776D01*
X36019881Y-30122547D01*
X35992287Y-30068390D01*
X35964605Y-30030289D01*
X35871971Y-29902786D01*
X35727213Y-29758028D01*
X35561613Y-29637715D01*
X35561612Y-29637714D01*
X35561610Y-29637713D01*
X35492864Y-29602685D01*
X35379223Y-29544781D01*
X35184534Y-29481522D01*
X35009995Y-29453878D01*
X34982352Y-29449500D01*
X34777648Y-29449500D01*
X34753329Y-29453351D01*
X34575465Y-29481522D01*
X34380776Y-29544781D01*
X34198386Y-29637715D01*
X34032786Y-29758028D01*
X33888028Y-29902786D01*
X33767715Y-30068386D01*
X33674781Y-30250776D01*
X33611522Y-30445465D01*
X33579500Y-30647648D01*
X29847190Y-30647648D01*
X30030289Y-30541936D01*
X30222738Y-30394265D01*
X30394265Y-30222738D01*
X30541936Y-30030289D01*
X30663224Y-29820212D01*
X30756054Y-29596100D01*
X30818838Y-29361789D01*
X30850500Y-29121288D01*
X30850500Y-28878712D01*
X30818838Y-28638211D01*
X30765727Y-28440000D01*
X45973391Y-28440000D01*
X46934314Y-28440000D01*
X46929920Y-28444394D01*
X46877259Y-28535606D01*
X46850000Y-28637339D01*
X46850000Y-28742661D01*
X46877259Y-28844394D01*
X46929920Y-28935606D01*
X46934314Y-28940000D01*
X45973391Y-28940000D01*
X45982009Y-28994413D01*
X46045244Y-29189029D01*
X46138140Y-29371349D01*
X46258417Y-29536894D01*
X46258417Y-29536895D01*
X46403104Y-29681582D01*
X46568650Y-29801859D01*
X46750968Y-29894754D01*
X46945578Y-29957988D01*
X47000000Y-29966607D01*
X47000000Y-29005686D01*
X47004394Y-29010080D01*
X47095606Y-29062741D01*
X47197339Y-29090000D01*
X47302661Y-29090000D01*
X47404394Y-29062741D01*
X47495606Y-29010080D01*
X47500000Y-29005686D01*
X47500000Y-29966606D01*
X47554421Y-29957988D01*
X47749031Y-29894754D01*
X47931349Y-29801859D01*
X48096894Y-29681582D01*
X48096895Y-29681582D01*
X48241582Y-29536895D01*
X48241582Y-29536894D01*
X48361859Y-29371349D01*
X48454755Y-29189029D01*
X48517990Y-28994413D01*
X48526609Y-28940000D01*
X47565686Y-28940000D01*
X47570080Y-28935606D01*
X47622741Y-28844394D01*
X47650000Y-28742661D01*
X47650000Y-28637339D01*
X47622741Y-28535606D01*
X47570080Y-28444394D01*
X47565686Y-28440000D01*
X48526609Y-28440000D01*
X48517990Y-28385586D01*
X48517989Y-28385581D01*
X48513285Y-28371105D01*
X48513282Y-28371095D01*
X48478933Y-28265382D01*
X48478932Y-28265380D01*
X48454755Y-28190970D01*
X48454261Y-28190000D01*
X51973391Y-28190000D01*
X52934314Y-28190000D01*
X52929920Y-28194394D01*
X52877259Y-28285606D01*
X52850000Y-28387339D01*
X52850000Y-28492661D01*
X52877259Y-28594394D01*
X52929920Y-28685606D01*
X52934314Y-28690000D01*
X51973391Y-28690000D01*
X51982009Y-28744413D01*
X52045244Y-28939029D01*
X52138140Y-29121349D01*
X52258417Y-29286894D01*
X52258417Y-29286895D01*
X52403104Y-29431582D01*
X52568650Y-29551859D01*
X52750968Y-29644754D01*
X52945578Y-29707988D01*
X53000000Y-29716607D01*
X53000000Y-28755686D01*
X53004394Y-28760080D01*
X53095606Y-28812741D01*
X53197339Y-28840000D01*
X53302661Y-28840000D01*
X53404394Y-28812741D01*
X53495606Y-28760080D01*
X53500000Y-28755686D01*
X53500000Y-29716606D01*
X53554421Y-29707988D01*
X53749031Y-29644754D01*
X53931349Y-29551859D01*
X54096894Y-29431582D01*
X54096895Y-29431582D01*
X54241582Y-29286895D01*
X54241582Y-29286894D01*
X54361859Y-29121349D01*
X54454755Y-28939029D01*
X54517990Y-28744413D01*
X54526609Y-28690000D01*
X53565686Y-28690000D01*
X53570080Y-28685606D01*
X53622741Y-28594394D01*
X53650000Y-28492661D01*
X53650000Y-28387339D01*
X53636685Y-28337648D01*
X56199500Y-28337648D01*
X56199500Y-28542351D01*
X56231522Y-28744534D01*
X56294781Y-28939223D01*
X56387715Y-29121613D01*
X56508028Y-29287213D01*
X56652786Y-29431971D01*
X56807749Y-29544556D01*
X56818390Y-29552287D01*
X56934607Y-29611503D01*
X57000776Y-29645218D01*
X57000778Y-29645218D01*
X57000781Y-29645220D01*
X57105137Y-29679127D01*
X57195465Y-29708477D01*
X57296557Y-29724488D01*
X57397648Y-29740500D01*
X57397649Y-29740500D01*
X57602351Y-29740500D01*
X57602352Y-29740500D01*
X57804534Y-29708477D01*
X57999219Y-29645220D01*
X58181610Y-29552287D01*
X58279009Y-29481523D01*
X58347213Y-29431971D01*
X58347215Y-29431968D01*
X58347219Y-29431966D01*
X58491966Y-29287219D01*
X58491968Y-29287215D01*
X58491971Y-29287213D01*
X58544732Y-29214590D01*
X58612287Y-29121610D01*
X58705220Y-28939219D01*
X58768477Y-28744534D01*
X58800500Y-28542352D01*
X58800500Y-28337648D01*
X60949500Y-28337648D01*
X60949500Y-28542351D01*
X60981522Y-28744534D01*
X61044781Y-28939223D01*
X61137715Y-29121613D01*
X61258028Y-29287213D01*
X61402786Y-29431971D01*
X61557749Y-29544556D01*
X61568390Y-29552287D01*
X61684607Y-29611503D01*
X61750776Y-29645218D01*
X61750778Y-29645218D01*
X61750781Y-29645220D01*
X61855137Y-29679127D01*
X61945465Y-29708477D01*
X62046557Y-29724488D01*
X62147648Y-29740500D01*
X62147649Y-29740500D01*
X62352351Y-29740500D01*
X62352352Y-29740500D01*
X62554534Y-29708477D01*
X62749219Y-29645220D01*
X62931610Y-29552287D01*
X63029009Y-29481523D01*
X63097213Y-29431971D01*
X63097215Y-29431968D01*
X63097219Y-29431966D01*
X63241966Y-29287219D01*
X63241968Y-29287215D01*
X63241971Y-29287213D01*
X63294732Y-29214590D01*
X63362287Y-29121610D01*
X63455220Y-28939219D01*
X63518477Y-28744534D01*
X63550500Y-28542352D01*
X63550500Y-28337648D01*
X63529631Y-28205886D01*
X63518477Y-28135465D01*
X63483391Y-28027482D01*
X63455220Y-27940781D01*
X63455218Y-27940778D01*
X63455218Y-27940776D01*
X63421503Y-27874607D01*
X63362287Y-27758390D01*
X63344623Y-27734077D01*
X63241971Y-27592786D01*
X63097213Y-27448028D01*
X62931613Y-27327715D01*
X62931612Y-27327714D01*
X62931610Y-27327713D01*
X62859953Y-27291202D01*
X62749223Y-27234781D01*
X62554534Y-27171522D01*
X62379995Y-27143878D01*
X62352352Y-27139500D01*
X62147648Y-27139500D01*
X62123329Y-27143351D01*
X61945465Y-27171522D01*
X61750776Y-27234781D01*
X61568386Y-27327715D01*
X61402786Y-27448028D01*
X61258028Y-27592786D01*
X61137715Y-27758386D01*
X61044781Y-27940776D01*
X60981522Y-28135465D01*
X60949500Y-28337648D01*
X58800500Y-28337648D01*
X58779631Y-28205886D01*
X58768477Y-28135465D01*
X58733391Y-28027482D01*
X58705220Y-27940781D01*
X58705218Y-27940778D01*
X58705218Y-27940776D01*
X58671503Y-27874607D01*
X58612287Y-27758390D01*
X58594623Y-27734077D01*
X58491971Y-27592786D01*
X58347213Y-27448028D01*
X58181613Y-27327715D01*
X58181612Y-27327714D01*
X58181610Y-27327713D01*
X58109953Y-27291202D01*
X57999223Y-27234781D01*
X57804534Y-27171522D01*
X57629995Y-27143878D01*
X57602352Y-27139500D01*
X57397648Y-27139500D01*
X57373329Y-27143351D01*
X57195465Y-27171522D01*
X57000776Y-27234781D01*
X56818386Y-27327715D01*
X56652786Y-27448028D01*
X56508028Y-27592786D01*
X56387715Y-27758386D01*
X56294781Y-27940776D01*
X56231522Y-28135465D01*
X56199500Y-28337648D01*
X53636685Y-28337648D01*
X53622741Y-28285606D01*
X53570080Y-28194394D01*
X53565686Y-28190000D01*
X54526609Y-28190000D01*
X54517990Y-28135586D01*
X54454755Y-27940970D01*
X54361859Y-27758650D01*
X54241582Y-27593105D01*
X54241582Y-27593104D01*
X54096895Y-27448417D01*
X53931349Y-27328140D01*
X53749029Y-27235244D01*
X53554413Y-27172009D01*
X53500000Y-27163390D01*
X53500000Y-28124314D01*
X53495606Y-28119920D01*
X53404394Y-28067259D01*
X53302661Y-28040000D01*
X53197339Y-28040000D01*
X53095606Y-28067259D01*
X53004394Y-28119920D01*
X53000000Y-28124314D01*
X53000000Y-27163390D01*
X52945586Y-27172009D01*
X52750970Y-27235244D01*
X52568650Y-27328140D01*
X52403105Y-27448417D01*
X52403104Y-27448417D01*
X52258417Y-27593104D01*
X52258417Y-27593105D01*
X52138140Y-27758650D01*
X52045244Y-27940970D01*
X51982009Y-28135586D01*
X51973391Y-28190000D01*
X48454261Y-28190000D01*
X48361859Y-28008650D01*
X48241582Y-27843105D01*
X48241582Y-27843104D01*
X48096895Y-27698417D01*
X47931349Y-27578140D01*
X47749029Y-27485244D01*
X47554413Y-27422009D01*
X47500000Y-27413390D01*
X47500000Y-28374314D01*
X47495606Y-28369920D01*
X47404394Y-28317259D01*
X47302661Y-28290000D01*
X47197339Y-28290000D01*
X47095606Y-28317259D01*
X47004394Y-28369920D01*
X47000000Y-28374314D01*
X47000000Y-27413390D01*
X46945586Y-27422009D01*
X46750970Y-27485244D01*
X46568650Y-27578140D01*
X46403105Y-27698417D01*
X46403104Y-27698417D01*
X46258417Y-27843104D01*
X46258417Y-27843105D01*
X46138140Y-28008650D01*
X46045244Y-28190970D01*
X45982009Y-28385586D01*
X45973391Y-28440000D01*
X30765727Y-28440000D01*
X30756054Y-28403900D01*
X30663224Y-28179788D01*
X30541936Y-27969711D01*
X30394265Y-27777262D01*
X30394260Y-27777256D01*
X30222743Y-27605739D01*
X30222736Y-27605733D01*
X30030293Y-27458067D01*
X30030292Y-27458066D01*
X30030289Y-27458064D01*
X29820212Y-27336776D01*
X29710532Y-27291345D01*
X29596104Y-27243947D01*
X29478944Y-27212554D01*
X29361789Y-27181162D01*
X29361788Y-27181161D01*
X29361785Y-27181161D01*
X29121289Y-27149500D01*
X29121288Y-27149500D01*
X28878712Y-27149500D01*
X28878711Y-27149500D01*
X28638214Y-27181161D01*
X28403895Y-27243947D01*
X28179794Y-27336773D01*
X28179785Y-27336777D01*
X28032160Y-27422009D01*
X27987084Y-27448034D01*
X27969706Y-27458067D01*
X27777263Y-27605733D01*
X27777256Y-27605739D01*
X27605739Y-27777256D01*
X27605733Y-27777263D01*
X27458067Y-27969706D01*
X27336777Y-28179785D01*
X27336773Y-28179794D01*
X27243947Y-28403895D01*
X27181161Y-28638214D01*
X27149500Y-28878711D01*
X25506459Y-28878711D01*
X25506957Y-28868568D01*
X25506957Y-28868567D01*
X25517052Y-28663072D01*
X25518245Y-28650962D01*
X25541727Y-28492661D01*
X25566849Y-28323296D01*
X25569218Y-28311385D01*
X25649710Y-27990043D01*
X25653240Y-27978411D01*
X25668613Y-27935446D01*
X25764835Y-27666525D01*
X25769476Y-27655318D01*
X25911124Y-27355828D01*
X25916840Y-27345136D01*
X26087145Y-27060998D01*
X26093888Y-27050905D01*
X26291232Y-26784818D01*
X26298935Y-26775433D01*
X26521405Y-26529975D01*
X26529975Y-26521405D01*
X26775433Y-26298935D01*
X26784818Y-26291232D01*
X27050905Y-26093888D01*
X27060998Y-26087145D01*
X27345136Y-25916840D01*
X27355828Y-25911124D01*
X27655318Y-25769476D01*
X27666525Y-25764835D01*
X27978412Y-25653239D01*
X27990043Y-25649710D01*
X28311385Y-25569218D01*
X28323296Y-25566849D01*
X28650962Y-25518244D01*
X28663068Y-25517052D01*
X28996967Y-25500648D01*
X29003051Y-25500500D01*
X29065892Y-25500500D01*
X79331717Y-25500500D01*
X79398756Y-25520185D01*
G37*
G04 #@! TD.AperFunction*
G04 #@! TA.AperFunction,Conductor*
G36*
X86003032Y-25500648D02*
G01*
X86336929Y-25517052D01*
X86349037Y-25518245D01*
X86362116Y-25520185D01*
X86676699Y-25566849D01*
X86688617Y-25569219D01*
X87009951Y-25649709D01*
X87021588Y-25653240D01*
X87092806Y-25678722D01*
X87333467Y-25764832D01*
X87344688Y-25769479D01*
X87644163Y-25911120D01*
X87654871Y-25916844D01*
X87926598Y-26079711D01*
X87938988Y-26087137D01*
X87949106Y-26093897D01*
X88215170Y-26291224D01*
X88224576Y-26298944D01*
X88470013Y-26521395D01*
X88478604Y-26529986D01*
X88665755Y-26736475D01*
X88701055Y-26775423D01*
X88708775Y-26784829D01*
X88906102Y-27050893D01*
X88912862Y-27061011D01*
X89078149Y-27336777D01*
X89083148Y-27345116D01*
X89088883Y-27355844D01*
X89223094Y-27639610D01*
X89230514Y-27655297D01*
X89235170Y-27666540D01*
X89346759Y-27978411D01*
X89350292Y-27990055D01*
X89430777Y-28311369D01*
X89433151Y-28323305D01*
X89481754Y-28650962D01*
X89482947Y-28663071D01*
X89499351Y-28996966D01*
X89499500Y-29003051D01*
X89499500Y-45626000D01*
X89479815Y-45693039D01*
X89427011Y-45738794D01*
X89375500Y-45750000D01*
X83874000Y-45750000D01*
X83806961Y-45730315D01*
X83761206Y-45677511D01*
X83750000Y-45626000D01*
X83750000Y-42750000D01*
X74040020Y-42750000D01*
X73972981Y-42730315D01*
X73927226Y-42677511D01*
X73917282Y-42608353D01*
X73946307Y-42544797D01*
X73952339Y-42538319D01*
X74357530Y-42133128D01*
X78647819Y-37842838D01*
X78709142Y-37809353D01*
X78778834Y-37814337D01*
X78834767Y-37856209D01*
X78859184Y-37921673D01*
X78859500Y-37930519D01*
X78859500Y-38157884D01*
X78839815Y-38224923D01*
X78787011Y-38270678D01*
X78778834Y-38274066D01*
X78692669Y-38306203D01*
X78692664Y-38306206D01*
X78577455Y-38392452D01*
X78577452Y-38392455D01*
X78491206Y-38507664D01*
X78491202Y-38507671D01*
X78440908Y-38642517D01*
X78434501Y-38702116D01*
X78434500Y-38702135D01*
X78434500Y-40297870D01*
X78434501Y-40297876D01*
X78440908Y-40357483D01*
X78491202Y-40492328D01*
X78491206Y-40492335D01*
X78577452Y-40607544D01*
X78577455Y-40607547D01*
X78692664Y-40693793D01*
X78692671Y-40693797D01*
X78827517Y-40744091D01*
X78827516Y-40744091D01*
X78834444Y-40744835D01*
X78887127Y-40750500D01*
X80032872Y-40750499D01*
X80092483Y-40744091D01*
X80227331Y-40693796D01*
X80228430Y-40692972D01*
X80229717Y-40692492D01*
X80235112Y-40689547D01*
X80235535Y-40690322D01*
X80293887Y-40668552D01*
X80350198Y-40677673D01*
X80430873Y-40711091D01*
X80596777Y-40744091D01*
X80628992Y-40750499D01*
X80628996Y-40750500D01*
X80628997Y-40750500D01*
X80831004Y-40750500D01*
X80831005Y-40750499D01*
X81029127Y-40711091D01*
X81215756Y-40633786D01*
X81296562Y-40579792D01*
X81363234Y-40558917D01*
X81430614Y-40577401D01*
X81434340Y-40579795D01*
X81514479Y-40633343D01*
X81514486Y-40633347D01*
X81701016Y-40710609D01*
X81701025Y-40710612D01*
X81750000Y-40720353D01*
X81750000Y-39865865D01*
X81750067Y-39861789D01*
X81750400Y-39851638D01*
X81755500Y-39826003D01*
X81755500Y-39785830D01*
X81769745Y-39800075D01*
X81855255Y-39849444D01*
X81950630Y-39875000D01*
X82049370Y-39875000D01*
X82144745Y-39849444D01*
X82230255Y-39800075D01*
X82250000Y-39780330D01*
X82250000Y-40720352D01*
X82298974Y-40710612D01*
X82298983Y-40710609D01*
X82485513Y-40633347D01*
X82485526Y-40633340D01*
X82653399Y-40521170D01*
X82653403Y-40521167D01*
X82796167Y-40378403D01*
X82796170Y-40378399D01*
X82908340Y-40210526D01*
X82908347Y-40210513D01*
X82985609Y-40023983D01*
X82985612Y-40023974D01*
X83024999Y-39825958D01*
X83025000Y-39825955D01*
X83025000Y-39750000D01*
X82280330Y-39750000D01*
X82300075Y-39730255D01*
X82349444Y-39644745D01*
X82375000Y-39549370D01*
X82375000Y-39450630D01*
X82349444Y-39355255D01*
X82300075Y-39269745D01*
X82280330Y-39250000D01*
X83025000Y-39250000D01*
X83025000Y-39174045D01*
X83024999Y-39174041D01*
X82985612Y-38976025D01*
X82985609Y-38976016D01*
X82908347Y-38789486D01*
X82908340Y-38789473D01*
X82796170Y-38621600D01*
X82796167Y-38621596D01*
X82653403Y-38478832D01*
X82653399Y-38478829D01*
X82485526Y-38366659D01*
X82485513Y-38366652D01*
X82298984Y-38289390D01*
X82298977Y-38289388D01*
X82250000Y-38279645D01*
X82250000Y-39219670D01*
X82230255Y-39199925D01*
X82144745Y-39150556D01*
X82049370Y-39125000D01*
X81950630Y-39125000D01*
X81855255Y-39150556D01*
X81769745Y-39199925D01*
X81755500Y-39214170D01*
X81755500Y-39173997D01*
X81752383Y-39158326D01*
X81750000Y-39134134D01*
X81750000Y-38279646D01*
X81749999Y-38279645D01*
X81701022Y-38289388D01*
X81701015Y-38289390D01*
X81514481Y-38366654D01*
X81514479Y-38366655D01*
X81434337Y-38420204D01*
X81367660Y-38441081D01*
X81300280Y-38422596D01*
X81296558Y-38420204D01*
X81215754Y-38366212D01*
X81029127Y-38288909D01*
X81029119Y-38288907D01*
X80831007Y-38249500D01*
X80831003Y-38249500D01*
X80628997Y-38249500D01*
X80628992Y-38249500D01*
X80430880Y-38288907D01*
X80430868Y-38288910D01*
X80350198Y-38322325D01*
X80280729Y-38329794D01*
X80254551Y-38322015D01*
X80240578Y-38316120D01*
X80227331Y-38306204D01*
X80138731Y-38273158D01*
X80136305Y-38272135D01*
X80111185Y-38251622D01*
X80085233Y-38232194D01*
X80084286Y-38229656D01*
X80082187Y-38227942D01*
X80072145Y-38197104D01*
X80060816Y-38166730D01*
X80060638Y-38161769D01*
X80060553Y-38161506D01*
X80060620Y-38161249D01*
X80060500Y-38157884D01*
X80060500Y-37590096D01*
X80080185Y-37523057D01*
X80096814Y-37502420D01*
X80453592Y-37145642D01*
X85174000Y-37145642D01*
X85174000Y-37354357D01*
X85206650Y-37560506D01*
X85271149Y-37759011D01*
X85354030Y-37921673D01*
X85365903Y-37944975D01*
X85488584Y-38113831D01*
X85636169Y-38261416D01*
X85757196Y-38349347D01*
X85805026Y-38384098D01*
X85854911Y-38409516D01*
X85905706Y-38457490D01*
X85922501Y-38525311D01*
X85899963Y-38591446D01*
X85854911Y-38630484D01*
X85805026Y-38655901D01*
X85636166Y-38778586D01*
X85488586Y-38926166D01*
X85365903Y-39095024D01*
X85271149Y-39280988D01*
X85206650Y-39479493D01*
X85179645Y-39650000D01*
X85174000Y-39685642D01*
X85174000Y-39894358D01*
X85174521Y-39897648D01*
X85206650Y-40100506D01*
X85271149Y-40299011D01*
X85324188Y-40403105D01*
X85365903Y-40484975D01*
X85488584Y-40653831D01*
X85636169Y-40801416D01*
X85805025Y-40924097D01*
X85840838Y-40942344D01*
X85855460Y-40949795D01*
X85906256Y-40997770D01*
X85923051Y-41065591D01*
X85900513Y-41131726D01*
X85855460Y-41170765D01*
X85805285Y-41196330D01*
X85755822Y-41232268D01*
X85755821Y-41232268D01*
X86312211Y-41788657D01*
X86279409Y-41797447D01*
X86149091Y-41872687D01*
X86042687Y-41979091D01*
X85967447Y-42109409D01*
X85958657Y-42142210D01*
X85402268Y-41585821D01*
X85402268Y-41585822D01*
X85366330Y-41635285D01*
X85271612Y-41821179D01*
X85207137Y-42019610D01*
X85174500Y-42225675D01*
X85174500Y-42434324D01*
X85207137Y-42640389D01*
X85271612Y-42838820D01*
X85366330Y-43024714D01*
X85402268Y-43074176D01*
X85958657Y-42517788D01*
X85967447Y-42550591D01*
X86042687Y-42680909D01*
X86149091Y-42787313D01*
X86279409Y-42862553D01*
X86312211Y-42871342D01*
X85755822Y-43427730D01*
X85755822Y-43427731D01*
X85805285Y-43463669D01*
X85991179Y-43558387D01*
X86189610Y-43622862D01*
X86395676Y-43655500D01*
X86604324Y-43655500D01*
X86810389Y-43622862D01*
X87008820Y-43558387D01*
X87194709Y-43463672D01*
X87244176Y-43427730D01*
X86687788Y-42871342D01*
X86720591Y-42862553D01*
X86850909Y-42787313D01*
X86957313Y-42680909D01*
X87032553Y-42550591D01*
X87041342Y-42517788D01*
X87597730Y-43074176D01*
X87633672Y-43024709D01*
X87728387Y-42838820D01*
X87792862Y-42640389D01*
X87825500Y-42434324D01*
X87825500Y-42225675D01*
X87792862Y-42019610D01*
X87728387Y-41821179D01*
X87633669Y-41635285D01*
X87597730Y-41585822D01*
X87041342Y-42142210D01*
X87032553Y-42109409D01*
X86957313Y-41979091D01*
X86850909Y-41872687D01*
X86720591Y-41797447D01*
X86687788Y-41788657D01*
X87244176Y-41232268D01*
X87244176Y-41232267D01*
X87194711Y-41196328D01*
X87144540Y-41170765D01*
X87093743Y-41122791D01*
X87076948Y-41054970D01*
X87099485Y-40988835D01*
X87144540Y-40949795D01*
X87194973Y-40924098D01*
X87194972Y-40924098D01*
X87194975Y-40924097D01*
X87363831Y-40801416D01*
X87511416Y-40653831D01*
X87634097Y-40484975D01*
X87728852Y-40299007D01*
X87793349Y-40100506D01*
X87826000Y-39894358D01*
X87826000Y-39685642D01*
X87820355Y-39650000D01*
X87793349Y-39479493D01*
X87752981Y-39355255D01*
X87728852Y-39280993D01*
X87728850Y-39280990D01*
X87728850Y-39280988D01*
X87678865Y-39182888D01*
X87634097Y-39095025D01*
X87511416Y-38926169D01*
X87363831Y-38778584D01*
X87194975Y-38655903D01*
X87145088Y-38630484D01*
X87094293Y-38582511D01*
X87077498Y-38514690D01*
X87100035Y-38448555D01*
X87145089Y-38409515D01*
X87194975Y-38384097D01*
X87363831Y-38261416D01*
X87511416Y-38113831D01*
X87634097Y-37944975D01*
X87728852Y-37759007D01*
X87793349Y-37560506D01*
X87826000Y-37354358D01*
X87826000Y-37145642D01*
X87801604Y-36991613D01*
X87793349Y-36939493D01*
X87741586Y-36780185D01*
X87728852Y-36740993D01*
X87728850Y-36740990D01*
X87728850Y-36740988D01*
X87678865Y-36642888D01*
X87634097Y-36555025D01*
X87511416Y-36386169D01*
X87363831Y-36238584D01*
X87194975Y-36115903D01*
X87009011Y-36021149D01*
X86810506Y-35956650D01*
X86632543Y-35928464D01*
X86604358Y-35924000D01*
X86395642Y-35924000D01*
X86370846Y-35927927D01*
X86189493Y-35956650D01*
X85990988Y-36021149D01*
X85805024Y-36115903D01*
X85636166Y-36238586D01*
X85488586Y-36386166D01*
X85365903Y-36555024D01*
X85271149Y-36740988D01*
X85206650Y-36939493D01*
X85174000Y-37145642D01*
X80453592Y-37145642D01*
X82858506Y-34740727D01*
X82858511Y-34740724D01*
X82868714Y-34730520D01*
X82868716Y-34730520D01*
X82980520Y-34618716D01*
X83014868Y-34559223D01*
X83049958Y-34498446D01*
X83049959Y-34498443D01*
X83059577Y-34481785D01*
X83100500Y-34329058D01*
X83100500Y-34170943D01*
X83100500Y-31839060D01*
X83100501Y-31839047D01*
X83100501Y-31670944D01*
X83080746Y-31597219D01*
X83059577Y-31518216D01*
X83059573Y-31518209D01*
X82980524Y-31381290D01*
X82980518Y-31381282D01*
X81808029Y-30208793D01*
X80477946Y-28878711D01*
X84149500Y-28878711D01*
X84149500Y-29121288D01*
X84181161Y-29361785D01*
X84243947Y-29596104D01*
X84329174Y-29801859D01*
X84336776Y-29820212D01*
X84458064Y-30030289D01*
X84458066Y-30030292D01*
X84458067Y-30030293D01*
X84605733Y-30222736D01*
X84605739Y-30222743D01*
X84777256Y-30394260D01*
X84777263Y-30394266D01*
X84890321Y-30481018D01*
X84969711Y-30541936D01*
X85179788Y-30663224D01*
X85403900Y-30756054D01*
X85638211Y-30818838D01*
X85818586Y-30842584D01*
X85878711Y-30850500D01*
X85878712Y-30850500D01*
X86121289Y-30850500D01*
X86169388Y-30844167D01*
X86361789Y-30818838D01*
X86596100Y-30756054D01*
X86820212Y-30663224D01*
X87030289Y-30541936D01*
X87222738Y-30394265D01*
X87394265Y-30222738D01*
X87541936Y-30030289D01*
X87663224Y-29820212D01*
X87756054Y-29596100D01*
X87818838Y-29361789D01*
X87850500Y-29121288D01*
X87850500Y-28878712D01*
X87849164Y-28868567D01*
X87832835Y-28744534D01*
X87818838Y-28638211D01*
X87756054Y-28403900D01*
X87663224Y-28179788D01*
X87541936Y-27969711D01*
X87394265Y-27777262D01*
X87394260Y-27777256D01*
X87222743Y-27605739D01*
X87222736Y-27605733D01*
X87030293Y-27458067D01*
X87030292Y-27458066D01*
X87030289Y-27458064D01*
X86820212Y-27336776D01*
X86710532Y-27291345D01*
X86596104Y-27243947D01*
X86478944Y-27212554D01*
X86361789Y-27181162D01*
X86361788Y-27181161D01*
X86361785Y-27181161D01*
X86121289Y-27149500D01*
X86121288Y-27149500D01*
X85878712Y-27149500D01*
X85878711Y-27149500D01*
X85638214Y-27181161D01*
X85403895Y-27243947D01*
X85179794Y-27336773D01*
X85179785Y-27336777D01*
X85032160Y-27422009D01*
X84987084Y-27448034D01*
X84969706Y-27458067D01*
X84777263Y-27605733D01*
X84777256Y-27605739D01*
X84605739Y-27777256D01*
X84605733Y-27777263D01*
X84458067Y-27969706D01*
X84336777Y-28179785D01*
X84336773Y-28179794D01*
X84243947Y-28403895D01*
X84181161Y-28638214D01*
X84149500Y-28878711D01*
X80477946Y-28878711D01*
X79987589Y-28388354D01*
X79987588Y-28388352D01*
X79868717Y-28269481D01*
X79868712Y-28269477D01*
X79787432Y-28222550D01*
X79739216Y-28171983D01*
X79725994Y-28103376D01*
X79751962Y-28038511D01*
X79761743Y-28027490D01*
X80055158Y-27734075D01*
X80116479Y-27700592D01*
X80181151Y-27703825D01*
X80195466Y-27708477D01*
X80397648Y-27740500D01*
X80397649Y-27740500D01*
X80602351Y-27740500D01*
X80602352Y-27740500D01*
X80804534Y-27708477D01*
X80999219Y-27645220D01*
X81181610Y-27552287D01*
X81311298Y-27458064D01*
X81347213Y-27431971D01*
X81347215Y-27431968D01*
X81347219Y-27431966D01*
X81491966Y-27287219D01*
X81491968Y-27287215D01*
X81491971Y-27287213D01*
X81576024Y-27171522D01*
X81612287Y-27121610D01*
X81705220Y-26939219D01*
X81768477Y-26744534D01*
X81800500Y-26542352D01*
X81800500Y-26337648D01*
X81768477Y-26135466D01*
X81754970Y-26093897D01*
X81714133Y-25968213D01*
X81705220Y-25940781D01*
X81705218Y-25940778D01*
X81705218Y-25940776D01*
X81643813Y-25820264D01*
X81612287Y-25758390D01*
X81567965Y-25697385D01*
X81544485Y-25631579D01*
X81560311Y-25563525D01*
X81610416Y-25514830D01*
X81668283Y-25500500D01*
X85934108Y-25500500D01*
X85996949Y-25500500D01*
X86003032Y-25500648D01*
G37*
G04 #@! TD.AperFunction*
G04 #@! TA.AperFunction,Conductor*
G36*
X78110943Y-29350501D02*
G01*
X78269057Y-29350501D01*
X78269061Y-29350500D01*
X79199903Y-29350500D01*
X79266942Y-29370185D01*
X79287584Y-29386819D01*
X81863181Y-31962416D01*
X81896666Y-32023739D01*
X81899500Y-32050097D01*
X81899500Y-33425579D01*
X81879815Y-33492618D01*
X81827011Y-33538373D01*
X81757853Y-33548317D01*
X81694297Y-33519292D01*
X81665015Y-33481874D01*
X81636331Y-33425579D01*
X81612287Y-33378390D01*
X81604556Y-33367749D01*
X81491971Y-33212786D01*
X81347213Y-33068028D01*
X81181613Y-32947715D01*
X81181612Y-32947714D01*
X81181610Y-32947713D01*
X81124653Y-32918691D01*
X80999223Y-32854781D01*
X80804534Y-32791522D01*
X80629995Y-32763878D01*
X80602352Y-32759500D01*
X80397648Y-32759500D01*
X80373329Y-32763351D01*
X80195465Y-32791522D01*
X80000776Y-32854781D01*
X79818386Y-32947715D01*
X79652786Y-33068028D01*
X79508028Y-33212786D01*
X79387715Y-33378386D01*
X79294781Y-33560776D01*
X79231522Y-33755465D01*
X79199500Y-33957648D01*
X79199500Y-34162351D01*
X79231522Y-34364534D01*
X79294781Y-34559223D01*
X79387712Y-34741609D01*
X79485378Y-34876036D01*
X79508857Y-34941843D01*
X79493031Y-35009897D01*
X79472740Y-35036602D01*
X73246162Y-41263181D01*
X73184839Y-41296666D01*
X73158481Y-41299500D01*
X62365567Y-41299500D01*
X62298528Y-41279815D01*
X62252773Y-41227011D01*
X62242829Y-41157853D01*
X62271854Y-41094297D01*
X62292682Y-41075181D01*
X62305882Y-41065591D01*
X62407219Y-40991966D01*
X62551966Y-40847219D01*
X62551968Y-40847215D01*
X62551971Y-40847213D01*
X62622236Y-40750500D01*
X62672287Y-40681610D01*
X62765220Y-40499219D01*
X62828477Y-40304534D01*
X62835782Y-40258417D01*
X62860500Y-40102351D01*
X62860500Y-39897648D01*
X62828477Y-39695465D01*
X62791628Y-39582057D01*
X62765220Y-39500781D01*
X62765218Y-39500778D01*
X62765218Y-39500776D01*
X62672287Y-39318390D01*
X62597680Y-39215701D01*
X62597679Y-39215698D01*
X62551971Y-39152787D01*
X62551967Y-39152782D01*
X62407213Y-39008028D01*
X62241613Y-38887715D01*
X62241612Y-38887714D01*
X62241610Y-38887713D01*
X62167594Y-38850000D01*
X62059223Y-38794781D01*
X61864534Y-38731522D01*
X61678938Y-38702127D01*
X61662352Y-38699500D01*
X61457648Y-38699500D01*
X61441062Y-38702127D01*
X61255465Y-38731522D01*
X61060776Y-38794781D01*
X60878386Y-38887715D01*
X60712786Y-39008028D01*
X60568028Y-39152786D01*
X60447715Y-39318386D01*
X60354781Y-39500776D01*
X60291522Y-39695465D01*
X60259500Y-39897648D01*
X60259500Y-40102351D01*
X60291522Y-40304534D01*
X60354781Y-40499223D01*
X60409974Y-40607544D01*
X60432752Y-40652248D01*
X60447715Y-40681613D01*
X60568028Y-40847213D01*
X60568034Y-40847219D01*
X60712781Y-40991966D01*
X60801551Y-41056461D01*
X60827318Y-41075181D01*
X60869984Y-41130511D01*
X60875963Y-41200125D01*
X60843358Y-41261920D01*
X60782519Y-41296277D01*
X60754433Y-41299500D01*
X54745567Y-41299500D01*
X54678528Y-41279815D01*
X54632773Y-41227011D01*
X54622829Y-41157853D01*
X54651854Y-41094297D01*
X54672682Y-41075181D01*
X54685882Y-41065591D01*
X54787219Y-40991966D01*
X54931966Y-40847219D01*
X54931968Y-40847215D01*
X54931971Y-40847213D01*
X55002236Y-40750500D01*
X55052287Y-40681610D01*
X55145220Y-40499219D01*
X55208477Y-40304534D01*
X55240500Y-40102352D01*
X55240500Y-39897648D01*
X55219257Y-39763524D01*
X55208477Y-39695465D01*
X55171628Y-39582057D01*
X55145220Y-39500781D01*
X55145218Y-39500778D01*
X55145218Y-39500776D01*
X55096108Y-39404394D01*
X55052287Y-39318390D01*
X55016945Y-39269745D01*
X54929103Y-39148839D01*
X54930621Y-39147735D01*
X54905319Y-39091278D01*
X54915752Y-39022192D01*
X54961879Y-38969713D01*
X55028179Y-38950500D01*
X60128996Y-38950500D01*
X60251327Y-38926166D01*
X60264328Y-38923580D01*
X60350919Y-38887713D01*
X60391807Y-38870777D01*
X60391808Y-38870776D01*
X60391811Y-38870775D01*
X60506543Y-38794114D01*
X61923852Y-37376803D01*
X61985173Y-37343320D01*
X62030929Y-37342013D01*
X62085395Y-37350639D01*
X62147648Y-37360500D01*
X62147649Y-37360500D01*
X62352351Y-37360500D01*
X62352352Y-37360500D01*
X62554534Y-37328477D01*
X62749219Y-37265220D01*
X62931610Y-37172287D01*
X63030668Y-37100318D01*
X63097213Y-37051971D01*
X63097215Y-37051968D01*
X63097219Y-37051966D01*
X63241966Y-36907219D01*
X63311425Y-36811615D01*
X63366755Y-36768949D01*
X63411744Y-36760500D01*
X71075501Y-36760500D01*
X71142540Y-36780185D01*
X71188295Y-36832989D01*
X71199501Y-36884500D01*
X71199501Y-37597876D01*
X71205908Y-37657483D01*
X71256202Y-37792328D01*
X71256206Y-37792335D01*
X71342452Y-37907544D01*
X71342455Y-37907547D01*
X71457664Y-37993793D01*
X71457671Y-37993797D01*
X71502618Y-38010561D01*
X71592517Y-38044091D01*
X71652127Y-38050500D01*
X71652153Y-38050499D01*
X71655453Y-38050678D01*
X71655365Y-38052308D01*
X71716238Y-38070067D01*
X71762084Y-38122791D01*
X71769804Y-38166251D01*
X72453554Y-38850000D01*
X72447339Y-38850000D01*
X72345606Y-38877259D01*
X72254394Y-38929920D01*
X72179920Y-39004394D01*
X72127259Y-39095606D01*
X72100000Y-39197339D01*
X72100000Y-39203553D01*
X71420524Y-38524077D01*
X71420523Y-38524077D01*
X71388143Y-38568644D01*
X71295244Y-38750968D01*
X71232009Y-38945582D01*
X71200000Y-39147682D01*
X71200000Y-39352317D01*
X71232009Y-39554417D01*
X71295244Y-39749031D01*
X71388141Y-39931350D01*
X71388147Y-39931359D01*
X71420523Y-39975921D01*
X71420524Y-39975922D01*
X72100000Y-39296446D01*
X72100000Y-39302661D01*
X72127259Y-39404394D01*
X72179920Y-39495606D01*
X72254394Y-39570080D01*
X72345606Y-39622741D01*
X72447339Y-39650000D01*
X72453553Y-39650000D01*
X71774076Y-40329474D01*
X71818650Y-40361859D01*
X72000968Y-40454755D01*
X72195582Y-40517990D01*
X72397683Y-40550000D01*
X72602317Y-40550000D01*
X72804417Y-40517990D01*
X72999031Y-40454755D01*
X73181349Y-40361859D01*
X73225921Y-40329474D01*
X72546447Y-39650000D01*
X72552661Y-39650000D01*
X72654394Y-39622741D01*
X72745606Y-39570080D01*
X72820080Y-39495606D01*
X72872741Y-39404394D01*
X72900000Y-39302661D01*
X72900000Y-39296447D01*
X73579474Y-39975921D01*
X73611859Y-39931349D01*
X73704755Y-39749031D01*
X73767990Y-39554417D01*
X73800000Y-39352317D01*
X73800000Y-39147682D01*
X73767990Y-38945582D01*
X73704755Y-38750968D01*
X73611859Y-38568650D01*
X73579474Y-38524077D01*
X73579474Y-38524076D01*
X72900000Y-39203551D01*
X72900000Y-39197339D01*
X72872741Y-39095606D01*
X72820080Y-39004394D01*
X72745606Y-38929920D01*
X72654394Y-38877259D01*
X72552661Y-38850000D01*
X72546446Y-38850000D01*
X73230931Y-38165515D01*
X73241364Y-38115852D01*
X73290415Y-38066094D01*
X73344637Y-38052048D01*
X73344576Y-38050900D01*
X73344571Y-38050854D01*
X73344573Y-38050853D01*
X73344564Y-38050676D01*
X73347857Y-38050499D01*
X73347872Y-38050499D01*
X73407483Y-38044091D01*
X73542331Y-37993796D01*
X73657546Y-37907546D01*
X73743796Y-37792331D01*
X73794091Y-37657483D01*
X73800500Y-37597873D01*
X73800499Y-35902128D01*
X73794091Y-35842517D01*
X73782254Y-35810781D01*
X73743797Y-35707671D01*
X73743793Y-35707664D01*
X73657547Y-35592455D01*
X73657544Y-35592452D01*
X73542335Y-35506206D01*
X73542328Y-35506202D01*
X73407482Y-35455908D01*
X73407483Y-35455908D01*
X73347883Y-35449501D01*
X73347881Y-35449500D01*
X73347873Y-35449500D01*
X73347865Y-35449500D01*
X72241519Y-35449500D01*
X72174480Y-35429815D01*
X72153838Y-35413181D01*
X71156819Y-34416162D01*
X71123334Y-34354839D01*
X71120500Y-34328481D01*
X71120500Y-30142088D01*
X71140185Y-30075049D01*
X71171615Y-30041770D01*
X71187412Y-30030293D01*
X71309563Y-29941545D01*
X71461545Y-29789563D01*
X71587880Y-29615678D01*
X71587879Y-29615678D01*
X71589682Y-29613198D01*
X71645012Y-29570532D01*
X71714625Y-29564553D01*
X71776420Y-29597159D01*
X71790318Y-29613198D01*
X71895543Y-29758028D01*
X71918455Y-29789563D01*
X72070437Y-29941545D01*
X72244322Y-30067880D01*
X72301670Y-30097100D01*
X72435829Y-30165458D01*
X72435832Y-30165459D01*
X72612115Y-30222736D01*
X72640245Y-30231876D01*
X72852533Y-30265500D01*
X72852534Y-30265500D01*
X73067466Y-30265500D01*
X73067467Y-30265500D01*
X73279755Y-30231876D01*
X73279758Y-30231875D01*
X73279759Y-30231875D01*
X73484167Y-30165459D01*
X73484170Y-30165458D01*
X73530036Y-30142088D01*
X73675678Y-30067880D01*
X73849563Y-29941545D01*
X74001545Y-29789563D01*
X74127880Y-29615678D01*
X74127879Y-29615678D01*
X74129682Y-29613198D01*
X74185012Y-29570532D01*
X74254625Y-29564553D01*
X74316420Y-29597159D01*
X74330318Y-29613198D01*
X74435543Y-29758028D01*
X74458455Y-29789563D01*
X74610437Y-29941545D01*
X74784322Y-30067880D01*
X74841670Y-30097100D01*
X74975829Y-30165458D01*
X74975832Y-30165459D01*
X75152115Y-30222736D01*
X75180245Y-30231876D01*
X75392533Y-30265500D01*
X75392534Y-30265500D01*
X75607466Y-30265500D01*
X75607467Y-30265500D01*
X75819755Y-30231876D01*
X75819758Y-30231875D01*
X75819759Y-30231875D01*
X76024167Y-30165459D01*
X76024170Y-30165458D01*
X76070036Y-30142088D01*
X76215678Y-30067880D01*
X76389563Y-29941545D01*
X76541545Y-29789563D01*
X76667880Y-29615678D01*
X76765458Y-29424170D01*
X76765457Y-29424170D01*
X76767670Y-29419829D01*
X76769377Y-29420698D01*
X76808125Y-29372632D01*
X76874423Y-29350578D01*
X76878828Y-29350500D01*
X77670943Y-29350500D01*
X78110939Y-29350500D01*
X78110943Y-29350501D01*
G37*
G04 #@! TD.AperFunction*
M02*
