G04 #@! TF.GenerationSoftware,KiCad,Pcbnew,9.0.6*
G04 #@! TF.CreationDate,2025-12-27T08:39:55-07:00*
G04 #@! TF.ProjectId,pifire-relay-pwm-module-SSR,70696669-7265-42d7-9265-6c61792d7077,rev?*
G04 #@! TF.SameCoordinates,Original*
G04 #@! TF.FileFunction,Legend,Bot*
G04 #@! TF.FilePolarity,Positive*
%FSLAX46Y46*%
G04 Gerber Fmt 4.6, Leading zero omitted, Abs format (unit mm)*
G04 Created by KiCad (PCBNEW 9.0.6) date 2025-12-27 08:39:55*
%MOMM*%
%LPD*%
G01*
G04 APERTURE LIST*
G04 Aperture macros list*
%AMRoundRect*
0 Rectangle with rounded corners*
0 $1 Rounding radius*
0 $2 $3 $4 $5 $6 $7 $8 $9 X,Y pos of 4 corners*
0 Add a 4 corners polygon primitive as box body*
4,1,4,$2,$3,$4,$5,$6,$7,$8,$9,$2,$3,0*
0 Add four circle primitives for the rounded corners*
1,1,$1+$1,$2,$3*
1,1,$1+$1,$4,$5*
1,1,$1+$1,$6,$7*
1,1,$1+$1,$8,$9*
0 Add four rect primitives between the rounded corners*
20,1,$1+$1,$2,$3,$4,$5,0*
20,1,$1+$1,$4,$5,$6,$7,0*
20,1,$1+$1,$6,$7,$8,$9,0*
20,1,$1+$1,$8,$9,$2,$3,0*%
G04 Aperture macros list end*
%ADD10C,0.100000*%
%ADD11C,1.600000*%
%ADD12O,1.600000X1.600000*%
%ADD13RoundRect,0.102000X0.754000X0.754000X-0.754000X0.754000X-0.754000X-0.754000X0.754000X-0.754000X0*%
%ADD14C,1.712000*%
%ADD15C,3.200000*%
%ADD16R,1.500000X1.050000*%
%ADD17O,1.500000X1.050000*%
%ADD18C,2.000000*%
%ADD19C,1.100000*%
%ADD20R,1.730000X2.030000*%
%ADD21O,1.730000X2.030000*%
%ADD22RoundRect,0.250000X0.725000X-0.600000X0.725000X0.600000X-0.725000X0.600000X-0.725000X-0.600000X0*%
%ADD23O,1.950000X1.700000*%
%ADD24R,3.000000X3.000000*%
%ADD25C,3.000000*%
%ADD26C,1.651000*%
%ADD27R,1.050000X1.500000*%
%ADD28O,1.050000X1.500000*%
%ADD29R,1.600000X1.600000*%
G04 APERTURE END LIST*
D10*
G36*
X59995000Y-35138302D02*
G01*
X58488510Y-35138302D01*
X58488510Y-35322766D01*
X59030362Y-35322766D01*
X58964448Y-35392451D01*
X58918504Y-35468865D01*
X58890780Y-35553504D01*
X58881252Y-35648647D01*
X58886901Y-35728079D01*
X58903051Y-35797557D01*
X58928971Y-35858666D01*
X58965537Y-35913398D01*
X59009246Y-35955426D01*
X59060771Y-35986252D01*
X59118387Y-36005957D01*
X59197789Y-36019559D01*
X59304769Y-36024720D01*
X59995000Y-36024720D01*
X59995000Y-35840256D01*
X59304311Y-35840256D01*
X59213700Y-35832361D01*
X59148608Y-35811503D01*
X59102628Y-35780264D01*
X59068532Y-35736534D01*
X59047202Y-35681173D01*
X59039521Y-35610729D01*
X59050109Y-35531401D01*
X59082111Y-35456489D01*
X59114347Y-35412399D01*
X59152623Y-35378398D01*
X59197608Y-35353449D01*
X59277879Y-35331457D01*
X59398742Y-35322766D01*
X59995000Y-35322766D01*
X59995000Y-35138302D01*
G37*
G36*
X59827021Y-36707532D02*
G01*
X59989962Y-36734185D01*
X60002815Y-36658050D01*
X60006723Y-36594875D01*
X59997794Y-36501048D01*
X59974941Y-36439078D01*
X59937431Y-36391358D01*
X59891227Y-36361226D01*
X59825065Y-36345971D01*
X59672965Y-36338695D01*
X59045383Y-36338695D01*
X59045383Y-36203415D01*
X58904699Y-36203415D01*
X58904699Y-36338695D01*
X58635239Y-36338695D01*
X58524505Y-36522060D01*
X58904699Y-36522060D01*
X58904699Y-36707532D01*
X59045383Y-36707532D01*
X59045383Y-36522060D01*
X59680476Y-36522060D01*
X59752296Y-36525249D01*
X59781775Y-36531769D01*
X59801895Y-36544526D01*
X59817588Y-36563551D01*
X59827128Y-36588426D01*
X59830868Y-36626565D01*
X59827021Y-36707532D01*
G37*
G36*
X59827021Y-37290784D02*
G01*
X59989962Y-37317437D01*
X60002815Y-37241302D01*
X60006723Y-37178127D01*
X59997794Y-37084300D01*
X59974941Y-37022330D01*
X59937431Y-36974610D01*
X59891227Y-36944478D01*
X59825065Y-36929223D01*
X59672965Y-36921946D01*
X59045383Y-36921946D01*
X59045383Y-36786666D01*
X58904699Y-36786666D01*
X58904699Y-36921946D01*
X58635239Y-36921946D01*
X58524505Y-37105312D01*
X58904699Y-37105312D01*
X58904699Y-37290784D01*
X59045383Y-37290784D01*
X59045383Y-37105312D01*
X59680476Y-37105312D01*
X59752296Y-37108501D01*
X59781775Y-37115020D01*
X59801895Y-37127778D01*
X59817588Y-37146803D01*
X59827128Y-37171678D01*
X59830868Y-37209817D01*
X59827021Y-37290784D01*
G37*
G36*
X60411189Y-37655774D02*
G01*
X59880419Y-37655774D01*
X59934480Y-37708806D01*
X59979337Y-37776125D01*
X60008414Y-37853066D01*
X60018447Y-37941630D01*
X60010666Y-38023685D01*
X59987248Y-38103342D01*
X59947281Y-38181873D01*
X59893500Y-38251346D01*
X59825833Y-38309209D01*
X59742391Y-38356079D01*
X59651463Y-38388877D01*
X59551719Y-38409094D01*
X59441698Y-38416072D01*
X59338944Y-38409827D01*
X59243834Y-38391584D01*
X59155293Y-38361758D01*
X59073352Y-38318822D01*
X59006541Y-38265331D01*
X58952968Y-38200833D01*
X58913456Y-38126984D01*
X58889490Y-38045664D01*
X58881252Y-37955002D01*
X58882505Y-37937600D01*
X59027798Y-37937600D01*
X59038946Y-38012170D01*
X59072346Y-38079469D01*
X59130929Y-38142031D01*
X59183990Y-38176914D01*
X59251205Y-38203645D01*
X59335722Y-38221175D01*
X59441331Y-38227577D01*
X59552483Y-38220927D01*
X59640290Y-38202828D01*
X59709081Y-38175430D01*
X59762450Y-38139924D01*
X59808975Y-38092424D01*
X59840804Y-38042145D01*
X59859657Y-37988239D01*
X59866039Y-37929357D01*
X59855089Y-37853270D01*
X59822538Y-37785467D01*
X59766022Y-37723368D01*
X59714460Y-37688904D01*
X59648113Y-37662340D01*
X59563548Y-37644809D01*
X59456627Y-37638372D01*
X59350541Y-37645026D01*
X59264196Y-37663401D01*
X59194164Y-37691709D01*
X59137616Y-37729047D01*
X59087537Y-37778515D01*
X59053892Y-37829143D01*
X59034325Y-37881741D01*
X59027798Y-37937600D01*
X58882505Y-37937600D01*
X58886295Y-37884964D01*
X58900579Y-37825042D01*
X58923292Y-37773560D01*
X58974312Y-37704187D01*
X59049230Y-37639379D01*
X58904699Y-37639379D01*
X58904699Y-37471310D01*
X60411189Y-37471310D01*
X60411189Y-37655774D01*
G37*
G36*
X59666737Y-38564083D02*
G01*
X59643290Y-38746441D01*
X59711781Y-38763612D01*
X59765970Y-38792209D01*
X59808612Y-38831987D01*
X59839157Y-38881923D01*
X59858848Y-38946053D01*
X59866039Y-39028266D01*
X59859280Y-39111655D01*
X59841335Y-39172707D01*
X59814474Y-39216761D01*
X59776853Y-39251844D01*
X59737007Y-39271719D01*
X59693482Y-39278310D01*
X59654850Y-39272254D01*
X59622754Y-39254582D01*
X59595479Y-39223996D01*
X59572276Y-39171524D01*
X59533197Y-39035410D01*
X59480643Y-38848840D01*
X59444537Y-38754134D01*
X59399187Y-38684360D01*
X59341039Y-38635249D01*
X59271731Y-38604964D01*
X59194952Y-38594766D01*
X59124555Y-38603148D01*
X59060129Y-38628013D01*
X59003382Y-38667360D01*
X58957090Y-38718780D01*
X58929077Y-38766788D01*
X58903326Y-38836108D01*
X58886898Y-38912178D01*
X58881252Y-38995477D01*
X58890960Y-39118738D01*
X58918072Y-39220333D01*
X58947104Y-39282042D01*
X58980419Y-39328847D01*
X59017814Y-39363306D01*
X59087942Y-39400977D01*
X59186067Y-39426871D01*
X59209515Y-39246528D01*
X59157168Y-39232704D01*
X59114671Y-39209012D01*
X59080188Y-39175270D01*
X59055565Y-39133503D01*
X59039548Y-39079159D01*
X59033660Y-39008757D01*
X59039436Y-38924411D01*
X59054284Y-38866244D01*
X59075517Y-38827407D01*
X59106365Y-38796193D01*
X59138619Y-38778801D01*
X59173519Y-38773094D01*
X59207378Y-38778700D01*
X59237816Y-38795625D01*
X59263772Y-38823049D01*
X59286726Y-38866333D01*
X59333712Y-39029274D01*
X59385776Y-39209598D01*
X59419350Y-39302307D01*
X59460691Y-39372010D01*
X59516161Y-39423756D01*
X59560477Y-39447637D01*
X59612519Y-39462547D01*
X59674064Y-39467812D01*
X59733981Y-39461905D01*
X59791560Y-39444178D01*
X59847813Y-39413956D01*
X59897162Y-39373657D01*
X59939091Y-39322445D01*
X59973842Y-39258709D01*
X59998176Y-39189797D01*
X60013234Y-39113705D01*
X60018447Y-39029274D01*
X60011910Y-38921516D01*
X59993883Y-38833931D01*
X59966184Y-38763043D01*
X59929787Y-38705957D01*
X59881923Y-38656975D01*
X59823353Y-38616962D01*
X59752387Y-38585787D01*
X59666737Y-38564083D01*
G37*
G36*
X59109863Y-39738372D02*
G01*
X58904699Y-39738372D01*
X58904699Y-39948390D01*
X59109863Y-39948390D01*
X59109863Y-39738372D01*
G37*
G36*
X59995000Y-39738372D02*
G01*
X59789836Y-39738372D01*
X59789836Y-39948390D01*
X59995000Y-39948390D01*
X59995000Y-39738372D01*
G37*
G36*
X60018447Y-40132030D02*
G01*
X58465062Y-40567546D01*
X58465062Y-40715099D01*
X60018447Y-40280591D01*
X60018447Y-40132030D01*
G37*
G36*
X60018447Y-40715282D02*
G01*
X58465062Y-41150798D01*
X58465062Y-41298351D01*
X60018447Y-40863843D01*
X60018447Y-40715282D01*
G37*
G36*
X59556405Y-41374231D02*
G01*
X59657445Y-41397705D01*
X59749160Y-41435911D01*
X59832975Y-41489043D01*
X59903503Y-41556454D01*
X59953422Y-41635143D01*
X59984191Y-41727345D01*
X59995000Y-41836540D01*
X59986398Y-41923851D01*
X59961330Y-42001941D01*
X59919765Y-42072806D01*
X59860177Y-42137783D01*
X60021648Y-42133979D01*
X60091720Y-42124502D01*
X60148365Y-42102573D01*
X60194609Y-42071252D01*
X60232037Y-42030163D01*
X60258425Y-41981108D01*
X60275800Y-41916599D01*
X60282229Y-41832418D01*
X60275514Y-41754841D01*
X60257023Y-41693440D01*
X60228190Y-41644840D01*
X60197990Y-41616366D01*
X60156492Y-41595316D01*
X60100512Y-41582375D01*
X60077065Y-41403039D01*
X60165110Y-41409441D01*
X60237145Y-41431369D01*
X60296538Y-41467590D01*
X60345519Y-41518811D01*
X60383014Y-41580367D01*
X60410810Y-41652061D01*
X60428407Y-41735690D01*
X60434637Y-41833426D01*
X60427176Y-41941315D01*
X60406186Y-42032436D01*
X60373087Y-42109573D01*
X60326297Y-42178692D01*
X60270712Y-42232783D01*
X60205567Y-42273521D01*
X60131875Y-42299116D01*
X60016702Y-42317842D01*
X59845431Y-42325270D01*
X58904699Y-42325270D01*
X58904699Y-42155185D01*
X59039521Y-42155185D01*
X58968974Y-42086882D01*
X58920338Y-42012295D01*
X58891222Y-41929976D01*
X58882685Y-41850828D01*
X59033660Y-41850828D01*
X59044814Y-41929653D01*
X59077944Y-41999975D01*
X59135326Y-42064419D01*
X59187927Y-42100873D01*
X59253740Y-42128536D01*
X59335633Y-42146538D01*
X59437118Y-42153079D01*
X59544095Y-42146536D01*
X59628257Y-42128755D01*
X59693906Y-42101857D01*
X59744590Y-42066983D01*
X59799522Y-42004332D01*
X59831650Y-41934215D01*
X59842592Y-41853851D01*
X59831553Y-41772955D01*
X59799222Y-41702870D01*
X59744040Y-41640718D01*
X59693264Y-41606479D01*
X59626826Y-41579905D01*
X59540925Y-41562244D01*
X59430982Y-41555722D01*
X59330985Y-41562078D01*
X59250314Y-41579564D01*
X59185519Y-41606406D01*
X59133769Y-41641726D01*
X59077296Y-41704495D01*
X59044664Y-41773321D01*
X59033660Y-41850828D01*
X58882685Y-41850828D01*
X58881252Y-41837547D01*
X58889590Y-41743398D01*
X58913674Y-41660227D01*
X58953060Y-41585947D01*
X59006703Y-41521075D01*
X59073926Y-41466712D01*
X59156666Y-41422457D01*
X59246013Y-41391472D01*
X59341520Y-41372580D01*
X59444262Y-41366128D01*
X59556405Y-41374231D01*
G37*
G36*
X58693674Y-42604439D02*
G01*
X58488510Y-42604439D01*
X58488510Y-42788812D01*
X58693674Y-42788812D01*
X58693674Y-42604439D01*
G37*
G36*
X59995000Y-42604439D02*
G01*
X58904699Y-42604439D01*
X58904699Y-42788812D01*
X59995000Y-42788812D01*
X59995000Y-42604439D01*
G37*
G36*
X59827021Y-43472082D02*
G01*
X59989962Y-43498735D01*
X60002815Y-43422600D01*
X60006723Y-43359425D01*
X59997794Y-43265598D01*
X59974941Y-43203628D01*
X59937431Y-43155908D01*
X59891227Y-43125776D01*
X59825065Y-43110521D01*
X59672965Y-43103244D01*
X59045383Y-43103244D01*
X59045383Y-42967964D01*
X58904699Y-42967964D01*
X58904699Y-43103244D01*
X58635239Y-43103244D01*
X58524505Y-43286610D01*
X58904699Y-43286610D01*
X58904699Y-43472082D01*
X59045383Y-43472082D01*
X59045383Y-43286610D01*
X59680476Y-43286610D01*
X59752296Y-43289799D01*
X59781775Y-43296318D01*
X59801895Y-43309076D01*
X59817588Y-43328101D01*
X59827128Y-43352976D01*
X59830868Y-43391115D01*
X59827021Y-43472082D01*
G37*
G36*
X59995000Y-43652608D02*
G01*
X58488510Y-43652608D01*
X58488510Y-43837072D01*
X59030362Y-43837072D01*
X58964448Y-43906757D01*
X58918504Y-43983171D01*
X58890780Y-44067810D01*
X58881252Y-44162953D01*
X58886901Y-44242385D01*
X58903051Y-44311863D01*
X58928971Y-44372971D01*
X58965537Y-44427703D01*
X59009246Y-44469731D01*
X59060771Y-44500558D01*
X59118387Y-44520263D01*
X59197789Y-44533864D01*
X59304769Y-44539026D01*
X59995000Y-44539026D01*
X59995000Y-44354562D01*
X59304311Y-44354562D01*
X59213700Y-44346666D01*
X59148608Y-44325808D01*
X59102628Y-44294569D01*
X59068532Y-44250840D01*
X59047202Y-44195479D01*
X59039521Y-44125034D01*
X59050109Y-44045706D01*
X59082111Y-43970795D01*
X59114347Y-43926704D01*
X59152623Y-43892703D01*
X59197608Y-43867755D01*
X59277879Y-43845763D01*
X59398742Y-43837072D01*
X59995000Y-43837072D01*
X59995000Y-43652608D01*
G37*
G36*
X59995000Y-45532331D02*
G01*
X59834532Y-45532331D01*
X59902166Y-45476454D01*
X59953002Y-45414968D01*
X59988961Y-45347192D01*
X60010880Y-45271822D01*
X60018447Y-45187033D01*
X60009098Y-45093297D01*
X59981536Y-45007148D01*
X59938213Y-44932237D01*
X59888754Y-44883225D01*
X59828074Y-44849405D01*
X59751825Y-44826347D01*
X59689481Y-44818450D01*
X59579542Y-44815081D01*
X58904699Y-44815081D01*
X58904699Y-44999454D01*
X59509200Y-44999454D01*
X59642202Y-45003024D01*
X59704198Y-45010720D01*
X59749929Y-45026969D01*
X59787639Y-45051420D01*
X59818595Y-45084451D01*
X59841236Y-45123940D01*
X59855254Y-45169891D01*
X59860177Y-45223852D01*
X59849571Y-45304121D01*
X59817588Y-45379557D01*
X59785276Y-45423920D01*
X59746855Y-45457903D01*
X59701633Y-45482597D01*
X59619602Y-45504091D01*
X59488684Y-45512822D01*
X58904699Y-45512822D01*
X58904699Y-45697287D01*
X59995000Y-45697287D01*
X59995000Y-45532331D01*
G37*
G36*
X59995000Y-46155700D02*
G01*
X59856789Y-46155700D01*
X59928606Y-46216889D01*
X59978179Y-46286378D01*
X60008086Y-46365793D01*
X60018447Y-46458042D01*
X60008928Y-46551309D01*
X59980911Y-46636499D01*
X59933925Y-46715609D01*
X59865856Y-46789968D01*
X59786242Y-46847855D01*
X59690015Y-46890939D01*
X59573823Y-46918488D01*
X59433455Y-46928362D01*
X59318142Y-46920001D01*
X59212171Y-46895573D01*
X59114588Y-46855651D01*
X59035491Y-46804897D01*
X58970780Y-46739538D01*
X58921735Y-46657344D01*
X58891423Y-46565230D01*
X58881252Y-46467293D01*
X58883014Y-46450806D01*
X59033660Y-46450806D01*
X59044702Y-46526121D01*
X59077606Y-46593405D01*
X59134959Y-46655238D01*
X59186979Y-46689431D01*
X59254153Y-46715864D01*
X59340023Y-46733347D01*
X59448842Y-46739776D01*
X59554340Y-46733232D01*
X59639232Y-46715259D01*
X59707193Y-46687743D01*
X59761259Y-46651666D01*
X59808526Y-46603800D01*
X59840696Y-46553642D01*
X59859650Y-46500365D01*
X59866039Y-46442655D01*
X59857267Y-46372638D01*
X59831614Y-46311320D01*
X59788219Y-46256460D01*
X59723890Y-46206991D01*
X59662987Y-46180119D01*
X59572255Y-46161096D01*
X59441698Y-46153685D01*
X59341321Y-46160118D01*
X59259370Y-46177915D01*
X59192649Y-46205409D01*
X59138531Y-46241796D01*
X59091218Y-46289667D01*
X59059021Y-46339827D01*
X59040053Y-46393102D01*
X59033660Y-46450806D01*
X58883014Y-46450806D01*
X58890568Y-46380118D01*
X58917728Y-46302714D01*
X58963002Y-46232826D01*
X59028531Y-46169072D01*
X58488510Y-46169072D01*
X58488510Y-45984608D01*
X59995000Y-45984608D01*
X59995000Y-46155700D01*
G37*
G36*
X59995000Y-47204418D02*
G01*
X59789836Y-47204418D01*
X59789836Y-47414436D01*
X59995000Y-47414436D01*
X59995000Y-47204418D01*
G37*
G36*
X59596395Y-48445477D02*
G01*
X59619842Y-48626827D01*
X59711418Y-48605185D01*
X59789497Y-48572417D01*
X59856089Y-48529016D01*
X59912659Y-48474694D01*
X59958522Y-48410693D01*
X59991341Y-48340130D01*
X60011481Y-48261748D01*
X60018447Y-48173909D01*
X60008716Y-48064443D01*
X59980863Y-47969833D01*
X59935706Y-47887274D01*
X59872451Y-47814781D01*
X59796144Y-47758065D01*
X59703364Y-47715819D01*
X59590730Y-47688760D01*
X59453971Y-47679043D01*
X59337619Y-47685987D01*
X59235490Y-47705802D01*
X59145584Y-47737386D01*
X59063829Y-47783822D01*
X58998412Y-47842754D01*
X58947381Y-47915164D01*
X58910710Y-47996925D01*
X58888701Y-48083119D01*
X58881252Y-48175008D01*
X58887422Y-48263331D01*
X58904988Y-48339906D01*
X58933039Y-48406594D01*
X58971378Y-48464894D01*
X59019928Y-48515188D01*
X59077772Y-48555946D01*
X59146221Y-48587484D01*
X59227100Y-48609425D01*
X59250547Y-48430089D01*
X59181571Y-48407317D01*
X59128406Y-48376930D01*
X59088156Y-48339414D01*
X59058114Y-48293513D01*
X59039942Y-48241648D01*
X59033660Y-48182152D01*
X59040163Y-48114410D01*
X59058928Y-48055143D01*
X59089703Y-48002636D01*
X59133402Y-47955739D01*
X59184837Y-47920571D01*
X59251911Y-47893349D01*
X59338393Y-47875295D01*
X59448842Y-47868636D01*
X59561276Y-47875130D01*
X59648688Y-47892663D01*
X59715877Y-47918939D01*
X59766846Y-47952625D01*
X59810405Y-47998071D01*
X59840987Y-48048923D01*
X59859595Y-48106299D01*
X59866039Y-48171894D01*
X59858363Y-48241745D01*
X59836296Y-48301448D01*
X59799911Y-48353244D01*
X59751204Y-48393764D01*
X59684940Y-48424926D01*
X59596395Y-48445477D01*
G37*
G36*
X59587954Y-48726100D02*
G01*
X59701577Y-48754128D01*
X59795111Y-48797942D01*
X59871993Y-48856904D01*
X59935379Y-48931801D01*
X59980707Y-49016870D01*
X60008680Y-49114109D01*
X60018447Y-49226290D01*
X60010929Y-49319508D01*
X59988752Y-49406669D01*
X59951860Y-49489065D01*
X59901200Y-49563332D01*
X59839247Y-49624080D01*
X59764923Y-49672522D01*
X59682052Y-49705415D01*
X59573935Y-49727387D01*
X59434462Y-49735537D01*
X59305491Y-49725622D01*
X59197078Y-49697703D01*
X59105593Y-49653467D01*
X59028256Y-49593113D01*
X58964363Y-49517399D01*
X58918885Y-49432380D01*
X58890959Y-49336205D01*
X58881252Y-49226290D01*
X59033660Y-49226290D01*
X59040262Y-49292153D01*
X59059534Y-49351175D01*
X59091564Y-49404877D01*
X59137616Y-49454261D01*
X59191508Y-49492146D01*
X59258433Y-49520764D01*
X59341175Y-49539315D01*
X59443163Y-49546035D01*
X59552097Y-49539204D01*
X59638896Y-49520522D01*
X59707626Y-49492039D01*
X59761625Y-49454810D01*
X59807831Y-49405628D01*
X59840003Y-49351921D01*
X59859388Y-49292662D01*
X59866039Y-49226290D01*
X59859397Y-49159353D01*
X59840070Y-49099750D01*
X59808057Y-49045903D01*
X59762175Y-48996763D01*
X59708345Y-48959375D01*
X59640451Y-48930906D01*
X59555373Y-48912313D01*
X59449300Y-48905539D01*
X59343256Y-48912321D01*
X59258317Y-48930924D01*
X59190635Y-48959392D01*
X59137066Y-48996763D01*
X59091408Y-49045874D01*
X59059531Y-49099713D01*
X59040278Y-49159326D01*
X59033660Y-49226290D01*
X58881252Y-49226290D01*
X58889179Y-49126946D01*
X58912144Y-49037937D01*
X58949643Y-48957453D01*
X59002152Y-48884106D01*
X59063119Y-48826279D01*
X59136107Y-48780251D01*
X59223056Y-48745853D01*
X59326582Y-48723880D01*
X59449849Y-48716037D01*
X59587954Y-48726100D01*
G37*
G36*
X59995000Y-49951142D02*
G01*
X58904699Y-49951142D01*
X58904699Y-50116189D01*
X59057015Y-50116189D01*
X58985806Y-50175541D01*
X58929521Y-50252385D01*
X58903025Y-50310806D01*
X58886829Y-50374974D01*
X58881252Y-50446100D01*
X58887355Y-50525385D01*
X58904373Y-50590584D01*
X58931078Y-50644303D01*
X58968648Y-50690779D01*
X59014672Y-50726936D01*
X59070388Y-50753480D01*
X58999829Y-50810631D01*
X58947424Y-50871984D01*
X58910826Y-50938089D01*
X58888787Y-51010087D01*
X58881252Y-51089619D01*
X58887565Y-51170201D01*
X58905238Y-51236971D01*
X58933101Y-51292455D01*
X58971011Y-51338564D01*
X59017972Y-51374371D01*
X59077628Y-51401507D01*
X59152875Y-51419208D01*
X59247342Y-51425667D01*
X59995000Y-51425667D01*
X59995000Y-51242301D01*
X59307700Y-51242301D01*
X59204542Y-51236885D01*
X59147965Y-51224350D01*
X59104256Y-51199379D01*
X59069380Y-51159228D01*
X59047233Y-51108936D01*
X59039521Y-51048586D01*
X59048315Y-50975275D01*
X59073722Y-50912574D01*
X59116092Y-50857985D01*
X59172101Y-50818380D01*
X59251180Y-50792079D01*
X59361098Y-50782148D01*
X59995000Y-50782148D01*
X59995000Y-50597775D01*
X59286085Y-50597775D01*
X59204737Y-50591831D01*
X59144737Y-50576058D01*
X59101162Y-50552621D01*
X59068140Y-50518085D01*
X59047236Y-50470435D01*
X59039521Y-50405159D01*
X59049805Y-50330161D01*
X59080646Y-50261086D01*
X59111872Y-50221456D01*
X59151494Y-50189661D01*
X59200813Y-50165282D01*
X59288946Y-50144179D01*
X59428875Y-50135607D01*
X59995000Y-50135607D01*
X59995000Y-49951142D01*
G37*
G36*
X60018447Y-51561130D02*
G01*
X58465062Y-51996646D01*
X58465062Y-52144199D01*
X60018447Y-51709691D01*
X60018447Y-51561130D01*
G37*
G36*
X59995000Y-52282684D02*
G01*
X58904699Y-52282684D01*
X58904699Y-52448739D01*
X59059397Y-52448739D01*
X58994781Y-52501437D01*
X58945691Y-52561230D01*
X58910533Y-52628968D01*
X58888827Y-52706198D01*
X58881252Y-52795045D01*
X58890314Y-52890447D01*
X58916698Y-52975846D01*
X58959003Y-53049863D01*
X59009480Y-53099310D01*
X59071165Y-53133709D01*
X59145859Y-53156738D01*
X59206742Y-53163838D01*
X59325286Y-53166996D01*
X59995000Y-53166996D01*
X59995000Y-52982532D01*
X59331331Y-52982532D01*
X59225614Y-52976214D01*
X59162345Y-52961008D01*
X59112347Y-52931471D01*
X59072952Y-52884621D01*
X59048172Y-52826224D01*
X59039521Y-52756119D01*
X59048037Y-52680357D01*
X59072901Y-52613240D01*
X59114535Y-52552695D01*
X59154479Y-52518924D01*
X59211554Y-52492251D01*
X59290929Y-52474049D01*
X59399108Y-52467149D01*
X59995000Y-52467149D01*
X59995000Y-52282684D01*
G37*
G36*
X59591607Y-53397582D02*
G01*
X59702052Y-53425192D01*
X59794323Y-53468670D01*
X59871443Y-53527590D01*
X59934585Y-53601961D01*
X59980117Y-53688168D01*
X60008470Y-53788528D01*
X60018447Y-53906228D01*
X60012118Y-54000911D01*
X59994101Y-54083177D01*
X59965368Y-54154931D01*
X59926215Y-54217729D01*
X59857662Y-54289432D01*
X59772210Y-54345024D01*
X59666737Y-54384791D01*
X59643290Y-54194190D01*
X59717706Y-54160777D01*
X59773075Y-54122743D01*
X59812916Y-54080434D01*
X59842006Y-54030285D01*
X59859834Y-53973128D01*
X59866039Y-53907235D01*
X59855223Y-53820423D01*
X59823796Y-53745564D01*
X59770968Y-53679723D01*
X59721143Y-53641065D01*
X59660316Y-53610882D01*
X59586393Y-53589577D01*
X59496744Y-53578332D01*
X59496744Y-54389829D01*
X59447560Y-54390928D01*
X59312827Y-54381132D01*
X59200801Y-54353723D01*
X59107504Y-54310675D01*
X59029813Y-54252534D01*
X58965008Y-54178656D01*
X58919098Y-54095925D01*
X58891002Y-54002550D01*
X58881445Y-53898076D01*
X59033660Y-53898076D01*
X59040493Y-53965973D01*
X59060278Y-54025612D01*
X59092923Y-54078745D01*
X59139631Y-54126504D01*
X59188393Y-54157721D01*
X59254988Y-54181533D01*
X59344337Y-54196205D01*
X59344337Y-53588590D01*
X59253645Y-53604109D01*
X59179364Y-53636187D01*
X59118198Y-53684394D01*
X59071342Y-53746411D01*
X59043318Y-53816770D01*
X59033660Y-53898076D01*
X58881445Y-53898076D01*
X58881252Y-53895969D01*
X58891247Y-53785781D01*
X58919998Y-53689573D01*
X58966884Y-53604656D01*
X59032927Y-53529147D01*
X59112259Y-53469718D01*
X59207470Y-53425732D01*
X59321735Y-53397735D01*
X59459100Y-53387731D01*
X59591607Y-53397582D01*
G37*
G36*
X59995000Y-54785777D02*
G01*
X59856789Y-54785777D01*
X59928606Y-54846965D01*
X59978179Y-54916455D01*
X60008086Y-54995870D01*
X60018447Y-55088119D01*
X60008928Y-55181386D01*
X59980911Y-55266576D01*
X59933925Y-55345686D01*
X59865856Y-55420045D01*
X59786242Y-55477932D01*
X59690015Y-55521016D01*
X59573823Y-55548565D01*
X59433455Y-55558439D01*
X59318142Y-55550078D01*
X59212171Y-55525649D01*
X59114588Y-55485728D01*
X59035491Y-55434974D01*
X58970780Y-55369615D01*
X58921735Y-55287421D01*
X58891423Y-55195307D01*
X58881252Y-55097370D01*
X58883014Y-55080883D01*
X59033660Y-55080883D01*
X59044702Y-55156197D01*
X59077606Y-55223482D01*
X59134959Y-55285314D01*
X59186979Y-55319508D01*
X59254153Y-55345941D01*
X59340023Y-55363424D01*
X59448842Y-55369853D01*
X59554340Y-55363309D01*
X59639232Y-55345336D01*
X59707193Y-55317820D01*
X59761259Y-55281742D01*
X59808526Y-55233877D01*
X59840696Y-55183719D01*
X59859650Y-55130441D01*
X59866039Y-55072732D01*
X59857267Y-55002715D01*
X59831614Y-54941397D01*
X59788219Y-54886537D01*
X59723890Y-54837068D01*
X59662987Y-54810196D01*
X59572255Y-54791173D01*
X59441698Y-54783762D01*
X59341321Y-54790195D01*
X59259370Y-54807992D01*
X59192649Y-54835485D01*
X59138531Y-54871872D01*
X59091218Y-54919744D01*
X59059021Y-54969903D01*
X59040053Y-55023178D01*
X59033660Y-55080883D01*
X58883014Y-55080883D01*
X58890568Y-55010195D01*
X58917728Y-54932790D01*
X58963002Y-54862903D01*
X59028531Y-54799149D01*
X58488510Y-54799149D01*
X58488510Y-54614685D01*
X59995000Y-54614685D01*
X59995000Y-54785777D01*
G37*
G36*
X59995000Y-55782196D02*
G01*
X58488510Y-55782196D01*
X58488510Y-55966660D01*
X59030362Y-55966660D01*
X58964448Y-56036345D01*
X58918504Y-56112759D01*
X58890780Y-56197398D01*
X58881252Y-56292541D01*
X58886901Y-56371973D01*
X58903051Y-56441451D01*
X58928971Y-56502560D01*
X58965537Y-56557292D01*
X59009246Y-56599320D01*
X59060771Y-56630146D01*
X59118387Y-56649851D01*
X59197789Y-56663453D01*
X59304769Y-56668614D01*
X59995000Y-56668614D01*
X59995000Y-56484150D01*
X59304311Y-56484150D01*
X59213700Y-56476255D01*
X59148608Y-56455397D01*
X59102628Y-56424158D01*
X59068532Y-56380428D01*
X59047202Y-56325067D01*
X59039521Y-56254623D01*
X59050109Y-56175295D01*
X59082111Y-56100383D01*
X59114347Y-56056293D01*
X59152623Y-56022292D01*
X59197608Y-55997343D01*
X59277879Y-55975351D01*
X59398742Y-55966660D01*
X59995000Y-55966660D01*
X59995000Y-55782196D01*
G37*
G36*
X59591607Y-56897093D02*
G01*
X59702052Y-56924703D01*
X59794323Y-56968181D01*
X59871443Y-57027102D01*
X59934585Y-57101473D01*
X59980117Y-57187679D01*
X60008470Y-57288040D01*
X60018447Y-57405739D01*
X60012118Y-57500423D01*
X59994101Y-57582689D01*
X59965368Y-57654442D01*
X59926215Y-57717240D01*
X59857662Y-57788943D01*
X59772210Y-57844535D01*
X59666737Y-57884303D01*
X59643290Y-57693702D01*
X59717706Y-57660289D01*
X59773075Y-57622255D01*
X59812916Y-57579945D01*
X59842006Y-57529797D01*
X59859834Y-57472640D01*
X59866039Y-57406747D01*
X59855223Y-57319935D01*
X59823796Y-57245076D01*
X59770968Y-57179234D01*
X59721143Y-57140577D01*
X59660316Y-57110394D01*
X59586393Y-57089089D01*
X59496744Y-57077843D01*
X59496744Y-57889340D01*
X59447560Y-57890439D01*
X59312827Y-57880643D01*
X59200801Y-57853234D01*
X59107504Y-57810187D01*
X59029813Y-57752045D01*
X58965008Y-57678167D01*
X58919098Y-57595436D01*
X58891002Y-57502062D01*
X58881445Y-57397588D01*
X59033660Y-57397588D01*
X59040493Y-57465485D01*
X59060278Y-57525124D01*
X59092923Y-57578257D01*
X59139631Y-57626016D01*
X59188393Y-57657232D01*
X59254988Y-57681045D01*
X59344337Y-57695717D01*
X59344337Y-57088101D01*
X59253645Y-57103620D01*
X59179364Y-57135698D01*
X59118198Y-57183906D01*
X59071342Y-57245923D01*
X59043318Y-57316281D01*
X59033660Y-57397588D01*
X58881445Y-57397588D01*
X58881252Y-57395481D01*
X58891247Y-57285293D01*
X58919998Y-57189084D01*
X58966884Y-57104168D01*
X59032927Y-57028659D01*
X59112259Y-56969229D01*
X59207470Y-56925244D01*
X59321735Y-56897246D01*
X59459100Y-56887242D01*
X59591607Y-56897093D01*
G37*
G36*
X59773279Y-58058996D02*
G01*
X59831742Y-58077092D01*
X59883917Y-58106812D01*
X59930886Y-58149001D01*
X59967413Y-58199232D01*
X59994678Y-58260345D01*
X60012164Y-58334567D01*
X60018447Y-58424690D01*
X60009364Y-58530723D01*
X59982726Y-58628114D01*
X59936457Y-58721201D01*
X59860177Y-58825309D01*
X59934084Y-58839099D01*
X59995000Y-58862220D01*
X59995000Y-59054836D01*
X59929844Y-59025695D01*
X59862284Y-59008217D01*
X59770175Y-59000396D01*
X59536403Y-58996493D01*
X59291031Y-58996493D01*
X59177821Y-58993619D01*
X59121404Y-58987242D01*
X59050824Y-58964017D01*
X58996199Y-58929815D01*
X58952859Y-58880401D01*
X58913950Y-58801770D01*
X58890324Y-58707629D01*
X58881252Y-58575357D01*
X58891378Y-58440027D01*
X58919629Y-58328336D01*
X58950121Y-58260481D01*
X58986602Y-58206933D01*
X59028897Y-58165487D01*
X59078707Y-58132778D01*
X59140163Y-58105584D01*
X59215376Y-58084521D01*
X59238824Y-58264863D01*
X59165131Y-58290459D01*
X59113500Y-58321279D01*
X59078906Y-58356546D01*
X59055614Y-58400448D01*
X59039717Y-58462583D01*
X59033660Y-58548704D01*
X59041670Y-58639621D01*
X59063249Y-58707876D01*
X59096216Y-58758722D01*
X59130826Y-58785900D01*
X59181788Y-58804074D01*
X59255127Y-58811021D01*
X59303304Y-58809922D01*
X59449849Y-58809922D01*
X59516619Y-58809922D01*
X59629132Y-58801344D01*
X59698702Y-58780246D01*
X59747939Y-58749684D01*
X59789932Y-58709431D01*
X59825281Y-58658339D01*
X59850841Y-58601381D01*
X59866500Y-58538585D01*
X59871901Y-58468745D01*
X59865709Y-58398531D01*
X59848959Y-58345326D01*
X59823266Y-58305255D01*
X59787728Y-58274041D01*
X59747666Y-58255730D01*
X59701450Y-58249476D01*
X59655783Y-58255901D01*
X59614713Y-58275030D01*
X59580715Y-58305609D01*
X59555362Y-58347753D01*
X59537926Y-58403568D01*
X59518818Y-58508679D01*
X59484583Y-58696383D01*
X59449849Y-58809922D01*
X59303304Y-58809922D01*
X59334832Y-58689191D01*
X59366868Y-58481018D01*
X59394528Y-58317070D01*
X59420113Y-58246456D01*
X59454979Y-58184355D01*
X59501079Y-58131439D01*
X59561041Y-58089100D01*
X59630017Y-58061959D01*
X59706946Y-58052739D01*
X59773279Y-58058996D01*
G37*
G36*
X59560871Y-59222166D02*
G01*
X59658811Y-59242421D01*
X59746421Y-59275021D01*
X59827040Y-59321316D01*
X59893265Y-59377511D01*
X59946731Y-59444098D01*
X59986690Y-59519497D01*
X60010439Y-59598787D01*
X60018447Y-59683426D01*
X60007773Y-59779942D01*
X59977326Y-59860791D01*
X59927443Y-59929429D01*
X59855781Y-59987783D01*
X59995000Y-59987783D01*
X59995000Y-60158875D01*
X58488510Y-60158875D01*
X58488510Y-59975418D01*
X59030546Y-59975418D01*
X58970728Y-59920541D01*
X58922651Y-59850396D01*
X58891911Y-59769468D01*
X58883230Y-59692677D01*
X59033660Y-59692677D01*
X59040166Y-59753103D01*
X59059278Y-59807709D01*
X59091368Y-59857943D01*
X59138073Y-59904710D01*
X59191625Y-59939374D01*
X59261377Y-59966310D01*
X59351194Y-59984205D01*
X59465695Y-59990806D01*
X59569044Y-59984455D01*
X59651299Y-59967102D01*
X59716322Y-59940695D01*
X59767304Y-59906267D01*
X59823016Y-59844599D01*
X59855192Y-59776981D01*
X59866039Y-59700828D01*
X59854887Y-59625508D01*
X59821402Y-59557005D01*
X59762633Y-59492825D01*
X59709280Y-59456844D01*
X59641688Y-59429326D01*
X59556679Y-59411297D01*
X59450399Y-59404714D01*
X59339453Y-59411055D01*
X59252649Y-59428222D01*
X59185447Y-59454017D01*
X59134043Y-59487146D01*
X59089256Y-59532013D01*
X59058393Y-59580535D01*
X59039954Y-59633611D01*
X59033660Y-59692677D01*
X58883230Y-59692677D01*
X58881252Y-59675183D01*
X58889247Y-59587835D01*
X58912763Y-59507421D01*
X58951960Y-59432375D01*
X59005168Y-59366807D01*
X59072289Y-59312657D01*
X59155384Y-59269434D01*
X59245292Y-59239736D01*
X59343366Y-59221429D01*
X59450857Y-59215121D01*
X59560871Y-59222166D01*
G37*
G36*
X60018447Y-60309909D02*
G01*
X58465062Y-60745424D01*
X58465062Y-60892978D01*
X60018447Y-60458469D01*
X60018447Y-60309909D01*
G37*
G36*
X60411189Y-61215928D02*
G01*
X59880419Y-61215928D01*
X59934480Y-61268959D01*
X59979337Y-61336278D01*
X60008414Y-61413220D01*
X60018447Y-61501783D01*
X60010666Y-61583838D01*
X59987248Y-61663495D01*
X59947281Y-61742027D01*
X59893500Y-61811499D01*
X59825833Y-61869363D01*
X59742391Y-61916233D01*
X59651463Y-61949030D01*
X59551719Y-61969247D01*
X59441698Y-61976225D01*
X59338944Y-61969981D01*
X59243834Y-61951738D01*
X59155293Y-61921912D01*
X59073352Y-61878975D01*
X59006541Y-61825485D01*
X58952968Y-61760986D01*
X58913456Y-61687138D01*
X58889490Y-61605818D01*
X58881252Y-61515156D01*
X58882505Y-61497753D01*
X59027798Y-61497753D01*
X59038946Y-61572323D01*
X59072346Y-61639622D01*
X59130929Y-61702185D01*
X59183990Y-61737068D01*
X59251205Y-61763798D01*
X59335722Y-61781329D01*
X59441331Y-61787731D01*
X59552483Y-61781081D01*
X59640290Y-61762982D01*
X59709081Y-61735583D01*
X59762450Y-61700078D01*
X59808975Y-61652577D01*
X59840804Y-61602299D01*
X59859657Y-61548392D01*
X59866039Y-61489510D01*
X59855089Y-61413423D01*
X59822538Y-61345620D01*
X59766022Y-61283522D01*
X59714460Y-61249058D01*
X59648113Y-61222493D01*
X59563548Y-61204962D01*
X59456627Y-61198525D01*
X59350541Y-61205180D01*
X59264196Y-61223555D01*
X59194164Y-61251863D01*
X59137616Y-61289200D01*
X59087537Y-61338668D01*
X59053892Y-61389297D01*
X59034325Y-61441895D01*
X59027798Y-61497753D01*
X58882505Y-61497753D01*
X58886295Y-61445117D01*
X58900579Y-61385195D01*
X58923292Y-61333714D01*
X58974312Y-61264340D01*
X59049230Y-61199533D01*
X58904699Y-61199533D01*
X58904699Y-61031463D01*
X60411189Y-61031463D01*
X60411189Y-61215928D01*
G37*
G36*
X58693674Y-62199066D02*
G01*
X58488510Y-62199066D01*
X58488510Y-62383439D01*
X58693674Y-62383439D01*
X58693674Y-62199066D01*
G37*
G36*
X59995000Y-62199066D02*
G01*
X58904699Y-62199066D01*
X58904699Y-62383439D01*
X59995000Y-62383439D01*
X59995000Y-62199066D01*
G37*
G36*
X59995000Y-62708038D02*
G01*
X59045383Y-62708038D01*
X59045383Y-62545189D01*
X58904699Y-62545189D01*
X58904699Y-62708038D01*
X58788928Y-62708038D01*
X58686380Y-62713796D01*
X58625988Y-62727547D01*
X58581342Y-62749680D01*
X58542800Y-62780613D01*
X58509667Y-62821244D01*
X58486250Y-62868176D01*
X58470784Y-62929611D01*
X58465062Y-63009372D01*
X58469436Y-63088950D01*
X58483564Y-63181472D01*
X58645314Y-63153811D01*
X58635055Y-63045184D01*
X58639864Y-62990225D01*
X58652381Y-62952097D01*
X58670867Y-62926299D01*
X58697328Y-62908809D01*
X58739712Y-62896413D01*
X58804590Y-62891495D01*
X58904699Y-62891495D01*
X58904699Y-63103620D01*
X59045383Y-63103620D01*
X59045383Y-62891495D01*
X59995000Y-62891495D01*
X59995000Y-62708038D01*
G37*
G36*
X58693674Y-63248333D02*
G01*
X58488510Y-63248333D01*
X58488510Y-63432706D01*
X58693674Y-63432706D01*
X58693674Y-63248333D01*
G37*
G36*
X59995000Y-63248333D02*
G01*
X58904699Y-63248333D01*
X58904699Y-63432706D01*
X59995000Y-63432706D01*
X59995000Y-63248333D01*
G37*
G36*
X59995000Y-63711235D02*
G01*
X58904699Y-63711235D01*
X58904699Y-63877198D01*
X59073685Y-63877198D01*
X58969047Y-63943831D01*
X58918713Y-63994526D01*
X58890583Y-64051100D01*
X58881252Y-64112862D01*
X58887443Y-64173509D01*
X58906630Y-64236324D01*
X58940420Y-64302455D01*
X59110688Y-64238982D01*
X59083412Y-64170263D01*
X59074692Y-64103702D01*
X59083786Y-64046310D01*
X59111054Y-63995075D01*
X59153635Y-63954307D01*
X59211713Y-63926382D01*
X59312836Y-63903610D01*
X59426494Y-63895699D01*
X59995000Y-63895699D01*
X59995000Y-63711235D01*
G37*
G36*
X59591607Y-64360666D02*
G01*
X59702052Y-64388276D01*
X59794323Y-64431754D01*
X59871443Y-64490675D01*
X59934585Y-64565045D01*
X59980117Y-64651252D01*
X60008470Y-64751613D01*
X60018447Y-64869312D01*
X60012118Y-64963996D01*
X59994101Y-65046262D01*
X59965368Y-65118015D01*
X59926215Y-65180813D01*
X59857662Y-65252516D01*
X59772210Y-65308108D01*
X59666737Y-65347875D01*
X59643290Y-65157274D01*
X59717706Y-65123862D01*
X59773075Y-65085828D01*
X59812916Y-65043518D01*
X59842006Y-64993370D01*
X59859834Y-64936213D01*
X59866039Y-64870320D01*
X59855223Y-64783508D01*
X59823796Y-64708649D01*
X59770968Y-64642807D01*
X59721143Y-64604150D01*
X59660316Y-64573967D01*
X59586393Y-64552662D01*
X59496744Y-64541416D01*
X59496744Y-65352913D01*
X59447560Y-65354012D01*
X59312827Y-65344216D01*
X59200801Y-65316807D01*
X59107504Y-65273760D01*
X59029813Y-65215618D01*
X58965008Y-65141740D01*
X58919098Y-65059009D01*
X58891002Y-64965635D01*
X58881445Y-64861161D01*
X59033660Y-64861161D01*
X59040493Y-64929058D01*
X59060278Y-64988697D01*
X59092923Y-65041830D01*
X59139631Y-65089589D01*
X59188393Y-65120805D01*
X59254988Y-65144618D01*
X59344337Y-65159289D01*
X59344337Y-64551674D01*
X59253645Y-64567193D01*
X59179364Y-64599271D01*
X59118198Y-64647479D01*
X59071342Y-64709496D01*
X59043318Y-64779854D01*
X59033660Y-64861161D01*
X58881445Y-64861161D01*
X58881252Y-64859054D01*
X58891247Y-64748866D01*
X58919998Y-64652657D01*
X58966884Y-64567741D01*
X59032927Y-64492232D01*
X59112259Y-64432802D01*
X59207470Y-64388816D01*
X59321735Y-64360819D01*
X59459100Y-64350815D01*
X59591607Y-64360666D01*
G37*
G36*
X64796000Y-36852515D02*
G01*
X63923759Y-36521322D01*
X63923759Y-36677100D01*
X64446122Y-36863946D01*
X64621903Y-36919706D01*
X64456013Y-36974661D01*
X63923759Y-37168101D01*
X63923759Y-37319776D01*
X64796000Y-36990195D01*
X64796000Y-36852515D01*
G37*
G36*
X64796000Y-37964870D02*
G01*
X64796000Y-37817299D01*
X63853271Y-37817299D01*
X63902128Y-37758577D01*
X63955193Y-37677568D01*
X64001323Y-37592314D01*
X64031617Y-37522229D01*
X63888588Y-37522229D01*
X63846236Y-37602508D01*
X63799109Y-37674413D01*
X63747245Y-37738604D01*
X63688981Y-37797493D01*
X63635501Y-37840334D01*
X63586118Y-37869762D01*
X63586118Y-37964870D01*
X64796000Y-37964870D01*
G37*
G36*
X64796000Y-38425097D02*
G01*
X64631868Y-38425097D01*
X64631868Y-38593112D01*
X64796000Y-38593112D01*
X64796000Y-38425097D01*
G37*
G36*
X64344583Y-38814983D02*
G01*
X64461420Y-38831668D01*
X64555548Y-38856937D01*
X64630674Y-38889274D01*
X64689974Y-38927749D01*
X64744375Y-38981775D01*
X64782843Y-39044048D01*
X64806484Y-39116205D01*
X64814757Y-39200764D01*
X64806347Y-39286208D01*
X64782451Y-39358092D01*
X64743756Y-39419190D01*
X64691748Y-39470541D01*
X64625573Y-39513914D01*
X64542695Y-39549103D01*
X64454755Y-39571755D01*
X64342444Y-39586946D01*
X64200877Y-39592554D01*
X64031145Y-39584886D01*
X63916505Y-39565516D01*
X63816509Y-39532297D01*
X63737573Y-39490924D01*
X63691936Y-39455964D01*
X63654688Y-39415920D01*
X63625099Y-39370390D01*
X63603859Y-39320424D01*
X63590698Y-39264273D01*
X63586118Y-39200764D01*
X63586277Y-39199152D01*
X63708044Y-39199152D01*
X63713968Y-39247942D01*
X63731498Y-39292170D01*
X63761373Y-39333162D01*
X63805717Y-39371636D01*
X63854526Y-39397295D01*
X63930105Y-39419180D01*
X64041769Y-39434854D01*
X64200438Y-39440952D01*
X64358106Y-39434877D01*
X64469461Y-39419235D01*
X64545170Y-39397352D01*
X64594353Y-39371636D01*
X64639224Y-39333099D01*
X64669324Y-39292340D01*
X64686908Y-39248664D01*
X64692831Y-39200764D01*
X64686929Y-39152837D01*
X64669411Y-39109138D01*
X64639440Y-39068364D01*
X64594792Y-39029818D01*
X64545784Y-39004158D01*
X64470128Y-38982297D01*
X64358608Y-38966655D01*
X64200438Y-38960575D01*
X64043717Y-38967036D01*
X63929693Y-38983892D01*
X63849163Y-39007915D01*
X63794213Y-39036779D01*
X63755810Y-39070455D01*
X63729381Y-39108095D01*
X63713513Y-39150514D01*
X63708044Y-39199152D01*
X63586277Y-39199152D01*
X63594471Y-39115835D01*
X63618234Y-39044174D01*
X63656753Y-38983070D01*
X63708487Y-38931703D01*
X63774504Y-38888182D01*
X63857374Y-38852718D01*
X63945299Y-38829903D01*
X64058110Y-38814570D01*
X64200877Y-38808900D01*
X64344583Y-38814983D01*
G37*
G36*
X64796000Y-39824902D02*
G01*
X64631868Y-39824902D01*
X64631868Y-39992916D01*
X64796000Y-39992916D01*
X64796000Y-39824902D01*
G37*
G36*
X64796000Y-40764480D02*
G01*
X64796000Y-40616908D01*
X63853271Y-40616908D01*
X63902128Y-40558186D01*
X63955193Y-40477177D01*
X64001323Y-40391923D01*
X64031617Y-40321838D01*
X63888588Y-40321838D01*
X63846236Y-40402117D01*
X63799109Y-40474022D01*
X63747245Y-40538213D01*
X63688981Y-40597102D01*
X63635501Y-40639943D01*
X63586118Y-40669371D01*
X63586118Y-40764480D01*
X64796000Y-40764480D01*
G37*
G36*
X65147709Y-41692920D02*
G01*
X63572050Y-41692920D01*
X63572050Y-41821660D01*
X65147709Y-41821660D01*
X65147709Y-41692920D01*
G37*
G36*
X64796000Y-43004724D02*
G01*
X64790554Y-43110415D01*
X64775483Y-43197725D01*
X64749347Y-43277332D01*
X64715033Y-43341193D01*
X64668992Y-43397083D01*
X64605710Y-43450662D01*
X64530026Y-43494756D01*
X64430221Y-43532581D01*
X64358802Y-43549856D01*
X64278059Y-43560771D01*
X64186809Y-43564602D01*
X64080160Y-43559015D01*
X63985145Y-43543001D01*
X63900312Y-43517414D01*
X63820667Y-43480079D01*
X63752474Y-43432792D01*
X63694415Y-43375265D01*
X63657512Y-43324019D01*
X63628724Y-43265612D01*
X63608100Y-43198970D01*
X63595839Y-43116964D01*
X63590808Y-42985087D01*
X63590808Y-42982595D01*
X63731491Y-42982595D01*
X63734990Y-43078186D01*
X63743919Y-43144419D01*
X63756258Y-43188346D01*
X63785525Y-43242556D01*
X63830090Y-43292497D01*
X63892765Y-43338702D01*
X63943845Y-43363744D01*
X64007690Y-43383174D01*
X64086870Y-43395960D01*
X64184318Y-43400617D01*
X64275503Y-43396719D01*
X64352556Y-43385844D01*
X64417399Y-43369036D01*
X64479361Y-43344149D01*
X64529808Y-43314697D01*
X64570392Y-43280963D01*
X64605350Y-43235462D01*
X64633041Y-43173178D01*
X64648967Y-43099000D01*
X64655316Y-42986699D01*
X64655316Y-42730097D01*
X63731491Y-42730097D01*
X63731491Y-42982595D01*
X63590808Y-42982595D01*
X63590808Y-42571095D01*
X64796000Y-42571095D01*
X64796000Y-43004724D01*
G37*
G36*
X64473285Y-43723132D02*
G01*
X64561642Y-43745220D01*
X64635458Y-43780002D01*
X64697154Y-43827138D01*
X64747668Y-43886635D01*
X64784094Y-43955600D01*
X64806776Y-44035889D01*
X64814757Y-44130048D01*
X64809694Y-44205795D01*
X64795281Y-44271608D01*
X64772294Y-44329011D01*
X64740972Y-44379249D01*
X64686129Y-44436612D01*
X64617768Y-44481085D01*
X64533390Y-44512899D01*
X64514632Y-44360418D01*
X64574164Y-44333688D01*
X64618460Y-44303261D01*
X64650333Y-44269413D01*
X64673605Y-44229294D01*
X64687867Y-44183569D01*
X64692831Y-44130854D01*
X64684178Y-44061405D01*
X64659037Y-44001518D01*
X64616774Y-43948845D01*
X64576914Y-43917918D01*
X64528253Y-43893772D01*
X64469114Y-43876728D01*
X64397395Y-43867732D01*
X64397395Y-44516929D01*
X64358048Y-44517808D01*
X64250262Y-44509971D01*
X64160641Y-44488045D01*
X64086003Y-44453606D01*
X64023850Y-44407093D01*
X63972007Y-44347991D01*
X63935278Y-44281806D01*
X63912801Y-44207106D01*
X63905156Y-44123527D01*
X64026928Y-44123527D01*
X64032394Y-44177845D01*
X64048222Y-44225556D01*
X64074338Y-44268062D01*
X64111704Y-44306270D01*
X64150714Y-44331243D01*
X64203990Y-44350293D01*
X64275469Y-44362030D01*
X64275469Y-43875938D01*
X64202916Y-43888353D01*
X64143491Y-43914016D01*
X64094558Y-43952581D01*
X64057073Y-44002195D01*
X64034655Y-44058482D01*
X64026928Y-44123527D01*
X63905156Y-44123527D01*
X63905002Y-44121842D01*
X63912997Y-44033691D01*
X63935999Y-43956724D01*
X63973507Y-43888791D01*
X64026341Y-43828384D01*
X64089807Y-43780841D01*
X64165976Y-43745652D01*
X64257388Y-43723254D01*
X64367280Y-43715251D01*
X64473285Y-43723132D01*
G37*
G36*
X64477116Y-45265704D02*
G01*
X64495874Y-45410785D01*
X64569134Y-45393471D01*
X64631598Y-45367257D01*
X64684871Y-45332536D01*
X64730127Y-45289078D01*
X64766818Y-45237877D01*
X64793073Y-45181427D01*
X64809185Y-45118721D01*
X64814757Y-45048450D01*
X64806973Y-44960878D01*
X64784690Y-44885189D01*
X64748564Y-44819142D01*
X64697960Y-44761147D01*
X64636915Y-44715775D01*
X64562691Y-44681978D01*
X64472584Y-44660331D01*
X64363177Y-44652557D01*
X64270095Y-44658113D01*
X64188392Y-44673965D01*
X64116467Y-44699232D01*
X64051063Y-44736381D01*
X63998730Y-44783526D01*
X63957905Y-44841454D01*
X63928568Y-44906863D01*
X63910961Y-44975818D01*
X63905002Y-45049330D01*
X63909938Y-45119987D01*
X63923990Y-45181248D01*
X63946431Y-45234599D01*
X63977102Y-45281238D01*
X64015942Y-45321474D01*
X64062218Y-45354080D01*
X64116976Y-45379310D01*
X64181680Y-45396863D01*
X64200438Y-45253394D01*
X64145257Y-45235176D01*
X64102725Y-45210867D01*
X64070525Y-45180854D01*
X64046491Y-45144134D01*
X64031954Y-45102642D01*
X64026928Y-45055045D01*
X64032131Y-45000851D01*
X64047142Y-44953437D01*
X64071763Y-44911432D01*
X64106722Y-44873914D01*
X64147870Y-44845780D01*
X64201529Y-44824002D01*
X64270715Y-44809559D01*
X64359073Y-44804232D01*
X64449020Y-44809427D01*
X64518950Y-44823453D01*
X64572702Y-44844475D01*
X64613477Y-44871423D01*
X64648324Y-44907780D01*
X64672789Y-44948461D01*
X64687676Y-44994362D01*
X64692831Y-45046838D01*
X64686691Y-45102719D01*
X64669037Y-45150481D01*
X64639928Y-45191919D01*
X64600963Y-45224334D01*
X64547952Y-45249264D01*
X64477116Y-45265704D01*
G37*
G36*
X64473285Y-45495749D02*
G01*
X64561642Y-45517837D01*
X64635458Y-45552619D01*
X64697154Y-45599755D01*
X64747668Y-45659252D01*
X64784094Y-45728217D01*
X64806776Y-45808506D01*
X64814757Y-45902665D01*
X64809694Y-45978412D01*
X64795281Y-46044225D01*
X64772294Y-46101628D01*
X64740972Y-46151866D01*
X64686129Y-46209229D01*
X64617768Y-46253702D01*
X64533390Y-46285516D01*
X64514632Y-46133035D01*
X64574164Y-46106305D01*
X64618460Y-46075878D01*
X64650333Y-46042030D01*
X64673605Y-46001911D01*
X64687867Y-45956186D01*
X64692831Y-45903471D01*
X64684178Y-45834022D01*
X64659037Y-45774134D01*
X64616774Y-45721461D01*
X64576914Y-45690535D01*
X64528253Y-45666389D01*
X64469114Y-45649345D01*
X64397395Y-45640348D01*
X64397395Y-46289546D01*
X64358048Y-46290425D01*
X64250262Y-46282588D01*
X64160641Y-46260661D01*
X64086003Y-46226223D01*
X64023850Y-46179710D01*
X63972007Y-46120608D01*
X63935278Y-46054423D01*
X63912801Y-45979723D01*
X63905156Y-45896144D01*
X64026928Y-45896144D01*
X64032394Y-45950462D01*
X64048222Y-45998173D01*
X64074338Y-46040679D01*
X64111704Y-46078886D01*
X64150714Y-46103860D01*
X64203990Y-46122910D01*
X64275469Y-46134647D01*
X64275469Y-45648555D01*
X64202916Y-45660970D01*
X64143491Y-45686633D01*
X64094558Y-45725198D01*
X64057073Y-45774812D01*
X64034655Y-45831099D01*
X64026928Y-45896144D01*
X63905156Y-45896144D01*
X63905002Y-45894459D01*
X63912997Y-45806308D01*
X63935999Y-45729341D01*
X63973507Y-45661408D01*
X64026341Y-45601001D01*
X64089807Y-45553457D01*
X64165976Y-45518269D01*
X64257388Y-45495871D01*
X64367280Y-45487868D01*
X64473285Y-45495749D01*
G37*
G36*
X64796000Y-46470237D02*
G01*
X63923759Y-46470237D01*
X63923759Y-46602274D01*
X64045612Y-46602274D01*
X63988645Y-46649756D01*
X63943616Y-46711231D01*
X63922420Y-46757968D01*
X63909463Y-46809302D01*
X63905002Y-46866203D01*
X63909884Y-46929631D01*
X63923498Y-46981790D01*
X63944862Y-47024766D01*
X63974918Y-47061946D01*
X64011737Y-47090872D01*
X64056310Y-47112107D01*
X63999863Y-47157828D01*
X63957939Y-47206910D01*
X63928661Y-47259794D01*
X63911030Y-47317393D01*
X63905002Y-47381018D01*
X63910052Y-47445484D01*
X63924190Y-47498900D01*
X63946480Y-47543287D01*
X63976809Y-47580174D01*
X64014378Y-47608820D01*
X64062103Y-47630528D01*
X64122300Y-47644689D01*
X64197873Y-47649856D01*
X64796000Y-47649856D01*
X64796000Y-47503164D01*
X64246160Y-47503164D01*
X64163633Y-47498831D01*
X64118372Y-47488803D01*
X64083405Y-47468827D01*
X64055504Y-47436706D01*
X64037787Y-47396472D01*
X64031617Y-47348192D01*
X64038652Y-47289543D01*
X64058978Y-47239382D01*
X64092873Y-47195711D01*
X64137681Y-47164027D01*
X64200944Y-47142986D01*
X64288878Y-47135041D01*
X64796000Y-47135041D01*
X64796000Y-46987543D01*
X64228868Y-46987543D01*
X64163790Y-46982787D01*
X64115790Y-46970169D01*
X64080930Y-46951420D01*
X64054512Y-46923791D01*
X64037789Y-46885671D01*
X64031617Y-46833450D01*
X64039844Y-46773452D01*
X64064517Y-46718192D01*
X64089498Y-46686488D01*
X64121195Y-46661052D01*
X64160651Y-46641549D01*
X64231157Y-46624667D01*
X64343100Y-46617808D01*
X64796000Y-46617808D01*
X64796000Y-46470237D01*
G37*
G36*
X64796000Y-48004937D02*
G01*
X64685431Y-48004937D01*
X64742884Y-48053888D01*
X64782543Y-48109479D01*
X64806469Y-48173011D01*
X64814757Y-48246810D01*
X64807143Y-48321424D01*
X64784728Y-48389576D01*
X64747140Y-48452864D01*
X64692685Y-48512351D01*
X64628994Y-48558661D01*
X64552012Y-48593128D01*
X64459058Y-48615167D01*
X64346764Y-48623066D01*
X64254514Y-48616378D01*
X64169736Y-48596835D01*
X64091670Y-48564898D01*
X64028393Y-48524295D01*
X63976624Y-48472007D01*
X63937388Y-48406252D01*
X63913138Y-48332561D01*
X63905002Y-48254211D01*
X63906411Y-48241022D01*
X64026928Y-48241022D01*
X64035762Y-48301273D01*
X64062085Y-48355101D01*
X64107967Y-48404567D01*
X64149583Y-48431921D01*
X64203322Y-48453068D01*
X64272018Y-48467055D01*
X64359073Y-48472198D01*
X64443472Y-48466962D01*
X64511385Y-48452584D01*
X64565754Y-48430571D01*
X64609007Y-48401709D01*
X64646821Y-48363417D01*
X64672557Y-48323290D01*
X64687720Y-48280668D01*
X64692831Y-48234501D01*
X64685814Y-48178487D01*
X64665291Y-48129433D01*
X64630575Y-48085545D01*
X64579112Y-48045969D01*
X64530389Y-48024472D01*
X64457804Y-48009254D01*
X64353358Y-48003325D01*
X64273056Y-48008471D01*
X64207496Y-48022709D01*
X64154119Y-48044704D01*
X64110825Y-48073813D01*
X64072975Y-48112110D01*
X64047217Y-48152238D01*
X64032043Y-48194858D01*
X64026928Y-48241022D01*
X63906411Y-48241022D01*
X63912454Y-48184471D01*
X63934183Y-48122548D01*
X63970401Y-48066638D01*
X64022824Y-48015635D01*
X63590808Y-48015635D01*
X63590808Y-47868063D01*
X64796000Y-47868063D01*
X64796000Y-48004937D01*
G37*
G36*
X64473285Y-48760787D02*
G01*
X64561642Y-48782875D01*
X64635458Y-48817657D01*
X64697154Y-48864794D01*
X64747668Y-48924290D01*
X64784094Y-48993255D01*
X64806776Y-49073544D01*
X64814757Y-49167704D01*
X64809694Y-49243451D01*
X64795281Y-49309263D01*
X64772294Y-49366666D01*
X64740972Y-49416905D01*
X64686129Y-49474267D01*
X64617768Y-49518741D01*
X64533390Y-49550554D01*
X64514632Y-49398073D01*
X64574164Y-49371343D01*
X64618460Y-49340916D01*
X64650333Y-49307069D01*
X64673605Y-49266950D01*
X64687867Y-49221224D01*
X64692831Y-49168510D01*
X64684178Y-49099060D01*
X64659037Y-49039173D01*
X64616774Y-48986500D01*
X64576914Y-48955574D01*
X64528253Y-48931427D01*
X64469114Y-48914383D01*
X64397395Y-48905387D01*
X64397395Y-49554584D01*
X64358048Y-49555464D01*
X64250262Y-49547627D01*
X64160641Y-49525700D01*
X64086003Y-49491262D01*
X64023850Y-49444748D01*
X63972007Y-49385646D01*
X63935278Y-49319461D01*
X63912801Y-49244762D01*
X63905156Y-49161182D01*
X64026928Y-49161182D01*
X64032394Y-49215500D01*
X64048222Y-49263211D01*
X64074338Y-49305718D01*
X64111704Y-49343925D01*
X64150714Y-49368898D01*
X64203990Y-49387948D01*
X64275469Y-49399685D01*
X64275469Y-48913593D01*
X64202916Y-48926009D01*
X64143491Y-48951671D01*
X64094558Y-48990237D01*
X64057073Y-49039850D01*
X64034655Y-49096137D01*
X64026928Y-49161182D01*
X63905156Y-49161182D01*
X63905002Y-49159497D01*
X63912997Y-49071347D01*
X63935999Y-48994380D01*
X63973507Y-48926447D01*
X64026341Y-48866039D01*
X64089807Y-48818496D01*
X64165976Y-48783307D01*
X64257388Y-48760909D01*
X64367280Y-48752906D01*
X64473285Y-48760787D01*
G37*
G36*
X64796000Y-49733663D02*
G01*
X63923759Y-49733663D01*
X63923759Y-49866434D01*
X64058948Y-49866434D01*
X63975237Y-49919740D01*
X63934970Y-49960296D01*
X63912466Y-50005556D01*
X63905002Y-50054965D01*
X63909955Y-50103483D01*
X63925304Y-50153735D01*
X63952336Y-50206639D01*
X64088550Y-50155861D01*
X64066730Y-50100886D01*
X64059754Y-50047637D01*
X64067029Y-50001724D01*
X64088843Y-49960736D01*
X64122908Y-49928121D01*
X64169370Y-49905781D01*
X64250268Y-49887563D01*
X64341195Y-49881235D01*
X64796000Y-49881235D01*
X64796000Y-49733663D01*
G37*
G36*
X64655316Y-51495582D02*
G01*
X64796000Y-51495582D01*
X64796000Y-50701304D01*
X64743747Y-50704777D01*
X64693637Y-50718524D01*
X64614976Y-50756899D01*
X64534049Y-50815610D01*
X64454428Y-50891623D01*
X64351233Y-51008684D01*
X64238699Y-51138375D01*
X64155363Y-51222845D01*
X64095071Y-51273419D01*
X64029709Y-51313524D01*
X63970925Y-51335436D01*
X63916945Y-51342295D01*
X63860930Y-51335217D01*
X63812054Y-51314538D01*
X63768494Y-51279574D01*
X63735437Y-51234512D01*
X63715177Y-51180831D01*
X63708044Y-51116102D01*
X63715720Y-51047720D01*
X63737421Y-50991788D01*
X63772744Y-50945523D01*
X63819557Y-50910923D01*
X63878161Y-50889048D01*
X63951896Y-50880823D01*
X63933138Y-50729148D01*
X63849443Y-50743350D01*
X63780007Y-50768048D01*
X63722430Y-50802382D01*
X63674925Y-50846385D01*
X63637338Y-50899311D01*
X63609712Y-50961237D01*
X63592288Y-51033859D01*
X63586118Y-51119326D01*
X63592766Y-51205262D01*
X63611558Y-51278108D01*
X63641457Y-51340153D01*
X63682399Y-51393147D01*
X63733720Y-51437490D01*
X63789816Y-51468625D01*
X63851733Y-51487486D01*
X63920975Y-51493970D01*
X63992349Y-51486674D01*
X64063344Y-51464441D01*
X64132138Y-51427151D01*
X64210623Y-51366475D01*
X64293320Y-51285028D01*
X64423041Y-51138963D01*
X64527147Y-51018689D01*
X64575009Y-50968457D01*
X64615822Y-50933479D01*
X64655316Y-50906249D01*
X64655316Y-51495582D01*
G37*
G36*
X64344583Y-51659422D02*
G01*
X64461420Y-51676106D01*
X64555548Y-51701375D01*
X64630674Y-51733712D01*
X64689974Y-51772187D01*
X64744375Y-51826214D01*
X64782843Y-51888486D01*
X64806484Y-51960644D01*
X64814757Y-52045202D01*
X64806347Y-52130646D01*
X64782451Y-52202530D01*
X64743756Y-52263628D01*
X64691748Y-52314979D01*
X64625573Y-52358352D01*
X64542695Y-52393541D01*
X64454755Y-52416193D01*
X64342444Y-52431384D01*
X64200877Y-52436992D01*
X64031145Y-52429324D01*
X63916505Y-52409954D01*
X63816509Y-52376736D01*
X63737573Y-52335362D01*
X63691936Y-52300403D01*
X63654688Y-52260359D01*
X63625099Y-52214829D01*
X63603859Y-52164862D01*
X63590698Y-52108711D01*
X63586118Y-52045202D01*
X63586277Y-52043590D01*
X63708044Y-52043590D01*
X63713968Y-52092381D01*
X63731498Y-52136608D01*
X63761373Y-52177600D01*
X63805717Y-52216074D01*
X63854526Y-52241734D01*
X63930105Y-52263619D01*
X64041769Y-52279293D01*
X64200438Y-52285390D01*
X64358106Y-52279315D01*
X64469461Y-52263674D01*
X64545170Y-52241790D01*
X64594353Y-52216074D01*
X64639224Y-52177537D01*
X64669324Y-52136778D01*
X64686908Y-52093102D01*
X64692831Y-52045202D01*
X64686929Y-51997276D01*
X64669411Y-51953576D01*
X64639440Y-51912802D01*
X64594792Y-51874256D01*
X64545784Y-51848596D01*
X64470128Y-51826735D01*
X64358608Y-51811094D01*
X64200438Y-51805013D01*
X64043717Y-51811474D01*
X63929693Y-51828330D01*
X63849163Y-51852353D01*
X63794213Y-51881217D01*
X63755810Y-51914893D01*
X63729381Y-51952533D01*
X63713513Y-51994952D01*
X63708044Y-52043590D01*
X63586277Y-52043590D01*
X63594471Y-51960273D01*
X63618234Y-51888612D01*
X63656753Y-51827508D01*
X63708487Y-51776141D01*
X63774504Y-51732620D01*
X63857374Y-51697156D01*
X63945299Y-51674341D01*
X64058110Y-51659008D01*
X64200877Y-51653339D01*
X64344583Y-51659422D01*
G37*
G36*
X64655316Y-53361988D02*
G01*
X64796000Y-53361988D01*
X64796000Y-52567711D01*
X64743747Y-52571184D01*
X64693637Y-52584930D01*
X64614976Y-52623305D01*
X64534049Y-52682016D01*
X64454428Y-52758029D01*
X64351233Y-52875090D01*
X64238699Y-53004781D01*
X64155363Y-53089251D01*
X64095071Y-53139825D01*
X64029709Y-53179930D01*
X63970925Y-53201842D01*
X63916945Y-53208702D01*
X63860930Y-53201624D01*
X63812054Y-53180945D01*
X63768494Y-53145980D01*
X63735437Y-53100918D01*
X63715177Y-53047238D01*
X63708044Y-52982508D01*
X63715720Y-52914127D01*
X63737421Y-52858194D01*
X63772744Y-52811929D01*
X63819557Y-52777329D01*
X63878161Y-52755454D01*
X63951896Y-52747229D01*
X63933138Y-52595554D01*
X63849443Y-52609756D01*
X63780007Y-52634454D01*
X63722430Y-52668788D01*
X63674925Y-52712791D01*
X63637338Y-52765717D01*
X63609712Y-52827643D01*
X63592288Y-52900265D01*
X63586118Y-52985732D01*
X63592766Y-53071668D01*
X63611558Y-53144515D01*
X63641457Y-53206559D01*
X63682399Y-53259553D01*
X63733720Y-53303896D01*
X63789816Y-53335031D01*
X63851733Y-53353892D01*
X63920975Y-53360376D01*
X63992349Y-53353080D01*
X64063344Y-53330847D01*
X64132138Y-53293558D01*
X64210623Y-53232882D01*
X64293320Y-53151434D01*
X64423041Y-53005369D01*
X64527147Y-52885096D01*
X64575009Y-52834863D01*
X64615822Y-52799885D01*
X64655316Y-52772655D01*
X64655316Y-53361988D01*
G37*
G36*
X64477116Y-53519745D02*
G01*
X64467737Y-53674644D01*
X64539745Y-53692395D01*
X64594812Y-53719313D01*
X64636338Y-53754584D01*
X64667646Y-53799118D01*
X64686390Y-53848983D01*
X64692831Y-53905819D01*
X64687734Y-53957334D01*
X64672814Y-54003872D01*
X64647969Y-54046557D01*
X64612231Y-54086144D01*
X64570021Y-54117606D01*
X64521209Y-54140526D01*
X64464548Y-54154875D01*
X64398421Y-54159930D01*
X64335542Y-54155028D01*
X64282348Y-54141182D01*
X64237137Y-54119161D01*
X64198606Y-54089002D01*
X64158413Y-54037714D01*
X64133978Y-53976792D01*
X64125406Y-53903401D01*
X64133712Y-53834962D01*
X64158013Y-53774661D01*
X64195843Y-53723051D01*
X64242643Y-53684535D01*
X64223885Y-53545976D01*
X63604876Y-53662407D01*
X63604876Y-54259947D01*
X63745560Y-54259947D01*
X63745560Y-53780450D01*
X64070085Y-53715676D01*
X64027157Y-53790592D01*
X64002303Y-53865803D01*
X63994101Y-53942749D01*
X64001138Y-54019393D01*
X64021628Y-54088215D01*
X64055453Y-54150806D01*
X64103571Y-54208290D01*
X64161476Y-54255156D01*
X64226664Y-54288674D01*
X64300554Y-54309324D01*
X64385085Y-54316514D01*
X64465782Y-54310324D01*
X64539061Y-54292306D01*
X64606202Y-54262786D01*
X64668212Y-54221406D01*
X64721067Y-54171694D01*
X64761519Y-54116263D01*
X64790591Y-54054351D01*
X64808524Y-53984735D01*
X64814757Y-53905819D01*
X64808506Y-53824652D01*
X64790648Y-53754114D01*
X64761933Y-53692411D01*
X64722287Y-53638154D01*
X64672838Y-53592290D01*
X64616317Y-53557468D01*
X64551606Y-53533185D01*
X64477116Y-53519745D01*
G37*
G36*
X65147709Y-55003960D02*
G01*
X63572050Y-55003960D01*
X63572050Y-55132700D01*
X65147709Y-55132700D01*
X65147709Y-55003960D01*
G37*
G36*
X64796000Y-56333789D02*
G01*
X64790498Y-56443982D01*
X64775849Y-56527669D01*
X64749977Y-56601954D01*
X64716132Y-56659267D01*
X64669723Y-56706340D01*
X64603658Y-56747341D01*
X64528203Y-56774009D01*
X64445975Y-56783025D01*
X64377665Y-56776280D01*
X64317257Y-56756714D01*
X64263086Y-56724406D01*
X64217439Y-56680866D01*
X64180935Y-56625699D01*
X64153543Y-56556758D01*
X64121702Y-56609720D01*
X64085119Y-56651272D01*
X64043634Y-56682934D01*
X63996841Y-56706335D01*
X63948686Y-56720152D01*
X63898407Y-56724773D01*
X63844501Y-56719632D01*
X63791877Y-56704123D01*
X63739698Y-56677585D01*
X63693452Y-56642144D01*
X63656207Y-56599002D01*
X63627297Y-56547233D01*
X63608206Y-56490532D01*
X63595493Y-56418060D01*
X63590808Y-56326388D01*
X63590808Y-56274804D01*
X63731491Y-56274804D01*
X63736675Y-56394829D01*
X63748418Y-56457620D01*
X63772711Y-56504906D01*
X63811212Y-56539539D01*
X63859912Y-56560884D01*
X63917311Y-56568262D01*
X63976811Y-56560178D01*
X64022971Y-56537487D01*
X64058360Y-56500424D01*
X64083274Y-56446116D01*
X64093029Y-56392760D01*
X64096492Y-56312466D01*
X64237953Y-56312466D01*
X64243829Y-56420397D01*
X64258250Y-56488248D01*
X64275366Y-56526491D01*
X64298720Y-56558039D01*
X64328665Y-56583796D01*
X64363445Y-56602693D01*
X64402432Y-56614237D01*
X64446635Y-56618234D01*
X64502085Y-56612069D01*
X64548923Y-56594420D01*
X64588514Y-56566849D01*
X64616408Y-56533750D01*
X64635734Y-56493843D01*
X64649527Y-56442013D01*
X64655316Y-56333789D01*
X64655316Y-56034616D01*
X64237953Y-56034616D01*
X64237953Y-56312466D01*
X64096492Y-56312466D01*
X64097270Y-56294441D01*
X64097270Y-56034616D01*
X63731491Y-56034616D01*
X63731491Y-56274804D01*
X63590808Y-56274804D01*
X63590808Y-55875540D01*
X64796000Y-55875540D01*
X64796000Y-56333789D01*
G37*
G36*
X64473285Y-56941555D02*
G01*
X64561642Y-56963643D01*
X64635458Y-56998425D01*
X64697154Y-57045561D01*
X64747668Y-57105058D01*
X64784094Y-57174023D01*
X64806776Y-57254312D01*
X64814757Y-57348471D01*
X64809694Y-57424218D01*
X64795281Y-57490031D01*
X64772294Y-57547434D01*
X64740972Y-57597672D01*
X64686129Y-57655035D01*
X64617768Y-57699508D01*
X64533390Y-57731322D01*
X64514632Y-57578841D01*
X64574164Y-57552111D01*
X64618460Y-57521684D01*
X64650333Y-57487836D01*
X64673605Y-57447717D01*
X64687867Y-57401992D01*
X64692831Y-57349277D01*
X64684178Y-57279828D01*
X64659037Y-57219940D01*
X64616774Y-57167267D01*
X64576914Y-57136341D01*
X64528253Y-57112195D01*
X64469114Y-57095151D01*
X64397395Y-57086154D01*
X64397395Y-57735352D01*
X64358048Y-57736231D01*
X64250262Y-57728394D01*
X64160641Y-57706467D01*
X64086003Y-57672029D01*
X64023850Y-57625516D01*
X63972007Y-57566414D01*
X63935278Y-57500229D01*
X63912801Y-57425529D01*
X63905156Y-57341950D01*
X64026928Y-57341950D01*
X64032394Y-57396268D01*
X64048222Y-57443979D01*
X64074338Y-57486485D01*
X64111704Y-57524692D01*
X64150714Y-57549666D01*
X64203990Y-57568716D01*
X64275469Y-57580453D01*
X64275469Y-57094361D01*
X64202916Y-57106776D01*
X64143491Y-57132439D01*
X64094558Y-57171004D01*
X64057073Y-57220618D01*
X64034655Y-57276905D01*
X64026928Y-57341950D01*
X63905156Y-57341950D01*
X63905002Y-57340265D01*
X63912997Y-57252114D01*
X63935999Y-57175147D01*
X63973507Y-57107214D01*
X64026341Y-57046807D01*
X64089807Y-56999263D01*
X64165976Y-56964075D01*
X64257388Y-56941677D01*
X64367280Y-56933674D01*
X64473285Y-56941555D01*
G37*
G36*
X64796000Y-57916043D02*
G01*
X63923759Y-57916043D01*
X63923759Y-58048886D01*
X64047517Y-58048886D01*
X63995824Y-58091045D01*
X63956553Y-58138880D01*
X63928426Y-58193069D01*
X63911062Y-58254854D01*
X63905002Y-58325931D01*
X63912251Y-58402253D01*
X63933358Y-58470572D01*
X63967202Y-58529786D01*
X64007584Y-58569344D01*
X64056932Y-58596862D01*
X64116687Y-58615286D01*
X64165393Y-58620965D01*
X64260228Y-58623492D01*
X64796000Y-58623492D01*
X64796000Y-58475921D01*
X64265064Y-58475921D01*
X64180491Y-58470867D01*
X64129876Y-58458702D01*
X64089878Y-58435072D01*
X64058362Y-58397592D01*
X64038538Y-58350875D01*
X64031617Y-58294790D01*
X64038429Y-58234181D01*
X64058321Y-58180487D01*
X64091628Y-58132051D01*
X64123583Y-58105034D01*
X64169243Y-58083696D01*
X64232743Y-58069134D01*
X64319286Y-58063614D01*
X64796000Y-58063614D01*
X64796000Y-57916043D01*
G37*
G36*
X64796000Y-59493754D02*
G01*
X64303606Y-59493754D01*
X64303606Y-59801939D01*
X64298119Y-59909744D01*
X64283195Y-59995275D01*
X64260733Y-60062430D01*
X64231993Y-60114565D01*
X64197507Y-60154382D01*
X64141689Y-60196972D01*
X64080639Y-60227200D01*
X64013288Y-60245632D01*
X63938194Y-60251981D01*
X63879510Y-60247813D01*
X63825141Y-60235598D01*
X63774356Y-60215491D01*
X63727296Y-60187847D01*
X63689004Y-60155771D01*
X63658438Y-60119138D01*
X63624457Y-60054131D01*
X63602311Y-59970833D01*
X63594151Y-59900654D01*
X63591197Y-59801133D01*
X63731491Y-59801133D01*
X63734838Y-59900899D01*
X63742189Y-59949511D01*
X63757806Y-59988419D01*
X63781314Y-60021634D01*
X63813411Y-60049968D01*
X63850992Y-60070803D01*
X63893809Y-60083609D01*
X63943103Y-60088070D01*
X64009932Y-60080293D01*
X64062940Y-60058530D01*
X64105330Y-60023297D01*
X64128185Y-59989903D01*
X64146207Y-59944536D01*
X64158372Y-59883995D01*
X64162922Y-59804431D01*
X64162922Y-59493754D01*
X63731491Y-59493754D01*
X63731491Y-59801133D01*
X63591197Y-59801133D01*
X63590808Y-59788018D01*
X63590808Y-59334752D01*
X64796000Y-59334752D01*
X64796000Y-59493754D01*
G37*
G36*
X64618623Y-60390490D02*
G01*
X64665394Y-60404967D01*
X64707134Y-60428743D01*
X64744709Y-60462494D01*
X64773930Y-60502679D01*
X64795743Y-60551569D01*
X64809731Y-60610947D01*
X64814757Y-60683046D01*
X64807491Y-60767872D01*
X64786181Y-60845785D01*
X64749165Y-60920254D01*
X64688142Y-61003541D01*
X64747267Y-61014573D01*
X64796000Y-61033070D01*
X64796000Y-61187163D01*
X64743875Y-61163849D01*
X64689827Y-61149867D01*
X64616140Y-61143611D01*
X64429122Y-61140488D01*
X64232824Y-61140488D01*
X64142256Y-61138189D01*
X64097123Y-61133087D01*
X64040659Y-61114507D01*
X63996959Y-61087145D01*
X63962287Y-61047615D01*
X63931160Y-60984710D01*
X63912259Y-60909397D01*
X63905002Y-60803579D01*
X63913102Y-60695315D01*
X63935703Y-60605963D01*
X63960097Y-60551679D01*
X63989282Y-60508840D01*
X64023117Y-60475683D01*
X64062966Y-60449516D01*
X64112131Y-60427761D01*
X64172301Y-60410910D01*
X64191059Y-60555184D01*
X64132105Y-60575661D01*
X64090800Y-60600317D01*
X64063124Y-60628531D01*
X64044491Y-60663652D01*
X64031774Y-60713360D01*
X64026928Y-60782257D01*
X64033336Y-60854990D01*
X64050599Y-60909594D01*
X64076973Y-60950272D01*
X64104661Y-60972013D01*
X64145430Y-60986553D01*
X64204101Y-60992110D01*
X64242643Y-60991231D01*
X64359879Y-60991231D01*
X64413295Y-60991231D01*
X64503305Y-60984369D01*
X64558962Y-60967491D01*
X64598351Y-60943041D01*
X64631946Y-60910838D01*
X64660225Y-60869965D01*
X64680673Y-60824399D01*
X64693200Y-60774161D01*
X64697521Y-60718290D01*
X64692567Y-60662118D01*
X64679167Y-60619554D01*
X64658613Y-60587498D01*
X64630182Y-60562526D01*
X64598133Y-60547878D01*
X64561160Y-60542875D01*
X64524627Y-60548014D01*
X64491771Y-60563318D01*
X64464572Y-60587781D01*
X64444290Y-60621496D01*
X64430341Y-60666148D01*
X64415054Y-60750237D01*
X64387666Y-60900400D01*
X64359879Y-60991231D01*
X64242643Y-60991231D01*
X64267866Y-60894647D01*
X64293494Y-60728108D01*
X64315623Y-60596950D01*
X64336091Y-60540459D01*
X64363983Y-60490778D01*
X64400863Y-60448445D01*
X64448833Y-60414574D01*
X64504014Y-60392861D01*
X64565556Y-60385484D01*
X64618623Y-60390490D01*
G37*
G36*
X64796000Y-61367048D02*
G01*
X63923759Y-61367048D01*
X63923759Y-61499818D01*
X64058948Y-61499818D01*
X63975237Y-61553124D01*
X63934970Y-61593681D01*
X63912466Y-61638940D01*
X63905002Y-61688349D01*
X63909955Y-61736867D01*
X63925304Y-61787119D01*
X63952336Y-61840024D01*
X64088550Y-61789246D01*
X64066730Y-61734270D01*
X64059754Y-61681022D01*
X64067029Y-61635108D01*
X64088843Y-61594120D01*
X64122908Y-61561505D01*
X64169370Y-61539166D01*
X64250268Y-61520948D01*
X64341195Y-61514619D01*
X64796000Y-61514619D01*
X64796000Y-61367048D01*
G37*
G36*
X64796000Y-61927878D02*
G01*
X63923759Y-61927878D01*
X63923759Y-62059916D01*
X64045612Y-62059916D01*
X63988645Y-62107397D01*
X63943616Y-62168872D01*
X63922420Y-62215609D01*
X63909463Y-62266943D01*
X63905002Y-62323845D01*
X63909884Y-62387272D01*
X63923498Y-62439432D01*
X63944862Y-62482407D01*
X63974918Y-62519588D01*
X64011737Y-62548513D01*
X64056310Y-62569748D01*
X63999863Y-62615469D01*
X63957939Y-62664551D01*
X63928661Y-62717435D01*
X63911030Y-62775034D01*
X63905002Y-62838660D01*
X63910052Y-62903125D01*
X63924190Y-62956541D01*
X63946480Y-63000928D01*
X63976809Y-63037815D01*
X64014378Y-63066461D01*
X64062103Y-63088170D01*
X64122300Y-63102331D01*
X64197873Y-63107498D01*
X64796000Y-63107498D01*
X64796000Y-62960806D01*
X64246160Y-62960806D01*
X64163633Y-62956473D01*
X64118372Y-62946444D01*
X64083405Y-62926468D01*
X64055504Y-62894347D01*
X64037787Y-62854113D01*
X64031617Y-62805833D01*
X64038652Y-62747184D01*
X64058978Y-62697024D01*
X64092873Y-62653353D01*
X64137681Y-62621669D01*
X64200944Y-62600628D01*
X64288878Y-62592683D01*
X64796000Y-62592683D01*
X64796000Y-62445184D01*
X64228868Y-62445184D01*
X64163790Y-62440429D01*
X64115790Y-62427811D01*
X64080930Y-62409061D01*
X64054512Y-62381432D01*
X64037789Y-62343312D01*
X64031617Y-62291092D01*
X64039844Y-62231093D01*
X64064517Y-62175833D01*
X64089498Y-62144129D01*
X64121195Y-62118693D01*
X64160651Y-62099190D01*
X64231157Y-62082308D01*
X64343100Y-62075450D01*
X64796000Y-62075450D01*
X64796000Y-61927878D01*
G37*
G36*
X64473285Y-63285225D02*
G01*
X64561642Y-63307313D01*
X64635458Y-63342096D01*
X64697154Y-63389232D01*
X64747668Y-63448729D01*
X64784094Y-63517694D01*
X64806776Y-63597982D01*
X64814757Y-63692142D01*
X64809694Y-63767889D01*
X64795281Y-63833702D01*
X64772294Y-63891104D01*
X64740972Y-63941343D01*
X64686129Y-63998705D01*
X64617768Y-64043179D01*
X64533390Y-64074993D01*
X64514632Y-63922512D01*
X64574164Y-63895781D01*
X64618460Y-63865354D01*
X64650333Y-63831507D01*
X64673605Y-63791388D01*
X64687867Y-63745662D01*
X64692831Y-63692948D01*
X64684178Y-63623498D01*
X64659037Y-63563611D01*
X64616774Y-63510938D01*
X64576914Y-63480012D01*
X64528253Y-63455865D01*
X64469114Y-63438822D01*
X64397395Y-63429825D01*
X64397395Y-64079023D01*
X64358048Y-64079902D01*
X64250262Y-64072065D01*
X64160641Y-64050138D01*
X64086003Y-64015700D01*
X64023850Y-63969187D01*
X63972007Y-63910084D01*
X63935278Y-63843899D01*
X63912801Y-63769200D01*
X63905156Y-63685621D01*
X64026928Y-63685621D01*
X64032394Y-63739938D01*
X64048222Y-63787650D01*
X64074338Y-63830156D01*
X64111704Y-63868363D01*
X64150714Y-63893336D01*
X64203990Y-63912386D01*
X64275469Y-63924124D01*
X64275469Y-63438032D01*
X64202916Y-63450447D01*
X64143491Y-63476109D01*
X64094558Y-63514675D01*
X64057073Y-63564289D01*
X64034655Y-63620575D01*
X64026928Y-63685621D01*
X63905156Y-63685621D01*
X63905002Y-63683935D01*
X63912997Y-63595785D01*
X63935999Y-63518818D01*
X63973507Y-63450885D01*
X64026341Y-63390478D01*
X64089807Y-63342934D01*
X64165976Y-63307745D01*
X64257388Y-63285347D01*
X64367280Y-63277344D01*
X64473285Y-63285225D01*
G37*
G36*
X64661617Y-64581894D02*
G01*
X64791969Y-64603217D01*
X64802252Y-64542309D01*
X64805378Y-64491769D01*
X64798235Y-64416707D01*
X64779953Y-64367131D01*
X64749945Y-64328955D01*
X64712981Y-64304849D01*
X64660052Y-64292645D01*
X64538372Y-64286824D01*
X64036307Y-64286824D01*
X64036307Y-64178600D01*
X63923759Y-64178600D01*
X63923759Y-64286824D01*
X63708191Y-64286824D01*
X63619604Y-64433517D01*
X63923759Y-64433517D01*
X63923759Y-64581894D01*
X64036307Y-64581894D01*
X64036307Y-64433517D01*
X64544381Y-64433517D01*
X64601837Y-64436068D01*
X64625420Y-64441284D01*
X64641516Y-64451490D01*
X64654070Y-64466709D01*
X64661703Y-64486610D01*
X64664695Y-64517121D01*
X64661617Y-64581894D01*
G37*
G36*
X64473285Y-64685030D02*
G01*
X64561642Y-64707118D01*
X64635458Y-64741900D01*
X64697154Y-64789036D01*
X64747668Y-64848533D01*
X64784094Y-64917498D01*
X64806776Y-64997787D01*
X64814757Y-65091946D01*
X64809694Y-65167693D01*
X64795281Y-65233506D01*
X64772294Y-65290909D01*
X64740972Y-65341147D01*
X64686129Y-65398510D01*
X64617768Y-65442983D01*
X64533390Y-65474797D01*
X64514632Y-65322316D01*
X64574164Y-65295586D01*
X64618460Y-65265159D01*
X64650333Y-65231311D01*
X64673605Y-65191193D01*
X64687867Y-65145467D01*
X64692831Y-65092752D01*
X64684178Y-65023303D01*
X64659037Y-64963416D01*
X64616774Y-64910743D01*
X64576914Y-64879816D01*
X64528253Y-64855670D01*
X64469114Y-64838626D01*
X64397395Y-64829630D01*
X64397395Y-65478827D01*
X64358048Y-65479706D01*
X64250262Y-65471870D01*
X64160641Y-65449943D01*
X64086003Y-65415505D01*
X64023850Y-65368991D01*
X63972007Y-65309889D01*
X63935278Y-65243704D01*
X63912801Y-65169005D01*
X63905156Y-65085425D01*
X64026928Y-65085425D01*
X64032394Y-65139743D01*
X64048222Y-65187454D01*
X64074338Y-65229961D01*
X64111704Y-65268168D01*
X64150714Y-65293141D01*
X64203990Y-65312191D01*
X64275469Y-65323928D01*
X64275469Y-64837836D01*
X64202916Y-64850251D01*
X64143491Y-64875914D01*
X64094558Y-64914480D01*
X64057073Y-64964093D01*
X64034655Y-65020380D01*
X64026928Y-65085425D01*
X63905156Y-65085425D01*
X63905002Y-65083740D01*
X63912997Y-64995589D01*
X63935999Y-64918623D01*
X63973507Y-64850689D01*
X64026341Y-64790282D01*
X64089807Y-64742739D01*
X64165976Y-64707550D01*
X64257388Y-64685152D01*
X64367280Y-64677149D01*
X64473285Y-64685030D01*
G37*
G36*
X64796000Y-65657906D02*
G01*
X63923759Y-65657906D01*
X63923759Y-65790676D01*
X64058948Y-65790676D01*
X63975237Y-65843983D01*
X63934970Y-65884539D01*
X63912466Y-65929798D01*
X63905002Y-65979207D01*
X63909955Y-66027726D01*
X63925304Y-66077978D01*
X63952336Y-66130882D01*
X64088550Y-66080104D01*
X64066730Y-66025129D01*
X64059754Y-65971880D01*
X64067029Y-65925966D01*
X64088843Y-65884979D01*
X64122908Y-65852364D01*
X64169370Y-65830024D01*
X64250268Y-65811806D01*
X64341195Y-65805478D01*
X64796000Y-65805478D01*
X64796000Y-65657906D01*
G37*
%LPC*%
D11*
X62250000Y-28440000D03*
D12*
X62250000Y-36060000D03*
D13*
X68660000Y-68250000D03*
D14*
X61040000Y-68250000D03*
X50880000Y-68250000D03*
X48340000Y-68250000D03*
D11*
X53940000Y-40000000D03*
D12*
X61560000Y-40000000D03*
D11*
X38440000Y-61832500D03*
D12*
X46060000Y-61832500D03*
D15*
X86000000Y-29000000D03*
D16*
X42332500Y-67852500D03*
D17*
X42332500Y-66582500D03*
X42332500Y-65312500D03*
D11*
X38440000Y-41250000D03*
D12*
X46060000Y-41250000D03*
D18*
X79250000Y-51750000D03*
X74170000Y-51740000D03*
D11*
X53250000Y-36060000D03*
D12*
X53250000Y-28440000D03*
D13*
X68660000Y-47750000D03*
D14*
X61040000Y-47750000D03*
X50880000Y-47750000D03*
X48340000Y-47750000D03*
D19*
X72960000Y-26590000D03*
D20*
X67880000Y-28750000D03*
D21*
X70420000Y-28750000D03*
X72960000Y-28750000D03*
X75500000Y-28750000D03*
D11*
X38440000Y-51750000D03*
D12*
X46060000Y-51750000D03*
D11*
X35750000Y-51380000D03*
D12*
X35750000Y-59000000D03*
D11*
X57500000Y-36060000D03*
D12*
X57500000Y-28440000D03*
D15*
X86000000Y-67000000D03*
D11*
X42500000Y-30750000D03*
D12*
X34880000Y-30750000D03*
D22*
X27725000Y-60250000D03*
D23*
X27725000Y-57750000D03*
X27725000Y-55250000D03*
X27725000Y-52750000D03*
X27725000Y-50250000D03*
X27725000Y-47750000D03*
D24*
X86000000Y-60080000D03*
D25*
X86000000Y-55000000D03*
X86000000Y-49920000D03*
D13*
X68660000Y-58000000D03*
D14*
X61040000Y-58000000D03*
X50880000Y-58000000D03*
X48340000Y-58000000D03*
D22*
X27750000Y-40750000D03*
D23*
X27750000Y-38250000D03*
X27750000Y-35750000D03*
D11*
X35750000Y-61272500D03*
D12*
X35750000Y-68892500D03*
D11*
X47250000Y-36310000D03*
D12*
X47250000Y-28690000D03*
D26*
X86500000Y-37250000D03*
X86500000Y-39790000D03*
X86500000Y-42330000D03*
D27*
X79460000Y-39500000D03*
D28*
X80730000Y-39500000D03*
X82000000Y-39500000D03*
D16*
X42332500Y-57500000D03*
D17*
X42332500Y-56230000D03*
X42332500Y-54960000D03*
D11*
X80500000Y-34060000D03*
D12*
X80500000Y-26440000D03*
D15*
X29000000Y-29000000D03*
D11*
X35750000Y-40690000D03*
D12*
X35750000Y-48310000D03*
D18*
X79250000Y-45500000D03*
X74170000Y-45490000D03*
D29*
X72500000Y-36750000D03*
D11*
X72500000Y-39250000D03*
D16*
X42332500Y-47290000D03*
D17*
X42332500Y-46020000D03*
X42332500Y-44750000D03*
D15*
X29000000Y-67000000D03*
%LPD*%
M02*
