G04 #@! TF.GenerationSoftware,KiCad,Pcbnew,8.0.2-8.0.2-0~ubuntu22.04.1*
G04 #@! TF.CreationDate,2024-06-07T15:14:20-07:00*
G04 #@! TF.ProjectId,pifire-relay-pwm-module-SSR,70696669-7265-42d7-9265-6c61792d7077,rev?*
G04 #@! TF.SameCoordinates,Original*
G04 #@! TF.FileFunction,Copper,L1,Top*
G04 #@! TF.FilePolarity,Positive*
%FSLAX46Y46*%
G04 Gerber Fmt 4.6, Leading zero omitted, Abs format (unit mm)*
G04 Created by KiCad (PCBNEW 8.0.2-8.0.2-0~ubuntu22.04.1) date 2024-06-07 15:14:20*
%MOMM*%
%LPD*%
G01*
G04 APERTURE LIST*
G04 Aperture macros list*
%AMRoundRect*
0 Rectangle with rounded corners*
0 $1 Rounding radius*
0 $2 $3 $4 $5 $6 $7 $8 $9 X,Y pos of 4 corners*
0 Add a 4 corners polygon primitive as box body*
4,1,4,$2,$3,$4,$5,$6,$7,$8,$9,$2,$3,0*
0 Add four circle primitives for the rounded corners*
1,1,$1+$1,$2,$3*
1,1,$1+$1,$4,$5*
1,1,$1+$1,$6,$7*
1,1,$1+$1,$8,$9*
0 Add four rect primitives between the rounded corners*
20,1,$1+$1,$2,$3,$4,$5,0*
20,1,$1+$1,$4,$5,$6,$7,0*
20,1,$1+$1,$6,$7,$8,$9,0*
20,1,$1+$1,$8,$9,$2,$3,0*%
G04 Aperture macros list end*
G04 #@! TA.AperFunction,ComponentPad*
%ADD10C,1.651000*%
G04 #@! TD*
G04 #@! TA.AperFunction,ComponentPad*
%ADD11C,1.600000*%
G04 #@! TD*
G04 #@! TA.AperFunction,ComponentPad*
%ADD12O,1.600000X1.600000*%
G04 #@! TD*
G04 #@! TA.AperFunction,ComponentPad*
%ADD13R,1.508000X1.508000*%
G04 #@! TD*
G04 #@! TA.AperFunction,ComponentPad*
%ADD14C,1.508000*%
G04 #@! TD*
G04 #@! TA.AperFunction,ComponentPad*
%ADD15R,1.500000X1.050000*%
G04 #@! TD*
G04 #@! TA.AperFunction,ComponentPad*
%ADD16O,1.500000X1.050000*%
G04 #@! TD*
G04 #@! TA.AperFunction,ComponentPad*
%ADD17C,2.000000*%
G04 #@! TD*
G04 #@! TA.AperFunction,ComponentPad*
%ADD18R,1.730000X2.030000*%
G04 #@! TD*
G04 #@! TA.AperFunction,ComponentPad*
%ADD19O,1.730000X2.030000*%
G04 #@! TD*
G04 #@! TA.AperFunction,ComponentPad*
%ADD20RoundRect,0.250000X0.725000X-0.600000X0.725000X0.600000X-0.725000X0.600000X-0.725000X-0.600000X0*%
G04 #@! TD*
G04 #@! TA.AperFunction,ComponentPad*
%ADD21O,1.950000X1.700000*%
G04 #@! TD*
G04 #@! TA.AperFunction,ComponentPad*
%ADD22R,3.000000X3.000000*%
G04 #@! TD*
G04 #@! TA.AperFunction,ComponentPad*
%ADD23C,3.000000*%
G04 #@! TD*
G04 #@! TA.AperFunction,ComponentPad*
%ADD24R,1.050000X1.500000*%
G04 #@! TD*
G04 #@! TA.AperFunction,ComponentPad*
%ADD25O,1.050000X1.500000*%
G04 #@! TD*
G04 #@! TA.AperFunction,ComponentPad*
%ADD26R,1.600000X1.600000*%
G04 #@! TD*
G04 #@! TA.AperFunction,Conductor*
%ADD27C,0.400000*%
G04 #@! TD*
G04 #@! TA.AperFunction,Conductor*
%ADD28C,3.000000*%
G04 #@! TD*
G04 #@! TA.AperFunction,Conductor*
%ADD29C,0.200000*%
G04 #@! TD*
G04 APERTURE END LIST*
D10*
X86500000Y-37250000D03*
X86500000Y-39790000D03*
X86500000Y-42330000D03*
D11*
X62250000Y-28440000D03*
D12*
X62250000Y-36060000D03*
D13*
X68660000Y-68250000D03*
D14*
X61040000Y-68250000D03*
X50880000Y-68250000D03*
X48340000Y-68250000D03*
D11*
X53940000Y-40000000D03*
D12*
X61560000Y-40000000D03*
D11*
X38440000Y-61832500D03*
D12*
X46060000Y-61832500D03*
D15*
X42332500Y-67852500D03*
D16*
X42332500Y-66582500D03*
X42332500Y-65312500D03*
D11*
X38440000Y-41250000D03*
D12*
X46060000Y-41250000D03*
D17*
X79250000Y-51750000D03*
X74170000Y-51740000D03*
D11*
X53250000Y-36060000D03*
D12*
X53250000Y-28440000D03*
D13*
X68660000Y-47750000D03*
D14*
X61040000Y-47750000D03*
X50880000Y-47750000D03*
X48340000Y-47750000D03*
D18*
X67880000Y-28750000D03*
D19*
X70420000Y-28750000D03*
X72960000Y-28750000D03*
X75500000Y-28750000D03*
D11*
X38440000Y-51750000D03*
D12*
X46060000Y-51750000D03*
D11*
X35750000Y-51380000D03*
D12*
X35750000Y-59000000D03*
D11*
X57500000Y-36060000D03*
D12*
X57500000Y-28440000D03*
D11*
X42500000Y-30750000D03*
D12*
X34880000Y-30750000D03*
D20*
X27725000Y-60250000D03*
D21*
X27725000Y-57750000D03*
X27725000Y-55250000D03*
X27725000Y-52750000D03*
X27725000Y-50250000D03*
X27725000Y-47750000D03*
D22*
X86000000Y-60080000D03*
D23*
X86000000Y-55000000D03*
X86000000Y-49920000D03*
D13*
X68660000Y-58000000D03*
D14*
X61040000Y-58000000D03*
X50880000Y-58000000D03*
X48340000Y-58000000D03*
D20*
X27750000Y-40750000D03*
D21*
X27750000Y-38250000D03*
X27750000Y-35750000D03*
D11*
X35750000Y-61272500D03*
D12*
X35750000Y-68892500D03*
D11*
X47250000Y-36310000D03*
D12*
X47250000Y-28690000D03*
D24*
X79460000Y-39500000D03*
D25*
X80730000Y-39500000D03*
X82000000Y-39500000D03*
D15*
X42332500Y-57500000D03*
D16*
X42332500Y-56230000D03*
X42332500Y-54960000D03*
D11*
X80500000Y-34060000D03*
D12*
X80500000Y-26440000D03*
D11*
X35750000Y-40690000D03*
D12*
X35750000Y-48310000D03*
D17*
X79250000Y-45500000D03*
X74170000Y-45490000D03*
D26*
X72500000Y-36750000D03*
D11*
X72500000Y-39250000D03*
D15*
X42332500Y-47290000D03*
D16*
X42332500Y-46020000D03*
X42332500Y-44750000D03*
D27*
X80500000Y-35000000D02*
X80500000Y-34060000D01*
X50880000Y-44370000D02*
X53250000Y-42000000D01*
X48427500Y-63500000D02*
X50880000Y-65952500D01*
X50880000Y-65952500D02*
X50880000Y-68250000D01*
X50880000Y-61047500D02*
X50880000Y-58000000D01*
X48427500Y-63500000D02*
X50880000Y-61047500D01*
X50880000Y-47750000D02*
X50880000Y-44370000D01*
X34250000Y-63500000D02*
X31000000Y-60250000D01*
X73500000Y-42000000D02*
X80500000Y-35000000D01*
X31000000Y-60250000D02*
X27725000Y-60250000D01*
X48427500Y-63500000D02*
X34250000Y-63500000D01*
X53250000Y-42000000D02*
X73500000Y-42000000D01*
X50880000Y-58000000D02*
X50880000Y-47750000D01*
D28*
X61040000Y-47750000D02*
X64540000Y-51250000D01*
X72500000Y-48750000D02*
X84830000Y-48750000D01*
X84830000Y-48750000D02*
X86000000Y-49920000D01*
X64540000Y-51250000D02*
X70000000Y-51250000D01*
X70000000Y-51250000D02*
X72500000Y-48750000D01*
D29*
X68660000Y-58000000D02*
X68660000Y-57250000D01*
D27*
X31500000Y-40750000D02*
X27750000Y-40750000D01*
X70420000Y-34670000D02*
X70420000Y-28750000D01*
X71810000Y-36060000D02*
X72500000Y-36750000D01*
X62250000Y-36060000D02*
X60060000Y-38250000D01*
X62250000Y-36060000D02*
X71810000Y-36060000D01*
X52000000Y-39000000D02*
X33250000Y-39000000D01*
X52750000Y-38250000D02*
X52000000Y-39000000D01*
X72500000Y-36750000D02*
X70420000Y-34670000D01*
X33250000Y-39000000D02*
X31500000Y-40750000D01*
X60060000Y-38250000D02*
X52750000Y-38250000D01*
D28*
X61040000Y-58000000D02*
X63790000Y-60750000D01*
X64750000Y-60750000D02*
X66250000Y-62250000D01*
X75000000Y-62250000D02*
X82250000Y-55000000D01*
X82250000Y-55000000D02*
X86000000Y-55000000D01*
X66250000Y-62250000D02*
X75000000Y-62250000D01*
X63790000Y-60750000D02*
X64750000Y-60750000D01*
D29*
X82500000Y-34250000D02*
X82500000Y-31750000D01*
X79460000Y-37290000D02*
X82500000Y-34250000D01*
X79460000Y-39500000D02*
X79460000Y-37290000D01*
X75500000Y-28750000D02*
X77750000Y-28750000D01*
X82500000Y-31750000D02*
X79500000Y-28750000D01*
X79500000Y-28750000D02*
X77750000Y-28750000D01*
X77750000Y-28750000D02*
X78190000Y-28750000D01*
X78190000Y-28750000D02*
X80500000Y-26440000D01*
G04 #@! TA.AperFunction,Conductor*
G36*
X79399065Y-25520185D02*
G01*
X79444820Y-25572989D01*
X79454764Y-25642147D01*
X79433601Y-25695623D01*
X79369432Y-25787265D01*
X79369431Y-25787267D01*
X79273261Y-25993502D01*
X79273258Y-25993511D01*
X79214366Y-26213302D01*
X79214364Y-26213313D01*
X79194532Y-26439998D01*
X79194532Y-26440001D01*
X79214364Y-26666686D01*
X79214366Y-26666697D01*
X79240152Y-26762931D01*
X79238489Y-26832781D01*
X79208058Y-26882705D01*
X77977584Y-28113181D01*
X77916261Y-28146666D01*
X77889903Y-28149500D01*
X76878828Y-28149500D01*
X76811789Y-28129815D01*
X76768434Y-28079781D01*
X76767670Y-28080171D01*
X76766096Y-28077083D01*
X76766034Y-28077011D01*
X76765881Y-28076661D01*
X76765458Y-28075830D01*
X76667880Y-27884322D01*
X76541545Y-27710437D01*
X76389563Y-27558455D01*
X76215678Y-27432120D01*
X76174477Y-27411127D01*
X76024170Y-27334541D01*
X76024167Y-27334540D01*
X75819757Y-27268124D01*
X75667105Y-27243946D01*
X75607467Y-27234500D01*
X75392533Y-27234500D01*
X75332895Y-27243946D01*
X75180243Y-27268124D01*
X75180240Y-27268124D01*
X74975832Y-27334540D01*
X74975829Y-27334541D01*
X74784321Y-27432120D01*
X74700981Y-27492671D01*
X74610437Y-27558455D01*
X74610435Y-27558457D01*
X74610434Y-27558457D01*
X74458457Y-27710434D01*
X74458457Y-27710435D01*
X74458455Y-27710437D01*
X74402635Y-27787267D01*
X74330318Y-27886802D01*
X74274988Y-27929467D01*
X74205374Y-27935446D01*
X74143579Y-27902840D01*
X74129682Y-27886802D01*
X74103800Y-27851179D01*
X74001545Y-27710437D01*
X73849563Y-27558455D01*
X73675678Y-27432120D01*
X73634477Y-27411127D01*
X73545725Y-27365905D01*
X73494929Y-27317930D01*
X73478134Y-27250109D01*
X73500672Y-27183974D01*
X73514333Y-27167744D01*
X73581789Y-27100289D01*
X73669394Y-26969179D01*
X73729737Y-26823497D01*
X73760500Y-26668842D01*
X73760500Y-26511158D01*
X73760500Y-26511155D01*
X73760499Y-26511153D01*
X73729738Y-26356510D01*
X73729737Y-26356503D01*
X73729735Y-26356498D01*
X73669397Y-26210827D01*
X73669390Y-26210814D01*
X73581789Y-26079711D01*
X73581786Y-26079707D01*
X73470292Y-25968213D01*
X73470288Y-25968210D01*
X73339185Y-25880609D01*
X73339172Y-25880602D01*
X73193501Y-25820264D01*
X73193489Y-25820261D01*
X73038845Y-25789500D01*
X73038842Y-25789500D01*
X72881158Y-25789500D01*
X72881155Y-25789500D01*
X72726510Y-25820261D01*
X72726498Y-25820264D01*
X72580827Y-25880602D01*
X72580814Y-25880609D01*
X72449711Y-25968210D01*
X72449707Y-25968213D01*
X72338213Y-26079707D01*
X72338210Y-26079711D01*
X72250609Y-26210814D01*
X72250602Y-26210827D01*
X72190264Y-26356498D01*
X72190261Y-26356510D01*
X72159500Y-26511153D01*
X72159500Y-26668846D01*
X72190261Y-26823489D01*
X72190264Y-26823501D01*
X72250602Y-26969172D01*
X72250609Y-26969185D01*
X72338210Y-27100288D01*
X72338213Y-27100292D01*
X72405660Y-27167739D01*
X72439145Y-27229062D01*
X72434161Y-27298754D01*
X72392289Y-27354687D01*
X72374275Y-27365904D01*
X72244323Y-27432118D01*
X72122678Y-27520499D01*
X72070437Y-27558455D01*
X72070435Y-27558457D01*
X72070434Y-27558457D01*
X71918457Y-27710434D01*
X71918457Y-27710435D01*
X71918455Y-27710437D01*
X71862635Y-27787267D01*
X71790318Y-27886802D01*
X71734988Y-27929467D01*
X71665374Y-27935446D01*
X71603579Y-27902840D01*
X71589682Y-27886802D01*
X71563800Y-27851179D01*
X71461545Y-27710437D01*
X71309563Y-27558455D01*
X71135678Y-27432120D01*
X71094477Y-27411127D01*
X70944170Y-27334541D01*
X70944167Y-27334540D01*
X70739757Y-27268124D01*
X70587105Y-27243946D01*
X70527467Y-27234500D01*
X70312533Y-27234500D01*
X70252895Y-27243946D01*
X70100243Y-27268124D01*
X70100240Y-27268124D01*
X69895832Y-27334540D01*
X69895829Y-27334541D01*
X69704321Y-27432120D01*
X69530438Y-27558454D01*
X69435910Y-27652982D01*
X69374586Y-27686466D01*
X69304895Y-27681482D01*
X69248962Y-27639610D01*
X69232047Y-27608632D01*
X69229267Y-27601179D01*
X69213332Y-27558454D01*
X69188798Y-27492673D01*
X69188793Y-27492664D01*
X69102547Y-27377455D01*
X69102544Y-27377452D01*
X68987335Y-27291206D01*
X68987328Y-27291202D01*
X68852482Y-27240908D01*
X68852483Y-27240908D01*
X68792883Y-27234501D01*
X68792881Y-27234500D01*
X68792873Y-27234500D01*
X68792864Y-27234500D01*
X66967129Y-27234500D01*
X66967123Y-27234501D01*
X66907516Y-27240908D01*
X66772671Y-27291202D01*
X66772664Y-27291206D01*
X66657455Y-27377452D01*
X66657452Y-27377455D01*
X66571206Y-27492664D01*
X66571202Y-27492671D01*
X66520908Y-27627517D01*
X66514501Y-27687116D01*
X66514500Y-27687135D01*
X66514500Y-29812870D01*
X66514501Y-29812876D01*
X66520908Y-29872483D01*
X66571202Y-30007328D01*
X66571206Y-30007335D01*
X66657452Y-30122544D01*
X66657455Y-30122547D01*
X66772664Y-30208793D01*
X66772671Y-30208797D01*
X66907517Y-30259091D01*
X66907516Y-30259091D01*
X66914444Y-30259835D01*
X66967127Y-30265500D01*
X68792872Y-30265499D01*
X68852483Y-30259091D01*
X68987331Y-30208796D01*
X69102546Y-30122546D01*
X69188796Y-30007331D01*
X69232048Y-29891365D01*
X69273917Y-29835433D01*
X69339381Y-29811015D01*
X69407654Y-29825866D01*
X69435910Y-29847018D01*
X69530437Y-29941545D01*
X69652582Y-30030289D01*
X69668385Y-30041770D01*
X69711051Y-30097100D01*
X69719500Y-30142088D01*
X69719500Y-34601006D01*
X69719500Y-34738994D01*
X69719500Y-34738996D01*
X69719499Y-34738996D01*
X69746418Y-34874322D01*
X69746421Y-34874332D01*
X69799222Y-35001807D01*
X69875887Y-35116545D01*
X69907161Y-35147819D01*
X69940646Y-35209142D01*
X69935662Y-35278834D01*
X69893790Y-35334767D01*
X69828326Y-35359184D01*
X69819480Y-35359500D01*
X63411673Y-35359500D01*
X63344634Y-35339815D01*
X63310098Y-35306623D01*
X63250045Y-35220858D01*
X63089141Y-35059954D01*
X62902734Y-34929432D01*
X62902732Y-34929431D01*
X62696497Y-34833261D01*
X62696488Y-34833258D01*
X62476697Y-34774366D01*
X62476693Y-34774365D01*
X62476692Y-34774365D01*
X62476691Y-34774364D01*
X62476686Y-34774364D01*
X62250002Y-34754532D01*
X62249998Y-34754532D01*
X62023313Y-34774364D01*
X62023302Y-34774366D01*
X61803511Y-34833258D01*
X61803502Y-34833261D01*
X61597267Y-34929431D01*
X61597265Y-34929432D01*
X61410858Y-35059954D01*
X61249954Y-35220858D01*
X61119432Y-35407265D01*
X61119431Y-35407267D01*
X61023261Y-35613502D01*
X61023258Y-35613511D01*
X60964366Y-35833302D01*
X60964364Y-35833313D01*
X60944532Y-36059998D01*
X60944532Y-36060001D01*
X60964819Y-36291881D01*
X60951052Y-36360381D01*
X60928972Y-36390369D01*
X59806162Y-37513181D01*
X59744839Y-37546666D01*
X59718481Y-37549500D01*
X57907733Y-37549500D01*
X57840694Y-37529815D01*
X57794939Y-37477011D01*
X57784995Y-37407853D01*
X57814020Y-37344297D01*
X57872798Y-37306523D01*
X57875640Y-37305725D01*
X57923032Y-37293025D01*
X57946496Y-37286739D01*
X58152734Y-37190568D01*
X58339139Y-37060047D01*
X58500047Y-36899139D01*
X58630568Y-36712734D01*
X58726739Y-36506496D01*
X58785635Y-36286692D01*
X58805468Y-36060000D01*
X58785635Y-35833308D01*
X58726739Y-35613504D01*
X58630568Y-35407266D01*
X58500047Y-35220861D01*
X58500045Y-35220858D01*
X58339141Y-35059954D01*
X58152734Y-34929432D01*
X58152732Y-34929431D01*
X57946497Y-34833261D01*
X57946488Y-34833258D01*
X57726697Y-34774366D01*
X57726693Y-34774365D01*
X57726692Y-34774365D01*
X57726691Y-34774364D01*
X57726686Y-34774364D01*
X57500002Y-34754532D01*
X57499998Y-34754532D01*
X57273313Y-34774364D01*
X57273302Y-34774366D01*
X57053511Y-34833258D01*
X57053502Y-34833261D01*
X56847267Y-34929431D01*
X56847265Y-34929432D01*
X56660858Y-35059954D01*
X56499954Y-35220858D01*
X56369432Y-35407265D01*
X56369431Y-35407267D01*
X56273261Y-35613502D01*
X56273258Y-35613511D01*
X56214366Y-35833302D01*
X56214364Y-35833313D01*
X56194532Y-36059998D01*
X56194532Y-36060001D01*
X56214364Y-36286686D01*
X56214366Y-36286697D01*
X56273258Y-36506488D01*
X56273261Y-36506497D01*
X56369431Y-36712732D01*
X56369432Y-36712734D01*
X56499954Y-36899141D01*
X56660858Y-37060045D01*
X56660861Y-37060047D01*
X56847266Y-37190568D01*
X57053504Y-37286739D01*
X57053509Y-37286740D01*
X57053511Y-37286741D01*
X57124360Y-37305725D01*
X57184021Y-37342090D01*
X57214550Y-37404937D01*
X57206255Y-37474312D01*
X57161770Y-37528190D01*
X57095218Y-37549465D01*
X57092267Y-37549500D01*
X53657733Y-37549500D01*
X53590694Y-37529815D01*
X53544939Y-37477011D01*
X53534995Y-37407853D01*
X53564020Y-37344297D01*
X53622798Y-37306523D01*
X53625640Y-37305725D01*
X53673032Y-37293025D01*
X53696496Y-37286739D01*
X53902734Y-37190568D01*
X54089139Y-37060047D01*
X54250047Y-36899139D01*
X54380568Y-36712734D01*
X54476739Y-36506496D01*
X54535635Y-36286692D01*
X54555468Y-36060000D01*
X54535635Y-35833308D01*
X54476739Y-35613504D01*
X54380568Y-35407266D01*
X54250047Y-35220861D01*
X54250045Y-35220858D01*
X54089141Y-35059954D01*
X53902734Y-34929432D01*
X53902732Y-34929431D01*
X53696497Y-34833261D01*
X53696488Y-34833258D01*
X53476697Y-34774366D01*
X53476693Y-34774365D01*
X53476692Y-34774365D01*
X53476691Y-34774364D01*
X53476686Y-34774364D01*
X53250002Y-34754532D01*
X53249998Y-34754532D01*
X53023313Y-34774364D01*
X53023302Y-34774366D01*
X52803511Y-34833258D01*
X52803502Y-34833261D01*
X52597267Y-34929431D01*
X52597265Y-34929432D01*
X52410858Y-35059954D01*
X52249954Y-35220858D01*
X52119432Y-35407265D01*
X52119431Y-35407267D01*
X52023261Y-35613502D01*
X52023258Y-35613511D01*
X51964366Y-35833302D01*
X51964364Y-35833313D01*
X51944532Y-36059998D01*
X51944532Y-36060001D01*
X51964364Y-36286686D01*
X51964366Y-36286697D01*
X52023258Y-36506488D01*
X52023261Y-36506497D01*
X52119431Y-36712732D01*
X52119432Y-36712734D01*
X52249954Y-36899141D01*
X52410858Y-37060045D01*
X52410861Y-37060047D01*
X52597266Y-37190568D01*
X52803504Y-37286739D01*
X52803509Y-37286740D01*
X52803511Y-37286741D01*
X52874360Y-37305725D01*
X52934021Y-37342090D01*
X52964550Y-37404937D01*
X52956255Y-37474312D01*
X52911770Y-37528190D01*
X52845218Y-37549465D01*
X52842267Y-37549500D01*
X52681003Y-37549500D01*
X52572590Y-37571065D01*
X52572589Y-37571065D01*
X52545671Y-37576420D01*
X52418190Y-37629224D01*
X52303454Y-37705887D01*
X52303453Y-37705888D01*
X51746162Y-38263181D01*
X51684839Y-38296666D01*
X51658481Y-38299500D01*
X33181004Y-38299500D01*
X33045677Y-38326418D01*
X33045667Y-38326421D01*
X32918192Y-38379222D01*
X32803454Y-38455887D01*
X32803453Y-38455888D01*
X31246162Y-40013181D01*
X31184839Y-40046666D01*
X31158481Y-40049500D01*
X29321870Y-40049500D01*
X29254831Y-40029815D01*
X29209076Y-39977011D01*
X29204164Y-39964505D01*
X29198704Y-39948028D01*
X29159814Y-39830666D01*
X29067712Y-39681344D01*
X28943656Y-39557288D01*
X28794334Y-39465186D01*
X28794333Y-39465185D01*
X28788878Y-39461821D01*
X28742154Y-39409873D01*
X28730931Y-39340910D01*
X28758775Y-39276828D01*
X28766272Y-39268623D01*
X28905104Y-39129792D01*
X28929942Y-39095606D01*
X29030048Y-38957820D01*
X29030047Y-38957820D01*
X29030051Y-38957816D01*
X29126557Y-38768412D01*
X29192246Y-38566243D01*
X29225500Y-38356287D01*
X29225500Y-38143713D01*
X29192246Y-37933757D01*
X29126557Y-37731588D01*
X29030051Y-37542184D01*
X29030049Y-37542181D01*
X29030048Y-37542179D01*
X28905109Y-37370213D01*
X28754792Y-37219896D01*
X28657405Y-37149141D01*
X28590204Y-37100316D01*
X28547540Y-37044989D01*
X28541561Y-36975376D01*
X28574166Y-36913580D01*
X28590199Y-36899686D01*
X28754792Y-36780104D01*
X28905104Y-36629792D01*
X28905106Y-36629788D01*
X28905109Y-36629786D01*
X29030048Y-36457820D01*
X29030047Y-36457820D01*
X29030051Y-36457816D01*
X29105368Y-36309998D01*
X45944532Y-36309998D01*
X45944532Y-36310001D01*
X45964364Y-36536686D01*
X45964366Y-36536697D01*
X46023258Y-36756488D01*
X46023261Y-36756497D01*
X46119431Y-36962732D01*
X46119432Y-36962734D01*
X46249954Y-37149141D01*
X46410858Y-37310045D01*
X46410861Y-37310047D01*
X46597266Y-37440568D01*
X46803504Y-37536739D01*
X47023308Y-37595635D01*
X47185230Y-37609801D01*
X47249998Y-37615468D01*
X47250000Y-37615468D01*
X47250002Y-37615468D01*
X47306673Y-37610509D01*
X47476692Y-37595635D01*
X47696496Y-37536739D01*
X47902734Y-37440568D01*
X48089139Y-37310047D01*
X48250047Y-37149139D01*
X48380568Y-36962734D01*
X48476739Y-36756496D01*
X48535635Y-36536692D01*
X48555468Y-36310000D01*
X48535635Y-36083308D01*
X48490916Y-35916415D01*
X48476741Y-35863511D01*
X48476738Y-35863502D01*
X48473373Y-35856286D01*
X48380568Y-35657266D01*
X48250047Y-35470861D01*
X48250045Y-35470858D01*
X48089141Y-35309954D01*
X47902734Y-35179432D01*
X47902732Y-35179431D01*
X47696497Y-35083261D01*
X47696488Y-35083258D01*
X47476697Y-35024366D01*
X47476693Y-35024365D01*
X47476692Y-35024365D01*
X47476691Y-35024364D01*
X47476686Y-35024364D01*
X47250002Y-35004532D01*
X47249998Y-35004532D01*
X47023313Y-35024364D01*
X47023302Y-35024366D01*
X46803511Y-35083258D01*
X46803502Y-35083261D01*
X46597267Y-35179431D01*
X46597265Y-35179432D01*
X46410858Y-35309954D01*
X46249954Y-35470858D01*
X46119432Y-35657265D01*
X46119431Y-35657267D01*
X46023261Y-35863502D01*
X46023258Y-35863511D01*
X45964366Y-36083302D01*
X45964364Y-36083313D01*
X45944532Y-36309998D01*
X29105368Y-36309998D01*
X29126557Y-36268412D01*
X29192246Y-36066243D01*
X29225500Y-35856287D01*
X29225500Y-35643713D01*
X29192246Y-35433757D01*
X29126557Y-35231588D01*
X29030051Y-35042184D01*
X29030049Y-35042181D01*
X29030048Y-35042179D01*
X28905109Y-34870213D01*
X28754786Y-34719890D01*
X28582820Y-34594951D01*
X28393414Y-34498444D01*
X28393413Y-34498443D01*
X28393412Y-34498443D01*
X28191243Y-34432754D01*
X28191241Y-34432753D01*
X28191240Y-34432753D01*
X28029957Y-34407208D01*
X27981287Y-34399500D01*
X27518713Y-34399500D01*
X27470042Y-34407208D01*
X27308760Y-34432753D01*
X27106585Y-34498444D01*
X26917179Y-34594951D01*
X26745213Y-34719890D01*
X26594890Y-34870213D01*
X26469951Y-35042179D01*
X26373444Y-35231585D01*
X26307753Y-35433760D01*
X26274500Y-35643713D01*
X26274500Y-35856286D01*
X26297136Y-35999208D01*
X26307754Y-36066243D01*
X26361074Y-36230345D01*
X26373444Y-36268414D01*
X26469951Y-36457820D01*
X26594890Y-36629786D01*
X26745209Y-36780105D01*
X26745214Y-36780109D01*
X26909793Y-36899682D01*
X26952459Y-36955011D01*
X26958438Y-37024625D01*
X26925833Y-37086420D01*
X26909793Y-37100318D01*
X26745214Y-37219890D01*
X26745209Y-37219894D01*
X26594890Y-37370213D01*
X26469951Y-37542179D01*
X26373444Y-37731585D01*
X26307753Y-37933760D01*
X26277802Y-38122867D01*
X26274500Y-38143713D01*
X26274500Y-38356287D01*
X26281857Y-38402736D01*
X26301146Y-38524526D01*
X26307754Y-38566243D01*
X26355882Y-38714366D01*
X26373444Y-38768414D01*
X26469951Y-38957820D01*
X26594890Y-39129786D01*
X26733705Y-39268601D01*
X26767190Y-39329924D01*
X26762206Y-39399616D01*
X26720334Y-39455549D01*
X26711121Y-39461821D01*
X26556342Y-39557289D01*
X26432289Y-39681342D01*
X26340187Y-39830663D01*
X26340185Y-39830668D01*
X26333494Y-39850861D01*
X26285001Y-39997203D01*
X26285001Y-39997204D01*
X26285000Y-39997204D01*
X26274500Y-40099983D01*
X26274500Y-41400001D01*
X26274501Y-41400018D01*
X26285000Y-41502796D01*
X26285001Y-41502799D01*
X26340185Y-41669331D01*
X26340187Y-41669336D01*
X26356940Y-41696497D01*
X26432288Y-41818656D01*
X26556344Y-41942712D01*
X26705666Y-42034814D01*
X26872203Y-42089999D01*
X26974991Y-42100500D01*
X28525008Y-42100499D01*
X28627797Y-42089999D01*
X28794334Y-42034814D01*
X28943656Y-41942712D01*
X29067712Y-41818656D01*
X29159814Y-41669334D01*
X29204164Y-41535494D01*
X29243936Y-41478051D01*
X29308451Y-41451228D01*
X29321869Y-41450500D01*
X31568996Y-41450500D01*
X31660040Y-41432389D01*
X31704328Y-41423580D01*
X31811411Y-41379225D01*
X31831807Y-41370777D01*
X31831808Y-41370776D01*
X31831811Y-41370775D01*
X31946543Y-41294114D01*
X33503838Y-39736819D01*
X33565161Y-39703334D01*
X33591519Y-39700500D01*
X34617035Y-39700500D01*
X34684074Y-39720185D01*
X34729829Y-39772989D01*
X34739773Y-39842147D01*
X34718610Y-39895623D01*
X34619432Y-40037265D01*
X34619431Y-40037267D01*
X34523261Y-40243502D01*
X34523258Y-40243511D01*
X34464366Y-40463302D01*
X34464364Y-40463313D01*
X34444532Y-40689998D01*
X34444532Y-40690001D01*
X34464364Y-40916686D01*
X34464366Y-40916697D01*
X34523258Y-41136488D01*
X34523261Y-41136497D01*
X34619431Y-41342732D01*
X34619432Y-41342734D01*
X34749954Y-41529141D01*
X34910858Y-41690045D01*
X34919828Y-41696326D01*
X35097266Y-41820568D01*
X35303504Y-41916739D01*
X35523308Y-41975635D01*
X35685230Y-41989801D01*
X35749998Y-41995468D01*
X35750000Y-41995468D01*
X35750002Y-41995468D01*
X35806673Y-41990509D01*
X35976692Y-41975635D01*
X36196496Y-41916739D01*
X36402734Y-41820568D01*
X36589139Y-41690047D01*
X36750047Y-41529139D01*
X36880568Y-41342734D01*
X36905666Y-41288909D01*
X36951836Y-41236473D01*
X37019029Y-41217320D01*
X37085911Y-41237535D01*
X37131246Y-41290700D01*
X37141575Y-41330508D01*
X37154364Y-41476687D01*
X37154366Y-41476697D01*
X37213258Y-41696488D01*
X37213261Y-41696497D01*
X37309431Y-41902732D01*
X37309432Y-41902734D01*
X37439954Y-42089141D01*
X37600858Y-42250045D01*
X37600861Y-42250047D01*
X37787266Y-42380568D01*
X37993504Y-42476739D01*
X38213308Y-42535635D01*
X38375230Y-42549801D01*
X38439998Y-42555468D01*
X38440000Y-42555468D01*
X38440002Y-42555468D01*
X38496673Y-42550509D01*
X38666692Y-42535635D01*
X38886496Y-42476739D01*
X39092734Y-42380568D01*
X39279139Y-42250047D01*
X39440047Y-42089139D01*
X39570568Y-41902734D01*
X39666739Y-41696496D01*
X39725635Y-41476692D01*
X39745468Y-41250000D01*
X39744377Y-41237535D01*
X39739142Y-41177698D01*
X39725635Y-41023308D01*
X39719389Y-40999999D01*
X44781127Y-40999999D01*
X44781128Y-41000000D01*
X45744314Y-41000000D01*
X45739920Y-41004394D01*
X45687259Y-41095606D01*
X45660000Y-41197339D01*
X45660000Y-41302661D01*
X45687259Y-41404394D01*
X45739920Y-41495606D01*
X45744314Y-41500000D01*
X44781128Y-41500000D01*
X44833730Y-41696317D01*
X44833734Y-41696326D01*
X44929865Y-41902482D01*
X45060342Y-42088820D01*
X45221179Y-42249657D01*
X45407517Y-42380134D01*
X45613673Y-42476265D01*
X45613682Y-42476269D01*
X45809999Y-42528872D01*
X45810000Y-42528871D01*
X45810000Y-41565686D01*
X45814394Y-41570080D01*
X45905606Y-41622741D01*
X46007339Y-41650000D01*
X46112661Y-41650000D01*
X46214394Y-41622741D01*
X46305606Y-41570080D01*
X46310000Y-41565686D01*
X46310000Y-42528872D01*
X46506317Y-42476269D01*
X46506326Y-42476265D01*
X46712482Y-42380134D01*
X46898820Y-42249657D01*
X47059657Y-42088820D01*
X47190134Y-41902482D01*
X47286265Y-41696326D01*
X47286269Y-41696317D01*
X47338872Y-41500000D01*
X46375686Y-41500000D01*
X46380080Y-41495606D01*
X46432741Y-41404394D01*
X46460000Y-41302661D01*
X46460000Y-41197339D01*
X46432741Y-41095606D01*
X46380080Y-41004394D01*
X46375686Y-41000000D01*
X47338872Y-41000000D01*
X47338872Y-40999999D01*
X47286269Y-40803682D01*
X47286265Y-40803673D01*
X47190134Y-40597517D01*
X47059657Y-40411179D01*
X46898820Y-40250342D01*
X46712482Y-40119865D01*
X46506328Y-40023734D01*
X46310000Y-39971127D01*
X46310000Y-40934314D01*
X46305606Y-40929920D01*
X46214394Y-40877259D01*
X46112661Y-40850000D01*
X46007339Y-40850000D01*
X45905606Y-40877259D01*
X45814394Y-40929920D01*
X45810000Y-40934314D01*
X45810000Y-39971127D01*
X45613671Y-40023734D01*
X45407517Y-40119865D01*
X45221179Y-40250342D01*
X45060342Y-40411179D01*
X44929865Y-40597517D01*
X44833734Y-40803673D01*
X44833730Y-40803682D01*
X44781127Y-40999999D01*
X39719389Y-40999999D01*
X39666739Y-40803504D01*
X39570568Y-40597266D01*
X39440047Y-40410861D01*
X39440045Y-40410858D01*
X39279141Y-40249954D01*
X39092734Y-40119432D01*
X39092732Y-40119431D01*
X38886497Y-40023261D01*
X38886488Y-40023258D01*
X38666697Y-39964366D01*
X38666693Y-39964365D01*
X38666692Y-39964365D01*
X38666691Y-39964364D01*
X38666686Y-39964364D01*
X38479961Y-39948028D01*
X38440875Y-39932739D01*
X38424167Y-39943477D01*
X38400039Y-39948028D01*
X38213313Y-39964364D01*
X38213302Y-39964366D01*
X37993511Y-40023258D01*
X37993502Y-40023261D01*
X37787267Y-40119431D01*
X37787265Y-40119432D01*
X37600858Y-40249954D01*
X37439954Y-40410858D01*
X37323341Y-40577401D01*
X37309432Y-40597266D01*
X37285170Y-40649297D01*
X37284334Y-40651089D01*
X37238161Y-40703528D01*
X37170967Y-40722679D01*
X37104086Y-40702463D01*
X37058752Y-40649297D01*
X37048424Y-40609490D01*
X37048254Y-40607544D01*
X37035635Y-40463308D01*
X36976739Y-40243504D01*
X36880568Y-40037266D01*
X36837299Y-39975471D01*
X36781390Y-39895623D01*
X36759062Y-39829416D01*
X36776074Y-39761649D01*
X36827022Y-39713837D01*
X36882965Y-39700500D01*
X38389232Y-39700500D01*
X38441667Y-39715897D01*
X38466336Y-39702931D01*
X38490768Y-39700500D01*
X52068996Y-39700500D01*
X52165306Y-39681342D01*
X52204328Y-39673580D01*
X52273942Y-39644745D01*
X52331807Y-39620777D01*
X52331808Y-39620776D01*
X52331811Y-39620775D01*
X52446543Y-39544114D01*
X52487091Y-39503566D01*
X52548414Y-39470080D01*
X52618105Y-39475064D01*
X52674039Y-39516934D01*
X52698457Y-39582399D01*
X52694548Y-39623339D01*
X52654366Y-39773302D01*
X52654364Y-39773313D01*
X52634532Y-39999998D01*
X52634532Y-40000001D01*
X52654364Y-40226686D01*
X52654366Y-40226697D01*
X52713258Y-40446488D01*
X52713261Y-40446497D01*
X52809431Y-40652732D01*
X52809432Y-40652734D01*
X52939954Y-40839141D01*
X53100858Y-41000045D01*
X53100861Y-41000047D01*
X53213792Y-41079121D01*
X53257417Y-41133697D01*
X53264611Y-41203195D01*
X53233089Y-41265550D01*
X53172859Y-41300965D01*
X53166861Y-41302313D01*
X53072591Y-41321065D01*
X53045671Y-41326420D01*
X52918190Y-41379224D01*
X52803454Y-41455887D01*
X50335887Y-43923454D01*
X50259223Y-44038192D01*
X50206421Y-44165668D01*
X50206418Y-44165678D01*
X50193718Y-44229527D01*
X50179500Y-44301004D01*
X50179500Y-46644482D01*
X50159815Y-46711521D01*
X50126625Y-46746056D01*
X50070545Y-46785324D01*
X50070539Y-46785329D01*
X49915327Y-46940541D01*
X49915322Y-46940547D01*
X49789423Y-47120349D01*
X49789419Y-47120357D01*
X49722382Y-47264120D01*
X49676210Y-47316560D01*
X49609017Y-47335712D01*
X49542135Y-47315496D01*
X49497618Y-47264120D01*
X49458127Y-47179431D01*
X49430579Y-47120354D01*
X49430577Y-47120351D01*
X49430576Y-47120349D01*
X49304677Y-46940547D01*
X49304672Y-46940541D01*
X49149458Y-46785327D01*
X49149452Y-46785322D01*
X48969650Y-46659423D01*
X48969642Y-46659419D01*
X48770708Y-46566655D01*
X48770706Y-46566654D01*
X48770703Y-46566653D01*
X48606563Y-46522671D01*
X48558675Y-46509839D01*
X48558668Y-46509838D01*
X48340002Y-46490708D01*
X48339998Y-46490708D01*
X48121331Y-46509838D01*
X48121324Y-46509839D01*
X47998902Y-46542642D01*
X47909297Y-46566653D01*
X47909295Y-46566653D01*
X47909291Y-46566655D01*
X47710357Y-46659419D01*
X47710349Y-46659423D01*
X47530547Y-46785322D01*
X47530541Y-46785327D01*
X47375327Y-46940541D01*
X47375322Y-46940547D01*
X47249423Y-47120349D01*
X47249419Y-47120357D01*
X47156655Y-47319291D01*
X47099839Y-47531324D01*
X47099838Y-47531331D01*
X47080708Y-47749997D01*
X47080708Y-47750002D01*
X47095797Y-47922482D01*
X47099839Y-47968674D01*
X47156653Y-48180703D01*
X47156654Y-48180706D01*
X47156655Y-48180708D01*
X47249419Y-48379642D01*
X47249423Y-48379650D01*
X47375322Y-48559452D01*
X47375327Y-48559458D01*
X47530541Y-48714672D01*
X47530547Y-48714677D01*
X47710349Y-48840576D01*
X47710351Y-48840577D01*
X47710354Y-48840579D01*
X47909297Y-48933347D01*
X48121326Y-48990161D01*
X48277521Y-49003826D01*
X48339998Y-49009292D01*
X48340000Y-49009292D01*
X48340002Y-49009292D01*
X48394786Y-49004499D01*
X48558674Y-48990161D01*
X48770703Y-48933347D01*
X48969646Y-48840579D01*
X49149457Y-48714674D01*
X49304674Y-48559457D01*
X49430579Y-48379646D01*
X49497618Y-48235878D01*
X49543790Y-48183439D01*
X49610983Y-48164287D01*
X49677864Y-48184502D01*
X49722382Y-48235879D01*
X49789419Y-48379642D01*
X49789423Y-48379650D01*
X49915322Y-48559452D01*
X49915326Y-48559457D01*
X50070543Y-48714674D01*
X50126623Y-48753941D01*
X50170248Y-48808517D01*
X50179500Y-48855516D01*
X50179500Y-56894482D01*
X50159815Y-56961521D01*
X50126625Y-56996056D01*
X50070545Y-57035324D01*
X50070539Y-57035329D01*
X49915327Y-57190541D01*
X49915322Y-57190547D01*
X49789423Y-57370349D01*
X49789419Y-57370357D01*
X49722382Y-57514120D01*
X49676210Y-57566560D01*
X49609017Y-57585712D01*
X49542135Y-57565496D01*
X49497618Y-57514120D01*
X49430580Y-57370357D01*
X49430579Y-57370354D01*
X49430577Y-57370351D01*
X49430576Y-57370349D01*
X49304677Y-57190547D01*
X49304672Y-57190541D01*
X49149458Y-57035327D01*
X49149452Y-57035322D01*
X48969650Y-56909423D01*
X48969642Y-56909419D01*
X48770708Y-56816655D01*
X48770706Y-56816654D01*
X48770703Y-56816653D01*
X48619885Y-56776240D01*
X48558675Y-56759839D01*
X48558668Y-56759838D01*
X48340002Y-56740708D01*
X48339998Y-56740708D01*
X48121331Y-56759838D01*
X48121324Y-56759839D01*
X47998902Y-56792642D01*
X47909297Y-56816653D01*
X47909295Y-56816653D01*
X47909291Y-56816655D01*
X47710357Y-56909419D01*
X47710349Y-56909423D01*
X47530547Y-57035322D01*
X47530541Y-57035327D01*
X47375327Y-57190541D01*
X47375322Y-57190547D01*
X47249423Y-57370349D01*
X47249419Y-57370357D01*
X47156655Y-57569291D01*
X47099839Y-57781324D01*
X47099838Y-57781331D01*
X47080708Y-57999997D01*
X47080708Y-58000000D01*
X47097560Y-58192630D01*
X47099839Y-58218674D01*
X47156653Y-58430703D01*
X47156654Y-58430706D01*
X47156655Y-58430708D01*
X47249419Y-58629642D01*
X47249423Y-58629650D01*
X47375322Y-58809452D01*
X47375327Y-58809458D01*
X47530541Y-58964672D01*
X47530547Y-58964677D01*
X47710349Y-59090576D01*
X47710351Y-59090577D01*
X47710354Y-59090579D01*
X47909297Y-59183347D01*
X48121326Y-59240161D01*
X48277521Y-59253826D01*
X48339998Y-59259292D01*
X48340000Y-59259292D01*
X48340002Y-59259292D01*
X48394786Y-59254499D01*
X48558674Y-59240161D01*
X48770703Y-59183347D01*
X48969646Y-59090579D01*
X49149457Y-58964674D01*
X49304674Y-58809457D01*
X49430579Y-58629646D01*
X49497618Y-58485878D01*
X49543790Y-58433439D01*
X49610983Y-58414287D01*
X49677864Y-58434502D01*
X49722381Y-58485878D01*
X49743948Y-58532128D01*
X49789419Y-58629642D01*
X49789423Y-58629650D01*
X49915322Y-58809452D01*
X49915326Y-58809457D01*
X50070543Y-58964674D01*
X50126623Y-59003941D01*
X50170248Y-59058517D01*
X50179500Y-59105516D01*
X50179500Y-60705981D01*
X50159815Y-60773020D01*
X50143181Y-60793662D01*
X48173662Y-62763181D01*
X48112339Y-62796666D01*
X48085981Y-62799500D01*
X47208108Y-62799500D01*
X47141069Y-62779815D01*
X47095314Y-62727011D01*
X47085370Y-62657853D01*
X47106533Y-62604376D01*
X47190134Y-62484982D01*
X47286265Y-62278826D01*
X47286269Y-62278817D01*
X47338872Y-62082500D01*
X46375686Y-62082500D01*
X46380080Y-62078106D01*
X46432741Y-61986894D01*
X46460000Y-61885161D01*
X46460000Y-61779839D01*
X46432741Y-61678106D01*
X46380080Y-61586894D01*
X46375686Y-61582500D01*
X47338872Y-61582500D01*
X47338872Y-61582499D01*
X47286269Y-61386182D01*
X47286265Y-61386173D01*
X47190134Y-61180017D01*
X47059657Y-60993679D01*
X46898820Y-60832842D01*
X46712482Y-60702365D01*
X46506328Y-60606234D01*
X46310000Y-60553627D01*
X46310000Y-61516814D01*
X46305606Y-61512420D01*
X46214394Y-61459759D01*
X46112661Y-61432500D01*
X46007339Y-61432500D01*
X45905606Y-61459759D01*
X45814394Y-61512420D01*
X45810000Y-61516814D01*
X45810000Y-60553627D01*
X45613671Y-60606234D01*
X45407517Y-60702365D01*
X45221179Y-60832842D01*
X45060342Y-60993679D01*
X44929865Y-61180017D01*
X44833734Y-61386173D01*
X44833730Y-61386182D01*
X44781127Y-61582499D01*
X44781128Y-61582500D01*
X45744314Y-61582500D01*
X45739920Y-61586894D01*
X45687259Y-61678106D01*
X45660000Y-61779839D01*
X45660000Y-61885161D01*
X45687259Y-61986894D01*
X45739920Y-62078106D01*
X45744314Y-62082500D01*
X44781128Y-62082500D01*
X44833730Y-62278817D01*
X44833734Y-62278826D01*
X44929865Y-62484982D01*
X45013467Y-62604376D01*
X45035794Y-62670582D01*
X45018784Y-62738350D01*
X44967836Y-62786163D01*
X44911892Y-62799500D01*
X39588719Y-62799500D01*
X39521680Y-62779815D01*
X39475925Y-62727011D01*
X39465981Y-62657853D01*
X39487144Y-62604377D01*
X39495747Y-62592090D01*
X39570568Y-62485234D01*
X39666739Y-62278996D01*
X39725635Y-62059192D01*
X39745468Y-61832500D01*
X39744377Y-61820035D01*
X39735537Y-61718988D01*
X39725635Y-61605808D01*
X39666739Y-61386004D01*
X39570568Y-61179766D01*
X39469550Y-61035496D01*
X39440045Y-60993358D01*
X39279141Y-60832454D01*
X39092734Y-60701932D01*
X39092732Y-60701931D01*
X38886497Y-60605761D01*
X38886488Y-60605758D01*
X38666697Y-60546866D01*
X38666693Y-60546865D01*
X38666692Y-60546865D01*
X38666691Y-60546864D01*
X38666686Y-60546864D01*
X38440002Y-60527032D01*
X38439998Y-60527032D01*
X38213313Y-60546864D01*
X38213302Y-60546866D01*
X37993511Y-60605758D01*
X37993502Y-60605761D01*
X37787267Y-60701931D01*
X37787265Y-60701932D01*
X37600858Y-60832454D01*
X37439954Y-60993358D01*
X37316736Y-61169334D01*
X37309432Y-61179766D01*
X37285170Y-61231797D01*
X37284334Y-61233589D01*
X37238161Y-61286028D01*
X37170967Y-61305179D01*
X37104086Y-61284963D01*
X37058752Y-61231797D01*
X37048424Y-61191990D01*
X37035635Y-61045808D01*
X36976739Y-60826004D01*
X36880568Y-60619766D01*
X36750047Y-60433361D01*
X36750045Y-60433358D01*
X36589141Y-60272454D01*
X36539685Y-60237825D01*
X36496060Y-60183249D01*
X36488866Y-60113750D01*
X36520388Y-60051395D01*
X36539685Y-60034675D01*
X36554282Y-60024453D01*
X36589139Y-60000047D01*
X36750047Y-59839139D01*
X36880568Y-59652734D01*
X36976739Y-59446496D01*
X37035635Y-59226692D01*
X37055468Y-59000000D01*
X37035635Y-58773308D01*
X36976739Y-58553504D01*
X36880568Y-58347266D01*
X36750047Y-58160861D01*
X36750045Y-58160858D01*
X36589141Y-57999954D01*
X36402734Y-57869432D01*
X36402732Y-57869431D01*
X36196497Y-57773261D01*
X36196488Y-57773258D01*
X35976697Y-57714366D01*
X35976693Y-57714365D01*
X35976692Y-57714365D01*
X35976691Y-57714364D01*
X35976686Y-57714364D01*
X35750002Y-57694532D01*
X35749998Y-57694532D01*
X35523313Y-57714364D01*
X35523302Y-57714366D01*
X35303511Y-57773258D01*
X35303502Y-57773261D01*
X35097267Y-57869431D01*
X35097265Y-57869432D01*
X34910858Y-57999954D01*
X34749954Y-58160858D01*
X34619432Y-58347265D01*
X34619431Y-58347267D01*
X34523261Y-58553502D01*
X34523258Y-58553511D01*
X34464366Y-58773302D01*
X34464364Y-58773313D01*
X34444532Y-58999998D01*
X34444532Y-59000001D01*
X34464364Y-59226686D01*
X34464366Y-59226697D01*
X34523258Y-59446488D01*
X34523261Y-59446497D01*
X34619431Y-59652732D01*
X34619432Y-59652734D01*
X34749954Y-59839141D01*
X34910858Y-60000045D01*
X34960315Y-60034675D01*
X35003940Y-60089251D01*
X35011134Y-60158750D01*
X34979612Y-60221105D01*
X34960315Y-60237825D01*
X34910858Y-60272454D01*
X34749954Y-60433358D01*
X34619432Y-60619765D01*
X34619431Y-60619767D01*
X34523261Y-60826002D01*
X34523258Y-60826011D01*
X34464366Y-61045802D01*
X34464364Y-61045813D01*
X34444532Y-61272498D01*
X34444532Y-61272501D01*
X34464364Y-61499186D01*
X34464366Y-61499197D01*
X34523258Y-61718988D01*
X34523261Y-61718997D01*
X34619431Y-61925232D01*
X34619432Y-61925234D01*
X34749954Y-62111641D01*
X34910858Y-62272545D01*
X34919828Y-62278826D01*
X35097266Y-62403068D01*
X35303504Y-62499239D01*
X35303509Y-62499240D01*
X35303511Y-62499241D01*
X35514314Y-62555725D01*
X35573975Y-62592090D01*
X35604504Y-62654937D01*
X35596209Y-62724312D01*
X35551724Y-62778190D01*
X35485172Y-62799465D01*
X35482221Y-62799500D01*
X34591519Y-62799500D01*
X34524480Y-62779815D01*
X34503838Y-62763181D01*
X31446546Y-59705888D01*
X31446545Y-59705887D01*
X31331807Y-59629222D01*
X31204332Y-59576421D01*
X31204322Y-59576418D01*
X31068996Y-59549500D01*
X31068994Y-59549500D01*
X31068993Y-59549500D01*
X29296870Y-59549500D01*
X29229831Y-59529815D01*
X29184076Y-59477011D01*
X29179164Y-59464505D01*
X29149339Y-59374500D01*
X29134814Y-59330666D01*
X29042712Y-59181344D01*
X28918656Y-59057288D01*
X28769334Y-58965186D01*
X28769332Y-58965185D01*
X28763440Y-58961551D01*
X28716716Y-58909603D01*
X28705493Y-58840641D01*
X28733337Y-58776558D01*
X28740856Y-58768330D01*
X28879728Y-58629458D01*
X29004620Y-58457557D01*
X29101095Y-58268217D01*
X29166757Y-58066129D01*
X29166757Y-58066126D01*
X29177231Y-58000000D01*
X28129146Y-58000000D01*
X28167630Y-57933343D01*
X28200000Y-57812535D01*
X28200000Y-57687465D01*
X28167630Y-57566657D01*
X28129146Y-57500000D01*
X29177231Y-57500000D01*
X29166757Y-57433873D01*
X29166757Y-57433870D01*
X29101095Y-57231782D01*
X29004620Y-57042442D01*
X28879727Y-56870540D01*
X28879723Y-56870535D01*
X28729464Y-56720276D01*
X28729459Y-56720272D01*
X28564781Y-56600627D01*
X28522115Y-56545297D01*
X28516136Y-56475684D01*
X28548741Y-56413889D01*
X28564776Y-56399994D01*
X28729792Y-56280104D01*
X28880104Y-56129792D01*
X28880106Y-56129788D01*
X28880109Y-56129786D01*
X28880686Y-56128992D01*
X41082000Y-56128992D01*
X41082000Y-56331007D01*
X41121407Y-56529119D01*
X41121409Y-56529127D01*
X41154825Y-56609800D01*
X41162294Y-56679270D01*
X41142538Y-56724660D01*
X41142954Y-56724887D01*
X41140419Y-56729528D01*
X41139537Y-56731556D01*
X41138706Y-56732665D01*
X41138702Y-56732672D01*
X41088408Y-56867517D01*
X41082001Y-56927116D01*
X41082001Y-56927123D01*
X41082000Y-56927135D01*
X41082000Y-58072870D01*
X41082001Y-58072876D01*
X41088408Y-58132483D01*
X41138702Y-58267328D01*
X41138706Y-58267335D01*
X41224952Y-58382544D01*
X41224955Y-58382547D01*
X41340164Y-58468793D01*
X41340171Y-58468797D01*
X41475017Y-58519091D01*
X41475016Y-58519091D01*
X41481944Y-58519835D01*
X41534627Y-58525500D01*
X43130372Y-58525499D01*
X43189983Y-58519091D01*
X43324831Y-58468796D01*
X43440046Y-58382546D01*
X43526296Y-58267331D01*
X43576591Y-58132483D01*
X43583000Y-58072873D01*
X43582999Y-56927128D01*
X43576916Y-56870540D01*
X43576591Y-56867516D01*
X43526297Y-56732671D01*
X43526296Y-56732670D01*
X43526296Y-56732669D01*
X43525467Y-56731562D01*
X43524985Y-56730268D01*
X43522046Y-56724886D01*
X43522819Y-56724463D01*
X43501051Y-56666099D01*
X43510175Y-56609798D01*
X43514027Y-56600500D01*
X43543591Y-56529127D01*
X43583000Y-56331003D01*
X43583000Y-56128997D01*
X43543591Y-55930873D01*
X43466286Y-55744244D01*
X43412294Y-55663439D01*
X43391417Y-55596764D01*
X43409901Y-55529384D01*
X43412296Y-55525658D01*
X43465844Y-55445518D01*
X43465846Y-55445515D01*
X43543109Y-55258983D01*
X43543112Y-55258974D01*
X43552853Y-55210000D01*
X42698366Y-55210000D01*
X42674174Y-55207617D01*
X42658504Y-55204500D01*
X42658503Y-55204500D01*
X42618330Y-55204500D01*
X42632575Y-55190255D01*
X42681944Y-55104745D01*
X42707500Y-55009370D01*
X42707500Y-54910630D01*
X42681944Y-54815255D01*
X42632575Y-54729745D01*
X42612830Y-54710000D01*
X43552853Y-54710000D01*
X43543112Y-54661025D01*
X43543109Y-54661016D01*
X43465847Y-54474486D01*
X43465840Y-54474473D01*
X43353670Y-54306600D01*
X43353667Y-54306596D01*
X43210903Y-54163832D01*
X43210899Y-54163829D01*
X43043026Y-54051659D01*
X43043013Y-54051652D01*
X42856483Y-53974390D01*
X42856474Y-53974387D01*
X42658458Y-53935000D01*
X42582500Y-53935000D01*
X42582500Y-54679670D01*
X42562755Y-54659925D01*
X42477245Y-54610556D01*
X42381870Y-54585000D01*
X42283130Y-54585000D01*
X42187755Y-54610556D01*
X42102245Y-54659925D01*
X42082500Y-54679670D01*
X42082500Y-53935000D01*
X42006541Y-53935000D01*
X41808525Y-53974387D01*
X41808516Y-53974390D01*
X41621986Y-54051652D01*
X41621973Y-54051659D01*
X41454100Y-54163829D01*
X41454096Y-54163832D01*
X41311332Y-54306596D01*
X41311329Y-54306600D01*
X41199159Y-54474473D01*
X41199152Y-54474486D01*
X41121890Y-54661016D01*
X41121887Y-54661025D01*
X41112147Y-54710000D01*
X42052170Y-54710000D01*
X42032425Y-54729745D01*
X41983056Y-54815255D01*
X41957500Y-54910630D01*
X41957500Y-55009370D01*
X41983056Y-55104745D01*
X42032425Y-55190255D01*
X42046670Y-55204500D01*
X42006497Y-55204500D01*
X42006496Y-55204500D01*
X41990826Y-55207617D01*
X41966634Y-55210000D01*
X41112147Y-55210000D01*
X41121887Y-55258974D01*
X41121890Y-55258983D01*
X41199152Y-55445513D01*
X41199159Y-55445526D01*
X41252703Y-55525659D01*
X41273581Y-55592336D01*
X41255097Y-55659716D01*
X41252704Y-55663439D01*
X41198714Y-55744243D01*
X41121409Y-55930872D01*
X41121407Y-55930880D01*
X41082000Y-56128992D01*
X28880686Y-56128992D01*
X29005048Y-55957820D01*
X29005047Y-55957820D01*
X29005051Y-55957816D01*
X29101557Y-55768412D01*
X29167246Y-55566243D01*
X29200500Y-55356287D01*
X29200500Y-55143713D01*
X29167246Y-54933757D01*
X29101557Y-54731588D01*
X29005051Y-54542184D01*
X29005049Y-54542181D01*
X29005048Y-54542179D01*
X28880109Y-54370213D01*
X28729792Y-54219896D01*
X28729784Y-54219890D01*
X28565204Y-54100316D01*
X28522540Y-54044989D01*
X28516561Y-53975376D01*
X28549166Y-53913580D01*
X28565199Y-53899686D01*
X28729792Y-53780104D01*
X28880104Y-53629792D01*
X28880106Y-53629788D01*
X28880109Y-53629786D01*
X29005048Y-53457820D01*
X29005047Y-53457820D01*
X29005051Y-53457816D01*
X29101557Y-53268412D01*
X29167246Y-53066243D01*
X29200500Y-52856287D01*
X29200500Y-52643713D01*
X29167246Y-52433757D01*
X29101557Y-52231588D01*
X29005051Y-52042184D01*
X29005049Y-52042181D01*
X29005048Y-52042179D01*
X28880109Y-51870213D01*
X28729792Y-51719896D01*
X28698745Y-51697339D01*
X28565204Y-51600316D01*
X28522540Y-51544989D01*
X28516561Y-51475376D01*
X28549166Y-51413580D01*
X28565199Y-51399686D01*
X28592298Y-51379998D01*
X34444532Y-51379998D01*
X34444532Y-51380001D01*
X34464364Y-51606686D01*
X34464366Y-51606697D01*
X34523258Y-51826488D01*
X34523261Y-51826497D01*
X34619431Y-52032732D01*
X34619432Y-52032734D01*
X34749954Y-52219141D01*
X34910858Y-52380045D01*
X34910861Y-52380047D01*
X35097266Y-52510568D01*
X35303504Y-52606739D01*
X35523308Y-52665635D01*
X35685230Y-52679801D01*
X35749998Y-52685468D01*
X35750000Y-52685468D01*
X35750002Y-52685468D01*
X35806673Y-52680509D01*
X35976692Y-52665635D01*
X36196496Y-52606739D01*
X36402734Y-52510568D01*
X36589139Y-52380047D01*
X36750047Y-52219139D01*
X36880568Y-52032734D01*
X36920204Y-51947732D01*
X36966376Y-51895294D01*
X37033569Y-51876142D01*
X37100451Y-51896357D01*
X37145785Y-51949523D01*
X37152547Y-51971574D01*
X37152964Y-51971463D01*
X37213258Y-52196488D01*
X37213261Y-52196497D01*
X37309431Y-52402732D01*
X37309432Y-52402734D01*
X37439954Y-52589141D01*
X37600858Y-52750045D01*
X37600861Y-52750047D01*
X37787266Y-52880568D01*
X37993504Y-52976739D01*
X38213308Y-53035635D01*
X38375230Y-53049801D01*
X38439998Y-53055468D01*
X38440000Y-53055468D01*
X38440002Y-53055468D01*
X38496673Y-53050509D01*
X38666692Y-53035635D01*
X38886496Y-52976739D01*
X39092734Y-52880568D01*
X39279139Y-52750047D01*
X39440047Y-52589139D01*
X39570568Y-52402734D01*
X39666739Y-52196496D01*
X39725635Y-51976692D01*
X39745468Y-51750000D01*
X39725635Y-51523308D01*
X39719389Y-51499999D01*
X44781127Y-51499999D01*
X44781128Y-51500000D01*
X45744314Y-51500000D01*
X45739920Y-51504394D01*
X45687259Y-51595606D01*
X45660000Y-51697339D01*
X45660000Y-51802661D01*
X45687259Y-51904394D01*
X45739920Y-51995606D01*
X45744314Y-52000000D01*
X44781128Y-52000000D01*
X44833730Y-52196317D01*
X44833734Y-52196326D01*
X44929865Y-52402482D01*
X45060342Y-52588820D01*
X45221179Y-52749657D01*
X45407517Y-52880134D01*
X45613673Y-52976265D01*
X45613682Y-52976269D01*
X45809999Y-53028872D01*
X45810000Y-53028871D01*
X45810000Y-52065686D01*
X45814394Y-52070080D01*
X45905606Y-52122741D01*
X46007339Y-52150000D01*
X46112661Y-52150000D01*
X46214394Y-52122741D01*
X46305606Y-52070080D01*
X46310000Y-52065686D01*
X46310000Y-53028872D01*
X46506317Y-52976269D01*
X46506326Y-52976265D01*
X46712482Y-52880134D01*
X46898820Y-52749657D01*
X47059657Y-52588820D01*
X47190134Y-52402482D01*
X47286265Y-52196326D01*
X47286269Y-52196317D01*
X47338872Y-52000000D01*
X46375686Y-52000000D01*
X46380080Y-51995606D01*
X46432741Y-51904394D01*
X46460000Y-51802661D01*
X46460000Y-51697339D01*
X46432741Y-51595606D01*
X46380080Y-51504394D01*
X46375686Y-51500000D01*
X47338872Y-51500000D01*
X47338872Y-51499999D01*
X47286269Y-51303682D01*
X47286265Y-51303673D01*
X47190134Y-51097517D01*
X47059657Y-50911179D01*
X46898820Y-50750342D01*
X46712482Y-50619865D01*
X46506328Y-50523734D01*
X46310000Y-50471127D01*
X46310000Y-51434314D01*
X46305606Y-51429920D01*
X46214394Y-51377259D01*
X46112661Y-51350000D01*
X46007339Y-51350000D01*
X45905606Y-51377259D01*
X45814394Y-51429920D01*
X45810000Y-51434314D01*
X45810000Y-50471127D01*
X45613671Y-50523734D01*
X45407517Y-50619865D01*
X45221179Y-50750342D01*
X45060342Y-50911179D01*
X44929865Y-51097517D01*
X44833734Y-51303673D01*
X44833730Y-51303682D01*
X44781127Y-51499999D01*
X39719389Y-51499999D01*
X39666739Y-51303504D01*
X39570568Y-51097266D01*
X39440047Y-50910861D01*
X39440045Y-50910858D01*
X39279141Y-50749954D01*
X39092734Y-50619432D01*
X39092732Y-50619431D01*
X38886497Y-50523261D01*
X38886488Y-50523258D01*
X38666697Y-50464366D01*
X38666693Y-50464365D01*
X38666692Y-50464365D01*
X38666691Y-50464364D01*
X38666686Y-50464364D01*
X38440002Y-50444532D01*
X38439998Y-50444532D01*
X38213313Y-50464364D01*
X38213302Y-50464366D01*
X37993511Y-50523258D01*
X37993502Y-50523261D01*
X37787267Y-50619431D01*
X37787265Y-50619432D01*
X37600858Y-50749954D01*
X37439954Y-50910858D01*
X37309433Y-51097264D01*
X37269795Y-51182267D01*
X37223622Y-51234706D01*
X37156428Y-51253857D01*
X37089547Y-51233641D01*
X37044213Y-51180475D01*
X37037454Y-51158424D01*
X37037036Y-51158537D01*
X36976741Y-50933511D01*
X36976738Y-50933502D01*
X36960937Y-50899617D01*
X36880568Y-50727266D01*
X36750047Y-50540861D01*
X36750045Y-50540858D01*
X36589141Y-50379954D01*
X36402734Y-50249432D01*
X36402732Y-50249431D01*
X36196497Y-50153261D01*
X36196488Y-50153258D01*
X35976697Y-50094366D01*
X35976693Y-50094365D01*
X35976692Y-50094365D01*
X35976691Y-50094364D01*
X35976686Y-50094364D01*
X35750002Y-50074532D01*
X35749998Y-50074532D01*
X35523313Y-50094364D01*
X35523302Y-50094366D01*
X35303511Y-50153258D01*
X35303502Y-50153261D01*
X35097267Y-50249431D01*
X35097265Y-50249432D01*
X34910858Y-50379954D01*
X34749954Y-50540858D01*
X34619432Y-50727265D01*
X34619431Y-50727267D01*
X34523261Y-50933502D01*
X34523258Y-50933511D01*
X34464366Y-51153302D01*
X34464364Y-51153313D01*
X34444532Y-51379998D01*
X28592298Y-51379998D01*
X28729792Y-51280104D01*
X28880104Y-51129792D01*
X28880106Y-51129788D01*
X28880109Y-51129786D01*
X29005048Y-50957820D01*
X29005047Y-50957820D01*
X29005051Y-50957816D01*
X29101557Y-50768412D01*
X29167246Y-50566243D01*
X29200500Y-50356287D01*
X29200500Y-50143713D01*
X29167246Y-49933757D01*
X29101557Y-49731588D01*
X29005051Y-49542184D01*
X29005049Y-49542181D01*
X29005048Y-49542179D01*
X28880109Y-49370213D01*
X28729792Y-49219896D01*
X28632405Y-49149141D01*
X28565204Y-49100316D01*
X28522540Y-49044989D01*
X28516561Y-48975376D01*
X28549166Y-48913580D01*
X28565199Y-48899686D01*
X28729792Y-48780104D01*
X28880104Y-48629792D01*
X28880106Y-48629788D01*
X28880109Y-48629786D01*
X29005048Y-48457820D01*
X29005047Y-48457820D01*
X29005051Y-48457816D01*
X29080368Y-48309998D01*
X34444532Y-48309998D01*
X34444532Y-48310001D01*
X34464364Y-48536686D01*
X34464366Y-48536697D01*
X34523258Y-48756488D01*
X34523261Y-48756497D01*
X34619431Y-48962732D01*
X34619432Y-48962734D01*
X34749954Y-49149141D01*
X34910858Y-49310045D01*
X34910861Y-49310047D01*
X35097266Y-49440568D01*
X35303504Y-49536739D01*
X35523308Y-49595635D01*
X35685230Y-49609801D01*
X35749998Y-49615468D01*
X35750000Y-49615468D01*
X35750002Y-49615468D01*
X35806673Y-49610509D01*
X35976692Y-49595635D01*
X36196496Y-49536739D01*
X36402734Y-49440568D01*
X36589139Y-49310047D01*
X36750047Y-49149139D01*
X36880568Y-48962734D01*
X36976739Y-48756496D01*
X37035635Y-48536692D01*
X37055468Y-48310000D01*
X37055388Y-48309091D01*
X37042720Y-48164287D01*
X37035635Y-48083308D01*
X36976739Y-47863504D01*
X36880568Y-47657266D01*
X36750047Y-47470861D01*
X36750045Y-47470858D01*
X36589141Y-47309954D01*
X36402734Y-47179432D01*
X36402732Y-47179431D01*
X36196497Y-47083261D01*
X36196488Y-47083258D01*
X35976697Y-47024366D01*
X35976693Y-47024365D01*
X35976692Y-47024365D01*
X35976691Y-47024364D01*
X35976686Y-47024364D01*
X35750002Y-47004532D01*
X35749998Y-47004532D01*
X35523313Y-47024364D01*
X35523302Y-47024366D01*
X35303511Y-47083258D01*
X35303502Y-47083261D01*
X35097267Y-47179431D01*
X35097265Y-47179432D01*
X34910858Y-47309954D01*
X34749954Y-47470858D01*
X34619432Y-47657265D01*
X34619431Y-47657267D01*
X34523261Y-47863502D01*
X34523258Y-47863511D01*
X34464366Y-48083302D01*
X34464364Y-48083313D01*
X34444532Y-48309998D01*
X29080368Y-48309998D01*
X29101557Y-48268412D01*
X29167246Y-48066243D01*
X29200500Y-47856287D01*
X29200500Y-47643713D01*
X29167246Y-47433757D01*
X29101557Y-47231588D01*
X29005051Y-47042184D01*
X29005049Y-47042181D01*
X29005048Y-47042179D01*
X28880109Y-46870213D01*
X28729786Y-46719890D01*
X28557820Y-46594951D01*
X28368414Y-46498444D01*
X28368413Y-46498443D01*
X28368412Y-46498443D01*
X28166243Y-46432754D01*
X28166241Y-46432753D01*
X28166240Y-46432753D01*
X28004957Y-46407208D01*
X27956287Y-46399500D01*
X27493713Y-46399500D01*
X27445042Y-46407208D01*
X27283760Y-46432753D01*
X27081585Y-46498444D01*
X26892179Y-46594951D01*
X26720213Y-46719890D01*
X26569890Y-46870213D01*
X26444951Y-47042179D01*
X26348444Y-47231585D01*
X26282753Y-47433760D01*
X26249500Y-47643713D01*
X26249500Y-47856286D01*
X26267299Y-47968668D01*
X26282754Y-48066243D01*
X26337872Y-48235879D01*
X26348444Y-48268414D01*
X26444951Y-48457820D01*
X26569890Y-48629786D01*
X26720209Y-48780105D01*
X26720214Y-48780109D01*
X26884793Y-48899682D01*
X26927459Y-48955011D01*
X26933438Y-49024625D01*
X26900833Y-49086420D01*
X26884793Y-49100318D01*
X26720214Y-49219890D01*
X26720209Y-49219894D01*
X26569890Y-49370213D01*
X26444951Y-49542179D01*
X26348444Y-49731585D01*
X26282753Y-49933760D01*
X26249500Y-50143713D01*
X26249500Y-50356286D01*
X26269893Y-50485046D01*
X26282754Y-50566243D01*
X26342445Y-50749953D01*
X26348444Y-50768414D01*
X26444951Y-50957820D01*
X26569890Y-51129786D01*
X26720209Y-51280105D01*
X26720214Y-51280109D01*
X26884793Y-51399682D01*
X26927459Y-51455011D01*
X26933438Y-51524625D01*
X26900833Y-51586420D01*
X26884793Y-51600318D01*
X26720214Y-51719890D01*
X26720209Y-51719894D01*
X26569890Y-51870213D01*
X26444951Y-52042179D01*
X26348444Y-52231585D01*
X26282753Y-52433760D01*
X26249500Y-52643713D01*
X26249500Y-52856286D01*
X26273662Y-53008843D01*
X26282754Y-53066243D01*
X26331501Y-53216271D01*
X26348444Y-53268414D01*
X26444951Y-53457820D01*
X26569890Y-53629786D01*
X26720209Y-53780105D01*
X26720214Y-53780109D01*
X26884793Y-53899682D01*
X26927459Y-53955011D01*
X26933438Y-54024625D01*
X26900833Y-54086420D01*
X26884793Y-54100318D01*
X26720214Y-54219890D01*
X26720209Y-54219894D01*
X26569890Y-54370213D01*
X26444951Y-54542179D01*
X26348444Y-54731585D01*
X26282753Y-54933760D01*
X26272262Y-55000000D01*
X26249500Y-55143713D01*
X26249500Y-55356287D01*
X26282754Y-55566243D01*
X26340591Y-55744247D01*
X26348444Y-55768414D01*
X26444951Y-55957820D01*
X26569890Y-56129786D01*
X26720209Y-56280105D01*
X26720214Y-56280109D01*
X26885218Y-56399991D01*
X26927884Y-56455320D01*
X26933863Y-56524934D01*
X26901258Y-56586729D01*
X26885218Y-56600627D01*
X26720540Y-56720272D01*
X26720535Y-56720276D01*
X26570276Y-56870535D01*
X26570272Y-56870540D01*
X26445379Y-57042442D01*
X26348904Y-57231782D01*
X26283242Y-57433870D01*
X26283242Y-57433873D01*
X26272769Y-57500000D01*
X27320854Y-57500000D01*
X27282370Y-57566657D01*
X27250000Y-57687465D01*
X27250000Y-57812535D01*
X27282370Y-57933343D01*
X27320854Y-58000000D01*
X26272769Y-58000000D01*
X26283242Y-58066126D01*
X26283242Y-58066129D01*
X26348904Y-58268217D01*
X26445379Y-58457557D01*
X26570272Y-58629459D01*
X26570276Y-58629464D01*
X26709143Y-58768331D01*
X26742628Y-58829654D01*
X26737644Y-58899346D01*
X26695772Y-58955279D01*
X26686559Y-58961551D01*
X26531342Y-59057289D01*
X26407289Y-59181342D01*
X26315187Y-59330663D01*
X26315186Y-59330666D01*
X26260001Y-59497203D01*
X26260001Y-59497204D01*
X26260000Y-59497204D01*
X26249500Y-59599983D01*
X26249500Y-60900001D01*
X26249501Y-60900018D01*
X26260000Y-61002796D01*
X26260001Y-61002799D01*
X26297677Y-61116496D01*
X26315186Y-61169334D01*
X26407288Y-61318656D01*
X26531344Y-61442712D01*
X26680666Y-61534814D01*
X26847203Y-61589999D01*
X26949991Y-61600500D01*
X28500008Y-61600499D01*
X28602797Y-61589999D01*
X28769334Y-61534814D01*
X28918656Y-61442712D01*
X29042712Y-61318656D01*
X29134814Y-61169334D01*
X29179164Y-61035494D01*
X29218936Y-60978051D01*
X29283451Y-60951228D01*
X29296869Y-60950500D01*
X30658481Y-60950500D01*
X30725520Y-60970185D01*
X30746162Y-60986819D01*
X33803453Y-64044111D01*
X33803454Y-64044112D01*
X33918192Y-64120777D01*
X34045667Y-64173578D01*
X34045672Y-64173580D01*
X34045676Y-64173580D01*
X34045677Y-64173581D01*
X34181003Y-64200500D01*
X34181006Y-64200500D01*
X34181007Y-64200500D01*
X41517999Y-64200500D01*
X41585038Y-64220185D01*
X41630793Y-64272989D01*
X41640737Y-64342147D01*
X41611712Y-64405703D01*
X41586890Y-64427602D01*
X41454100Y-64516329D01*
X41454096Y-64516332D01*
X41311332Y-64659096D01*
X41311329Y-64659100D01*
X41199159Y-64826973D01*
X41199152Y-64826986D01*
X41121890Y-65013516D01*
X41121887Y-65013525D01*
X41112147Y-65062500D01*
X42052170Y-65062500D01*
X42032425Y-65082245D01*
X41983056Y-65167755D01*
X41957500Y-65263130D01*
X41957500Y-65361870D01*
X41983056Y-65457245D01*
X42032425Y-65542755D01*
X42046670Y-65557000D01*
X42006497Y-65557000D01*
X42006496Y-65557000D01*
X41990826Y-65560117D01*
X41966634Y-65562500D01*
X41112147Y-65562500D01*
X41121887Y-65611474D01*
X41121890Y-65611483D01*
X41199152Y-65798013D01*
X41199159Y-65798026D01*
X41252703Y-65878159D01*
X41273581Y-65944836D01*
X41255097Y-66012216D01*
X41252704Y-66015939D01*
X41198714Y-66096743D01*
X41121409Y-66283372D01*
X41121407Y-66283380D01*
X41082000Y-66481492D01*
X41082000Y-66683507D01*
X41121407Y-66881619D01*
X41121409Y-66881627D01*
X41154825Y-66962300D01*
X41162294Y-67031770D01*
X41142538Y-67077160D01*
X41142954Y-67077387D01*
X41140419Y-67082028D01*
X41139537Y-67084056D01*
X41138706Y-67085165D01*
X41138702Y-67085172D01*
X41088408Y-67220017D01*
X41082001Y-67279616D01*
X41082001Y-67279623D01*
X41082000Y-67279635D01*
X41082000Y-68425370D01*
X41082001Y-68425376D01*
X41088408Y-68484983D01*
X41138702Y-68619828D01*
X41138706Y-68619835D01*
X41224952Y-68735044D01*
X41224955Y-68735047D01*
X41340164Y-68821293D01*
X41340171Y-68821297D01*
X41475017Y-68871591D01*
X41475016Y-68871591D01*
X41481944Y-68872335D01*
X41534627Y-68878000D01*
X43130372Y-68877999D01*
X43189983Y-68871591D01*
X43324831Y-68821296D01*
X43440046Y-68735046D01*
X43526296Y-68619831D01*
X43576591Y-68484983D01*
X43583000Y-68425373D01*
X43582999Y-67279628D01*
X43576591Y-67220017D01*
X43573422Y-67211521D01*
X43526297Y-67085171D01*
X43526296Y-67085170D01*
X43526296Y-67085169D01*
X43525467Y-67084062D01*
X43524985Y-67082768D01*
X43522046Y-67077386D01*
X43522819Y-67076963D01*
X43501051Y-67018599D01*
X43510175Y-66962298D01*
X43543589Y-66881632D01*
X43543589Y-66881631D01*
X43543591Y-66881627D01*
X43583000Y-66683503D01*
X43583000Y-66481497D01*
X43543591Y-66283373D01*
X43466286Y-66096744D01*
X43412294Y-66015939D01*
X43391417Y-65949264D01*
X43409901Y-65881884D01*
X43412296Y-65878158D01*
X43465844Y-65798018D01*
X43465846Y-65798015D01*
X43543109Y-65611483D01*
X43543112Y-65611474D01*
X43552853Y-65562500D01*
X42698366Y-65562500D01*
X42674174Y-65560117D01*
X42658504Y-65557000D01*
X42658503Y-65557000D01*
X42618330Y-65557000D01*
X42632575Y-65542755D01*
X42681944Y-65457245D01*
X42707500Y-65361870D01*
X42707500Y-65263130D01*
X42681944Y-65167755D01*
X42632575Y-65082245D01*
X42612830Y-65062500D01*
X43552853Y-65062500D01*
X43543112Y-65013525D01*
X43543109Y-65013516D01*
X43465847Y-64826986D01*
X43465840Y-64826973D01*
X43353670Y-64659100D01*
X43353667Y-64659096D01*
X43210903Y-64516332D01*
X43210899Y-64516329D01*
X43078110Y-64427602D01*
X43033305Y-64373990D01*
X43024598Y-64304665D01*
X43054752Y-64241637D01*
X43114195Y-64204918D01*
X43147001Y-64200500D01*
X48085981Y-64200500D01*
X48153020Y-64220185D01*
X48173662Y-64236819D01*
X50143181Y-66206338D01*
X50176666Y-66267661D01*
X50179500Y-66294019D01*
X50179500Y-67144482D01*
X50159815Y-67211521D01*
X50126625Y-67246056D01*
X50070545Y-67285324D01*
X50070539Y-67285329D01*
X49915327Y-67440541D01*
X49915322Y-67440547D01*
X49789423Y-67620349D01*
X49789419Y-67620357D01*
X49722382Y-67764120D01*
X49676210Y-67816560D01*
X49609017Y-67835712D01*
X49542135Y-67815496D01*
X49497618Y-67764120D01*
X49459660Y-67682719D01*
X49430579Y-67620354D01*
X49430577Y-67620351D01*
X49430576Y-67620349D01*
X49304677Y-67440547D01*
X49304672Y-67440541D01*
X49149458Y-67285327D01*
X49149452Y-67285322D01*
X48969650Y-67159423D01*
X48969642Y-67159419D01*
X48770708Y-67066655D01*
X48770706Y-67066654D01*
X48770703Y-67066653D01*
X48619885Y-67026240D01*
X48558675Y-67009839D01*
X48558668Y-67009838D01*
X48340002Y-66990708D01*
X48339998Y-66990708D01*
X48121331Y-67009838D01*
X48121324Y-67009839D01*
X47998902Y-67042642D01*
X47909297Y-67066653D01*
X47909295Y-67066653D01*
X47909291Y-67066655D01*
X47710357Y-67159419D01*
X47710349Y-67159423D01*
X47530547Y-67285322D01*
X47530541Y-67285327D01*
X47375327Y-67440541D01*
X47375322Y-67440547D01*
X47249423Y-67620349D01*
X47249419Y-67620357D01*
X47156655Y-67819291D01*
X47156653Y-67819295D01*
X47156653Y-67819297D01*
X47152255Y-67835712D01*
X47099839Y-68031324D01*
X47099838Y-68031331D01*
X47080708Y-68249997D01*
X47080708Y-68250002D01*
X47097855Y-68446004D01*
X47099839Y-68468674D01*
X47156653Y-68680703D01*
X47156654Y-68680706D01*
X47156655Y-68680708D01*
X47249419Y-68879642D01*
X47249423Y-68879650D01*
X47375322Y-69059452D01*
X47375327Y-69059458D01*
X47530541Y-69214672D01*
X47530547Y-69214677D01*
X47710349Y-69340576D01*
X47710351Y-69340577D01*
X47710354Y-69340579D01*
X47909297Y-69433347D01*
X48121326Y-69490161D01*
X48277521Y-69503826D01*
X48339998Y-69509292D01*
X48340000Y-69509292D01*
X48340002Y-69509292D01*
X48394786Y-69504499D01*
X48558674Y-69490161D01*
X48770703Y-69433347D01*
X48969646Y-69340579D01*
X49149457Y-69214674D01*
X49304674Y-69059457D01*
X49430579Y-68879646D01*
X49497618Y-68735878D01*
X49543790Y-68683439D01*
X49610983Y-68664287D01*
X49677864Y-68684502D01*
X49722382Y-68735879D01*
X49789419Y-68879642D01*
X49789423Y-68879650D01*
X49915322Y-69059452D01*
X49915327Y-69059458D01*
X50070541Y-69214672D01*
X50070547Y-69214677D01*
X50250349Y-69340576D01*
X50250351Y-69340577D01*
X50250354Y-69340579D01*
X50449297Y-69433347D01*
X50661326Y-69490161D01*
X50817521Y-69503826D01*
X50879998Y-69509292D01*
X50880000Y-69509292D01*
X50880002Y-69509292D01*
X50934786Y-69504499D01*
X51098674Y-69490161D01*
X51310703Y-69433347D01*
X51509646Y-69340579D01*
X51689457Y-69214674D01*
X51844674Y-69059457D01*
X51970579Y-68879646D01*
X52063347Y-68680703D01*
X52120161Y-68468674D01*
X52139292Y-68250000D01*
X52136907Y-68222743D01*
X52132117Y-68167997D01*
X52120161Y-68031326D01*
X52063347Y-67819297D01*
X51970579Y-67620354D01*
X51970577Y-67620351D01*
X51970576Y-67620349D01*
X51844677Y-67440547D01*
X51844672Y-67440541D01*
X51689460Y-67285329D01*
X51689458Y-67285327D01*
X51689457Y-67285326D01*
X51681302Y-67279616D01*
X51633375Y-67246056D01*
X51589751Y-67191478D01*
X51580500Y-67144482D01*
X51580500Y-65883506D01*
X51576677Y-65864290D01*
X51565210Y-65806642D01*
X51553580Y-65748172D01*
X51500775Y-65620689D01*
X51424114Y-65505957D01*
X51424112Y-65505954D01*
X51424111Y-65505953D01*
X49505838Y-63587681D01*
X49472353Y-63526358D01*
X49477337Y-63456666D01*
X49505838Y-63412319D01*
X51424112Y-61494045D01*
X51424114Y-61494043D01*
X51500775Y-61379311D01*
X51553580Y-61251828D01*
X51567914Y-61179766D01*
X51580500Y-61116496D01*
X51580500Y-59105516D01*
X51600185Y-59038477D01*
X51633376Y-59003942D01*
X51689457Y-58964674D01*
X51844674Y-58809457D01*
X51970579Y-58629646D01*
X52063347Y-58430703D01*
X52120161Y-58218674D01*
X52139292Y-58000000D01*
X52120161Y-57781326D01*
X52063347Y-57569297D01*
X51970579Y-57370354D01*
X51970577Y-57370351D01*
X51970576Y-57370349D01*
X51844677Y-57190547D01*
X51844672Y-57190541D01*
X51689460Y-57035329D01*
X51689458Y-57035327D01*
X51689457Y-57035326D01*
X51682492Y-57030449D01*
X51633375Y-56996056D01*
X51589751Y-56941478D01*
X51580500Y-56894482D01*
X51580500Y-48855516D01*
X51600185Y-48788477D01*
X51633376Y-48753942D01*
X51689457Y-48714674D01*
X51844674Y-48559457D01*
X51970579Y-48379646D01*
X52063347Y-48180703D01*
X52120161Y-47968674D01*
X52139292Y-47750000D01*
X52120161Y-47531326D01*
X52063347Y-47319297D01*
X51970579Y-47120354D01*
X51970577Y-47120351D01*
X51970576Y-47120349D01*
X51844677Y-46940547D01*
X51844672Y-46940541D01*
X51689460Y-46785329D01*
X51689458Y-46785327D01*
X51689457Y-46785326D01*
X51682492Y-46780449D01*
X51633375Y-46746056D01*
X51589751Y-46691478D01*
X51580500Y-46644482D01*
X51580500Y-44711519D01*
X51600185Y-44644480D01*
X51616819Y-44623838D01*
X52787819Y-43452838D01*
X52849142Y-43419353D01*
X52918834Y-43424337D01*
X52974767Y-43466209D01*
X52999184Y-43531673D01*
X52999500Y-43540519D01*
X52999500Y-49690891D01*
X53033608Y-49818187D01*
X53051132Y-49848538D01*
X53099500Y-49932314D01*
X53192686Y-50025500D01*
X53306814Y-50091392D01*
X53408095Y-50118529D01*
X53467753Y-50154892D01*
X53498283Y-50217739D01*
X53500000Y-50238303D01*
X53500000Y-52511696D01*
X53480315Y-52578735D01*
X53427511Y-52624490D01*
X53408097Y-52631469D01*
X53366853Y-52642520D01*
X53306812Y-52658608D01*
X53192686Y-52724500D01*
X53192683Y-52724502D01*
X53099502Y-52817683D01*
X53099500Y-52817686D01*
X53033608Y-52931812D01*
X52999500Y-53059108D01*
X52999500Y-59940891D01*
X53033608Y-60068187D01*
X53045770Y-60089251D01*
X53099500Y-60182314D01*
X53192686Y-60275500D01*
X53306814Y-60341392D01*
X53408095Y-60368529D01*
X53467753Y-60404892D01*
X53498283Y-60467739D01*
X53500000Y-60488303D01*
X53500000Y-62886696D01*
X53480315Y-62953735D01*
X53427511Y-62999490D01*
X53408097Y-63006469D01*
X53366853Y-63017520D01*
X53306812Y-63033608D01*
X53192686Y-63099500D01*
X53192683Y-63099502D01*
X53099502Y-63192683D01*
X53099500Y-63192686D01*
X53033608Y-63306812D01*
X52999500Y-63434108D01*
X52999500Y-70315891D01*
X53006873Y-70343407D01*
X53005210Y-70413256D01*
X52966048Y-70471119D01*
X52901819Y-70498623D01*
X52887098Y-70499500D01*
X29003051Y-70499500D01*
X28996968Y-70499351D01*
X28976900Y-70498365D01*
X28663071Y-70482947D01*
X28650962Y-70481754D01*
X28323305Y-70433151D01*
X28311369Y-70430777D01*
X27990055Y-70350292D01*
X27978411Y-70346759D01*
X27666540Y-70235170D01*
X27655301Y-70230515D01*
X27355844Y-70088883D01*
X27345121Y-70083150D01*
X27061011Y-69912862D01*
X27050893Y-69906102D01*
X26784829Y-69708775D01*
X26775423Y-69701055D01*
X26736475Y-69665755D01*
X26529986Y-69478604D01*
X26521395Y-69470013D01*
X26298944Y-69224576D01*
X26291224Y-69215170D01*
X26290855Y-69214672D01*
X26093895Y-68949103D01*
X26087137Y-68938988D01*
X26059274Y-68892501D01*
X26059272Y-68892498D01*
X34444532Y-68892498D01*
X34444532Y-68892501D01*
X34464364Y-69119186D01*
X34464366Y-69119197D01*
X34523258Y-69338988D01*
X34523261Y-69338997D01*
X34619431Y-69545232D01*
X34619432Y-69545234D01*
X34749954Y-69731641D01*
X34910858Y-69892545D01*
X34910861Y-69892547D01*
X35097266Y-70023068D01*
X35303504Y-70119239D01*
X35523308Y-70178135D01*
X35685230Y-70192301D01*
X35749998Y-70197968D01*
X35750000Y-70197968D01*
X35750002Y-70197968D01*
X35806673Y-70193009D01*
X35976692Y-70178135D01*
X36196496Y-70119239D01*
X36402734Y-70023068D01*
X36589139Y-69892547D01*
X36750047Y-69731639D01*
X36880568Y-69545234D01*
X36976739Y-69338996D01*
X37035635Y-69119192D01*
X37055468Y-68892500D01*
X37054343Y-68879646D01*
X37049023Y-68818838D01*
X37035635Y-68665808D01*
X36976739Y-68446004D01*
X36880568Y-68239766D01*
X36750047Y-68053361D01*
X36750045Y-68053358D01*
X36589141Y-67892454D01*
X36402734Y-67761932D01*
X36402732Y-67761931D01*
X36196497Y-67665761D01*
X36196488Y-67665758D01*
X35976697Y-67606866D01*
X35976693Y-67606865D01*
X35976692Y-67606865D01*
X35976691Y-67606864D01*
X35976686Y-67606864D01*
X35750002Y-67587032D01*
X35749998Y-67587032D01*
X35523313Y-67606864D01*
X35523302Y-67606866D01*
X35303511Y-67665758D01*
X35303502Y-67665761D01*
X35097267Y-67761931D01*
X35097265Y-67761932D01*
X34910858Y-67892454D01*
X34749954Y-68053358D01*
X34619432Y-68239765D01*
X34619431Y-68239767D01*
X34523261Y-68446002D01*
X34523258Y-68446011D01*
X34464366Y-68665802D01*
X34464364Y-68665813D01*
X34444532Y-68892498D01*
X26059272Y-68892498D01*
X25916844Y-68654871D01*
X25911120Y-68644163D01*
X25769479Y-68344688D01*
X25764829Y-68333459D01*
X25725212Y-68222738D01*
X25692902Y-68132438D01*
X25653240Y-68021588D01*
X25649707Y-68009944D01*
X25640958Y-67975015D01*
X25569219Y-67688617D01*
X25566848Y-67676694D01*
X25565226Y-67665761D01*
X25524101Y-67388517D01*
X25518245Y-67349037D01*
X25517052Y-67336927D01*
X25514237Y-67279635D01*
X25500649Y-67003032D01*
X25500500Y-66996948D01*
X25500500Y-66878711D01*
X27149500Y-66878711D01*
X27149500Y-67121288D01*
X27181161Y-67361785D01*
X27243947Y-67596104D01*
X27336397Y-67819297D01*
X27336776Y-67820212D01*
X27458064Y-68030289D01*
X27458066Y-68030292D01*
X27458067Y-68030293D01*
X27605733Y-68222736D01*
X27605739Y-68222743D01*
X27777256Y-68394260D01*
X27777263Y-68394266D01*
X27817803Y-68425373D01*
X27969711Y-68541936D01*
X28179788Y-68663224D01*
X28403900Y-68756054D01*
X28638211Y-68818838D01*
X28818586Y-68842584D01*
X28878711Y-68850500D01*
X28878712Y-68850500D01*
X29121289Y-68850500D01*
X29169388Y-68844167D01*
X29361789Y-68818838D01*
X29596100Y-68756054D01*
X29820212Y-68663224D01*
X30030289Y-68541936D01*
X30222738Y-68394265D01*
X30394265Y-68222738D01*
X30541936Y-68030289D01*
X30663224Y-67820212D01*
X30756054Y-67596100D01*
X30818838Y-67361789D01*
X30850500Y-67121288D01*
X30850500Y-66878712D01*
X30818838Y-66638211D01*
X30756054Y-66403900D01*
X30663224Y-66179788D01*
X30541936Y-65969711D01*
X30416809Y-65806642D01*
X30394266Y-65777263D01*
X30394260Y-65777256D01*
X30222743Y-65605739D01*
X30222736Y-65605733D01*
X30030293Y-65458067D01*
X30030292Y-65458066D01*
X30030289Y-65458064D01*
X29820212Y-65336776D01*
X29820205Y-65336773D01*
X29596104Y-65243947D01*
X29361785Y-65181161D01*
X29121289Y-65149500D01*
X29121288Y-65149500D01*
X28878712Y-65149500D01*
X28878711Y-65149500D01*
X28638214Y-65181161D01*
X28403895Y-65243947D01*
X28179794Y-65336773D01*
X28179785Y-65336777D01*
X27969706Y-65458067D01*
X27777263Y-65605733D01*
X27777256Y-65605739D01*
X27605739Y-65777256D01*
X27605733Y-65777263D01*
X27458067Y-65969706D01*
X27336777Y-66179785D01*
X27336773Y-66179794D01*
X27243947Y-66403895D01*
X27181161Y-66638214D01*
X27149500Y-66878711D01*
X25500500Y-66878711D01*
X25500500Y-45918992D01*
X41082000Y-45918992D01*
X41082000Y-46121007D01*
X41121407Y-46319119D01*
X41121409Y-46319127D01*
X41154825Y-46399800D01*
X41162294Y-46469270D01*
X41142538Y-46514660D01*
X41142954Y-46514887D01*
X41140419Y-46519528D01*
X41139537Y-46521556D01*
X41138706Y-46522665D01*
X41138702Y-46522672D01*
X41088408Y-46657517D01*
X41082001Y-46717116D01*
X41082001Y-46717123D01*
X41082000Y-46717135D01*
X41082000Y-47862870D01*
X41082001Y-47862876D01*
X41088408Y-47922483D01*
X41138702Y-48057328D01*
X41138706Y-48057335D01*
X41224952Y-48172544D01*
X41224955Y-48172547D01*
X41340164Y-48258793D01*
X41340171Y-48258797D01*
X41475017Y-48309091D01*
X41475016Y-48309091D01*
X41481944Y-48309835D01*
X41534627Y-48315500D01*
X43130372Y-48315499D01*
X43189983Y-48309091D01*
X43324831Y-48258796D01*
X43440046Y-48172546D01*
X43526296Y-48057331D01*
X43576591Y-47922483D01*
X43583000Y-47862873D01*
X43582999Y-46717128D01*
X43576796Y-46659421D01*
X43576591Y-46657516D01*
X43526297Y-46522671D01*
X43526296Y-46522670D01*
X43526296Y-46522669D01*
X43525467Y-46521562D01*
X43524985Y-46520268D01*
X43522046Y-46514886D01*
X43522819Y-46514463D01*
X43501051Y-46456099D01*
X43510175Y-46399798D01*
X43510299Y-46399500D01*
X43543591Y-46319127D01*
X43583000Y-46121003D01*
X43583000Y-45918997D01*
X43543591Y-45720873D01*
X43466286Y-45534244D01*
X43412294Y-45453439D01*
X43391417Y-45386764D01*
X43409901Y-45319384D01*
X43412296Y-45315658D01*
X43465844Y-45235518D01*
X43465846Y-45235515D01*
X43543109Y-45048983D01*
X43543112Y-45048974D01*
X43552853Y-45000000D01*
X42698366Y-45000000D01*
X42674174Y-44997617D01*
X42658504Y-44994500D01*
X42658503Y-44994500D01*
X42618330Y-44994500D01*
X42632575Y-44980255D01*
X42681944Y-44894745D01*
X42707500Y-44799370D01*
X42707500Y-44700630D01*
X42681944Y-44605255D01*
X42632575Y-44519745D01*
X42612830Y-44500000D01*
X43552853Y-44500000D01*
X43543112Y-44451025D01*
X43543109Y-44451016D01*
X43465847Y-44264486D01*
X43465840Y-44264473D01*
X43353670Y-44096600D01*
X43353667Y-44096596D01*
X43210903Y-43953832D01*
X43210899Y-43953829D01*
X43043026Y-43841659D01*
X43043013Y-43841652D01*
X42856483Y-43764390D01*
X42856474Y-43764387D01*
X42658458Y-43725000D01*
X42582500Y-43725000D01*
X42582500Y-44469670D01*
X42562755Y-44449925D01*
X42477245Y-44400556D01*
X42381870Y-44375000D01*
X42283130Y-44375000D01*
X42187755Y-44400556D01*
X42102245Y-44449925D01*
X42082500Y-44469670D01*
X42082500Y-43725000D01*
X42006541Y-43725000D01*
X41808525Y-43764387D01*
X41808516Y-43764390D01*
X41621986Y-43841652D01*
X41621973Y-43841659D01*
X41454100Y-43953829D01*
X41454096Y-43953832D01*
X41311332Y-44096596D01*
X41311329Y-44096600D01*
X41199159Y-44264473D01*
X41199152Y-44264486D01*
X41121890Y-44451016D01*
X41121887Y-44451025D01*
X41112147Y-44500000D01*
X42052170Y-44500000D01*
X42032425Y-44519745D01*
X41983056Y-44605255D01*
X41957500Y-44700630D01*
X41957500Y-44799370D01*
X41983056Y-44894745D01*
X42032425Y-44980255D01*
X42046670Y-44994500D01*
X42006497Y-44994500D01*
X42006496Y-44994500D01*
X41990826Y-44997617D01*
X41966634Y-45000000D01*
X41112147Y-45000000D01*
X41121887Y-45048974D01*
X41121890Y-45048983D01*
X41199152Y-45235513D01*
X41199159Y-45235526D01*
X41252703Y-45315659D01*
X41273581Y-45382336D01*
X41255097Y-45449716D01*
X41252704Y-45453439D01*
X41198714Y-45534243D01*
X41121409Y-45720872D01*
X41121407Y-45720880D01*
X41082000Y-45918992D01*
X25500500Y-45918992D01*
X25500500Y-29003051D01*
X25500649Y-28996967D01*
X25506458Y-28878712D01*
X25506458Y-28878711D01*
X27149500Y-28878711D01*
X27149500Y-29121288D01*
X27181161Y-29361785D01*
X27243947Y-29596104D01*
X27332966Y-29811015D01*
X27336776Y-29820212D01*
X27458064Y-30030289D01*
X27458066Y-30030292D01*
X27458067Y-30030293D01*
X27605733Y-30222736D01*
X27605739Y-30222743D01*
X27777256Y-30394260D01*
X27777262Y-30394265D01*
X27969711Y-30541936D01*
X28179788Y-30663224D01*
X28403900Y-30756054D01*
X28638211Y-30818838D01*
X28818586Y-30842584D01*
X28878711Y-30850500D01*
X28878712Y-30850500D01*
X29121289Y-30850500D01*
X29169388Y-30844167D01*
X29361789Y-30818838D01*
X29596100Y-30756054D01*
X29610721Y-30749998D01*
X33574532Y-30749998D01*
X33574532Y-30750001D01*
X33594364Y-30976686D01*
X33594366Y-30976697D01*
X33653258Y-31196488D01*
X33653261Y-31196497D01*
X33749431Y-31402732D01*
X33749432Y-31402734D01*
X33879954Y-31589141D01*
X34040858Y-31750045D01*
X34040861Y-31750047D01*
X34227266Y-31880568D01*
X34433504Y-31976739D01*
X34653308Y-32035635D01*
X34815230Y-32049801D01*
X34879998Y-32055468D01*
X34880000Y-32055468D01*
X34880002Y-32055468D01*
X34941391Y-32050097D01*
X35106692Y-32035635D01*
X35326496Y-31976739D01*
X35532734Y-31880568D01*
X35719139Y-31750047D01*
X35880047Y-31589139D01*
X36010568Y-31402734D01*
X36106739Y-31196496D01*
X36165635Y-30976692D01*
X36185468Y-30750000D01*
X36185468Y-30749998D01*
X41194532Y-30749998D01*
X41194532Y-30750001D01*
X41214364Y-30976686D01*
X41214366Y-30976697D01*
X41273258Y-31196488D01*
X41273261Y-31196497D01*
X41369431Y-31402732D01*
X41369432Y-31402734D01*
X41499954Y-31589141D01*
X41660858Y-31750045D01*
X41660861Y-31750047D01*
X41847266Y-31880568D01*
X42053504Y-31976739D01*
X42273308Y-32035635D01*
X42435230Y-32049801D01*
X42499998Y-32055468D01*
X42500000Y-32055468D01*
X42500002Y-32055468D01*
X42561391Y-32050097D01*
X42726692Y-32035635D01*
X42946496Y-31976739D01*
X43152734Y-31880568D01*
X43339139Y-31750047D01*
X43500047Y-31589139D01*
X43630568Y-31402734D01*
X43726739Y-31196496D01*
X43785635Y-30976692D01*
X43805468Y-30750000D01*
X43785635Y-30523308D01*
X43726739Y-30303504D01*
X43630568Y-30097266D01*
X43500047Y-29910861D01*
X43500045Y-29910858D01*
X43339141Y-29749954D01*
X43152734Y-29619432D01*
X43152732Y-29619431D01*
X42946497Y-29523261D01*
X42946488Y-29523258D01*
X42726697Y-29464366D01*
X42726693Y-29464365D01*
X42726692Y-29464365D01*
X42726691Y-29464364D01*
X42726686Y-29464364D01*
X42500002Y-29444532D01*
X42499998Y-29444532D01*
X42273313Y-29464364D01*
X42273302Y-29464366D01*
X42053511Y-29523258D01*
X42053502Y-29523261D01*
X41847267Y-29619431D01*
X41847265Y-29619432D01*
X41660858Y-29749954D01*
X41499954Y-29910858D01*
X41369432Y-30097265D01*
X41369431Y-30097267D01*
X41273261Y-30303502D01*
X41273258Y-30303511D01*
X41214366Y-30523302D01*
X41214364Y-30523313D01*
X41194532Y-30749998D01*
X36185468Y-30749998D01*
X36165635Y-30523308D01*
X36106739Y-30303504D01*
X36010568Y-30097266D01*
X35880047Y-29910861D01*
X35880045Y-29910858D01*
X35719141Y-29749954D01*
X35532734Y-29619432D01*
X35532732Y-29619431D01*
X35326497Y-29523261D01*
X35326488Y-29523258D01*
X35106697Y-29464366D01*
X35106693Y-29464365D01*
X35106692Y-29464365D01*
X35106691Y-29464364D01*
X35106686Y-29464364D01*
X34880002Y-29444532D01*
X34879998Y-29444532D01*
X34653313Y-29464364D01*
X34653302Y-29464366D01*
X34433511Y-29523258D01*
X34433502Y-29523261D01*
X34227267Y-29619431D01*
X34227265Y-29619432D01*
X34040858Y-29749954D01*
X33879954Y-29910858D01*
X33749432Y-30097265D01*
X33749431Y-30097267D01*
X33653261Y-30303502D01*
X33653258Y-30303511D01*
X33594366Y-30523302D01*
X33594364Y-30523313D01*
X33574532Y-30749998D01*
X29610721Y-30749998D01*
X29820212Y-30663224D01*
X30030289Y-30541936D01*
X30222738Y-30394265D01*
X30394265Y-30222738D01*
X30541936Y-30030289D01*
X30663224Y-29820212D01*
X30756054Y-29596100D01*
X30818838Y-29361789D01*
X30850500Y-29121288D01*
X30850500Y-28878712D01*
X30818838Y-28638211D01*
X30765727Y-28439999D01*
X45971127Y-28439999D01*
X45971128Y-28440000D01*
X46934314Y-28440000D01*
X46929920Y-28444394D01*
X46877259Y-28535606D01*
X46850000Y-28637339D01*
X46850000Y-28742661D01*
X46877259Y-28844394D01*
X46929920Y-28935606D01*
X46934314Y-28940000D01*
X45971128Y-28940000D01*
X46023730Y-29136317D01*
X46023734Y-29136326D01*
X46119865Y-29342482D01*
X46250342Y-29528820D01*
X46411179Y-29689657D01*
X46597517Y-29820134D01*
X46803673Y-29916265D01*
X46803682Y-29916269D01*
X46999999Y-29968872D01*
X47000000Y-29968871D01*
X47000000Y-29005686D01*
X47004394Y-29010080D01*
X47095606Y-29062741D01*
X47197339Y-29090000D01*
X47302661Y-29090000D01*
X47404394Y-29062741D01*
X47495606Y-29010080D01*
X47500000Y-29005686D01*
X47500000Y-29968872D01*
X47696317Y-29916269D01*
X47696326Y-29916265D01*
X47902482Y-29820134D01*
X48088820Y-29689657D01*
X48249657Y-29528820D01*
X48380134Y-29342482D01*
X48476265Y-29136326D01*
X48476269Y-29136317D01*
X48528872Y-28940000D01*
X47565686Y-28940000D01*
X47570080Y-28935606D01*
X47622741Y-28844394D01*
X47650000Y-28742661D01*
X47650000Y-28637339D01*
X47622741Y-28535606D01*
X47570080Y-28444394D01*
X47565686Y-28440000D01*
X48528872Y-28440000D01*
X48528872Y-28439999D01*
X48476269Y-28243682D01*
X48476265Y-28243673D01*
X48451237Y-28189999D01*
X51971127Y-28189999D01*
X51971128Y-28190000D01*
X52934314Y-28190000D01*
X52929920Y-28194394D01*
X52877259Y-28285606D01*
X52850000Y-28387339D01*
X52850000Y-28492661D01*
X52877259Y-28594394D01*
X52929920Y-28685606D01*
X52934314Y-28690000D01*
X51971128Y-28690000D01*
X52023730Y-28886317D01*
X52023734Y-28886326D01*
X52119865Y-29092482D01*
X52250342Y-29278820D01*
X52411179Y-29439657D01*
X52597517Y-29570134D01*
X52803673Y-29666265D01*
X52803682Y-29666269D01*
X52999999Y-29718872D01*
X53000000Y-29718871D01*
X53000000Y-28755686D01*
X53004394Y-28760080D01*
X53095606Y-28812741D01*
X53197339Y-28840000D01*
X53302661Y-28840000D01*
X53404394Y-28812741D01*
X53495606Y-28760080D01*
X53500000Y-28755686D01*
X53500000Y-29718872D01*
X53696317Y-29666269D01*
X53696326Y-29666265D01*
X53902482Y-29570134D01*
X54088820Y-29439657D01*
X54249657Y-29278820D01*
X54380134Y-29092482D01*
X54476265Y-28886326D01*
X54476269Y-28886317D01*
X54528872Y-28690000D01*
X53565686Y-28690000D01*
X53570080Y-28685606D01*
X53622741Y-28594394D01*
X53650000Y-28492661D01*
X53650000Y-28439998D01*
X56194532Y-28439998D01*
X56194532Y-28440000D01*
X56214364Y-28666686D01*
X56214366Y-28666697D01*
X56273258Y-28886488D01*
X56273261Y-28886497D01*
X56369431Y-29092732D01*
X56369432Y-29092734D01*
X56499954Y-29279141D01*
X56660858Y-29440045D01*
X56660861Y-29440047D01*
X56847266Y-29570568D01*
X57053504Y-29666739D01*
X57273308Y-29725635D01*
X57435230Y-29739801D01*
X57499998Y-29745468D01*
X57500000Y-29745468D01*
X57500002Y-29745468D01*
X57556673Y-29740509D01*
X57726692Y-29725635D01*
X57946496Y-29666739D01*
X58152734Y-29570568D01*
X58339139Y-29440047D01*
X58500047Y-29279139D01*
X58630568Y-29092734D01*
X58726739Y-28886496D01*
X58785635Y-28666692D01*
X58805468Y-28440000D01*
X58805468Y-28439998D01*
X60944532Y-28439998D01*
X60944532Y-28440000D01*
X60964364Y-28666686D01*
X60964366Y-28666697D01*
X61023258Y-28886488D01*
X61023261Y-28886497D01*
X61119431Y-29092732D01*
X61119432Y-29092734D01*
X61249954Y-29279141D01*
X61410858Y-29440045D01*
X61410861Y-29440047D01*
X61597266Y-29570568D01*
X61803504Y-29666739D01*
X62023308Y-29725635D01*
X62185230Y-29739801D01*
X62249998Y-29745468D01*
X62250000Y-29745468D01*
X62250002Y-29745468D01*
X62306673Y-29740509D01*
X62476692Y-29725635D01*
X62696496Y-29666739D01*
X62902734Y-29570568D01*
X63089139Y-29440047D01*
X63250047Y-29279139D01*
X63380568Y-29092734D01*
X63476739Y-28886496D01*
X63535635Y-28666692D01*
X63555468Y-28440000D01*
X63535635Y-28213308D01*
X63476739Y-27993504D01*
X63380568Y-27787266D01*
X63250047Y-27600861D01*
X63250045Y-27600858D01*
X63089141Y-27439954D01*
X62902734Y-27309432D01*
X62902732Y-27309431D01*
X62696497Y-27213261D01*
X62696488Y-27213258D01*
X62476697Y-27154366D01*
X62476693Y-27154365D01*
X62476692Y-27154365D01*
X62476691Y-27154364D01*
X62476686Y-27154364D01*
X62250002Y-27134532D01*
X62249998Y-27134532D01*
X62023313Y-27154364D01*
X62023302Y-27154366D01*
X61803511Y-27213258D01*
X61803502Y-27213261D01*
X61597267Y-27309431D01*
X61597265Y-27309432D01*
X61410858Y-27439954D01*
X61249954Y-27600858D01*
X61119432Y-27787265D01*
X61119431Y-27787267D01*
X61023261Y-27993502D01*
X61023258Y-27993511D01*
X60964366Y-28213302D01*
X60964364Y-28213313D01*
X60944532Y-28439998D01*
X58805468Y-28439998D01*
X58785635Y-28213308D01*
X58726739Y-27993504D01*
X58630568Y-27787266D01*
X58500047Y-27600861D01*
X58500045Y-27600858D01*
X58339141Y-27439954D01*
X58152734Y-27309432D01*
X58152732Y-27309431D01*
X57946497Y-27213261D01*
X57946488Y-27213258D01*
X57726697Y-27154366D01*
X57726693Y-27154365D01*
X57726692Y-27154365D01*
X57726691Y-27154364D01*
X57726686Y-27154364D01*
X57500002Y-27134532D01*
X57499998Y-27134532D01*
X57273313Y-27154364D01*
X57273302Y-27154366D01*
X57053511Y-27213258D01*
X57053502Y-27213261D01*
X56847267Y-27309431D01*
X56847265Y-27309432D01*
X56660858Y-27439954D01*
X56499954Y-27600858D01*
X56369432Y-27787265D01*
X56369431Y-27787267D01*
X56273261Y-27993502D01*
X56273258Y-27993511D01*
X56214366Y-28213302D01*
X56214364Y-28213313D01*
X56194532Y-28439998D01*
X53650000Y-28439998D01*
X53650000Y-28387339D01*
X53622741Y-28285606D01*
X53570080Y-28194394D01*
X53565686Y-28190000D01*
X54528872Y-28190000D01*
X54528872Y-28189999D01*
X54476269Y-27993682D01*
X54476265Y-27993673D01*
X54380134Y-27787517D01*
X54249657Y-27601179D01*
X54088820Y-27440342D01*
X53902482Y-27309865D01*
X53696328Y-27213734D01*
X53500000Y-27161127D01*
X53500000Y-28124314D01*
X53495606Y-28119920D01*
X53404394Y-28067259D01*
X53302661Y-28040000D01*
X53197339Y-28040000D01*
X53095606Y-28067259D01*
X53004394Y-28119920D01*
X53000000Y-28124314D01*
X53000000Y-27161127D01*
X52803671Y-27213734D01*
X52597517Y-27309865D01*
X52411179Y-27440342D01*
X52250342Y-27601179D01*
X52119865Y-27787517D01*
X52023734Y-27993673D01*
X52023730Y-27993682D01*
X51971127Y-28189999D01*
X48451237Y-28189999D01*
X48380134Y-28037517D01*
X48249657Y-27851179D01*
X48088820Y-27690342D01*
X47902482Y-27559865D01*
X47696328Y-27463734D01*
X47500000Y-27411127D01*
X47500000Y-28374314D01*
X47495606Y-28369920D01*
X47404394Y-28317259D01*
X47302661Y-28290000D01*
X47197339Y-28290000D01*
X47095606Y-28317259D01*
X47004394Y-28369920D01*
X47000000Y-28374314D01*
X47000000Y-27411127D01*
X46803671Y-27463734D01*
X46597517Y-27559865D01*
X46411179Y-27690342D01*
X46250342Y-27851179D01*
X46119865Y-28037517D01*
X46023734Y-28243673D01*
X46023730Y-28243682D01*
X45971127Y-28439999D01*
X30765727Y-28439999D01*
X30756054Y-28403900D01*
X30663224Y-28179788D01*
X30541936Y-27969711D01*
X30401942Y-27787267D01*
X30394266Y-27777263D01*
X30394260Y-27777256D01*
X30222743Y-27605739D01*
X30222736Y-27605733D01*
X30030293Y-27458067D01*
X30030292Y-27458066D01*
X30030289Y-27458064D01*
X29820212Y-27336776D01*
X29774714Y-27317930D01*
X29596104Y-27243947D01*
X29478944Y-27212554D01*
X29361789Y-27181162D01*
X29361788Y-27181161D01*
X29361785Y-27181161D01*
X29121289Y-27149500D01*
X29121288Y-27149500D01*
X28878712Y-27149500D01*
X28878711Y-27149500D01*
X28638214Y-27181161D01*
X28403895Y-27243947D01*
X28179794Y-27336773D01*
X28179785Y-27336777D01*
X27969706Y-27458067D01*
X27777263Y-27605733D01*
X27777256Y-27605739D01*
X27605739Y-27777256D01*
X27605733Y-27777263D01*
X27458067Y-27969706D01*
X27336777Y-28179785D01*
X27336773Y-28179794D01*
X27243947Y-28403895D01*
X27181161Y-28638214D01*
X27149500Y-28878711D01*
X25506458Y-28878711D01*
X25517052Y-28663068D01*
X25518245Y-28650962D01*
X25541727Y-28492661D01*
X25566849Y-28323296D01*
X25569218Y-28311385D01*
X25649710Y-27990043D01*
X25653240Y-27978411D01*
X25668613Y-27935446D01*
X25764835Y-27666525D01*
X25769476Y-27655318D01*
X25911124Y-27355828D01*
X25916840Y-27345136D01*
X26087145Y-27060998D01*
X26093888Y-27050905D01*
X26291232Y-26784818D01*
X26298935Y-26775433D01*
X26521405Y-26529975D01*
X26529975Y-26521405D01*
X26775433Y-26298935D01*
X26784818Y-26291232D01*
X27050905Y-26093888D01*
X27060998Y-26087145D01*
X27345136Y-25916840D01*
X27355828Y-25911124D01*
X27655318Y-25769476D01*
X27666525Y-25764835D01*
X27978412Y-25653239D01*
X27990043Y-25649710D01*
X28311385Y-25569218D01*
X28323296Y-25566849D01*
X28650962Y-25518244D01*
X28663068Y-25517052D01*
X28996967Y-25500648D01*
X29003051Y-25500500D01*
X29065892Y-25500500D01*
X79332026Y-25500500D01*
X79399065Y-25520185D01*
G37*
G04 #@! TD.AperFunction*
G04 #@! TA.AperFunction,Conductor*
G36*
X86003032Y-25500648D02*
G01*
X86336929Y-25517052D01*
X86349037Y-25518245D01*
X86362116Y-25520185D01*
X86676699Y-25566849D01*
X86688617Y-25569219D01*
X87009951Y-25649709D01*
X87021588Y-25653240D01*
X87092806Y-25678722D01*
X87333467Y-25764832D01*
X87344688Y-25769479D01*
X87644163Y-25911120D01*
X87654871Y-25916844D01*
X87926598Y-26079711D01*
X87938988Y-26087137D01*
X87949103Y-26093895D01*
X88110113Y-26213308D01*
X88215170Y-26291224D01*
X88224576Y-26298944D01*
X88470013Y-26521395D01*
X88478604Y-26529986D01*
X88665755Y-26736475D01*
X88701055Y-26775423D01*
X88708775Y-26784829D01*
X88906102Y-27050893D01*
X88912862Y-27061011D01*
X89078149Y-27336777D01*
X89083148Y-27345116D01*
X89088883Y-27355844D01*
X89223094Y-27639610D01*
X89230514Y-27655297D01*
X89235170Y-27666540D01*
X89346759Y-27978411D01*
X89350292Y-27990055D01*
X89430777Y-28311369D01*
X89433151Y-28323305D01*
X89481754Y-28650962D01*
X89482947Y-28663071D01*
X89499351Y-28996966D01*
X89499500Y-29003051D01*
X89499500Y-45626000D01*
X89479815Y-45693039D01*
X89427011Y-45738794D01*
X89375500Y-45750000D01*
X83874000Y-45750000D01*
X83806961Y-45730315D01*
X83761206Y-45677511D01*
X83750000Y-45626000D01*
X83750000Y-42750000D01*
X74040020Y-42750000D01*
X73972981Y-42730315D01*
X73927226Y-42677511D01*
X73917282Y-42608353D01*
X73946307Y-42544797D01*
X73952339Y-42538319D01*
X78647819Y-37842838D01*
X78709142Y-37809353D01*
X78778834Y-37814337D01*
X78834767Y-37856209D01*
X78859184Y-37921673D01*
X78859500Y-37930519D01*
X78859500Y-38157884D01*
X78839815Y-38224923D01*
X78787011Y-38270678D01*
X78778834Y-38274066D01*
X78692669Y-38306203D01*
X78692664Y-38306206D01*
X78577455Y-38392452D01*
X78577452Y-38392455D01*
X78491206Y-38507664D01*
X78491202Y-38507671D01*
X78440908Y-38642517D01*
X78434501Y-38702116D01*
X78434500Y-38702135D01*
X78434500Y-40297870D01*
X78434501Y-40297876D01*
X78440908Y-40357483D01*
X78491202Y-40492328D01*
X78491206Y-40492335D01*
X78577452Y-40607544D01*
X78577455Y-40607547D01*
X78692664Y-40693793D01*
X78692671Y-40693797D01*
X78827517Y-40744091D01*
X78827516Y-40744091D01*
X78834444Y-40744835D01*
X78887127Y-40750500D01*
X80032872Y-40750499D01*
X80092483Y-40744091D01*
X80227331Y-40693796D01*
X80228430Y-40692972D01*
X80229717Y-40692492D01*
X80235112Y-40689547D01*
X80235535Y-40690322D01*
X80293887Y-40668552D01*
X80350198Y-40677673D01*
X80430873Y-40711091D01*
X80596777Y-40744091D01*
X80628992Y-40750499D01*
X80628996Y-40750500D01*
X80628997Y-40750500D01*
X80831004Y-40750500D01*
X80831005Y-40750499D01*
X81029127Y-40711091D01*
X81215756Y-40633786D01*
X81296562Y-40579792D01*
X81363234Y-40558917D01*
X81430614Y-40577401D01*
X81434340Y-40579795D01*
X81514479Y-40633343D01*
X81514486Y-40633347D01*
X81701016Y-40710609D01*
X81701025Y-40710612D01*
X81750000Y-40720353D01*
X81750000Y-39865865D01*
X81752383Y-39841671D01*
X81755500Y-39826002D01*
X81755500Y-39785830D01*
X81769745Y-39800075D01*
X81855255Y-39849444D01*
X81950630Y-39875000D01*
X82049370Y-39875000D01*
X82144745Y-39849444D01*
X82230255Y-39800075D01*
X82250000Y-39780330D01*
X82250000Y-40720352D01*
X82298974Y-40710612D01*
X82298983Y-40710609D01*
X82485513Y-40633347D01*
X82485526Y-40633340D01*
X82653399Y-40521170D01*
X82653403Y-40521167D01*
X82796167Y-40378403D01*
X82796170Y-40378399D01*
X82908340Y-40210526D01*
X82908347Y-40210513D01*
X82985609Y-40023983D01*
X82985612Y-40023974D01*
X83024999Y-39825958D01*
X83025000Y-39825955D01*
X83025000Y-39750000D01*
X82280330Y-39750000D01*
X82300075Y-39730255D01*
X82349444Y-39644745D01*
X82375000Y-39549370D01*
X82375000Y-39450630D01*
X82349444Y-39355255D01*
X82300075Y-39269745D01*
X82280330Y-39250000D01*
X83025000Y-39250000D01*
X83025000Y-39174045D01*
X83024999Y-39174041D01*
X82985612Y-38976025D01*
X82985609Y-38976016D01*
X82908347Y-38789486D01*
X82908340Y-38789473D01*
X82796170Y-38621600D01*
X82796167Y-38621596D01*
X82653403Y-38478832D01*
X82653399Y-38478829D01*
X82485526Y-38366659D01*
X82485513Y-38366652D01*
X82298984Y-38289390D01*
X82298977Y-38289388D01*
X82250000Y-38279645D01*
X82250000Y-39219670D01*
X82230255Y-39199925D01*
X82144745Y-39150556D01*
X82049370Y-39125000D01*
X81950630Y-39125000D01*
X81855255Y-39150556D01*
X81769745Y-39199925D01*
X81755500Y-39214170D01*
X81755500Y-39173996D01*
X81755499Y-39173995D01*
X81752383Y-39158326D01*
X81750000Y-39134134D01*
X81750000Y-38279646D01*
X81749999Y-38279645D01*
X81701022Y-38289388D01*
X81701015Y-38289390D01*
X81514481Y-38366654D01*
X81514479Y-38366655D01*
X81434337Y-38420204D01*
X81367660Y-38441081D01*
X81300280Y-38422596D01*
X81296558Y-38420204D01*
X81215754Y-38366212D01*
X81029127Y-38288909D01*
X81029119Y-38288907D01*
X80831007Y-38249500D01*
X80831003Y-38249500D01*
X80628997Y-38249500D01*
X80628992Y-38249500D01*
X80430880Y-38288907D01*
X80430868Y-38288910D01*
X80350198Y-38322325D01*
X80280729Y-38329794D01*
X80235342Y-38310036D01*
X80235114Y-38310454D01*
X80230447Y-38307905D01*
X80228432Y-38307028D01*
X80227331Y-38306204D01*
X80227329Y-38306203D01*
X80141166Y-38274066D01*
X80085233Y-38232194D01*
X80060816Y-38166730D01*
X80060500Y-38157884D01*
X80060500Y-37590096D01*
X80080185Y-37523057D01*
X80096814Y-37502420D01*
X80349235Y-37249999D01*
X85168935Y-37249999D01*
X85168935Y-37250000D01*
X85189156Y-37481132D01*
X85189158Y-37481142D01*
X85249205Y-37705243D01*
X85249207Y-37705247D01*
X85249208Y-37705251D01*
X85289813Y-37792328D01*
X85347263Y-37915532D01*
X85360027Y-37933760D01*
X85480345Y-38105592D01*
X85644408Y-38269655D01*
X85834467Y-38402736D01*
X85844937Y-38407618D01*
X85897376Y-38453791D01*
X85916528Y-38520984D01*
X85896312Y-38587865D01*
X85844940Y-38632380D01*
X85841540Y-38633966D01*
X85834465Y-38637265D01*
X85834463Y-38637266D01*
X85644406Y-38770345D01*
X85480345Y-38934406D01*
X85347266Y-39124463D01*
X85347264Y-39124467D01*
X85249209Y-39334747D01*
X85249205Y-39334756D01*
X85189158Y-39558857D01*
X85189156Y-39558867D01*
X85168935Y-39789999D01*
X85168935Y-39790000D01*
X85189156Y-40021132D01*
X85189158Y-40021142D01*
X85249205Y-40245243D01*
X85249207Y-40245247D01*
X85249208Y-40245251D01*
X85298236Y-40350392D01*
X85347263Y-40455532D01*
X85373028Y-40492328D01*
X85480345Y-40645592D01*
X85644408Y-40809655D01*
X85834467Y-40942736D01*
X85845529Y-40947894D01*
X85897968Y-40994066D01*
X85917120Y-41061260D01*
X85896904Y-41128141D01*
X85845532Y-41172657D01*
X85834714Y-41177701D01*
X85756218Y-41232664D01*
X85756217Y-41232665D01*
X86312210Y-41788657D01*
X86279409Y-41797447D01*
X86149091Y-41872687D01*
X86042687Y-41979091D01*
X85967447Y-42109409D01*
X85958657Y-42142209D01*
X85402665Y-41586217D01*
X85402664Y-41586218D01*
X85347701Y-41664715D01*
X85249681Y-41874917D01*
X85189651Y-42098948D01*
X85189650Y-42098955D01*
X85169437Y-42329998D01*
X85169437Y-42330001D01*
X85189650Y-42561044D01*
X85189651Y-42561051D01*
X85249678Y-42785074D01*
X85249681Y-42785080D01*
X85347699Y-42995281D01*
X85402665Y-43073781D01*
X85958657Y-42517789D01*
X85967447Y-42550591D01*
X86042687Y-42680909D01*
X86149091Y-42787313D01*
X86279409Y-42862553D01*
X86312210Y-42871342D01*
X85756218Y-43427333D01*
X85834718Y-43482301D01*
X86044919Y-43580318D01*
X86044925Y-43580321D01*
X86268948Y-43640348D01*
X86268955Y-43640349D01*
X86499998Y-43660563D01*
X86500002Y-43660563D01*
X86731044Y-43640349D01*
X86731051Y-43640348D01*
X86955074Y-43580321D01*
X86955085Y-43580317D01*
X87165279Y-43482302D01*
X87165283Y-43482300D01*
X87243780Y-43427333D01*
X86687789Y-42871342D01*
X86720591Y-42862553D01*
X86850909Y-42787313D01*
X86957313Y-42680909D01*
X87032553Y-42550591D01*
X87041342Y-42517789D01*
X87597333Y-43073780D01*
X87652300Y-42995283D01*
X87652302Y-42995279D01*
X87750317Y-42785085D01*
X87750321Y-42785074D01*
X87810348Y-42561051D01*
X87810349Y-42561044D01*
X87830563Y-42330001D01*
X87830563Y-42329998D01*
X87810349Y-42098955D01*
X87810348Y-42098948D01*
X87750318Y-41874917D01*
X87652300Y-41664719D01*
X87597333Y-41586217D01*
X87041341Y-42142209D01*
X87032553Y-42109409D01*
X86957313Y-41979091D01*
X86850909Y-41872687D01*
X86720591Y-41797447D01*
X86687789Y-41788657D01*
X87243781Y-41232665D01*
X87165280Y-41177698D01*
X87154473Y-41172659D01*
X87102032Y-41126488D01*
X87082879Y-41059295D01*
X87103093Y-40992413D01*
X87154472Y-40947893D01*
X87165533Y-40942736D01*
X87355592Y-40809655D01*
X87519655Y-40645592D01*
X87652736Y-40455533D01*
X87750792Y-40245251D01*
X87810843Y-40021137D01*
X87831065Y-39790000D01*
X87810843Y-39558863D01*
X87750792Y-39334749D01*
X87652736Y-39124468D01*
X87652734Y-39124465D01*
X87652733Y-39124463D01*
X87519654Y-38934406D01*
X87355596Y-38770349D01*
X87355592Y-38770345D01*
X87165533Y-38637264D01*
X87155064Y-38632382D01*
X87102624Y-38586212D01*
X87083471Y-38519019D01*
X87103685Y-38452137D01*
X87155064Y-38407617D01*
X87165533Y-38402736D01*
X87355592Y-38269655D01*
X87519655Y-38105592D01*
X87652736Y-37915533D01*
X87750792Y-37705251D01*
X87810843Y-37481137D01*
X87831065Y-37250000D01*
X87810843Y-37018863D01*
X87750792Y-36794749D01*
X87652736Y-36584468D01*
X87652734Y-36584465D01*
X87652733Y-36584463D01*
X87519654Y-36394406D01*
X87355596Y-36230349D01*
X87355592Y-36230345D01*
X87165533Y-36097264D01*
X87165534Y-36097264D01*
X87165532Y-36097263D01*
X87060392Y-36048236D01*
X86955251Y-35999208D01*
X86955247Y-35999207D01*
X86955243Y-35999205D01*
X86731142Y-35939158D01*
X86731132Y-35939156D01*
X86500001Y-35918935D01*
X86499999Y-35918935D01*
X86268867Y-35939156D01*
X86268857Y-35939158D01*
X86044756Y-35999205D01*
X86044747Y-35999209D01*
X85834467Y-36097264D01*
X85834463Y-36097266D01*
X85644406Y-36230345D01*
X85480345Y-36394406D01*
X85347266Y-36584463D01*
X85347264Y-36584467D01*
X85249209Y-36794747D01*
X85249205Y-36794756D01*
X85189158Y-37018857D01*
X85189156Y-37018867D01*
X85168935Y-37249999D01*
X80349235Y-37249999D01*
X82858506Y-34740727D01*
X82858511Y-34740724D01*
X82868714Y-34730520D01*
X82868716Y-34730520D01*
X82980520Y-34618716D01*
X82994242Y-34594949D01*
X83049958Y-34498446D01*
X83049959Y-34498443D01*
X83059577Y-34481785D01*
X83100500Y-34329058D01*
X83100500Y-34170943D01*
X83100500Y-31839060D01*
X83100501Y-31839047D01*
X83100501Y-31670944D01*
X83100501Y-31670943D01*
X83059577Y-31518216D01*
X83059573Y-31518209D01*
X82980524Y-31381290D01*
X82980518Y-31381282D01*
X80477946Y-28878711D01*
X84149500Y-28878711D01*
X84149500Y-29121288D01*
X84181161Y-29361785D01*
X84243947Y-29596104D01*
X84332966Y-29811015D01*
X84336776Y-29820212D01*
X84458064Y-30030289D01*
X84458066Y-30030292D01*
X84458067Y-30030293D01*
X84605733Y-30222736D01*
X84605739Y-30222743D01*
X84777256Y-30394260D01*
X84777262Y-30394265D01*
X84969711Y-30541936D01*
X85179788Y-30663224D01*
X85403900Y-30756054D01*
X85638211Y-30818838D01*
X85818586Y-30842584D01*
X85878711Y-30850500D01*
X85878712Y-30850500D01*
X86121289Y-30850500D01*
X86169388Y-30844167D01*
X86361789Y-30818838D01*
X86596100Y-30756054D01*
X86820212Y-30663224D01*
X87030289Y-30541936D01*
X87222738Y-30394265D01*
X87394265Y-30222738D01*
X87541936Y-30030289D01*
X87663224Y-29820212D01*
X87756054Y-29596100D01*
X87818838Y-29361789D01*
X87850500Y-29121288D01*
X87850500Y-28878712D01*
X87818838Y-28638211D01*
X87756054Y-28403900D01*
X87663224Y-28179788D01*
X87541936Y-27969711D01*
X87401942Y-27787267D01*
X87394266Y-27777263D01*
X87394260Y-27777256D01*
X87222743Y-27605739D01*
X87222736Y-27605733D01*
X87030293Y-27458067D01*
X87030292Y-27458066D01*
X87030289Y-27458064D01*
X86820212Y-27336776D01*
X86774714Y-27317930D01*
X86596104Y-27243947D01*
X86478944Y-27212554D01*
X86361789Y-27181162D01*
X86361788Y-27181161D01*
X86361785Y-27181161D01*
X86121289Y-27149500D01*
X86121288Y-27149500D01*
X85878712Y-27149500D01*
X85878711Y-27149500D01*
X85638214Y-27181161D01*
X85403895Y-27243947D01*
X85179794Y-27336773D01*
X85179785Y-27336777D01*
X84969706Y-27458067D01*
X84777263Y-27605733D01*
X84777256Y-27605739D01*
X84605739Y-27777256D01*
X84605733Y-27777263D01*
X84458067Y-27969706D01*
X84336777Y-28179785D01*
X84336773Y-28179794D01*
X84243947Y-28403895D01*
X84181161Y-28638214D01*
X84149500Y-28878711D01*
X80477946Y-28878711D01*
X79987590Y-28388355D01*
X79987588Y-28388352D01*
X79868715Y-28269479D01*
X79824016Y-28243673D01*
X79787431Y-28222550D01*
X79739216Y-28171985D01*
X79725992Y-28103378D01*
X79751960Y-28038513D01*
X79761742Y-28027491D01*
X80057294Y-27731939D01*
X80118615Y-27698456D01*
X80177066Y-27699847D01*
X80196604Y-27705082D01*
X80273308Y-27725635D01*
X80435230Y-27739801D01*
X80499998Y-27745468D01*
X80500000Y-27745468D01*
X80500002Y-27745468D01*
X80556673Y-27740509D01*
X80726692Y-27725635D01*
X80946496Y-27666739D01*
X81152734Y-27570568D01*
X81339139Y-27440047D01*
X81500047Y-27279139D01*
X81630568Y-27092734D01*
X81726739Y-26886496D01*
X81785635Y-26666692D01*
X81805468Y-26440000D01*
X81785635Y-26213308D01*
X81726739Y-25993504D01*
X81630568Y-25787266D01*
X81566398Y-25695621D01*
X81544072Y-25629417D01*
X81561082Y-25561650D01*
X81612030Y-25513837D01*
X81667974Y-25500500D01*
X85934108Y-25500500D01*
X85996949Y-25500500D01*
X86003032Y-25500648D01*
G37*
G04 #@! TD.AperFunction*
G04 #@! TA.AperFunction,Conductor*
G36*
X78103347Y-29350501D02*
G01*
X78110943Y-29350501D01*
X78276653Y-29350501D01*
X78276669Y-29350500D01*
X79199903Y-29350500D01*
X79266942Y-29370185D01*
X79287584Y-29386819D01*
X81863181Y-31962416D01*
X81896666Y-32023739D01*
X81899500Y-32050097D01*
X81899500Y-33424664D01*
X81879815Y-33491703D01*
X81827011Y-33537458D01*
X81757853Y-33547402D01*
X81694297Y-33518377D01*
X81663118Y-33477069D01*
X81630568Y-33407267D01*
X81630567Y-33407265D01*
X81500045Y-33220858D01*
X81339141Y-33059954D01*
X81152734Y-32929432D01*
X81152732Y-32929431D01*
X80946497Y-32833261D01*
X80946488Y-32833258D01*
X80726697Y-32774366D01*
X80726693Y-32774365D01*
X80726692Y-32774365D01*
X80726691Y-32774364D01*
X80726686Y-32774364D01*
X80500002Y-32754532D01*
X80499998Y-32754532D01*
X80273313Y-32774364D01*
X80273302Y-32774366D01*
X80053511Y-32833258D01*
X80053502Y-32833261D01*
X79847267Y-32929431D01*
X79847265Y-32929432D01*
X79660858Y-33059954D01*
X79499954Y-33220858D01*
X79369432Y-33407265D01*
X79369431Y-33407267D01*
X79273261Y-33613502D01*
X79273258Y-33613511D01*
X79214366Y-33833302D01*
X79214364Y-33833313D01*
X79194532Y-34059998D01*
X79194532Y-34060001D01*
X79214364Y-34286686D01*
X79214366Y-34286697D01*
X79273258Y-34506488D01*
X79273261Y-34506497D01*
X79369431Y-34712732D01*
X79369432Y-34712734D01*
X79485678Y-34878753D01*
X79508006Y-34944960D01*
X79490994Y-35012727D01*
X79471784Y-35037557D01*
X73246162Y-41263181D01*
X73184839Y-41296666D01*
X73158481Y-41299500D01*
X62364752Y-41299500D01*
X62297713Y-41279815D01*
X62251958Y-41227011D01*
X62242014Y-41157853D01*
X62271039Y-41094297D01*
X62293629Y-41073925D01*
X62314523Y-41059295D01*
X62399139Y-41000047D01*
X62560047Y-40839139D01*
X62690568Y-40652734D01*
X62786739Y-40446496D01*
X62845635Y-40226692D01*
X62865468Y-40000000D01*
X62865223Y-39997204D01*
X62852296Y-39849444D01*
X62845635Y-39773308D01*
X62786739Y-39553504D01*
X62690568Y-39347266D01*
X62585589Y-39197339D01*
X62560045Y-39160858D01*
X62399141Y-38999954D01*
X62212734Y-38869432D01*
X62212732Y-38869431D01*
X62006497Y-38773261D01*
X62006488Y-38773258D01*
X61786697Y-38714366D01*
X61786693Y-38714365D01*
X61786692Y-38714365D01*
X61786691Y-38714364D01*
X61786686Y-38714364D01*
X61560002Y-38694532D01*
X61559998Y-38694532D01*
X61333313Y-38714364D01*
X61333302Y-38714366D01*
X61113511Y-38773258D01*
X61113502Y-38773261D01*
X60907267Y-38869431D01*
X60907265Y-38869432D01*
X60720858Y-38999954D01*
X60559954Y-39160858D01*
X60429432Y-39347265D01*
X60429431Y-39347267D01*
X60333261Y-39553502D01*
X60333258Y-39553511D01*
X60274366Y-39773302D01*
X60274364Y-39773313D01*
X60254532Y-39999998D01*
X60254532Y-40000001D01*
X60274364Y-40226686D01*
X60274366Y-40226697D01*
X60333258Y-40446488D01*
X60333261Y-40446497D01*
X60429431Y-40652732D01*
X60429432Y-40652734D01*
X60559954Y-40839141D01*
X60720858Y-41000045D01*
X60720861Y-41000047D01*
X60779051Y-41040792D01*
X60826371Y-41073925D01*
X60869996Y-41128501D01*
X60877190Y-41197999D01*
X60845668Y-41260354D01*
X60785438Y-41295769D01*
X60755248Y-41299500D01*
X54744752Y-41299500D01*
X54677713Y-41279815D01*
X54631958Y-41227011D01*
X54622014Y-41157853D01*
X54651039Y-41094297D01*
X54673629Y-41073925D01*
X54694523Y-41059295D01*
X54779139Y-41000047D01*
X54940047Y-40839139D01*
X55070568Y-40652734D01*
X55166739Y-40446496D01*
X55225635Y-40226692D01*
X55245468Y-40000000D01*
X55245223Y-39997204D01*
X55232296Y-39849444D01*
X55225635Y-39773308D01*
X55166739Y-39553504D01*
X55070568Y-39347266D01*
X54965589Y-39197339D01*
X54940043Y-39160855D01*
X54936566Y-39156711D01*
X54937810Y-39155666D01*
X54907883Y-39100858D01*
X54912867Y-39031166D01*
X54954739Y-38975233D01*
X55020203Y-38950816D01*
X55029049Y-38950500D01*
X60128996Y-38950500D01*
X60232455Y-38929920D01*
X60264328Y-38923580D01*
X60329833Y-38896447D01*
X60391807Y-38870777D01*
X60391808Y-38870776D01*
X60391811Y-38870775D01*
X60506543Y-38794114D01*
X61919630Y-37381025D01*
X61980951Y-37347542D01*
X62018117Y-37345180D01*
X62023303Y-37345633D01*
X62023308Y-37345635D01*
X62228263Y-37363566D01*
X62249999Y-37365468D01*
X62250000Y-37365468D01*
X62250002Y-37365468D01*
X62306673Y-37360509D01*
X62476692Y-37345635D01*
X62696496Y-37286739D01*
X62902734Y-37190568D01*
X63089139Y-37060047D01*
X63250047Y-36899139D01*
X63310098Y-36813377D01*
X63364675Y-36769752D01*
X63411673Y-36760500D01*
X71075501Y-36760500D01*
X71142540Y-36780185D01*
X71188295Y-36832989D01*
X71199501Y-36884500D01*
X71199501Y-37597876D01*
X71205908Y-37657483D01*
X71256202Y-37792328D01*
X71256206Y-37792335D01*
X71342452Y-37907544D01*
X71342455Y-37907547D01*
X71457664Y-37993793D01*
X71457671Y-37993797D01*
X71502618Y-38010561D01*
X71592517Y-38044091D01*
X71652127Y-38050500D01*
X71652153Y-38050499D01*
X71655453Y-38050678D01*
X71655372Y-38052183D01*
X71716672Y-38070112D01*
X71762483Y-38122867D01*
X71770016Y-38166464D01*
X72453553Y-38850000D01*
X72447339Y-38850000D01*
X72345606Y-38877259D01*
X72254394Y-38929920D01*
X72179920Y-39004394D01*
X72127259Y-39095606D01*
X72100000Y-39197339D01*
X72100000Y-39203552D01*
X71420974Y-38524526D01*
X71420973Y-38524526D01*
X71369868Y-38597512D01*
X71369866Y-38597516D01*
X71273734Y-38803673D01*
X71273730Y-38803682D01*
X71214860Y-39023389D01*
X71214858Y-39023400D01*
X71195034Y-39249997D01*
X71195034Y-39250000D01*
X71214858Y-39476599D01*
X71214860Y-39476610D01*
X71273730Y-39696317D01*
X71273735Y-39696331D01*
X71369863Y-39902478D01*
X71420974Y-39975472D01*
X72100000Y-39296446D01*
X72100000Y-39302661D01*
X72127259Y-39404394D01*
X72179920Y-39495606D01*
X72254394Y-39570080D01*
X72345606Y-39622741D01*
X72447339Y-39650000D01*
X72453553Y-39650000D01*
X71774526Y-40329025D01*
X71847513Y-40380132D01*
X71847521Y-40380136D01*
X72053668Y-40476264D01*
X72053682Y-40476269D01*
X72273389Y-40535139D01*
X72273400Y-40535141D01*
X72499998Y-40554966D01*
X72500002Y-40554966D01*
X72726599Y-40535141D01*
X72726610Y-40535139D01*
X72946317Y-40476269D01*
X72946331Y-40476264D01*
X73152478Y-40380136D01*
X73225471Y-40329024D01*
X72546447Y-39650000D01*
X72552661Y-39650000D01*
X72654394Y-39622741D01*
X72745606Y-39570080D01*
X72820080Y-39495606D01*
X72872741Y-39404394D01*
X72900000Y-39302661D01*
X72900000Y-39296447D01*
X73579024Y-39975471D01*
X73630136Y-39902478D01*
X73726264Y-39696331D01*
X73726269Y-39696317D01*
X73785139Y-39476610D01*
X73785141Y-39476599D01*
X73804966Y-39250000D01*
X73804966Y-39249997D01*
X73785141Y-39023400D01*
X73785139Y-39023389D01*
X73726269Y-38803682D01*
X73726264Y-38803668D01*
X73630136Y-38597521D01*
X73630132Y-38597513D01*
X73579025Y-38524526D01*
X72900000Y-39203551D01*
X72900000Y-39197339D01*
X72872741Y-39095606D01*
X72820080Y-39004394D01*
X72745606Y-38929920D01*
X72654394Y-38877259D01*
X72552661Y-38850000D01*
X72546448Y-38850000D01*
X73230645Y-38165801D01*
X73240492Y-38116807D01*
X73289107Y-38066624D01*
X73344633Y-38051981D01*
X73344576Y-38050900D01*
X73344571Y-38050854D01*
X73344573Y-38050853D01*
X73344564Y-38050676D01*
X73347857Y-38050499D01*
X73347872Y-38050499D01*
X73407483Y-38044091D01*
X73542331Y-37993796D01*
X73657546Y-37907546D01*
X73743796Y-37792331D01*
X73794091Y-37657483D01*
X73800500Y-37597873D01*
X73800499Y-35902128D01*
X73794091Y-35842517D01*
X73790656Y-35833308D01*
X73743797Y-35707671D01*
X73743793Y-35707664D01*
X73657547Y-35592455D01*
X73657544Y-35592452D01*
X73542335Y-35506206D01*
X73542328Y-35506202D01*
X73407482Y-35455908D01*
X73407483Y-35455908D01*
X73347883Y-35449501D01*
X73347881Y-35449500D01*
X73347873Y-35449500D01*
X73347865Y-35449500D01*
X72241519Y-35449500D01*
X72174480Y-35429815D01*
X72153838Y-35413181D01*
X71156819Y-34416162D01*
X71123334Y-34354839D01*
X71120500Y-34328481D01*
X71120500Y-30142088D01*
X71140185Y-30075049D01*
X71171615Y-30041770D01*
X71187412Y-30030293D01*
X71309563Y-29941545D01*
X71461545Y-29789563D01*
X71587880Y-29615678D01*
X71587879Y-29615678D01*
X71589682Y-29613198D01*
X71645012Y-29570532D01*
X71714625Y-29564553D01*
X71776420Y-29597159D01*
X71790318Y-29613198D01*
X71886418Y-29745468D01*
X71918455Y-29789563D01*
X72070437Y-29941545D01*
X72244322Y-30067880D01*
X72338251Y-30115739D01*
X72435829Y-30165458D01*
X72435832Y-30165459D01*
X72612115Y-30222736D01*
X72640245Y-30231876D01*
X72852533Y-30265500D01*
X72852534Y-30265500D01*
X73067466Y-30265500D01*
X73067467Y-30265500D01*
X73279755Y-30231876D01*
X73279758Y-30231875D01*
X73279759Y-30231875D01*
X73484167Y-30165459D01*
X73484170Y-30165458D01*
X73530036Y-30142088D01*
X73675678Y-30067880D01*
X73849563Y-29941545D01*
X74001545Y-29789563D01*
X74127880Y-29615678D01*
X74127879Y-29615678D01*
X74129682Y-29613198D01*
X74185012Y-29570532D01*
X74254625Y-29564553D01*
X74316420Y-29597159D01*
X74330318Y-29613198D01*
X74426418Y-29745468D01*
X74458455Y-29789563D01*
X74610437Y-29941545D01*
X74784322Y-30067880D01*
X74878251Y-30115739D01*
X74975829Y-30165458D01*
X74975832Y-30165459D01*
X75152115Y-30222736D01*
X75180245Y-30231876D01*
X75392533Y-30265500D01*
X75392534Y-30265500D01*
X75607466Y-30265500D01*
X75607467Y-30265500D01*
X75819755Y-30231876D01*
X75819758Y-30231875D01*
X75819759Y-30231875D01*
X76024167Y-30165459D01*
X76024170Y-30165458D01*
X76070036Y-30142088D01*
X76215678Y-30067880D01*
X76389563Y-29941545D01*
X76541545Y-29789563D01*
X76667880Y-29615678D01*
X76765458Y-29424170D01*
X76765457Y-29424170D01*
X76767670Y-29419829D01*
X76769377Y-29420698D01*
X76808125Y-29372632D01*
X76874423Y-29350578D01*
X76878828Y-29350500D01*
X77670943Y-29350500D01*
X78103331Y-29350500D01*
X78103347Y-29350501D01*
G37*
G04 #@! TD.AperFunction*
M02*
